<?xml version="1.0" encoding="UTF-8"?>
<svg xmlns="http://www.w3.org/2000/svg" id="Laag_2" viewBox="0 0 64 64">
  <defs>
    <style>.cls-1{fill:none;}.cls-2{fill:#ed6a5a;}</style>
  </defs>
  <g id="Laag_1-2">
    <g>
      <rect class="cls-1" width="64" height="64"></rect>
      <path class="cls-2" d="M50.35,24.21c-6.02-2.63-15.51-5.43-26.51-3.66l-5.58-.82-3.59-7.3c-.28-.56-.95-.79-1.51-.51-.22,.11-.4,.29-.51,.51l-3.62,7.3L.97,20.9c-.62,.09-1.04,.66-.95,1.28,.04,.25,.15,.47,.33,.65l5.83,5.68-1.37,8.03c-.11,.61,.3,1.2,.92,1.31,.25,.04,.5,0,.72-.11l7.21-3.79,7.21,3.79c.16,.08,.34,.13,.53,.13,.62,0,1.14-.49,1.15-1.11,0-.07,0-.14-.02-.21l-.97-5.55c12.13,1.84,18.72,9.62,25.09,17.17,1.03,1.22,2.11,2.49,3.17,3.68,.42,.47,1.13,.51,1.6,.09,.47-.42,.51-1.13,.09-1.6-1.04-1.17-2.05-2.37-3.13-3.65-6.46-7.65-13.77-16.29-27.22-18.03l-.03-.15,1.6-1.56c10.11-.52,23.94,5.42,30.94,13.32,.42,.47,1.13,.51,1.6,.09,.47-.42,.51-1.13,.09-1.6-6.18-6.96-18.79-13.74-30.29-14.1l1.88-1.84c.12-.12,.22-.27,.27-.43,18.14-1.58,32.4,9.03,34.75,12.29,.21,.29,.55,.47,.91,.47,.62,0,1.13-.51,1.13-1.13,0-.24-.08-.47-.21-.66-1.38-1.91-6.11-5.93-13.43-9.14Z"></path>
    </g>
  </g>
</svg>
