<?xml version="1.0" encoding="UTF-8"?>
<svg xmlns="http://www.w3.org/2000/svg" id="Laag_2" viewBox="0 0 64 64">
  <defs>
    <style>.cls-1{fill:none;}.cls-2{fill:#eb5f3a;}</style>
  </defs>
  <g id="Laag_1-2">
    <g>
      <rect class="cls-1" width="64" height="64"></rect>
      <path class="cls-2" d="m60.37,30.01l-9.97-8.51c-1.12-.96-2.8-.83-3.76.29-.41.48-.64,1.1-.64,1.74v5.08l-8.32-7.11c-1.12-.96-2.8-.83-3.76.29-.41.48-.64,1.1-.64,1.74v4.95l-8.17-6.98c-1.12-.96-2.8-.83-3.76.29-.41.48-.64,1.1-.64,1.74v6.4h-3.39l-.53-18.07h.53c.62,0,1.13-.51,1.13-1.13s-.51-1.13-1.13-1.13h-.59l-.12-4.17c-.02-.61-.52-1.1-1.13-1.1H5.23c-.61,0-1.11.49-1.13,1.1l-.12,4.17h-.59c-.62,0-1.13.51-1.13,1.13s.51,1.13,1.13,1.13h.53l-.53,18.21C1.39,30.57,0,32.37,0,34.42v25.62C0,60.67.51,61.18,1.13,61.18h61.74c.62,0,1.13-.51,1.13-1.13v-25.62c0-2.14-1.52-3.99-3.63-4.41Zm-5.88,14.6v13.93h-8.66v-13.93h8.66Zm.94-6.4h-10.54c-.62,0-1.13-.51-1.13-1.13s.51-1.13,1.13-1.13h10.54c.62,0,1.13.51,1.13,1.13s-.51,1.13-1.13,1.13Zm-19.01-.38v6.78H7.06v-6.78h29.36Zm-31.06,13.18h32.75c.62,0,1.13.51,1.13,1.13s-.51,1.13-1.13,1.13H5.36c-.62,0-1.13-.51-1.13-1.13s.51-1.13,1.13-1.13Zm42.92-27.48c0-.23.18-.41.41-.41.1,0,.19.03.27.1l7.84,6.71h-8.53l.02-6.4Zm-12.74,0c0-.23.18-.41.41-.41.1,0,.19.03.27.1l7.86,6.71h-8.53v-6.4Zm-12.57,0c0-.23.18-.41.41-.41.1,0,.19.03.27.1l7.86,6.71h-8.53v-6.4ZM6.32,6.59h8.06l.08,3.01H6.24l.08-3.01Z"></path>
    </g>
  </g>
</svg>
