<?xml version="1.0" encoding="UTF-8"?>
<svg xmlns="http://www.w3.org/2000/svg" id="Laag_2" viewBox="0 0 64 64">
  <defs>
    <style>.cls-1{fill:#ed6a5a;}</style>
  </defs>
  <g id="Laag_1-2">
    <path class="cls-1" d="M62.18,53.39l-11.94-11.98c7.85-12.78,3.87-29.51-8.9-37.37C28.58-3.83,11.87,.16,4.02,12.94-3.82,25.72,.16,42.45,12.92,50.31c4.29,2.64,9.23,4.04,14.26,4.03h.07c5.03-.01,9.96-1.44,14.23-4.12l11.91,11.97c1.17,1.17,2.75,1.82,4.4,1.81h0c3.43,0,6.22-2.79,6.22-6.23,0-1.65-.66-3.23-1.82-4.4h0Zm-18.59-26.31c0,9.02-7.31,16.34-16.32,16.34s-16.32-7.32-16.32-16.34S18.26,10.72,27.27,10.72c0,0,0,0,0,0,9.01,0,16.31,7.32,16.32,16.34Zm16.59,33.1c-.63,.64-1.49,1-2.39,1h0c-.9,0-1.76-.36-2.39-1l-11.55-11.61c1.78-1.39,3.38-2.99,4.77-4.77l11.57,11.68c1.26,1.31,1.26,3.39,0,4.7Z"></path>
  </g>
</svg>
