<?xml version="1.0" encoding="UTF-8"?>
<svg xmlns="http://www.w3.org/2000/svg" id="Laag_2" viewBox="0 0 64 64">
  <defs>
    <style>.cls-1{fill:none;}.cls-2{fill:#ed6a5a;}</style>
  </defs>
  <g id="Laag_1-2">
    <g>
      <rect class="cls-1" width="64" height="64"></rect>
      <path class="cls-2" d="M46.76,39.4h-13.62c-.04-.88-.14-1.75-.31-2.61,.24,.04,.48,.06,.72,.06,.83-.02,1.66-.18,2.43-.47,.96-.35,1.86-.83,2.7-1.4,1.29-.84,2.39-1.95,3.22-3.25,1.14-1.89,.67-3.14,.3-3.7-1.23-1.82-4.5-1.51-7.77,.68-1.19,.78-2.22,1.78-3.03,2.94-.71-2.12-1.3-4.19-1.3-6.62,0-.25,0-.5,.04-.76,.19-1.77,1.01-3.52,1.98-5.33,.57,.52,1.28,.88,2.03,1.04,.74,.18,1.51,.27,2.27,.27,.77,0,1.54-.08,2.3-.22,1.52-.25,2.97-.83,4.26-1.68,1.81-1.29,1.89-2.6,1.75-3.27s-.65-1.89-2.8-2.43c-1.51-.34-3.07-.36-4.58-.05-.78,.14-1.54,.35-2.27,.64,.67-1.52,1.04-3.15,1.08-4.81,.08-.42,.1-.86,.06-1.29-.14-1.25-.55-2.46-1.2-3.55-1.66-2.84-4.03-4.22-5.68-3.28s-1.62,3.69,0,6.53c.61,1.11,1.46,2.07,2.47,2.83,.53,.4,1.14,.65,1.8,.74-.38,1.71-1.24,3.37-2.18,5.08l-.53,.94c-.89,1.5-1.66,3.08-2.31,4.7-.78-1.03-1.73-1.93-2.81-2.65-3.25-2.19-6.52-2.48-7.75-.67-.38,.56-.85,1.79,.3,3.7,.38,.62,.83,1.19,1.35,1.71,.58,.57,1.21,1.09,1.89,1.54,1.83,1.24,3.66,1.89,5.14,1.89,.41,0,.82-.05,1.21-.17,.19,2.39,.86,4.47,1.51,6.48,.68,2.12,1.32,4.14,1.44,6.47h-13.63c-.63,0-1.14,.51-1.14,1.14v3.78c0,.63,.51,1.14,1.14,1.14h1.24l1.04,10.22c.48,4.74,4.47,8.34,9.23,8.33h6.49c4.76,.01,8.75-3.59,9.23-8.33l1.04-10.22h1.24c.63,0,1.14-.51,1.14-1.14v-3.78c0-.63-.5-1.14-1.13-1.14,0,0,0,0,0,0Zm-1.14,3.78H18.38v-1.51h27.25v1.51Z"></path>
    </g>
  </g>
</svg>
