<?xml version="1.0" encoding="UTF-8"?>
<svg xmlns="http://www.w3.org/2000/svg" id="Laag_2" viewBox="0 0 64 64">
  <defs>
    <style>.cls-1{fill:#ed6a5a;}</style>
  </defs>
  <g id="Laag_1-2">
    <path class="cls-1" d="M51.14,26.59l-6.96,3.53c-.86-5.49-5.27-9.73-10.79-10.36l3.39-6.69c.89-1.74,.83-3.82-.15-5.5-.93-1.64-2.64-2.69-4.52-2.79-.21-.01-.41-.01-.62,0-1.88,.1-3.58,1.16-4.52,2.79-.99,1.69-1.04,3.76-.15,5.5l3.43,6.74c-5.58,.82-9.89,5.31-10.48,10.92l-6.49-3.31c-1.74-.89-3.82-.83-5.5,.15-1.64,.93-2.69,2.64-2.79,4.52v.62c.1,1.88,1.16,3.58,2.79,4.52,1.69,.99,3.76,1.04,5.5,.15l6.58-3.35c.95,5.55,5.54,9.75,11.15,10.21l-3.39,6.65c-.89,1.74-.83,3.82,.15,5.5,.93,1.64,2.64,2.69,4.52,2.79h.62c1.88-.1,3.58-1.16,4.52-2.79,.99-1.69,1.04-3.76,.15-5.5l-3.46-6.8c5.47-.98,9.62-5.51,10.11-11.05l6.87,3.5c1.74,.89,3.82,.83,5.5-.15,1.64-.93,2.69-2.64,2.79-4.52v-.62c-.1-1.88-1.16-3.58-2.79-4.52-1.68-.97-3.74-1.03-5.47-.15Zm-18.62,15.46h-.52c-5.39,0-9.82-4.25-10.05-9.64v-.41c0-5.47,4.38-9.94,9.85-10.06h.2c5.4,0,9.83,4.27,10.05,9.66v.4c0,5.35-4.19,9.76-9.54,10.04Zm23-1.3c.42,.46,.39,1.17-.06,1.6-.46,.42-1.17,.39-1.6-.06-.42-.46-.39-1.17,.06-1.6,0,0,0,0,0,0,.46-.42,1.17-.39,1.59,.07Zm-2.25-18.91c0-.62,.51-1.13,1.13-1.13s1.13,.51,1.13,1.13-.51,1.13-1.13,1.13-1.13-.51-1.13-1.13h0ZM32,0C14.33,0,0,14.33,0,32s14.33,32,32,32,32-14.33,32-32C63.98,14.34,49.66,.02,32,0Zm0,61.74c-16.43,0-29.74-13.32-29.74-29.74S15.57,2.26,32,2.26s29.74,13.32,29.74,29.74c-.02,16.42-13.32,29.72-29.74,29.74Zm20.4-14.83c0,2.46-1.99,4.45-4.44,4.45-2.46,0-4.45-1.99-4.45-4.44,0-2.46,1.99-4.45,4.44-4.45,0,0,0,0,0,0,2.45,0,4.44,1.99,4.44,4.44Zm-9.72-30.66c0-2.46,2-4.44,4.45-4.44,2.46,0,4.44,2,4.44,4.45,0,2.45-2,4.44-4.45,4.44-2.46,0-4.44-2-4.44-4.45Zm3.08,22.21c-.42-.46-.39-1.17,.07-1.6,.46-.42,1.17-.39,1.6,.07,.42,.46,.39,1.17-.07,1.6-.46,.42-1.18,.38-1.6-.08h0s0,0,0,0Zm1.51-13.23c0,.62-.51,1.13-1.13,1.13s-1.13-.51-1.13-1.13,.51-1.13,1.13-1.13c.61,.01,1.11,.51,1.11,1.12h.02Zm-3.76,29c0,.62-.51,1.13-1.13,1.13s-1.13-.51-1.13-1.13,.51-1.13,1.13-1.13c.61,.01,1.11,.51,1.11,1.12h.02Zm-2.63-43.95c-.42-.46-.39-1.17,.07-1.6,.46-.42,1.17-.39,1.6,.07,.42,.46,.39,1.17-.07,1.6-.46,.42-1.17,.39-1.6-.07,0,0,0,0,0,0Zm-.78,35.67c0,.62-.51,1.13-1.13,1.13s-1.13-.51-1.13-1.13,.51-1.13,1.13-1.13,1.13,.51,1.13,1.13h0Zm-2.97-29.17c.46-.42,1.17-.39,1.6,.07,.42,.46,.39,1.17-.07,1.6-.46,.42-1.17,.39-1.6-.07-.42-.46-.39-1.17,.07-1.6,0,0,0,0,0,0Zm-9.86,30.49c-.46,.42-1.17,.39-1.6-.07-.42-.46-.39-1.17,.07-1.6,.46-.42,1.17-.39,1.6,.07,.41,.46,.38,1.16-.07,1.58v.02Zm-2.97-29.18c0-.62,.51-1.13,1.13-1.13s1.13,.51,1.13,1.13-.51,1.13-1.13,1.13-1.13-.51-1.13-1.13Zm-.78,35.67c.42,.46,.39,1.17-.07,1.6-.46,.42-1.17,.39-1.6-.07-.42-.46-.39-1.17,.07-1.6,.46-.42,1.17-.39,1.6,.07,0,0,0,0,0,0h0Zm-2.61-43.95c0-.62,.51-1.13,1.13-1.13s1.13,.51,1.13,1.13-.51,1.13-1.13,1.13-1.13-.51-1.13-1.13Zm.84,37.96c0,2.46-2,4.44-4.45,4.44-2.46,0-4.44-2-4.44-4.45,0-2.45,2-4.44,4.45-4.44,2.46,0,4.44,2,4.44,4.45ZM12.02,17.08c0-2.46,1.99-4.45,4.44-4.45,2.46,0,4.45,1.99,4.45,4.44,0,2.46-1.99,4.45-4.44,4.45,0,0,0,0,0,0-2.45,0-4.44-1.99-4.44-4.44Zm5.11,21.69c0-.62,.51-1.13,1.13-1.13s1.13,.51,1.13,1.13-.51,1.13-1.13,1.13-1.13-.51-1.13-1.13Zm1.51-13.23c.42,.46,.39,1.17-.07,1.6-.46,.42-1.17,.39-1.6-.07-.42-.46-.39-1.17,.07-1.6,.46-.41,1.16-.38,1.58,.07h.02Zm-7.53,16.62c0,.62-.51,1.13-1.13,1.13s-1.13-.51-1.13-1.13,.51-1.13,1.13-1.13,1.13,.51,1.13,1.13Zm-2.26-18.91c-.42-.46-.39-1.17,.06-1.6s1.17-.39,1.6,.06c.42,.46,.39,1.17-.06,1.6,0,0,0,0,0,0-.46,.41-1.16,.38-1.58-.07h-.01Z"></path>
  </g>
</svg>
