<?xml version="1.0" encoding="UTF-8"?>
<svg xmlns="http://www.w3.org/2000/svg" width="64" height="64" viewBox="0 0 64 64" fill="none">
  <path d="M38.7735 60.342H35.891L35.042 61.848C34.3795 63.023 33.135 63.75 31.7855 63.75H31.784C30.435 63.75 29.1905 63.023 28.5275 61.848L27.6785 60.342H24.796V58.312H38.774V60.342H38.7735Z" fill="#8F7CFF"></path>
  <path d="M38.7735 56.825H24.7955V54.6855H38.7735V56.825ZM38.7735 50.9695H24.7955V53.109H38.7735V50.9695ZM58.067 34.6815L51.9625 33.046L52.4225 31.329L58.527 32.9645L58.067 34.6815ZM5.93302 34.6815L5.47302 32.9645L11.5775 31.329L12.0375 33.046L5.93302 34.6815ZM52.4225 22.225L51.9625 20.508L58.067 18.872L58.527 20.589L52.4225 22.225ZM11.5775 22.225L5.47302 20.589L5.93302 18.872L12.0375 20.508L11.5775 22.225ZM47.41 12.6235L46.153 11.3665L50.622 6.8975L51.879 8.1545L47.41 12.6235ZM16.59 12.6235L12.1215 8.1545L13.3785 6.8975L17.847 11.3665L16.59 12.6235ZM38.269 6.8145L36.552 6.3545L38.188 0.25L39.905 0.71L38.269 6.8145ZM25.731 6.8145L24.0955 0.71L25.8125 0.25L27.4485 6.3545L25.731 6.8145Z" fill="#D4CFF4"></path>
  <path d="M29.901 32.0705H33.6685V49.5375H29.901V32.0705ZM31.7845 9.69349C22.542 9.42849 14.969 17.102 14.969 26.6055C14.969 31.496 16.977 35.896 20.1845 38.982C23.003 41.6935 24.7955 45.5555 24.7955 49.5375H28.7155V32.0705H25.875C23.655 32.0705 21.8495 30.2645 21.8495 28.045C21.8495 25.8255 23.6555 24.0195 25.875 24.0195C28.0945 24.0195 29.901 25.8255 29.901 28.045V30.8855H33.6685V28.045C33.6685 25.825 35.4745 24.0195 37.6945 24.0195C39.9145 24.0195 41.72 25.8255 41.72 28.045C41.72 30.2645 39.914 32.0705 37.6945 32.0705H34.8535V49.5375H38.7735C38.7735 45.5555 40.5655 41.6935 43.3845 38.982C46.592 35.896 48.6 31.496 48.6 26.6055C48.6 17.1015 41.027 9.42799 31.7845 9.69349ZM25.875 25.204C24.3085 25.204 23.0345 26.4785 23.0345 28.0445C23.0345 29.611 24.309 30.885 25.875 30.885H28.716V28.0445C28.716 26.478 27.4415 25.204 25.875 25.204ZM37.6945 30.885H34.8535V28.0445C34.8535 26.478 36.128 25.204 37.6945 25.204C39.261 25.204 40.535 26.4785 40.535 28.0445C40.535 29.611 39.2605 30.885 37.6945 30.885Z" fill="#F8D458"></path>
</svg>
