<?xml version="1.0" encoding="UTF-8"?>
<svg xmlns="http://www.w3.org/2000/svg" id="Laag_2" viewBox="0 0 64 64">
  <defs>
    <style>.cls-1{fill:#eb5f3a;}</style>
  </defs>
  <g id="Laag_1-2">
    <g>
      <path class="cls-1" d="m48.52,17.11c-1.77-1.71-4.63-1.71-6.4,0l-8.54,8.25L1.22,56.64c-1.7,1.77-1.6,4.54.23,6.18,1.74,1.57,4.43,1.57,6.17,0l32.37-31.28,8.54-8.23c1.77-1.71,1.77-4.48,0-6.18v-.03Zm-2.13,4.13l-7.55,7.22-2.13-2.06,7.47-7.22c.59-.57,1.54-.58,2.14,0,.59.57.6,1.49,0,2.06h.06Z"></path>
      <path class="cls-1" d="m30.91,7.28l1.99,1.04c.38.19.63.55.68.96l.24,2.17c.08.69.72,1.19,1.43,1.11.29-.03.55-.15.76-.34l1.64-1.46c.31-.29.74-.41,1.16-.32l2.22.45c.7.14,1.39-.3,1.53-.98.06-.27.02-.54-.1-.79l-.98-1.97c-.2-.37-.2-.8,0-1.17l1.13-1.9c.36-.6.14-1.37-.48-1.71-.25-.14-.53-.19-.82-.15l-2.2.19c-.42.06-.84-.09-1.13-.39l-1.51-1.62c-.48-.51-1.3-.55-1.83-.08-.21.18-.35.43-.4.69l-.41,2.16c-.08.4-.35.75-.74.92l-2.07.9c-.67.26-.99.99-.72,1.63.11.28.33.51.6.64Z"></path>
      <path class="cls-1" d="m52.49,9.57c.2.37.2.81,0,1.18l-1,2.01c-.32.63-.06,1.39.59,1.7.29.14.61.17.92.09l2.26-.47c.42-.09.86.03,1.18.32l1.68,1.62c.52.49,1.35.47,1.86-.03.21-.21.33-.47.36-.76l.24-2.22c.04-.42.3-.79.68-.99l2.01-1.14c.65-.31.92-1.07.6-1.7-.13-.25-.34-.45-.6-.58l-2.11-.9c-.4-.17-.68-.52-.75-.93l-.42-2.19c-.12-.69-.8-1.16-1.51-1.04-.3.05-.57.19-.76.41l-1.51,1.66c-.29.31-.72.46-1.15.41l-2.34-.29c-.72-.1-1.38.39-1.48,1.08-.04.28.02.57.17.81l1.1,1.93Z"></path>
      <path class="cls-1" d="m61.56,28.15c-.33-.25-.51-.63-.48-1.04l.14-2.14c.05-.68-.48-1.26-1.18-1.3-.28-.02-.56.06-.8.21l-1.84,1.2c-.35.22-.79.27-1.18.12l-2.01-.79c-.65-.25-1.39.06-1.65.69-.1.25-.12.52-.05.77l.6,2.06c.11.39.02.8-.24,1.11l-1.42,1.65c-.44.52-.36,1.3.18,1.72.21.17.48.26.75.27l2.22.07c.42.01.8.23,1.03.57l1.19,1.81c.37.57,1.16.74,1.75.38.24-.14.42-.36.52-.62l.75-2.01c.15-.38.47-.66.88-.76l2.14-.54c.66-.22,1.02-.91.8-1.55-.08-.22-.22-.42-.41-.56l-1.71-1.31Z"></path>
    </g>
  </g>
</svg>
