<?xml version="1.0" encoding="UTF-8"?>
<svg xmlns="http://www.w3.org/2000/svg" id="Laag_2" viewBox="0 0 64 64">
  <defs>
    <style>.cls-1{fill:none;}.cls-2{fill:#eb5f3a;}</style>
  </defs>
  <g id="Laag_1-2">
    <g>
      <rect class="cls-1" width="64" height="64"></rect>
      <path class="cls-2" d="m32,0C14.33,0,0,14.33,0,32s14.33,32,32,32,32-14.33,32-32C63.98,14.34,49.66.02,32,0Zm16.38,17.73l.96-1.68c.43-.72,1.36-.97,2.1-.57h0c.76.41,1.05,1.35.65,2.11l-.97,1.68c-.44.75-1.39,1-2.14.57h0c-.74-.43-1-1.36-.6-2.11Zm-2,6.63c.36-1.27,1.59-2.1,2.91-1.95l1.35.19c1.13.11,2.21-.49,2.71-1.52.76-1.66,2.13-2.95,3.83-3.61l.38-.15c2.1,3.66,3.38,7.73,3.76,11.93l-6.39-2.71c-.99-.39-2.12-.17-2.88.57l-.18.18c-.72.69-1.76.93-2.71.62l-1.18-.42c-1.23-.5-1.92-1.83-1.61-3.13Zm-6.57-9.48c-.64,1.05-1.82,1.65-3.05,1.53-.61-.06-1.22.05-1.77.32l-6.7,3.36c-1.19.6-2.21,1.5-2.94,2.61l-1.1,1.65c-.46.59-1.31.69-1.9.22-.39-.31-.58-.8-.49-1.29l.14-.54c.14-.57-.2-1.14-.77-1.28-.45-.11-.91.08-1.16.47l-.72,1.2c-.65,1.08-.43,2.48.53,3.3l11.98,10.42c1.8,1.56,2.27,4.17,1.14,6.27-.7,1.3-2.1,2.06-3.57,1.94-.6-.05-1.18.2-1.56.66l-5.81,7.19c-.63.78-1.77.91-2.55.28-.53-.42-.78-1.11-.64-1.77l2.04-9.33c.25-1.15-.06-2.35-.84-3.24-1.52-1.71-1.82-4.19-.76-6.21l.27-.51c.48-.85.2-1.93-.64-2.44h0c-4.85-2.82-7.84-8-7.85-13.6v-4.85c3.27-3.28,7.27-5.75,11.67-7.2,1.25,1.96,3.34,3.21,5.66,3.38l2.52.19c.53.03,1.05.14,1.54.34l5.79,2.27c1.64.66,2.43,2.52,1.78,4.15-.07.17-.15.33-.25.49Zm7.4,42.4c-1.47-1.17-2.11-3.11-1.61-4.93l2.41-8.83c.36-1.32-.28-2.71-1.52-3.29-2.86-1.33-4.1-4.73-2.78-7.59.02-.05.05-.1.07-.14,1.3-2.59,4.46-3.63,7.05-2.33.05.02.09.05.14.07l5.24,2.84,5.16,1.35c-.78,9.44-6.05,17.93-14.16,22.82h0Z"></path>
    </g>
  </g>
</svg>
