<?xml version="1.0" encoding="UTF-8"?>
<svg xmlns="http://www.w3.org/2000/svg" id="Laag_2" viewBox="0 0 64 64">
  <defs>
    <style>.cls-1{fill:#ed6a5a;}</style>
  </defs>
  <g id="Capa_1">
    <path class="cls-1" d="M63.81,25.02c-.07-.17-.17-.32-.3-.45l-8.88-8.79c-.81-.8-2.12-.8-2.93,0-.41,.4-.63,.96-.61,1.53h0c.13,2.25-1.6,4.18-3.87,4.31-.93,.05-1.85-.2-2.61-.73-1.9-1.26-2.41-3.8-1.14-5.68,.8-1.2,2.18-1.89,3.63-1.82,.84,.04,1.61-.43,1.94-1.19,.36-.78,.2-1.7-.41-2.31L39.13,.37C38.88,.14,38.56,0,38.22,0h0c-.34,0-.68,.13-.92,.37l-5.61,5.56c-.54-3.64-3.95-6.16-7.62-5.63-.98,.14-1.92,.5-2.74,1.04-3.08,2.05-3.9,6.19-1.83,9.25,1.07,1.58,2.77,2.63,4.67,2.89l-5.62,5.69-6.41,6.42c-.61,.59-.8,1.48-.48,2.26,.34,.76,1.13,1.24,1.97,1.18,1.17-.06,2.31,.37,3.15,1.18,1.63,1.59,1.65,4.19,.05,5.81-1.61,1.62-4.23,1.64-5.86,.05-.84-.82-1.29-1.96-1.23-3.14,.03-.87-.48-1.67-1.3-2-.78-.34-1.69-.16-2.29,.44L.8,36.69c-1.06,1.07-1.06,2.78,0,3.85l8.11,8.04c-3.69,.51-6.26,3.88-5.74,7.54,.52,3.65,3.92,6.2,7.61,5.69,2.98-.41,5.32-2.73,5.74-5.69l7.14,7.07c.52,.52,1.23,.81,1.97,.81,.74,0,1.44-.29,1.96-.81l17.75-17.5v-.06h.08l17.78-17.67c.78-.77,1.02-1.92,.62-2.94Zm-2.46,1.13l-16.99,16.79-7.77-7.7c3.69-.51,6.26-3.88,5.74-7.54-.52-3.65-3.92-6.2-7.61-5.69-2.98,.41-5.32,2.73-5.74,5.69l-7.77-7.7,5.49-5.57c.63-.58,.82-1.49,.49-2.27-.33-.76-1.11-1.24-1.94-1.21-1.16,.07-2.3-.36-3.12-1.18-1.63-1.6-1.64-4.2-.02-5.81,1.61-1.61,4.24-1.62,5.86-.02,.83,.82,1.27,1.94,1.22,3.1-.05,1.13,.84,2.09,1.98,2.14,.58,.02,1.14-.19,1.56-.6l5.48-5.47,7.77,7.77c-3.69,.51-6.26,3.88-5.74,7.54,.52,3.65,3.92,6.2,7.61,5.69,2.98-.41,5.32-2.73,5.74-5.69l7.77,7.7v.04Z"></path>
  </g>
</svg>
