<?xml version="1.0" encoding="UTF-8"?>
<svg xmlns="http://www.w3.org/2000/svg" id="Laag_2" viewBox="0 0 64 64">
  <defs>
    <style>.cls-1{fill:none;}.cls-2{fill:#eb5f3a;}</style>
  </defs>
  <g id="Laag_1-2">
    <g>
      <rect class="cls-1" y="0" width="64" height="64"></rect>
      <g>
        <path class="cls-2" d="m15.64,22.53c3.78,0,6.85-3.07,6.85-6.85s-3.07-6.85-6.85-6.85-6.85,3.07-6.85,6.85,3.07,6.85,6.85,6.85Zm0-10.97c2.27,0,4.11,1.84,4.11,4.11s-1.84,4.11-4.11,4.11-4.11-1.84-4.11-4.11c-.03-2.27,1.79-4.14,4.06-4.17.02,0,.04,0,.06,0v.05Z"></path>
        <path class="cls-2" d="m48.37,22.53c3.78,0,6.85-3.07,6.85-6.85s-3.07-6.85-6.85-6.85-6.85,3.07-6.85,6.85,3.07,6.85,6.85,6.85Zm0-10.97c2.27,0,4.11,1.84,4.11,4.11s-1.84,4.11-4.11,4.11-4.11-1.84-4.11-4.11c-.03-2.27,1.79-4.14,4.06-4.17.02,0,.04,0,.06,0v.05Z"></path>
        <path class="cls-2" d="m56.76,27.98c-3.27-4.05-8.97-5.17-13.53-2.66-.27-.42-.55-.82-.86-1.21-4.62-5.68-12.97-6.53-18.65-1.91-.7.57-1.34,1.21-1.91,1.91-.31.39-.6.79-.86,1.21-5.16-2.95-11.73-1.17-14.68,3.99-1.33,2.33-1.75,5.08-1.16,7.7l3.87,17.59c.69,3.72,4.27,6.17,8,5.48,2.78-.52,4.96-2.7,5.48-5.48l.42-1.99,1.04,4.82c.98,4.5,5.43,7.36,9.93,6.38,3.19-.7,5.68-3.19,6.38-6.38l1.04-4.82.42,1.99c.69,3.72,4.27,6.17,8,5.48,2.78-.52,4.96-2.7,5.48-5.48l3.76-17.59c.69-3.18-.1-6.5-2.15-9.03Zm-35.38,18.2l-1.7,7.84c-.37,2.24-2.49,3.76-4.73,3.39-1.74-.29-3.1-1.65-3.39-3.39l-3.8-17.59c-.94-4.33,1.8-8.6,6.12-9.54,1.95-.42,3.98-.11,5.71.88-.9,2.38-1.09,4.97-.55,7.46l2.36,10.97h-.03Zm34.84-9.75l-3.8,17.57c-.37,2.24-2.49,3.76-4.73,3.39-1.74-.29-3.1-1.65-3.39-3.39l-1.7-7.84h0l2.36-10.97c.54-2.49.35-5.08-.55-7.46,3.84-2.21,8.74-.88,10.95,2.96.99,1.73,1.31,3.76.88,5.71l-.03.03Z"></path>
        <circle class="cls-2" cx="32.01" cy="8.32" r="8.32"></circle>
      </g>
    </g>
  </g>
</svg>
