<?xml version="1.0" encoding="UTF-8"?>
<svg xmlns="http://www.w3.org/2000/svg" id="Laag_2" viewBox="0 0 64 64">
  <defs>
    <style>.cls-1{fill:none;}.cls-2{fill:#eb5f3a;}</style>
  </defs>
  <g id="Laag_1-2">
    <g>
      <rect class="cls-1" x="0" width="64" height="64"></rect>
      <path class="cls-2" d="m63.65,9.72c-.36-.42-.92-.61-1.46-.48L2.29,23.15h0c-1.62.4-2.6,2.04-2.2,3.66.19.75.66,1.41,1.32,1.82l12.8,8.28,1.11,7.7c.22,1.69,1.34,3.12,2.92,3.76.26.1.52.18.79.23h.2c.23.02.46.02.69,0h.13c.24.02.49.02.73,0h.15l.55-.15.22-.07.48-.22.2-.1c.22-.12.43-.27.63-.42l3.53-2.84,14.68,9.39c1.8,1.15,4.19.62,5.34-1.17.13-.2.23-.4.32-.62L63.89,11.22c.21-.5.12-1.08-.23-1.5Zm-43,28.88c-.67.45-.85,1.36-.4,2.02.11.16.24.29.4.4l3.27,2.08-2.76,2.22c-.82.62-1.99.46-2.62-.36-.17-.23-.29-.49-.34-.77l-1.3-8.88,35.17-18.95-31.42,22.24Z"></path>
    </g>
  </g>
</svg>
