<?xml version="1.0" encoding="UTF-8"?>
<svg xmlns="http://www.w3.org/2000/svg" id="Laag_2" viewBox="0 0 64 64">
  <defs>
    <style>.cls-1{fill:none;}.cls-2{fill:#eb5f3a;}</style>
  </defs>
  <g id="Laag_1-2">
    <g>
      <rect class="cls-1" width="64" height="64"></rect>
      <path class="cls-2" d="m60.33,33.18l-14.8-14.8.84-.84c2.95,1.79,6.79.86,8.58-2.09,1.79-2.95.86-6.79-2.09-8.58-2.95-1.79-6.79-.86-8.58,2.09-1.21,2-1.21,4.5,0,6.5l-.84.84L28.63,1.49C27.64.46,26.24-.08,24.81,0c-1.45.11-2.78.85-3.64,2.03-6.68,9.12-7.14,21.37-1.17,30.97-2.87,2.38-3.18,6.73-.8,9.6.26.32.56.61.8.97L2.67,60.88c-.58.58-.57,1.52,0,2.09.58.58,1.52.57,2.09,0h0l17.87-17.87v17.42c0,.82.66,1.48,1.48,1.48s1.48-.66,1.48-1.48v-17.44l17.88,17.88c.62.53,1.56.46,2.09-.16.47-.55.47-1.37,0-1.93l-17.29-17.3c.48-.37.91-.8,1.27-1.29,9.5,5.45,21.32,4.81,30.17-1.64,1.17-.86,1.91-2.18,2.03-3.63.11-1.42-.41-2.83-1.42-3.83Zm-13.12-23.36c1.28-1.29,3.36-1.29,4.65-.01s1.29,3.36.01,4.65c-1.28,1.29-3.36,1.29-4.65.01,0,0,0,0-.01-.01-1.28-1.28-1.28-3.35,0-4.63,0,0,0,0,0,0Zm-23.09,32.24c-2.13,0-3.86-1.73-3.86-3.86,0-2.13,1.73-3.86,3.86-3.86s3.86,1.73,3.86,3.86c0,2.13-1.73,3.86-3.86,3.86Z"></path>
    </g>
  </g>
</svg>
