<?xml version="1.0" encoding="UTF-8"?>
<svg preserveAspectRatio="xMidYMid slice" width="68px" height="68px" xmlns="http://www.w3.org/2000/svg" id="Laag_2" viewBox="0 0 64 64">
  <defs>
    <style>.cls-1{fill:none;}.cls-2{fill:#eb5f3a;}</style>
  </defs>
  <g id="Laag_1-2">
    <g>
      <rect class="cls-1" width="64" height="64"></rect>
      <path class="cls-2" d="m62.14,10.87c-.69-.87-1.95-1.02-2.82-.33-.06.05-.12.1-.18.16l-3.95,3.94-3.95-3.95c-.78-.79-2.05-.79-2.84,0-.06.06-.11.12-.16.18-1.21,1.54-1.86,3.45-1.86,5.41,0,4.27,3.05,7.92,7.25,8.67-.67,2.39-2.41,4.34-4.7,5.28-1.9-2.32-4.68-3.76-7.68-3.98v-2.51c1.8-.64,2.74-2.61,2.11-4.41-.64-1.8-2.61-2.74-4.41-2.11s-2.74,2.61-2.11,4.41c.35.98,1.12,1.76,2.11,2.11v2.51h-13.83v-2.51c1.8-.64,2.74-2.61,2.11-4.41-.64-1.8-2.61-2.74-4.41-2.11s-2.74,2.61-2.11,4.41c.35.98,1.12,1.76,2.11,2.11v2.51c-2.99.21-5.77,1.63-7.68,3.94-2.29-.93-4.02-2.86-4.7-5.23,4.79-.86,7.97-5.44,7.11-10.23-.25-1.41-.85-2.73-1.73-3.86-.35-.45-.87-.72-1.44-.76-.58-.03-1.14.18-1.54.59l-3.97,3.95-3.95-3.95c-.78-.79-2.05-.79-2.84,0-.06.06-.11.12-.16.18-3.02,3.81-2.38,9.35,1.43,12.37,1.3,1.03,2.87,1.67,4.53,1.85h.25c.71,3.15,2.84,5.79,5.76,7.15-.69,1.38-1.09,2.89-1.15,4.43h-6.06c-.64,0-1.15.52-1.15,1.15s.52,1.15,1.15,1.15h6.06c.18,1.12.53,2.2,1.04,3.2l-5.31,2.64c-.56.3-.77,1-.47,1.56.29.54.94.76,1.5.5l5.56-2.8c.76.93,1.67,1.74,2.69,2.37l-2.89,5.76c-.27.58-.01,1.26.57,1.53.55.25,1.21.03,1.5-.5l2.91-5.76c1.21.44,2.48.67,3.77.67h16.91c1.28,0,2.55-.23,3.75-.68l2.91,5.76c.27.58.95.83,1.53.57.58-.27.83-.95.57-1.53,0-.02-.02-.04-.03-.06l-2.89-5.76c1.02-.64,1.93-1.44,2.69-2.37l5.58,2.79c.56.3,1.26.09,1.56-.47.3-.56.09-1.26-.47-1.56-.02-.01-.04-.02-.06-.03l-5.36-2.67c.51-1.01.86-2.09,1.04-3.2h6.11c.64,0,1.15-.52,1.15-1.15s-.52-1.15-1.15-1.15h-5.98c-.07-1.54-.46-3.05-1.15-4.43,2.93-1.36,5.06-4,5.76-7.15h.23c4.83-.58,8.28-4.96,7.7-9.79-.19-1.59-.81-3.1-1.8-4.37Zm-22.04,8.45c.64,0,1.15.52,1.15,1.15s-.52,1.15-1.15,1.15-1.15-.52-1.15-1.15.52-1.15,1.15-1.15Zm-16.14,0c.64,0,1.15.52,1.15,1.15s-.52,1.15-1.15,1.15-1.15-.52-1.15-1.15.52-1.15,1.15-1.15Z"></path>
    </g>
  </g>
</svg>
