<?xml version="1.0" encoding="UTF-8"?>
<svg preserveAspectRatio="xMidYMid slice" width="68px" height="68px" xmlns="http://www.w3.org/2000/svg" id="Laag_2" viewBox="0 0 64 64">
  <defs>
    <style>.cls-1{fill:none;}.cls-2{fill:#eb5f3a;}</style>
  </defs>
  <g id="Capa_1">
    <g>
      <rect class="cls-1" width="64" height="64"></rect>
      <path class="cls-2" d="m63.84,31.97c-.32-.52-1-.68-1.51-.37,0,0,0,0,0,0l-9.8-15.92c.53-.31.7-.98.39-1.51,0,0,0,0,0-.01-.31-.52-.99-.69-1.51-.38-.01,0-.02.01-.03.02l-8.38,5.14c-.51.33-.66,1.01-.33,1.52l1.71,2.77c-1.24.09-2.48-.15-3.58-.72-2.12-.99-4.49-1.34-6.81-1-5.16-2.76-8.69-1.1-11.28.19-1.07.69-2.3,1.07-3.57,1.1l1.5-2.89c.29-.53.1-1.2-.44-1.5,0,0,0,0,0,0l-8.62-4.65c-.54-.29-1.2-.09-1.49.44,0,0,0,0,0,0-.28.54-.08,1.2.45,1.49l7.65,4.13-1.87,3.45-6.19,11.49h0l-.83,1.51-7.64-4.12c-.53-.29-1.2-.1-1.5.44,0,0,0,0,0,0-.29.53-.1,1.2.44,1.5,0,0,0,0,0,0l8.62,4.65c.16.09.34.13.53.13.41,0,.78-.23.97-.58l.82-1.52,2.2,1.21-.4.73c-.9,1.65-.3,3.72,1.35,4.62.03.02.06.03.09.05h0c.49.27,1.05.41,1.61.41.29,0,.59-.04.87-.12.27.82.84,1.51,1.6,1.92.5.26,1.05.4,1.61.41.29,0,.59-.04.87-.12.28.81.85,1.49,1.61,1.9.76.42,1.65.52,2.48.29.27.82.84,1.5,1.6,1.91h0c.49.26,1.04.4,1.6.4,1.26,0,2.42-.69,3.02-1.8.09-.17.17-.35.22-.53l.32.19c1.53.79,3.4.2,4.21-1.31.15-.28.25-.58.31-.89l1.25.71c.73.39,1.58.48,2.37.24.79-.24,1.45-.78,1.84-1.5.17-.32.28-.67.33-1.03.2.04.4.07.61.08,1.15,0,2.2-.63,2.74-1.64.15-.28.25-.59.31-.9.28.08.56.13.85.13,1.15,0,2.2-.63,2.74-1.64.37-.7.47-1.51.26-2.27l2.65-1.52.97,1.59c.16.25.4.42.68.48.08.01.17.01.25,0,.2,0,.4-.06.57-.17l8.37-5.11c.51-.32.67-.98.36-1.5Zm-16.04,7.45c-.23.44-.77.6-1.21.37l-1.96-1.1h0l-1.32-.74-9.75-5.48h-.13l-1.64-.91c-.53-.3-1.21-.12-1.52.41s-.12,1.21.41,1.52l11.43,6.38,1.41.79c.21.11.36.3.43.53.07.23.04.48-.08.68-.23.44-.77.6-1.21.37l-11.02-6.19h-.14l-1.62-.91c-.53-.3-1.21-.12-1.52.41s-.12,1.21.41,1.52l11.02,6.21c.44.24.61.78.37,1.22,0,0,0,0,0,.01-.11.21-.31.37-.54.43-.22.08-.46.08-.67,0l-9.18-5.39c-.07-.04-.15-.06-.23-.08l-1.53-.87c-.54-.28-1.21-.07-1.49.47-.27.51-.1,1.13.39,1.44l7.22,4.13c.21.11.37.31.43.54.07.23.05.47-.07.68-.23.43-.76.6-1.2.39l-1.6-.94c-.32-.6-.81-1.1-1.41-1.42-.76-.41-1.65-.51-2.48-.29-.46-1.42-1.81-2.36-3.31-2.29-.08-1.89-1.67-3.35-3.56-3.27-.07,0-.15,0-.22.02-.16-1.05-.81-1.96-1.74-2.46-.8-.43-1.74-.53-2.61-.26-.5.17-.96.44-1.34.8l-2.4-1.3.2-.37,5.25-9.7c2.05.63,3.86-.24,5.62-1.1,2.07-.99,4.19-2.01,7.21-1.1-.41.2-.84.43-1.27.69l-9.18,5.65c-.7.43-1.21,1.13-1.4,1.93-.39,1.68.66,3.35,2.33,3.74.8.19,1.64.05,2.34-.38l7.72-4.92,4.76,2.63,11.22,6.27c.21.11.37.31.43.54.09.22.08.47-.02.68Z"></path>
    </g>
  </g>
</svg>
