<?xml version="1.0" encoding="UTF-8"?>
<svg preserveAspectRatio="xMidYMid slice" width="68px" height="68px" xmlns="http://www.w3.org/2000/svg" id="Laag_2" viewBox="0 0 64 64">
  <defs>
    <style>.cls-1{fill:none;}.cls-2{fill:#eb5f3a;}</style>
  </defs>
  <g id="Capa_2">
    <g>
      <rect class="cls-1" width="64" height="64"></rect>
      <path class="cls-2" d="m59.59,13.37c-.56-.26-1.18-.4-1.8-.39l.19-.41c.26-.57.4-1.19.4-1.81.01-2.31-1.85-4.2-4.16-4.22.1-.36.16-.74.17-1.12-.01-1.64-.96-3.12-2.43-3.83-1.01-.49-2.18-.55-3.23-.17-.4.14-.78.34-1.12.61-1.21-1.99-3.8-2.63-5.8-1.42-.7.43-1.27,1.05-1.62,1.79l-5.12,10.7-1.15-7.29c-.3-2.08-2.08-3.63-4.18-3.65-.21-.02-.41-.02-.62,0-1.11.16-2.11.76-2.78,1.65-.2.27-.37.57-.49.89l-.26-.96c-.62-2.25-2.94-3.57-5.18-2.95-1.69.46-2.91,1.92-3.08,3.66l-.72-1.47c-.71-1.4-2.15-2.29-3.72-2.3-.66,0-1.32.14-1.92.43-1,.5-1.76,1.37-2.13,2.43-.37,1.06-.29,2.23.21,3.23l.92,1.88-.28-.43c-1.31-1.94-3.94-2.45-5.88-1.14-1.94,1.31-2.45,3.94-1.14,5.88l11.2,16.55-5.12-1.86c-2.54-.88-5.31.47-6.19,3.01,0,.01-.01.03-.02.04-.42,1.23-.33,2.57.24,3.73.58,1.15,1.59,2.02,2.81,2.43l15.79,5.47-6.08,9.32c-.25.39-.25.89,0,1.29,2.62,3.82,6.22,6.85,10.43,8.78,2.8,1.42,5.88,2.19,9.02,2.26,1.07.02,2.13-.11,3.16-.4.39-.13.69-.45.79-.85l.69-2.67h0c.88-.33,1.74-.71,2.59-1.12,7.21-3.55,8.91-8.22,8.97-8.41.14-.38.07-.81-.17-1.13l-3.88-5.02c2.63-1.64,4.73-3.98,6.08-6.77l8.63-18.63c.99-2.1.09-4.61-2.01-5.6-.01,0-.03-.01-.04-.02Zm-18.67,43.39c-.24.12-.5.21-.75.33l.85-3.26c2.41-1.23,4.54-2.95,6.24-5.06l1.22,1.51c-.72,1.2-2.75,4.1-7.55,6.48Zm18.47-38.79l-8.64,18.63c-1.28,2.72-3.41,4.95-6.08,6.35-.92.49-1.9.86-2.92,1.12-.45.11-.79.47-.89.92l-3.21,12.16c-1.22.16-4.18.12-9.03-2.2-3.22-1.49-6.09-3.64-8.43-6.31l8.16-12.64c.2-.32.25-.71.12-1.06l-5.63-16.19c-.23-.63-.18-1.32.12-1.92.28-.57.78-1.01,1.39-1.22.73-.24,1.53-.13,2.18.28h0c.44.26.78.67.96,1.14l2.43,7.57c.16.5.63.84,1.15.84.13,0,.25-.02.38-.06h.07c.11-.05.22-.11.32-.18h0c.13-.1.23-.23.3-.38L42.41,3.47c.42-.9,1.49-1.29,2.39-.87.63.3,1.04.93,1.04,1.63,0,.27-.06.53-.17.78l-7.79,16.29c-.29.6-.05,1.32.55,1.62.16.08.34.12.52.12.47,0,.89-.27,1.09-.69l8.51-17.71c.2-.43.57-.77,1.02-.92.45-.16.94-.13,1.37.07.63.3,1.04.94,1.03,1.64,0,.26-.06.53-.17.77l-.91,1.9c-.22.26-.4.55-.56.85l-7.54,16.04h0c0,.06,0,.12,0,.18-.04.09-.07.18-.07.28v.19c-.01.09-.01.18,0,.27,0,0,.06.1.09.16.04.08.09.16.15.24.05.03.1.07.15.11.07.07.15.13.24.17h0c.17.07.34.11.52.11.11.02.22.02.33,0h.12l.19-.09.11-.1c.05-.03.1-.07.15-.12.03-.03.05-.07.07-.11.05-.06.09-.12.12-.18l7.94-16.62c.71-.69,1.85-.67,2.54.04.32.33.51.78.51,1.25,0,.27-.06.54-.18.78l-1.54,3.4c-.09.14-.17.28-.23.43l-6.25,13.37c0,.08,0,.17,0,.26,0,.07,0,.14,0,.21v.18c-.01.09-.01.19,0,.28,0,.03,0,.06,0,.1.04.11.1.21.18.3.04.04.09.08.15.11.07.07.15.12.23.17h0c.16.06.33.1.5.11h0c.13,0,.25-.02.38-.06h.1c.1-.04.2-.1.28-.17,0,0,.06,0,.09-.07.1-.1.19-.21.26-.34h0l6.42-13.63c.53-.66,1.44-.88,2.21-.52.63.29,1.03.92,1.03,1.62-.01.24-.08.48-.18.69Z"></path>
    </g>
  </g>
</svg>
