<?xml version="1.0" encoding="UTF-8"?>
<svg preserveAspectRatio="xMidYMid slice" width="68px" height="68px" xmlns="http://www.w3.org/2000/svg" id="Laag_2" viewBox="0 0 64 64">
  <defs>
    <style>.cls-1{fill:none;}.cls-2{fill:#eb5f3a;}</style>
  </defs>
  <g id="Capa_1">
    <g>
      <rect class="cls-1" width="64" height="64"></rect>
      <path class="cls-2" d="m35.12,3.29l7.16,14.65c.51,1.01,1.48,1.72,2.6,1.89l16.16,2.39c1.89.27,3.19,2.03,2.92,3.91-.11.75-.46,1.44-1.01,1.97l-11.64,11.36c-.81.79-1.18,1.93-.99,3.04l2.77,16.16c.28,1.89-1.03,3.65-2.92,3.93-.72.11-1.45-.02-2.09-.35l-14.46-7.6c-1.01-.52-2.2-.52-3.21,0l-14.46,7.6c-1.69.88-3.77.22-4.65-1.47-.34-.65-.46-1.39-.35-2.11l2.76-16.16c.19-1.12-.18-2.25-.99-3.04L1.04,28.06c-1.36-1.33-1.39-3.51-.06-4.88.53-.54,1.22-.9,1.97-1.01l16.16-2.39c1.12-.17,2.09-.87,2.59-1.89l7.23-14.61c.85-1.71,2.91-2.41,4.62-1.56.68.34,1.23.88,1.56,1.56Z"></path>
    </g>
  </g>
</svg>
