<?xml version="1.0" encoding="UTF-8"?>
<svg preserveAspectRatio="xMidYMid slice" width="68px" height="68px" xmlns="http://www.w3.org/2000/svg" id="Laag_2" viewBox="0 0 64 64">
  <defs>
    <style>.cls-1{fill:none;}.cls-2{fill:#eb5f3a;}</style>
  </defs>
  <g id="Laag_1-2">
    <g>
      <rect class="cls-1" width="64" height="64"></rect>
      <g>
        <path class="cls-2" d="m44.72,45.37c-.48-.55-1.16-.86-1.89-.86h-21.64c-.72,0-1.41.31-1.89.86-.46.53-.67,1.23-.58,1.92.96,6.58,6.63,11.45,13.29,11.4,6.67.08,12.37-4.79,13.34-11.4.08-.7-.15-1.4-.63-1.92Z"></path>
        <circle class="cls-2" cx="32.01" cy="7.92" r="4.22"></circle>
        <circle class="cls-2" cx="37.89" cy="2.02" r="2.02"></circle>
        <path class="cls-2" d="m40,29.73c-1.03-.5-1.69-1.54-1.68-2.69v-5.72c1.79-.46,2.88-2.28,2.42-4.07-.4-1.56-1.85-2.62-3.45-2.52h-10.61c-1.85-.11-3.43,1.29-3.55,3.14-.1,1.61.96,3.05,2.52,3.45v5.72c0,1.15-.65,2.19-1.68,2.69-8.96,4.07-12.93,14.63-8.86,23.59,1.56,3.45,4.18,6.3,7.48,8.16v.32c0,1.21.98,2.2,2.2,2.2h14.44c1.21,0,2.2-.98,2.2-2.2v-.32c8.58-4.83,11.61-15.7,6.78-24.27-1.87-3.31-4.74-5.94-8.21-7.5v.02Zm-13.31-12.77h10.57c.65,0,1.17.52,1.17,1.17s-.52,1.17-1.17,1.17h-10.57c-.64,0-1.16-.52-1.16-1.16,0-.64.52-1.16,1.16-1.16h0Zm13.18,42.92c-.36.19-.58.56-.58.97v.97h-14.49v-.97c0-.4-.22-.78-.58-.97-7.68-3.95-10.71-13.37-6.76-21.05,1.62-3.16,4.27-5.67,7.51-7.12,1.8-.86,2.95-2.68,2.94-4.68v-5.49h8.23v5.49c0,2,1.14,3.82,2.94,4.68,7.88,3.52,11.42,12.77,7.9,20.65-1.45,3.24-3.96,5.9-7.11,7.52Z"></path>
      </g>
    </g>
  </g>
</svg>
