<svg width="844" height="665" viewBox="0 0 844 665" fill="none" xmlns="http://www.w3.org/2000/svg">
<path d="M436.189 384.056C435.178 384.361 434.194 384.706 433.239 385.1C432.726 385.308 432.174 385.406 431.621 385.387C431.068 385.369 430.524 385.235 430.026 384.994C429.527 384.752 429.085 384.409 428.728 383.986C428.37 383.564 428.105 383.07 427.95 382.539L412.161 329.489L232.333 383.006L275.205 527.072C276.706 532.108 280.145 536.341 284.767 538.842C289.388 541.342 294.814 541.905 299.85 540.406L441.705 498.183C446.741 496.683 450.975 493.243 453.475 488.622C455.975 484 456.538 478.575 455.039 473.539L444.905 439.478C444.745 438.948 444.698 438.39 444.766 437.84C444.835 437.291 445.017 436.762 445.302 436.287C445.588 435.813 445.969 435.403 446.422 435.085C446.875 434.766 447.39 434.546 447.933 434.439C448.958 434.248 449.973 434.003 450.972 433.706C465.861 429.261 474.617 414.567 470.539 400.85C466.461 387.133 451.078 379.628 436.189 384.056Z" fill="#49BAA1"/>
<g style="mix-blend-mode:multiply" opacity="0.25">
<path d="M388.094 519.361C388.094 519.361 309.416 541.444 292.089 528.622C277.489 517.844 276.816 506.733 256.094 462.894C255.861 500.672 276.478 562.672 276.478 562.672L388.094 519.361Z" fill="#99ADF9"/>
</g>
<g style="mix-blend-mode:multiply" opacity="0.25">
<path d="M299.361 370.189C299.361 370.189 307.039 406.944 334.867 398.667C362.694 390.389 349 355.406 349 355.406L299.361 370.189Z" fill="#99ADF9"/>
</g>
<path d="M363.639 166.444L202.789 214.3C197.754 215.8 193.52 219.238 191.02 223.858C188.519 228.479 187.957 233.903 189.455 238.939L232.333 383.006L294.044 364.672C294.532 364.525 295.044 364.482 295.549 364.544C296.055 364.607 296.541 364.774 296.978 365.036C297.414 365.297 297.792 365.647 298.085 366.063C298.379 366.479 298.583 366.951 298.683 367.45C298.865 368.376 299.094 369.302 299.372 370.228C303.817 385.111 318.511 393.872 332.222 389.789C345.933 385.706 353.467 370.344 349.033 355.444C348.755 354.522 348.444 353.617 348.089 352.739C347.903 352.267 347.818 351.761 347.838 351.254C347.859 350.747 347.985 350.25 348.208 349.794C348.431 349.339 348.747 348.934 349.135 348.607C349.522 348.28 349.974 348.037 350.461 347.894L412.172 329.528L363.639 166.444Z" fill="#F8D458"/>
<g style="mix-blend-mode:multiply" opacity="0.52">
<path d="M211.833 324.628C211.833 324.628 189.772 245.95 202.567 228.622C213.35 214.022 232.433 205.478 254.972 198.767C217.194 198.533 168.517 213.011 168.517 213.011L211.833 324.628Z" fill="#FEC272"/>
</g>
<path d="M363.639 166.444L377.455 212.867C377.679 213.606 377.742 214.385 377.64 215.151C377.537 215.916 377.272 216.651 376.862 217.306C376.452 217.961 375.907 218.52 375.263 218.946C374.619 219.373 373.891 219.656 373.128 219.778C371.687 219.992 370.263 220.308 368.867 220.722C353.983 225.167 345.222 239.861 349.305 253.578C353.389 267.294 368.75 274.817 383.644 270.389C385.042 269.975 386.406 269.459 387.728 268.844C388.432 268.534 389.195 268.378 389.965 268.385C390.734 268.393 391.494 268.564 392.192 268.888C392.891 269.211 393.512 269.68 394.016 270.263C394.519 270.845 394.892 271.529 395.111 272.267L412.139 329.489L470.878 312C472.561 311.486 473.973 310.328 474.806 308.777C475.638 307.226 475.824 305.409 475.322 303.722L475.272 303.556C470.828 288.667 478.372 273.289 492.083 269.211C505.794 265.133 520.505 273.889 524.933 288.778L524.983 288.939C525.487 290.631 526.642 292.053 528.194 292.895C529.746 293.736 531.568 293.928 533.261 293.428L572.983 281.606C578.018 280.106 582.252 276.668 584.752 272.047C587.253 267.427 587.815 262.002 586.316 256.967L549.094 131.889C547.595 126.854 544.157 122.62 539.536 120.12C534.915 117.619 529.491 117.057 524.455 118.556L363.639 166.444Z" fill="#FF9789"/>
<g style="mix-blend-mode:multiply" opacity="0.19">
<path d="M368.867 220.717C368.867 220.717 353.444 228.872 359.067 247.794C364.689 266.717 377.839 269.178 386.489 270.722C370.933 284.267 324.967 265.622 324.967 265.622L342.333 218.906L368.867 220.717Z" fill="#AAAAAA"/>
</g>
<g style="mix-blend-mode:multiply" opacity="0.19">
<path d="M574.961 218.667C574.961 218.667 550.411 140.728 530.228 133.211C513.217 126.883 488.867 124.556 466.339 131.261C497.856 110.4 550.228 101.528 550.228 101.528L574.961 218.667Z" fill="#AAAAAA"/>
</g>
<path d="M253.689 286.417C258.942 286.417 263.2 282.158 263.2 276.906C263.2 271.653 258.942 267.394 253.689 267.394C248.436 267.394 244.178 271.653 244.178 276.906C244.178 282.158 248.436 286.417 253.689 286.417Z" fill="#252525"/>
<path d="M324.239 265.428C329.492 265.428 333.75 261.169 333.75 255.917C333.75 250.664 329.492 246.406 324.239 246.406C318.986 246.406 314.728 250.664 314.728 255.917C314.728 261.169 318.986 265.428 324.239 265.428Z" fill="#252525"/>
<path d="M283.761 288.667C283.761 288.667 284.028 281.261 292.761 278.667C301.494 276.072 305.5 282.206 305.5 282.206" stroke="#252525" stroke-width="9" stroke-miterlimit="10" stroke-linecap="round"/>
<path d="M312.861 451.906C318.114 451.906 322.372 447.647 322.372 442.394C322.372 437.142 318.114 432.883 312.861 432.883C307.608 432.883 303.35 437.142 303.35 442.394C303.35 447.647 307.608 451.906 312.861 451.906Z" fill="#252525"/>
<path d="M383.411 430.911C388.664 430.911 392.922 426.653 392.922 421.4C392.922 416.147 388.664 411.889 383.411 411.889C378.158 411.889 373.9 416.147 373.9 421.4C373.9 426.653 378.158 430.911 383.411 430.911Z" fill="#252525"/>
<path d="M445.428 219.85C446.922 224.883 443.205 227.311 438.167 228.811C433.128 230.311 428.689 230.311 427.189 225.278C426.803 224.072 426.662 222.801 426.773 221.54C426.885 220.279 427.247 219.053 427.838 217.933C428.43 216.814 429.238 215.824 430.217 215.021C431.196 214.218 432.325 213.618 433.539 213.257C434.752 212.896 436.025 212.781 437.284 212.918C438.542 213.055 439.761 213.442 440.868 214.056C441.975 214.67 442.949 215.498 443.732 216.493C444.515 217.488 445.091 218.629 445.428 219.85V219.85Z" fill="#252525"/>
<path d="M515.972 198.856C517.472 203.894 513.75 206.317 508.711 207.817C503.672 209.317 499.233 209.317 497.733 204.283C497.347 203.077 497.206 201.807 497.318 200.546C497.429 199.285 497.791 198.058 498.383 196.939C498.974 195.819 499.783 194.829 500.762 194.026C501.74 193.223 502.87 192.624 504.083 192.263C505.296 191.901 506.57 191.786 507.828 191.923C509.087 192.06 510.306 192.447 511.413 193.061C512.52 193.675 513.493 194.504 514.276 195.499C515.059 196.494 515.636 197.635 515.972 198.856V198.856Z" fill="#252525"/>
<path d="M492.817 227.461C492.467 232.256 486.644 231.744 478.205 234.256C469.767 236.767 465.733 240.922 462.255 236.556C457.811 231 465.439 222.222 473.878 219.711C482.317 217.2 493.333 220.394 492.817 227.461Z" fill="#FE5E32"/>
<path d="M369.052 440.779L334.947 450.927C331.706 451.891 329.861 455.3 330.825 458.541C331.789 461.781 335.198 463.627 338.439 462.663L372.544 452.515C375.785 451.551 377.631 448.142 376.666 444.901C375.702 441.66 372.293 439.815 369.052 440.779Z" fill="white"/>
<path d="M522.372 415.756L531.855 432.922" stroke="#681F15" stroke-width="12" stroke-miterlimit="10" stroke-linecap="round"/>
<path d="M542.522 356.878L560.294 348.583" stroke="#681F15" stroke-width="12" stroke-miterlimit="10" stroke-linecap="round"/>
<path d="M541.417 388.639L564.333 396.172" stroke="#681F15" stroke-width="12" stroke-miterlimit="10" stroke-linecap="round"/>
</svg>
