<svg width="600" height="358" viewBox="0 0 600 358" fill="none" xmlns="http://www.w3.org/2000/svg">
<path d="M298.8 247C251.1 247 212.4 257.1 212.4 269.4C212.4 281.8 251.1 291.9 298.8 291.9C341.3 291.9 376.7 283.9 383.9 273.4C384.8 272.1 385.2 270.8 385.2 269.5C385.2 257.1 346.5 247 298.8 247ZM298.8 272.6C271.3 272.6 249.1 269.3 249.1 265.2C249.1 265.2 249.1 265.1 249.1 264.9C249.1 264.8 249.1 264.8 249.2 264.7C249.2 264.7 249.2 264.6 249.3 264.6C251.2 260.8 272.7 257.8 298.8 257.8C324 257.8 344.8 260.6 348 264.2C348.3 264.5 348.4 264.8 348.4 265.1V265.2C348.5 269.3 326.2 272.6 298.8 272.6Z" fill="#A1BAD0"/>
<path d="M195.2 254.1H112C109.9 254.1 107.8 254.8 106.1 256.1L74.1001 281.2C72.6001 282.4 73.4001 284.8 75.3001 284.8H163.2C165.4 284.8 167.6 283.9 169.2 282.4L196.1 256.4C197 255.6 196.4 254.1 195.2 254.1Z" fill="#E1EBF4"/>
<path d="M525.3 254.1H442C439.9 254.1 437.8 254.8 436.1 256.1L404.1 281.2C402.6 282.4 403.4 284.8 405.3 284.8H493.2C495.4 284.8 497.6 283.9 499.2 282.4L526.1 256.4C527.1 255.6 526.5 254.1 525.3 254.1Z" fill="#E1EBF4"/>
<path d="M298.8 242.9C251.1 242.9 212.4 253 212.4 265.3C212.4 277.7 251.1 287.8 298.8 287.8C341.3 287.8 376.7 279.8 383.9 269.3C384.8 268 385.2 266.7 385.2 265.4C385.2 253 346.5 242.9 298.8 242.9ZM298.8 268.5C271.3 268.5 249.1 265.2 249.1 261.1C249.1 261.1 249.1 261 249.1 260.8C249.1 260.7 249.1 260.7 249.2 260.6C249.2 260.6 249.2 260.5 249.3 260.5C251.2 256.7 272.7 253.7 298.8 253.7C324 253.7 344.8 256.5 348 260.1C348.3 260.4 348.4 260.7 348.4 261V261.1C348.5 265.2 326.2 268.5 298.8 268.5Z" fill="#FF9789"/>
<path d="M383.9 269.3C376.7 279.8 341.4 287.8 298.8 287.8C251.1 287.8 212.4 277.7 212.4 265.3C212.4 265.3 227.4 283.4 295.8 283.4C354.6 283.5 378.3 272.4 383.9 269.3Z" fill="#FE5E32"/>
<path d="M348 260.1C344.7 256.5 323.9 253.7 298.8 253.7C272.6 253.7 251.2 256.7 249.3 260.5C250.2 258.3 256.2 250.7 298.8 250.7C338 250.7 346.3 257.5 348 260.1Z" fill="#FE5E32"/>
<path d="M195.9 254.1L178.4 128.9C178.2 127.6 177.1 126.6 175.7 126.6H152.1C150.5 126.6 149.2 128 149.4 129.7L155.3 177C155.5 178.9 154.1 180.5 152.2 180.5H125.2C123.5 180.5 122.1 179.2 122 177.5L119.8 129.3C119.7 127.8 118.5 126.7 117.1 126.7H95C93.4 126.7 92.2 128 92.3 129.5L95.3 211.9C95.4 214.5 97.6 216.6 100.2 216.6H160.3L165 254.3H195.9V254.1Z" fill="#A1BAD0"/>
<path d="M526 254.1L508.5 128.9C508.3 127.6 507.2 126.6 505.8 126.6H482.2C480.6 126.6 479.3 128 479.5 129.7L485.4 177C485.6 178.9 484.2 180.5 482.3 180.5H455.3C453.6 180.5 452.2 179.2 452.1 177.5L449.9 129.3C449.8 127.8 448.6 126.7 447.2 126.7H425.2C423.6 126.7 422.4 128 422.5 129.5L425.5 211.9C425.6 214.5 427.8 216.6 430.4 216.6H490.5L495.2 254.3H526V254.1Z" fill="#A1BAD0"/>
<path d="M177.7 130.2L164.5 279.8C164.3 282.6 161.9 284.8 159.1 284.8H139.3C136 284.8 133.5 281.9 133.9 278.7L142.2 208.6L82.9001 209.6C79.6001 209.6 77.1001 206.7 77.7001 203.5L77.9001 202.2L91.5001 129.3C91.9001 127.3 93.6001 125.8 95.7001 125.8H114.6C117.2 125.8 119.2 128.2 118.8 130.8L110.7 176.8C110.4 178.7 111.8 180.3 113.7 180.3H142L148.6 129.2C148.9 127.2 150.6 125.7 152.6 125.7H173.7C176 125.8 177.9 127.9 177.7 130.2Z" fill="#FF9789"/>
<path d="M142.6 202.2L142.1 208.6L82.8 209.6C79.5 209.6 77 206.7 77.6 203.5L77.8 202.2H142.6V202.2Z" fill="#FE5E32"/>
<path d="M177.7 130.2L164.5 279.8C164.3 282.6 161.9 284.8 159.1 284.8H156.1L171.8 125.8H173.7C176 125.8 177.9 127.9 177.7 130.2Z" fill="#FE5E32"/>
<path d="M110.6 176.9C110.3 178.8 111.7 180.4 113.6 180.4H107.8C105.7 180.4 104 178.5 104.4 176.4L113.3 125.9H114.6C117.2 125.9 119.2 128.3 118.8 130.9L110.6 176.9Z" fill="#FE5E32"/>
<path d="M507.7 130.2L494.5 279.8C494.3 282.6 491.9 284.8 489.1 284.8H469.3C466 284.8 463.5 281.9 463.9 278.7L472.2 208.6L412.9 209.6C409.6 209.6 407.1 206.7 407.7 203.5L407.9 202.2L421.5 129.3C421.9 127.3 423.6 125.8 425.7 125.8H444.6C447.2 125.8 449.2 128.2 448.8 130.8L440.7 176.8C440.4 178.7 441.8 180.3 443.7 180.3H472L478.6 129.2C478.9 127.2 480.6 125.7 482.6 125.7H503.7C506.1 125.8 508 127.9 507.7 130.2Z" fill="#FF9789"/>
<path d="M472.7 202.2L472.2 208.6L412.9 209.6C409.6 209.6 407.1 206.7 407.7 203.5L407.9 202.2H472.7V202.2Z" fill="#FE5E32"/>
<path d="M507.7 130.2L494.5 279.8C494.3 282.6 491.9 284.8 489.1 284.8H486.1L501.8 125.8H503.7C506.1 125.8 508 127.9 507.7 130.2Z" fill="#FE5E32"/>
<path d="M440.7 176.9C440.4 178.8 441.8 180.4 443.7 180.4H437.9C435.8 180.4 434.1 178.5 434.5 176.4L443.4 125.9H444.7C447.3 125.9 449.3 128.3 448.9 130.9L440.7 176.9Z" fill="#FE5E32"/>
<path opacity="0.28" d="M259.3 160.7L238.8 264.7C237.7 270.3 241.3 275.6 246.2 275.6H354.8C359.6 275.6 363.2 270.5 362.3 265.1L345.5 161.1C344.8 156.9 341.7 153.9 338 153.9H266.8C263.2 153.8 260.1 156.7 259.3 160.7Z" fill="#FF97C9"/>
<path d="M351.9 167.2L361.8 200.1C362 200.8 362.7 201.2 363.4 200.9C363.9 200.7 364.3 200.1 364.1 199.5L357.6 165.8C357.2 164 355.2 163 353.5 163.7C352.2 164.3 351.5 165.7 351.9 167.2Z" fill="#FEC272"/>
<path d="M333.2 179.1L339.6 204.5C339.7 205 340.2 205.2 340.6 205.1C341 205 341.2 204.6 341.1 204.2L337 178.3C336.8 177.1 335.5 176.3 334.3 176.8C333.5 177.2 333 178.1 333.2 179.1Z" fill="#FEC272"/>
<path d="M249.8 170.4L241.5 195.7C241.4 196.2 240.8 196.4 240.4 196.2C240 196 239.8 195.6 239.9 195.2L245.9 169.3C246.2 168.1 247.6 167.4 248.7 167.9C249.7 168.4 250.1 169.4 249.8 170.4Z" fill="#FEC272"/>
<path d="M266.3 178.2L255.5 225.2C255.4 225.7 254.9 225.9 254.5 225.8C254.1 225.7 253.9 225.3 254 224.9L262.5 177.4C262.7 176.2 264 175.4 265.2 175.9C266.1 176.2 266.6 177.2 266.3 178.2Z" fill="#FEC272"/>
<path d="M289.2 183.7L284 217.8C283.9 218.3 283.4 218.6 283 218.4C282.6 218.3 282.4 217.9 282.4 217.5L285.2 183.1C285.4 181.9 286.6 181.1 287.8 181.5C288.8 181.7 289.4 182.7 289.2 183.7Z" fill="#FEC272"/>
<path d="M316 183L317.3 237.1C317.3 237.6 316.9 237.9 316.4 237.9C316 237.8 315.7 237.5 315.7 237.1L312 183C312 181.7 313.1 180.8 314.3 181C315.3 181.2 316 182.1 316 183Z" fill="#FEC272"/>
<path d="M212.1 133.9C211 132.6 210.2 131.3 209.6 130L207.3 114.6L212.6 119.5L212.1 133.9Z" fill="#738DE0"/>
<path d="M361.3 139.1C361.3 139.1 358 146 350.8 153.7C341.8 163.3 326.6 174.2 304 174.2C288.1 174.2 276.3 168.9 267.9 162.5C254.7 152.5 249.5 139.7 249.5 139.7L361.3 139.1Z" fill="#273D7A"/>
<path d="M361.3 139.1C361.3 139.1 358 146 350.8 153.7C343.1 156.7 333.6 159.2 321.8 160.8C298.6 163.9 280.5 163.7 267.9 162.5C254.7 152.5 249.5 139.7 249.5 139.7L361.3 139.1Z" fill="#072359"/>
<path d="M396.5 114C396.5 114 395.9 120.3 393.9 128.1C393.6 129.2 393.1 130.5 392.3 131.7C390.2 135.1 386.2 138.8 379.7 142.3C378.6 142.9 377.3 143.5 376 144.1C375 144.6 374 145 372.9 145.5C371.4 146.1 369.9 146.7 368.3 147.3C362.7 149.3 356.1 151 348.3 152.6C347.7 152.7 347.2 152.8 346.6 152.9C345.1 153.2 343.3 153.4 341.4 153.6C333.4 154.5 322.8 155.1 311.5 155.3C309.4 155.3 307.3 155.4 305.2 155.4C294.5 155.5 283.7 155.2 274.3 154.7C272.3 154.6 270.3 154.5 268.5 154.3C263 153.9 258.2 153.3 254.7 152.6C249.6 151.6 245 150.5 240.9 149.3C239.2 148.8 237.6 148.3 236 147.8C223.6 143.7 216.1 138.7 212.2 134.1C211.6 133.4 211.1 132.8 210.7 132.1C210.3 131.5 209.9 130.8 209.7 130.2C209.4 129.5 209.1 128.9 209 128.2C208.1 124.5 207.4 120.7 207.1 117.8C206.7 114.5 206.6 112.3 206.6 112.3L301.6 119.4L396.6 114.1L396.5 114Z" fill="#99ADF9"/>
<path d="M396.4 113.8C396.4 114.5 395.9 115.4 395 116.5C392.5 119.4 386.5 123.7 376.3 127.6C375 128.1 373.6 128.6 372.1 129.1C371.4 129.3 370.7 129.6 370 129.8C368.5 130.3 366.9 130.8 365.2 131.2C359.5 132.8 352.9 134.3 345.3 135.4C343.5 135.7 341.6 136 339.6 136.2C331.2 137.3 321.8 138 311.3 138.2C309.3 138.2 307.2 138.3 305.1 138.3H305C294.3 138.3 284.4 137.8 275.5 137C273.5 136.8 271.5 136.6 269.6 136.4C259.8 135.3 251.1 133.7 243.6 131.9C241.9 131.5 240.2 131 238.6 130.6C223.7 126.5 213.9 121.4 209.4 117.2C208.5 116.4 207.8 115.5 207.3 114.8C206.7 113.9 206.4 113.1 206.4 112.3C206.4 105.2 234.4 90.1 305.5 90.1C376.6 90 396.4 108.9 396.4 113.8Z" fill="#273D7A"/>
<path d="M264.5 98.2L212.5 119.5C210.5 118.2 207.7 115.4 207.2 114.6L262.8 97.3L264.5 98.2Z" fill="#072359"/>
<path d="M396.4 113.9C396.4 114.5 395.9 115.4 395 116.5L341.6 98.2L343.3 97.4L396.4 113.9Z" fill="#072359"/>
<path d="M273.3 103.7L243.6 131.8C241.9 131.4 240.2 130.9 238.6 130.5L271.5 103.6L273.3 103.7Z" fill="#072359"/>
<path d="M289.6 107L275.5 137C273.5 136.8 271.5 136.6 269.6 136.4L287.8 106.9L289.6 107Z" fill="#072359"/>
<path d="M345.4 135.5C343.6 135.8 341.6 136.1 339.7 136.3L325.9 107L327.8 106.9L345.4 135.5Z" fill="#072359"/>
<path d="M311.3 138.3C309.3 138.3 307.2 138.4 305.1 138.4H305L307.4 108.9L309.3 108.8L311.3 138.3Z" fill="#072359"/>
<path d="M376.2 127.6C374.9 128.1 373.5 128.6 372 129.1L336.1 103.7L338 103.6L376.2 127.6Z" fill="#072359"/>
<path d="M311.4 155.1C309.3 155.1 307.2 155.2 305.1 155.2V138.3L311.3 138.2L311.4 155.1Z" fill="#738DE0"/>
<path d="M346.4 152.7C344.8 153 343.1 153.2 341.2 153.4L339.6 136.2L345.3 135.4L346.4 152.7Z" fill="#738DE0"/>
<path d="M379.6 142.2C378.5 142.8 377.2 143.4 375.9 144L372.1 129L376.2 127.6L379.6 142.2Z" fill="#738DE0"/>
<path d="M275.5 137L274.3 154.5C272.3 154.4 270.3 154.3 268.5 154.1L269.7 136.4L275.5 137Z" fill="#738DE0"/>
<path d="M243.6 131.8L240.8 149.1C239.1 148.6 237.5 148.1 235.9 147.6L238.5 130.5L243.6 131.8Z" fill="#738DE0"/>
<path d="M212.6 119.7L210.6 132C210.2 131.4 209.8 130.7 209.6 130.1C209.3 129.4 209 128.8 208.9 128.1C208 124.4 207.3 120.6 207 117.7L207.3 114.7C207.3 114.7 209 116.7 209.7 117.4C210.3 118 212.6 119.7 212.6 119.7Z" fill="#738DE0"/>
<path d="M300.8 120.8C330.237 120.8 354.1 114.04 354.1 105.7C354.1 97.3605 330.237 90.6 300.8 90.6C271.363 90.6 247.5 97.3605 247.5 105.7C247.5 114.04 271.363 120.8 300.8 120.8Z" fill="#072359"/>
<path d="M349.5 103.3C349.5 103.3 345.6 107.7 336 111.5C328.9 114.3 318.7 116.7 304.7 116.7C297 116.7 290.3 116 284.7 114.9C266 111.3 257.9 103.5 257.9 103.5C257.9 103.5 262 73.1 287.6 62.8C292.8 60.7 299 59.4 306.2 59.4C341.4 59.4 349.5 103.3 349.5 103.3Z" fill="#99ADF9"/>
<path d="M284.7 114.9C266 111.3 257.9 103.5 257.9 103.5C257.9 103.5 262 73.1 287.6 62.8C282.6 67 277.7 75.4001 276.9 89.1001C276.1 99.3001 278.5 107.8 284.7 114.9Z" fill="#7A97F4"/>
<path d="M349.5 103.3C349.5 103.3 345.6 107.7 336 111.5C334.5 105.9 332.2 100.9 332.2 100.9C332.2 100.9 322.8 102.9 318.6 94C314.4 85.1 324.5 78.7 324.5 78.7C324.5 78.7 322.1 71 309.7 66C297.3 61 287.4 62.8 287.4 62.8C292.6 60.7 298.8 59.4 306 59.4C341.4 59.4 349.5 103.3 349.5 103.3Z" fill="#C2D1FF"/>
<path d="M309.2 84.5C310.691 84.5 311.9 83.336 311.9 81.9C311.9 80.4641 310.691 79.3 309.2 79.3C307.709 79.3 306.5 80.4641 306.5 81.9C306.5 83.336 307.709 84.5 309.2 84.5Z" fill="#C2D1FF"/>
<path d="M299.8 87C300.96 87 301.9 86.1046 301.9 85C301.9 83.8954 300.96 83 299.8 83C298.64 83 297.7 83.8954 297.7 85C297.7 86.1046 298.64 87 299.8 87Z" fill="#C2D1FF"/>
<path d="M306.1 100.5C308.364 100.5 310.2 98.7091 310.2 96.5C310.2 94.2909 308.364 92.5 306.1 92.5C303.836 92.5 302 94.2909 302 96.5C302 98.7091 303.836 100.5 306.1 100.5Z" fill="#C2D1FF"/>
</svg>
