<?xml version="1.0" encoding="UTF-8"?><svg id="OBJECTS" xmlns="http://www.w3.org/2000/svg" viewBox="0 0 500 500"><defs><style>.cls-1{fill:#f46640;}.cls-2{fill:#f9a42d;}.cls-3{fill:#fafbed;}.cls-4{fill:#fecd32;}.cls-5{fill:#fed888;}.cls-6{fill:#feb81c;}.cls-7{fill:#d3573b;}.cls-8{fill:#21120d;}.cls-9{fill:#3f1715;}.cls-10{fill:#562928;}.cls-11{fill:#3c1e1f;}</style></defs><circle class="cls-4" cx="244.69" cy="146.22" r="75.68" transform="translate(-31.72 215.85) rotate(-45)"/><g><g><path class="cls-4" d="M438.58,272.2l-17.39-.04-25.71-.06-52.38-.12s.01,0,.03-.01l52.61-29.19,42.85,29.42Z"/><path class="cls-6" d="M438.58,272.2l-17.39-.04c-5.14-9.81-20.17-15.35-24.36-18.09-5.23-3.41-1.09-11.3-1.09-11.3l42.85,29.42Z"/><path class="cls-4" d="M395.48,272.11l-52.38-.12s.01,0,.03-.01c.68-.31,13.67-6.08,23.66-3.95,8.84,1.89,24.05,.62,28.69,4.08Z"/></g><g><path class="cls-4" d="M256.87,272.2l-35.6-.08-52.63-.12-107.22-.24s.02,0,.06-.03l107.69-59.76,87.71,60.22Z"/><path class="cls-6" d="M256.87,272.2l-35.6-.08c-10.52-20.08-41.3-31.43-49.87-37.02-10.7-6.99-2.24-23.12-2.24-23.12l87.71,60.22Z"/><path class="cls-6" d="M168.64,272.01l-107.22-.24s.02,0,.06-.03c1.4-.63,27.99-12.45,48.44-8.08,18.1,3.87,49.22,1.27,58.73,8.35Z"/></g><g><path class="cls-4" d="M391.39,272.2l-24.77-.05-36.62-.08-74.6-.17s.02,0,.04-.02l74.93-41.58,61.02,41.9Z"/><path class="cls-6" d="M391.39,272.2l-24.77-.05c-7.32-13.97-28.73-21.87-34.7-25.76-7.44-4.86-1.56-16.09-1.56-16.09l61.02,41.9Z"/><path class="cls-6" d="M330,272.07l-74.6-.17s.02,0,.04-.02c.97-.44,19.48-8.66,33.7-5.62,12.59,2.69,34.25,.88,40.86,5.81Z"/></g></g><g><g><path class="cls-11" d="M279.58,174.63l-29.3-8.36-3.62,19.43,10.4,5.86,3.19,15.69,.09,24.99,3.66,19.96-13.47-2.3-.46,4.83-2.27,18.59,2.73,3.44,27.49-13.17,10.05-32.85,2.04-21.85-10.54-34.27Z"/><polygon class="cls-10" points="233.53 207.25 236.68 232.24 239.39 250.75 248.6 255.12 252 274.27 226.67 260.17 213.94 230.75 213.81 208.9 223.04 176.24 247.73 167.93 250.02 184.83 244.07 191.69 233.53 207.25"/></g><g><g><path class="cls-11" d="M189.46,232.94l15.23-1.52,3.64,20.41-15.42-2.66,3.03,24.34-23.96-3.62-1.87-19.76-39.76-1.31,.43-12.93,14.36-21.44,11.04-24.14,13.45-22.64,.62,.64,24.76-.95,3.2,32.51-8.75,33.08Zm-44.52-1.22l25.48-.29-4.14-32.19,2.27-1.23,1.25,5.38-24.86,28.34Z"/><polygon class="cls-10" points="205.97 229.7 203.1 246.31 167.42 249.6 128.92 252.66 127.96 234.95 141.11 211.88 153.13 188.28 170.91 166.81 168.72 198.69 148.76 231.64 177.6 235.21 205.97 229.7"/></g><g><path class="cls-11" d="M357.1,232.94l15.23-1.52,3.64,20.41-15.42-2.66,3.03,24.34-23.96-3.62-1.87-19.76-39.76-1.31,.43-12.93,14.35-21.44,11.04-24.14,13.45-22.64,.62,.64,24.76-.95,3.2,32.51-8.75,33.08Zm-44.52-1.22l25.48-.29-4.14-32.19,2.27-1.23,1.25,5.38-24.86,28.34Z"/><polygon class="cls-10" points="373.62 229.7 370.75 246.31 335.07 249.6 296.56 252.66 295.6 234.95 308.75 211.88 320.77 188.28 338.56 166.81 336.36 198.69 316.4 231.64 345.25 235.21 373.62 229.7"/></g></g></g><g><path class="cls-7" d="M382.61,210.73c-5.15,.13-9.19,4.5-9.19,9.65v51.97h18.89v-52.18c0-5.3-4.36-9.58-9.69-9.44Z"/><path class="cls-1" d="M382.86,210.72c-2.96,0-5.36,4.23-5.36,9.44v52.18h10.72v-52.18c0-5.22-2.4-9.44-5.36-9.44Z"/><path class="cls-1" d="M382.86,210.72c-1.11,0-2.01,4.23-2.01,9.44v52.18h4.02v-52.18c0-5.22-.9-9.44-2.01-9.44Z"/><g><polygon class="cls-2" points="379 217.77 377.77 218.85 377.52 216.53 377.52 216.53 377.27 218.85 376.03 217.77 377.19 219.59 377.19 219.59 377.19 219.59 377.52 220.11 377.52 220.1 377.52 220.11 377.85 219.59 377.85 219.59 379 217.77"/><polygon class="cls-2" points="389.69 217.77 388.46 218.85 388.21 216.53 388.21 216.53 387.96 218.85 386.72 217.77 387.88 219.59 387.88 219.59 387.88 219.59 388.2 220.11 388.2 220.1 388.21 220.11 388.54 219.59 388.54 219.59 389.69 217.77"/><polygon class="cls-2" points="384.35 221.35 383.11 222.43 382.86 220.11 382.86 220.11 382.61 222.43 381.38 221.35 382.53 223.17 382.53 223.17 382.53 223.17 382.86 223.68 382.86 223.68 382.86 223.68 383.19 223.17 383.19 223.16 384.35 221.35"/><polygon class="cls-2" points="384.35 230.25 383.11 231.33 382.86 229.01 382.86 229.01 382.61 231.34 381.38 230.25 382.53 232.07 382.53 232.07 382.53 232.07 382.86 232.59 382.86 232.59 382.86 232.59 383.19 232.07 383.19 232.07 384.35 230.25"/><polygon class="cls-2" points="384.35 239.16 383.11 240.24 382.86 237.92 382.86 237.92 382.61 240.24 381.38 239.16 382.53 240.98 382.53 240.98 382.53 240.98 382.86 241.49 382.86 241.49 382.86 241.49 383.19 240.98 383.19 240.97 384.35 239.16"/><polygon class="cls-2" points="379 226.03 377.77 227.12 377.52 224.8 377.52 224.8 377.27 227.12 376.03 226.03 377.19 227.86 377.19 227.86 377.19 227.86 377.52 228.37 377.52 228.37 377.52 228.37 377.85 227.86 377.85 227.85 379 226.03"/><polygon class="cls-2" points="389.69 226.03 388.46 227.12 388.21 224.8 388.21 224.8 387.96 227.12 386.72 226.03 387.88 227.86 387.88 227.86 387.88 227.86 388.2 228.37 388.2 228.37 388.21 228.37 388.54 227.86 388.54 227.85 389.69 226.03"/><polygon class="cls-2" points="379 234.3 377.77 235.38 377.52 233.06 377.52 233.06 377.27 235.38 376.03 234.3 377.19 236.12 377.19 236.12 377.19 236.12 377.52 236.64 377.52 236.63 377.52 236.64 377.85 236.12 377.85 236.12 379 234.3"/><polygon class="cls-2" points="389.69 234.3 388.46 235.38 388.21 233.06 388.21 233.06 387.96 235.38 386.72 234.3 387.88 236.12 387.88 236.12 387.88 236.12 388.2 236.64 388.2 236.63 388.21 236.64 388.54 236.12 388.54 236.12 389.69 234.3"/></g><g><path class="cls-7" d="M365.54,224.92v-3.34c0-2.14-1.6-4.05-3.73-4.16-2.27-.12-4.16,1.69-4.16,3.94v7.75c0,3.61,2.92,6.53,6.53,6.53h10.05v-7.89h-5.85c-1.56,0-2.83-1.27-2.83-2.83Z"/><path class="cls-1" d="M364.18,232.89c-2.09,0-3.78-1.69-3.78-3.78v-7.75c0-.66,.54-1.2,1.2-1.2,.68,.03,1.2,.68,1.2,1.42v6.01c0,1.6,1.3,2.9,2.9,2.9h7.73v2.39h-9.24Z"/><polygon class="cls-2" points="365.71 231.73 364.48 232.81 364.23 230.49 364.23 230.49 363.98 232.81 362.74 231.73 363.9 233.55 363.9 233.55 363.9 233.55 364.22 234.07 364.22 234.06 364.23 234.07 364.56 233.55 364.56 233.55 365.71 231.73"/><polygon class="cls-2" points="361.88 226.03 360.65 227.12 360.4 224.8 360.4 224.8 360.15 227.12 358.91 226.03 360.07 227.86 360.07 227.86 360.07 227.86 360.39 228.37 360.39 228.37 360.4 228.37 360.73 227.86 360.73 227.85 361.88 226.03"/><polygon class="cls-2" points="364.23 220.97 362.99 222.05 362.74 219.73 362.74 219.73 362.49 222.05 361.26 220.97 362.41 222.79 362.41 222.79 362.41 222.79 362.74 223.3 362.74 223.3 362.74 223.3 363.07 222.79 363.07 222.78 364.23 220.97"/><polygon class="cls-2" points="371.45 231.73 370.22 232.81 369.97 230.49 369.97 230.49 369.72 232.81 368.48 231.73 369.64 233.55 369.64 233.55 369.64 233.55 369.97 234.07 369.97 234.06 369.97 234.07 370.3 233.55 370.3 233.55 371.45 231.73"/></g><g><path class="cls-7" d="M400.99,241.29v-3.34c0-2.14,1.6-4.05,3.73-4.16,2.27-.12,4.16,1.69,4.16,3.94v7.75c0,3.61-2.92,6.53-6.53,6.53h-10.05v-7.89h5.85c1.56,0,2.83-1.27,2.83-2.83Z"/><path class="cls-1" d="M402.35,249.27c2.09,0,3.78-1.69,3.78-3.78v-7.75c0-.66-.54-1.2-1.2-1.2-.68,.03-1.2,.68-1.2,1.42v6.01c0,1.6-1.3,2.9-2.9,2.9h-8.53v2.39h10.05Z"/><polygon class="cls-2" points="400.82 248.11 402.05 249.19 402.3 246.87 402.3 246.87 402.55 249.19 403.79 248.11 402.63 249.93 402.63 249.93 402.63 249.93 402.31 250.44 402.31 250.44 402.3 250.44 401.97 249.93 401.97 249.92 400.82 248.11"/><polygon class="cls-2" points="404.65 242.41 405.88 243.49 406.13 241.17 406.13 241.17 406.38 243.5 407.62 242.41 406.46 244.23 406.46 244.23 406.46 244.23 406.14 244.75 406.14 244.75 406.13 244.75 405.8 244.23 405.8 244.23 404.65 242.41"/><polygon class="cls-2" points="402.3 237.34 403.54 238.43 403.79 236.11 403.79 236.11 404.04 238.43 405.27 237.34 404.12 239.16 404.12 239.16 404.12 239.17 403.79 239.68 403.79 239.68 403.79 239.68 403.46 239.16 403.46 239.16 402.3 237.34"/><polygon class="cls-2" points="395.08 248.11 396.31 249.19 396.56 246.87 396.56 246.87 396.81 249.19 398.05 248.11 396.89 249.93 396.89 249.93 396.89 249.93 396.56 250.44 396.56 250.44 396.56 250.44 396.23 249.93 396.23 249.92 395.08 248.11"/></g><g><polygon class="cls-2" points="379 243.72 377.77 244.8 377.52 242.48 377.52 242.48 377.27 244.8 376.03 243.72 377.19 245.54 377.19 245.54 377.19 245.54 377.52 246.05 377.52 246.05 377.52 246.05 377.85 245.54 377.85 245.53 379 243.72"/><polygon class="cls-2" points="389.69 243.72 388.46 244.8 388.21 242.48 388.21 242.48 387.96 244.8 386.72 243.72 387.88 245.54 387.88 245.54 387.88 245.54 388.2 246.05 388.2 246.05 388.21 246.05 388.54 245.54 388.54 245.53 389.69 243.72"/><polygon class="cls-2" points="384.35 247.29 383.11 248.37 382.86 246.05 382.86 246.05 382.61 248.38 381.38 247.29 382.53 249.11 382.53 249.11 382.53 249.11 382.86 249.63 382.86 249.63 382.86 249.63 383.19 249.11 383.19 249.11 384.35 247.29"/><polygon class="cls-2" points="384.35 256.2 383.11 257.28 382.86 254.96 382.86 254.96 382.61 257.28 381.38 256.2 382.53 258.02 382.53 258.02 382.53 258.02 382.86 258.53 382.86 258.53 382.86 258.53 383.19 258.02 383.19 258.01 384.35 256.2"/><polygon class="cls-2" points="384.35 265.1 383.11 266.18 382.86 263.86 382.86 263.86 382.61 266.18 381.38 265.1 382.53 266.92 382.53 266.92 382.53 266.92 382.86 267.44 382.86 267.43 382.86 267.44 383.19 266.92 383.19 266.92 384.35 265.1"/><polygon class="cls-2" points="379 251.98 377.77 253.06 377.52 250.74 377.52 250.74 377.27 253.06 376.03 251.98 377.19 253.8 377.19 253.8 377.19 253.8 377.52 254.32 377.52 254.31 377.52 254.32 377.85 253.8 377.85 253.8 379 251.98"/><polygon class="cls-2" points="389.69 251.98 388.46 253.06 388.21 250.74 388.21 250.74 387.96 253.06 386.72 251.98 387.88 253.8 387.88 253.8 387.88 253.8 388.2 254.32 388.2 254.31 388.21 254.32 388.54 253.8 388.54 253.8 389.69 251.98"/><polygon class="cls-2" points="379 260.24 377.77 261.33 377.52 259.01 377.52 259.01 377.27 261.33 376.03 260.24 377.19 262.06 377.19 262.06 377.19 262.07 377.52 262.58 377.52 262.58 377.52 262.58 377.85 262.06 377.85 262.06 379 260.24"/><polygon class="cls-2" points="389.69 260.24 388.46 261.33 388.21 259.01 388.21 259.01 387.96 261.33 386.72 260.24 387.88 262.06 387.88 262.06 387.88 262.07 388.2 262.58 388.2 262.58 388.21 262.58 388.54 262.06 388.54 262.06 389.69 260.24"/></g><g><path class="cls-9" d="M383.7,207.52s.18-2.98-.84-4.94c-1.02,1.96-.84,4.94-.84,4.94h1.67Z"/><path class="cls-8" d="M384,206.56c-.25,.41-.52,.62-.78,.62h-.71c-.27,0-.53-.21-.78-.62l-1.28-2.1,.79,3.59c.43,1.96,1.02,3.06,1.63,3.06s1.19-1.1,1.63-3.06l.79-3.59-1.28,2.1Z"/><path class="cls-9" d="M384.61,207.23c-.38,.35-.79,.53-1.2,.53h-1.09c-.41,0-.81-.18-1.2-.53l-1.96-1.79,1.21,3.06c.66,1.67,1.56,2.61,2.49,2.61s1.83-.94,2.49-2.61l1.21-3.06-1.96,1.79Z"/><path class="cls-8" d="M385.42,207.88c-.56,.29-1.16,.44-1.76,.44h-1.6c-.6,0-1.19-.15-1.76-.44l-2.87-1.49,1.78,2.54c.97,1.39,2.28,2.17,3.65,2.17s2.68-.78,3.65-2.17l1.78-2.54-2.87,1.49Z"/></g><g><path class="cls-9" d="M361.79,215.92s.12-1.9-.53-3.14c-.65,1.25-.53,3.14-.53,3.14h1.06Z"/><path class="cls-8" d="M361.98,215.31c-.16,.26-.33,.4-.5,.4h-.45c-.17,0-.34-.13-.5-.4l-.81-1.34,.5,2.28c.27,1.25,.65,1.95,1.03,1.95s.76-.7,1.03-1.95l.5-2.28-.81,1.34Z"/><path class="cls-9" d="M362.36,215.74c-.24,.22-.5,.34-.76,.34h-.69c-.26,0-.52-.11-.76-.34l-1.25-1.14,.77,1.94c.42,1.06,.99,1.66,1.58,1.66s1.16-.6,1.58-1.66l.77-1.94-1.25,1.14Z"/><path class="cls-8" d="M362.88,216.16c-.36,.19-.74,.28-1.12,.28h-1.02c-.38,0-.76-.09-1.12-.28l-1.83-.95,1.13,1.62c.62,.88,1.45,1.38,2.32,1.38s1.71-.5,2.32-1.38l1.13-1.62-1.83,.95Z"/></g><g><path class="cls-9" d="M405.59,231.48s.15-2.45-.69-4.07c-.84,1.61-.69,4.07-.69,4.07h1.38Z"/><path class="cls-8" d="M405.84,230.69c-.21,.34-.42,.51-.64,.51h-.59c-.22,0-.44-.17-.64-.51l-1.05-1.73,.65,2.96c.36,1.61,.84,2.52,1.34,2.52s.98-.91,1.34-2.52l.65-2.96-1.05,1.73Z"/><path class="cls-9" d="M406.34,231.25c-.32,.29-.65,.44-.99,.44h-.9c-.34,0-.67-.15-.99-.44l-1.61-1.47,1,2.52c.54,1.37,1.28,2.15,2.05,2.15s1.51-.77,2.05-2.15l1-2.52-1.61,1.47Z"/><path class="cls-8" d="M407.01,231.78c-.46,.24-.95,.36-1.45,.36h-1.31c-.49,0-.98-.12-1.45-.36l-2.37-1.23,1.46,2.1c.8,1.14,1.88,1.79,3.01,1.79s2.21-.64,3.01-1.79l1.46-2.1-2.37,1.23Z"/></g></g><g><path class="cls-7" d="M114.71,171.73c-6.4,.16-11.42,5.59-11.42,11.99v100.18h23.45v-100.44c0-6.58-5.42-11.89-12.03-11.72Z"/><path class="cls-1" d="M115.02,171.72c-3.68,0-6.66,5.25-6.66,11.72v100.44h13.31v-100.44c0-6.48-2.98-11.72-6.66-11.72Z"/><path class="cls-1" d="M115.02,171.72c-1.38,0-2.5,5.25-2.5,11.72v100.44h4.99v-100.44c0-6.48-1.12-11.72-2.5-11.72Z"/><g><polygon class="cls-2" points="110.23 180.47 108.7 181.81 108.39 178.93 108.38 178.93 108.07 181.81 106.54 180.47 107.98 182.73 107.98 182.73 107.98 182.73 108.38 183.37 108.38 183.37 108.39 183.37 108.8 182.73 108.8 182.72 110.23 180.47"/><polygon class="cls-2" points="123.5 180.47 121.97 181.81 121.66 178.93 121.65 178.93 121.34 181.81 119.81 180.47 121.24 182.73 121.24 182.73 121.24 182.73 121.65 183.37 121.65 183.37 121.65 183.37 122.07 182.73 122.06 182.72 123.5 180.47"/><polygon class="cls-2" points="116.86 184.91 115.33 186.25 115.02 183.37 115.02 183.37 114.71 186.25 113.18 184.91 114.61 187.17 114.61 187.17 114.61 187.17 115.02 187.81 115.02 187.81 115.02 187.81 115.43 187.17 115.43 187.16 116.86 184.91"/><polygon class="cls-2" points="116.86 195.96 115.33 197.31 115.02 194.43 115.02 194.43 114.71 197.31 113.18 195.96 114.61 198.22 114.61 198.22 114.61 198.22 115.02 198.86 115.02 198.86 115.02 198.86 115.43 198.22 115.43 198.22 116.86 195.96"/><polygon class="cls-2" points="116.86 207.02 115.33 208.36 115.02 205.48 115.02 205.48 114.71 208.36 113.18 207.02 114.61 209.28 114.61 209.28 114.61 209.28 115.02 209.92 115.02 209.92 115.02 209.92 115.43 209.28 115.43 209.27 116.86 207.02"/><polygon class="cls-2" points="110.23 190.73 108.7 192.07 108.39 189.19 108.38 189.19 108.07 192.07 106.54 190.73 107.98 192.99 107.98 192.99 107.98 192.99 108.38 193.63 108.38 193.63 108.39 193.63 108.8 192.99 108.8 192.98 110.23 190.73"/><polygon class="cls-2" points="123.5 190.73 121.97 192.07 121.66 189.19 121.65 189.19 121.34 192.07 119.81 190.73 121.24 192.99 121.24 192.99 121.24 192.99 121.65 193.63 121.65 193.63 121.65 193.63 122.07 192.99 122.06 192.98 123.5 190.73"/><polygon class="cls-2" points="110.23 200.99 108.7 202.33 108.39 199.45 108.38 199.45 108.07 202.33 106.54 200.99 107.98 203.25 107.98 203.25 107.98 203.25 108.38 203.89 108.38 203.89 108.39 203.89 108.8 203.25 108.8 203.24 110.23 200.99"/><polygon class="cls-2" points="123.5 200.99 121.97 202.33 121.66 199.45 121.65 199.45 121.34 202.33 119.81 200.99 121.24 203.25 121.24 203.25 121.24 203.25 121.65 203.89 121.65 203.89 121.65 203.89 122.07 203.25 122.06 203.24 123.5 200.99"/></g><g><path class="cls-7" d="M93.51,189.34v-4.14c0-2.65-1.99-5.03-4.63-5.17-2.82-.15-5.16,2.1-5.16,4.89v9.62c0,4.48,3.63,8.11,8.11,8.11h12.47v-9.79h-7.27c-1.94,0-3.52-1.57-3.52-3.52Z"/><path class="cls-1" d="M91.82,199.24c-2.59,0-4.69-2.1-4.69-4.69v-9.62c0-.82,.67-1.48,1.49-1.48,.84,.04,1.48,.85,1.48,1.76v7.47c0,1.99,1.61,3.6,3.6,3.6h9.59v2.97h-11.47Z"/><polygon class="cls-2" points="93.73 197.8 92.2 199.14 91.89 196.26 91.88 196.26 91.57 199.14 90.04 197.8 91.47 200.06 91.47 200.06 91.47 200.06 91.88 200.7 91.88 200.69 91.88 200.7 92.29 200.06 92.29 200.05 93.73 197.8"/><polygon class="cls-2" points="88.97 190.73 87.44 192.07 87.13 189.19 87.13 189.19 86.82 192.07 85.28 190.73 86.72 192.99 86.72 192.99 86.72 192.99 87.13 193.63 87.13 193.63 87.13 193.63 87.54 192.99 87.54 192.98 88.97 190.73"/><polygon class="cls-2" points="91.88 184.44 90.35 185.78 90.04 182.9 90.04 182.9 89.73 185.78 88.19 184.44 89.63 186.7 89.63 186.7 89.63 186.7 90.04 187.34 90.04 187.33 90.04 187.34 90.45 186.7 90.45 186.69 91.88 184.44"/><polygon class="cls-2" points="100.85 197.8 99.32 199.14 99.01 196.26 99.01 196.26 98.7 199.14 97.17 197.8 98.6 200.06 98.6 200.06 98.6 200.06 99.01 200.7 99.01 200.69 99.01 200.7 99.42 200.06 99.42 200.05 100.85 197.8"/></g><g><path class="cls-7" d="M137.53,244.09v-4.14c0-2.65,1.99-5.03,4.63-5.17,2.82-.15,5.16,2.1,5.16,4.89v9.62c0,4.48-3.63,8.11-8.11,8.11h-12.47v-9.79h7.27c1.94,0,3.52-1.57,3.52-3.52Z"/><path class="cls-1" d="M139.22,253.99c2.59,0,4.69-2.1,4.69-4.69v-9.62c0-.82-.67-1.48-1.49-1.48-.84,.04-1.48,.85-1.48,1.76v7.47c0,1.99-1.61,3.6-3.6,3.6h-10.6v2.97h12.47Z"/><polygon class="cls-2" points="137.31 252.55 138.84 253.89 139.15 251.01 139.16 251.01 139.47 253.9 141 252.55 139.57 254.81 139.57 254.81 139.57 254.81 139.16 255.45 139.16 255.45 139.16 255.45 138.74 254.81 138.75 254.81 137.31 252.55"/><polygon class="cls-2" points="142.07 245.48 143.6 246.82 143.91 243.94 143.91 243.94 144.22 246.83 145.76 245.48 144.32 247.74 144.32 247.74 144.32 247.74 143.91 248.38 143.91 248.38 143.91 248.38 143.5 247.74 143.5 247.74 142.07 245.48"/><polygon class="cls-2" points="139.16 239.19 140.69 240.53 141 237.65 141 237.65 141.31 240.54 142.84 239.19 141.41 241.45 141.41 241.45 141.41 241.45 141 242.09 141 242.09 141 242.09 140.59 241.45 140.59 241.45 139.16 239.19"/><polygon class="cls-2" points="130.18 252.55 131.71 253.89 132.03 251.01 132.03 251.01 132.34 253.9 133.87 252.55 132.44 254.81 132.44 254.81 132.44 254.81 132.03 255.45 132.03 255.45 132.03 255.45 131.62 254.81 131.62 254.81 130.18 252.55"/></g><g><polygon class="cls-2" points="110.23 212.68 108.7 214.02 108.39 211.14 108.38 211.14 108.07 214.03 106.54 212.68 107.98 214.94 107.98 214.94 107.98 214.94 108.38 215.58 108.38 215.58 108.39 215.58 108.8 214.94 108.8 214.94 110.23 212.68"/><polygon class="cls-2" points="123.5 212.68 121.97 214.02 121.66 211.14 121.65 211.14 121.34 214.03 119.81 212.68 121.24 214.94 121.24 214.94 121.24 214.94 121.65 215.58 121.65 215.58 121.65 215.58 122.07 214.94 122.06 214.94 123.5 212.68"/><polygon class="cls-2" points="116.86 217.12 115.33 218.46 115.02 215.58 115.02 215.58 114.71 218.46 113.18 217.12 114.61 219.38 114.61 219.38 114.61 219.38 115.02 220.02 115.02 220.02 115.02 220.02 115.43 219.38 115.43 219.37 116.86 217.12"/><polygon class="cls-2" points="116.86 228.17 115.33 229.52 115.02 226.64 115.02 226.64 114.71 229.52 113.18 228.17 114.61 230.43 114.61 230.43 114.61 230.43 115.02 231.08 115.02 231.07 115.02 231.08 115.43 230.43 115.43 230.43 116.86 228.17"/><polygon class="cls-2" points="116.86 239.23 115.33 240.57 115.02 237.69 115.02 237.69 114.71 240.57 113.18 239.23 114.61 241.49 114.61 241.49 114.61 241.49 115.02 242.13 115.02 242.13 115.02 242.13 115.43 241.49 115.43 241.48 116.86 239.23"/><polygon class="cls-2" points="110.23 222.94 108.7 224.28 108.39 221.4 108.38 221.4 108.07 224.28 106.54 222.94 107.98 225.2 107.98 225.2 107.98 225.2 108.38 225.84 108.38 225.84 108.39 225.84 108.8 225.2 108.8 225.19 110.23 222.94"/><polygon class="cls-2" points="123.5 222.94 121.97 224.28 121.66 221.4 121.65 221.4 121.34 224.28 119.81 222.94 121.24 225.2 121.24 225.2 121.24 225.2 121.65 225.84 121.65 225.84 121.65 225.84 122.07 225.2 122.06 225.19 123.5 222.94"/><polygon class="cls-2" points="110.23 233.2 108.7 234.54 108.39 231.66 108.38 231.66 108.07 234.54 106.54 233.2 107.98 235.46 107.98 235.46 107.98 235.46 108.38 236.1 108.38 236.1 108.39 236.1 108.8 235.46 108.8 235.45 110.23 233.2"/><polygon class="cls-2" points="123.5 233.2 121.97 234.54 121.66 231.66 121.65 231.66 121.34 234.54 119.81 233.2 121.24 235.46 121.24 235.46 121.24 235.46 121.65 236.1 121.65 236.1 121.65 236.1 122.07 235.46 122.06 235.45 123.5 233.2"/></g><g><polygon class="cls-2" points="110.23 245.52 108.7 246.87 108.39 243.98 108.38 243.98 108.07 246.87 106.54 245.52 107.98 247.78 107.98 247.78 107.98 247.78 108.38 248.42 108.38 248.42 108.39 248.42 108.8 247.78 108.8 247.78 110.23 245.52"/><polygon class="cls-2" points="123.5 245.52 121.97 246.87 121.66 243.98 121.65 243.98 121.34 246.87 119.81 245.52 121.24 247.78 121.24 247.78 121.24 247.78 121.65 248.42 121.65 248.42 121.65 248.42 122.07 247.78 122.06 247.78 123.5 245.52"/><polygon class="cls-2" points="116.86 249.96 115.33 251.3 115.02 248.42 115.02 248.42 114.71 251.31 113.18 249.96 114.61 252.22 114.61 252.22 114.61 252.22 115.02 252.86 115.02 252.86 115.02 252.86 115.43 252.22 115.43 252.22 116.86 249.96"/><polygon class="cls-2" points="116.86 261.02 115.33 262.36 115.02 259.48 115.02 259.48 114.71 262.36 113.18 261.02 114.61 263.28 114.61 263.28 114.61 263.28 115.02 263.92 115.02 263.91 115.02 263.92 115.43 263.28 115.43 263.27 116.86 261.02"/><polygon class="cls-2" points="116.86 272.07 115.33 273.41 115.02 270.53 115.02 270.53 114.71 273.42 113.18 272.07 114.61 274.33 114.61 274.33 114.61 274.33 115.02 274.97 115.02 274.97 115.02 274.97 115.43 274.33 115.43 274.33 116.86 272.07"/><polygon class="cls-2" points="110.23 255.78 108.7 257.12 108.39 254.24 108.38 254.24 108.07 257.13 106.54 255.78 107.98 258.04 107.98 258.04 107.98 258.04 108.38 258.68 108.38 258.68 108.39 258.68 108.8 258.04 108.8 258.04 110.23 255.78"/><polygon class="cls-2" points="123.5 255.78 121.97 257.12 121.66 254.24 121.65 254.24 121.34 257.13 119.81 255.78 121.24 258.04 121.24 258.04 121.24 258.04 121.65 258.68 121.65 258.68 121.65 258.68 122.07 258.04 122.06 258.04 123.5 255.78"/><polygon class="cls-2" points="110.23 266.04 108.7 267.38 108.39 264.5 108.38 264.5 108.07 267.39 106.54 266.04 107.98 268.3 107.98 268.3 107.98 268.3 108.38 268.94 108.38 268.94 108.39 268.94 108.8 268.3 108.8 268.3 110.23 266.04"/><polygon class="cls-2" points="123.5 266.04 121.97 267.38 121.66 264.5 121.65 264.5 121.34 267.39 119.81 266.04 121.24 268.3 121.24 268.3 121.24 268.3 121.65 268.94 121.65 268.94 121.65 268.94 122.07 268.3 122.06 268.3 123.5 266.04"/></g><g><path class="cls-9" d="M116.06,167.74s.23-3.7-1.04-6.13c-1.27,2.43-1.04,6.13-1.04,6.13h2.08Z"/><path class="cls-8" d="M116.43,166.55c-.31,.51-.64,.77-.97,.77h-.88c-.33,0-.66-.26-.97-.77l-1.59-2.61,.98,4.46c.54,2.43,1.26,3.8,2.02,3.8s1.48-1.37,2.02-3.8l.98-4.46-1.59,2.61Z"/><path class="cls-9" d="M117.18,167.39c-.48,.44-.98,.66-1.49,.66h-1.35c-.51,0-1.01-.22-1.49-.66l-2.43-2.22,1.5,3.8c.82,2.07,1.93,3.23,3.09,3.23s2.27-1.16,3.09-3.23l1.5-3.8-2.43,2.22Z"/><path class="cls-8" d="M118.19,168.2c-.7,.36-1.44,.55-2.18,.55h-1.98c-.74,0-1.48-.19-2.18-.55l-3.57-1.85,2.2,3.16c1.2,1.72,2.83,2.69,4.53,2.69s3.33-.97,4.53-2.69l2.2-3.16-3.57,1.85Z"/></g><g><path class="cls-9" d="M88.86,178.18s.15-2.35-.66-3.9c-.81,1.55-.66,3.9-.66,3.9h1.32Z"/><path class="cls-8" d="M89.09,177.42c-.2,.33-.41,.49-.62,.49h-.56c-.21,0-.42-.17-.62-.49l-1.01-1.66,.62,2.84c.34,1.55,.8,2.42,1.28,2.42s.94-.87,1.28-2.42l.62-2.84-1.01,1.66Z"/><path class="cls-9" d="M89.57,177.95c-.3,.28-.62,.42-.95,.42h-.86c-.32,0-.64-.14-.95-.42l-1.55-1.41,.96,2.41c.52,1.32,1.23,2.06,1.97,2.06s1.45-.74,1.97-2.06l.96-2.41-1.55,1.41Z"/><path class="cls-8" d="M90.21,178.47c-.44,.23-.91,.35-1.39,.35h-1.26c-.47,0-.94-.12-1.39-.35l-2.27-1.18,1.4,2.01c.76,1.1,1.8,1.71,2.88,1.71s2.12-.62,2.88-1.71l1.4-2.01-2.27,1.18Z"/></g><g><path class="cls-9" d="M143.24,231.91s.19-3.05-.86-5.05c-1.04,2-.86,5.05-.86,5.05h1.71Z"/><path class="cls-8" d="M143.55,230.93c-.26,.42-.53,.64-.8,.64h-.73c-.27,0-.54-.22-.8-.64l-1.31-2.15,.81,3.67c.44,2,1.04,3.13,1.66,3.13s1.22-1.13,1.66-3.13l.81-3.67-1.31,2.15Z"/><path class="cls-9" d="M144.17,231.62c-.39,.36-.81,.54-1.23,.54h-1.11c-.42,0-.83-.18-1.23-.54l-2-1.83,1.24,3.13c.68,1.71,1.59,2.66,2.55,2.66s1.87-.96,2.55-2.66l1.24-3.13-2,1.83Z"/><path class="cls-8" d="M145,232.28c-.58,.3-1.18,.45-1.8,.45h-1.63c-.61,0-1.22-.15-1.8-.45l-2.94-1.52,1.82,2.6c.99,1.42,2.33,2.22,3.73,2.22s2.74-.8,3.73-2.22l1.82-2.6-2.94,1.52Z"/></g></g><g><path class="cls-5" d="M425.72,270.54c-.68,0-12.16,17.57-13.33,19.24-5.88,8.42-17.6,9.74-26.6,14.69-6.86,3.77-12.23,9.81-16.49,16.38-5.62,8.67-10.21,19.09-19.62,23.36-7.55,3.43-16.48,1.9-24.12-1.32-12.73-5.37-22.02-11.67-36.04-13.48-13.42-1.73-27.33,.11-39.76,5.49-12.43,5.38-25.26,14.32-38.24,10.46-16.43-4.9-23.12-28.04-40.06-30.66-12.2-1.89-23.22,8.13-35.53,9.03-11.98,.88-22.93-7.07-30.57-16.33-7.64-9.27-13.21-20.19-21.49-28.9-3-3.15-6.2-5.73-9.6-7.97H425.72Z"/><path class="cls-4" d="M425.72,270.53c-.68,0-12.17,17.56-13.34,19.25-5.87,8.42-17.6,9.74-26.6,14.69-6.85,3.77-12.23,9.81-16.48,16.38-5.62,8.67-10.21,19.09-19.62,23.36-7.55,3.42-16.48,1.9-24.12-1.32-12.74-5.36-22.02-11.67-36.04-13.47-13.41-1.73-27.33,.11-39.76,5.49-12.43,5.37-25.26,14.33-38.23,10.46-16.43-4.9-23.13-28.04-40.06-30.66-12.2-1.89-23.21,8.13-35.53,9.03-11.98,.88-22.93-7.06-30.58-16.33-7.64-9.26-13.21-20.18-21.49-28.89-3-3.15-6.2-5.73-9.6-7.97h25.22c1.87,2.69,3.79,5.33,5.87,7.85,7.65,9.26,18.59,17.21,30.58,16.33,12.32-.9,23.33-10.92,35.53-9.04,16.94,2.62,23.63,25.76,40.06,30.66,12.97,3.87,25.8-5.08,38.23-10.46,12.43-5.37,26.34-7.21,39.76-5.49,14.02,1.81,23.3,8.11,36.04,13.48,7.64,3.22,16.57,4.74,24.12,1.31,9.41-4.27,14-14.69,19.62-23.36,4.25-6.57,9.63-12.6,16.48-16.38,3.62-1.99,7.67-3.39,11.62-4.91h28.32Z"/></g><g><g><path class="cls-3" d="M255.26,111.82h71.96c-.27-6.94-5.98-12.48-12.99-12.48h0c-2.88-6.5-9.38-11.04-16.94-11.04-9.09,0-16.65,6.55-18.22,15.19-.33-.04-.66-.06-1-.06-2.93,0-5.53,1.42-7.16,3.6-.56-.14-1.14-.21-1.74-.21-2.12,0-4.02,.91-5.34,2.37-.88-.46-1.89-.72-2.95-.72-2.43,0-4.55,1.36-5.63,3.35Z"/><path class="cls-3" d="M342.86,112.83h-96.56c-.36,0-.65-.29-.65-.65h0c0-.36,.29-.65,.65-.65h96.56c.36,0,.65,.29,.65,.65h0c0,.36-.29,.65-.65,.65Z"/><path class="cls-3" d="M271.65,116.46h-35.4c-.36,0-.65-.29-.65-.65h0c0-.36,.29-.65,.65-.65h35.4c.36,0,.65,.29,.65,.65h0c0,.36-.29,.65-.65,.65Z"/><path class="cls-3" d="M313.07,116.46h-19.44c-.36,0-.65-.29-.65-.65h0c0-.36,.29-.65,.65-.65h19.44c.36,0,.65,.29,.65,.65h0c0,.36-.29,.65-.65,.65Z"/></g><g><path class="cls-3" d="M220.5,148.7h-60.63c.23-5.85,5.04-10.52,10.95-10.52h0c2.42-5.48,7.9-9.3,14.27-9.3,7.66,0,14.02,5.52,15.35,12.8,.28-.03,.56-.05,.84-.05,2.47,0,4.66,1.2,6.03,3.04,.47-.12,.96-.18,1.46-.18,1.79,0,3.39,.77,4.5,1.99,.74-.39,1.59-.61,2.49-.61,2.05,0,3.83,1.14,4.74,2.82Z"/><path class="cls-3" d="M146.7,149.55h81.35c.3,0,.54-.24,.54-.54h0c0-.3-.24-.54-.54-.54h-81.35c-.3,0-.54,.24-.54,.54h0c0,.3,.24,.54,.54,.54Z"/><path class="cls-3" d="M206.69,152.61h29.83c.3,0,.54-.24,.54-.54h0c0-.3-.24-.54-.54-.54h-29.83c-.3,0-.54,.24-.54,.54h0c0,.3,.24,.54,.54,.54Z"/><path class="cls-3" d="M171.79,152.61h16.38c.3,0,.54-.24,.54-.54h0c0-.3-.24-.54-.54-.54h-16.38c-.3,0-.54,.24-.54,.54h0c0,.3,.24,.54,.54,.54Z"/></g></g></svg>