<svg width="179" height="167" viewBox="0 0 179 167" fill="none" xmlns="http://www.w3.org/2000/svg">
<path d="M70.2229 83.6092C70.2229 80.6556 70.7874 77.7 71.9144 74.9214C73.0433 72.1428 74.7348 69.5373 76.9908 67.2837C79.2468 65.0301 81.8531 63.3384 84.6366 62.2125C87.4181 61.0848 90.3768 60.5228 93.3335 60.5228C96.2902 60.5228 99.2488 61.0867 102.03 62.2125" stroke="#35285B" stroke-width="2" stroke-linecap="round" stroke-linejoin="round"/>
<path d="M93.3355 106.698C90.3787 106.698 87.4201 106.134 84.6386 105.008C81.857 103.882 79.2488 102.19 76.9928 99.9367" stroke="#35285B" stroke-width="2" stroke-linecap="round" stroke-linejoin="round"/>
<path d="M109.676 67.2856C111.932 69.5392 113.626 72.1428 114.753 74.9234C115.882 77.702 116.444 80.6575 116.444 83.6111C116.444 86.5647 115.88 89.5203 114.753 92.2989C113.624 95.0775 111.932 97.6831 109.676 99.9367C107.42 102.19 104.814 103.882 102.03 105.008" stroke="#35285B" stroke-width="2" stroke-linecap="round" stroke-linejoin="round"/>
<path d="M77.4658 122.654C72.3894 120.596 67.6322 117.513 63.5154 113.4C59.3986 109.288 56.3095 104.535 54.252 99.4642C52.1927 94.3931 51.1649 89.0011 51.1649 83.6111C51.1649 78.2211 52.1946 72.8292 54.252 67.7581C56.3114 62.687 59.3986 57.9348 63.5154 53.8223" stroke="#35285B" stroke-width="2" stroke-linecap="round" stroke-linejoin="round"/>
<path d="M93.3355 125.738C87.9398 125.738 82.5422 124.709 77.4658 122.654" stroke="#35285B" stroke-width="2" stroke-linecap="round" stroke-linejoin="round"/>
<path d="M123.156 113.4C119.039 117.513 114.282 120.598 109.205 122.654C104.129 124.711 98.7311 125.738 93.3354 125.738" stroke="#35285B" stroke-width="2" stroke-linecap="round" stroke-linejoin="round"/>
<path d="M77.4658 44.5667C82.5422 42.5095 87.9398 41.4828 93.3355 41.4828C98.7311 41.4828 104.129 42.5114 109.205 44.5667C114.282 46.6239 119.039 49.7078 123.156 53.8203C127.272 57.9328 130.361 62.685 132.419 67.7561C134.478 72.8272 135.506 78.2192 135.506 83.6092" stroke="#35285B" stroke-width="2" stroke-linecap="round" stroke-linejoin="round"/>
<path d="M32.1011 83.6092C32.1011 75.7808 33.596 67.9545 36.5858 60.5908C39.5755 53.2272 44.0583 46.3283 50.0379 40.355C56.0155 34.3836 62.9236 29.9036 70.2949 26.917C77.6663 23.9303 85.5009 22.437 93.3374 22.437C101.174 22.437 109.009 23.9303 116.38 26.917" stroke="#35285B" stroke-width="2" stroke-linecap="round" stroke-linejoin="round"/>
<path d="M70.2931 140.301C62.9217 137.315 56.0156 132.837 50.036 126.863C44.0584 120.892 39.5737 113.991 36.5839 106.628" stroke="#35285B" stroke-width="2" stroke-linecap="round" stroke-linejoin="round"/>
<path d="M150.085 60.5909C153.075 67.9545 154.57 75.7809 154.57 83.6092C154.57 91.4375 153.075 99.2639 150.085 106.628C147.095 113.991 142.613 120.89 136.633 126.863C130.655 132.835 123.747 137.315 116.376 140.301" stroke="#35285B" stroke-width="2" stroke-linecap="round" stroke-linejoin="round"/>
<path d="M167.751 113.793C163.831 123.449 157.953 132.496 150.112 140.327C142.274 148.157 133.217 154.031 123.551 157.947C113.884 161.863 103.611 163.821 93.3354 163.821" stroke="#35285B" stroke-width="2" stroke-linecap="round" stroke-linejoin="round"/>
<path d="M36.5566 26.8917C44.3951 19.0614 53.4521 13.1872 63.1183 9.27114C72.7846 5.35503 83.0581 3.39697 93.3336 3.39697C103.609 3.39697 113.883 5.35503 123.549 9.27114C133.215 13.1872 142.272 19.0595 150.11 26.8917C157.949 34.722 163.829 43.7695 167.75 53.4256C171.67 63.0817 173.63 73.3445 173.63 83.6092" stroke="#35285B" stroke-width="2" stroke-linecap="round" stroke-linejoin="round"/>
<path d="M63.1183 157.947C53.452 154.031 44.3951 148.159 36.5566 140.327C28.7181 132.496 22.8378 123.449 18.9176 113.793C14.9973 104.137 13.0372 93.8739 13.0372 83.6092C13.0372 73.3445 14.9973 63.0817 18.9176 53.4256" stroke="#35285B" stroke-width="2" stroke-linecap="round" stroke-linejoin="round"/>
<path d="M123.156 53.8203L150.112 26.8917" stroke="#35285B" stroke-width="2" stroke-linecap="round" stroke-linejoin="round"/>
<path d="M104.323 42.6436L109.116 24.7742" stroke="#35285B" stroke-width="2" stroke-linecap="round" stroke-linejoin="round"/>
<path d="M77.3178 23.8953L72.5529 6.13086" stroke="#35285B" stroke-width="2" stroke-linecap="round" stroke-linejoin="round"/>
<path d="M57.8842 60.6414L41.9503 50.3145" stroke="#35285B" stroke-width="2" stroke-linecap="round" stroke-linejoin="round"/>
<path d="M34.1468 67.7678L15.7739 62.8503" stroke="#35285B" stroke-width="2" stroke-linecap="round" stroke-linejoin="round"/>
<path d="M52.251 94.6069L15.7739 104.37" stroke="#35285B" stroke-width="2" stroke-linecap="round" stroke-linejoin="round"/>
<path d="M90.4916 60.1728L88.3894 41.7958" stroke="#35285B" stroke-width="2" stroke-linecap="round" stroke-linejoin="round"/>
<path d="M49.855 127.044L36.5566 140.329" stroke="#35285B" stroke-width="2" stroke-linecap="round" stroke-linejoin="round"/>
<path d="M87.1787 106.561L82.5266 123.904" stroke="#35285B" stroke-width="2" stroke-linecap="round" stroke-linejoin="round"/>
<path d="M104.247 124.295L114.116 161.088" stroke="#35285B" stroke-width="2" stroke-linecap="round" stroke-linejoin="round"/>
<path d="M127.237 135.248L137.378 150.694" stroke="#35285B" stroke-width="2" stroke-linecap="round" stroke-linejoin="round"/>
<path d="M114.338 73.9628L131.002 66.3094" stroke="#35285B" stroke-width="2" stroke-linecap="round" stroke-linejoin="round"/>
<path d="M134.365 72.627L152.162 67.8631" stroke="#35285B" stroke-width="2" stroke-linecap="round" stroke-linejoin="round"/>
<path d="M111.05 57.7072H106.381V46.0464C106.381 38.325 100.092 32.0425 92.3622 32.0425C84.6328 32.0425 78.3437 38.325 78.3437 46.0464V57.7072H73.6741V46.0464C73.6741 35.7525 82.0576 27.3759 92.3642 27.3759C102.671 27.3759 111.054 35.7506 111.054 46.0464V57.7072H111.05Z" fill="#EDE7F6"/>
<path d="M61.8336 57.0889V115.444C61.8336 119.303 64.9655 122.434 68.8312 122.434H115.891C119.755 122.434 122.889 119.305 122.889 115.444V57.0889H61.8336ZM95.1905 99.7209V114.711H89.534V99.7209C81.4814 98.3753 75.3441 91.3831 75.3441 82.9578C75.3441 73.5681 82.9646 65.9556 92.3642 65.9556C101.764 65.9556 109.384 73.5681 109.384 82.9578C109.384 91.385 103.247 98.3753 95.1944 99.7209H95.1905Z" fill="#49BAA1"/>
<path d="M114.716 57.0889V115.444C114.716 119.303 111.584 122.434 107.718 122.434H115.891C119.755 122.434 122.889 119.305 122.889 115.444V57.0889H114.716Z" fill="#497B87"/>
<path d="M101.824 64.3806C104.226 65.6094 106.426 67.3283 108.267 69.5236" stroke="white" stroke-width="3" stroke-linecap="round" stroke-linejoin="round"/>
<path d="M72.4848 88.935C71.6945 86.3586 71.4239 83.6695 71.6575 81.025C71.8911 78.3806 72.6288 75.7809 73.859 73.3814C75.0891 70.982 76.8099 68.7848 79.0074 66.9453C81.205 65.1059 83.6731 63.7972 86.2522 63.0078C88.8313 62.2184 91.5233 61.9481 94.1705 62.1814" stroke="white" stroke-width="3" stroke-linecap="round" stroke-linejoin="round"/>
<path d="M147.716 43.26C148.703 42.4453 149.277 41.2377 149.277 39.9583C149.277 38.6789 148.703 37.4714 147.716 36.6566C144.437 33.95 137.133 26.7594 137.133 16.3994H151.037H164.941C164.941 26.7614 157.638 33.9519 154.358 36.6566C153.371 37.4714 152.797 38.6789 152.797 39.9583C152.797 41.2377 153.371 42.4453 154.358 43.26C157.638 45.9666 164.941 53.1572 164.941 63.5172H151.037H137.133C137.133 53.1552 144.437 45.9647 147.716 43.26Z" fill="#EDE7F6"/>
<path d="M164.941 63.5172H151.037H137.133C137.133 57.5672 139.543 52.6653 142.214 49.0544L162.373 53.1047C163.874 56.0642 164.941 59.5583 164.941 63.5172V63.5172Z" fill="#FFB74D"/>
<path d="M137.133 16.3994H151.037H164.941C164.941 18.8708 164.522 21.1594 163.845 23.2536L141.865 30.38C139.337 26.8197 137.133 22.0889 137.133 16.3994V16.3994Z" fill="#EDE7F6"/>
<path d="M149.277 39.9583C149.277 38.6789 148.703 37.4714 147.716 36.6567C146.237 35.4355 143.942 33.3025 141.865 30.38L163.845 23.2536C161.682 29.9347 156.855 34.5975 154.36 36.6586C153.373 37.4733 152.799 38.6808 152.799 39.9603H149.279L149.277 39.9583Z" fill="#FFB74D"/>
<path d="M137.168 17.8052L164.904 17.8052C165.681 17.8052 166.311 17.1758 166.311 16.3994V16.3975C166.311 15.621 165.681 14.9916 164.904 14.9916L137.168 14.9916C136.391 14.9916 135.761 15.621 135.761 16.3975V16.3994C135.761 17.1758 136.391 17.8052 137.168 17.8052Z" fill="#FF6B57"/>
<path d="M146.846 33.3686C146.681 33.1858 146.513 32.9972 146.344 32.8028C144.043 30.1525 141.632 26.5203 140.45 22.0656" stroke="white" stroke-width="2" stroke-linecap="round" stroke-linejoin="round"/>
<path d="M163.38 55.3544C162.058 60.828 151.037 61.8333 146.846 62.1114C146.079 62.1619 145.104 62.6908 144.143 63.5172H164.943C164.943 60.5189 164.33 57.7889 163.382 55.3525L163.38 55.3544Z" fill="#FB8C00"/>
<path d="M137.168 64.923H164.904C165.681 64.923 166.311 64.2936 166.311 63.5172V63.5153C166.311 62.7388 165.681 62.1094 164.904 62.1094H137.168C136.391 62.1094 135.761 62.7388 135.761 63.5153V63.5172C135.761 64.2936 136.391 64.923 137.168 64.923Z" fill="#FF6B57"/>
<path d="M69.9173 95.8417V108.004H75.3577V95.8417H77.9816V103.427H83.422V95.8417V93.3275V91.63C83.422 89.5553 81.7383 87.8733 79.6614 87.8733H39.1726C37.3274 78.8667 29.3487 72.0903 19.7876 72.0903C8.43571 72.0903 -0.6855 81.6414 0.0405381 93.1369C0.677038 103.229 9.07805 111.321 19.1959 111.615C29.0198 111.901 37.2904 105.033 39.1726 95.8397H61.853V103.425H67.2934V95.8397H69.9173V95.8417ZM30.6626 91.8575C30.6626 97.8581 25.7925 102.721 19.7876 102.721C13.7807 102.721 8.9126 97.8561 8.9126 91.8575C8.9126 85.8569 13.7827 80.9939 19.7876 80.9939C25.7944 80.9939 30.6626 85.8589 30.6626 91.8575Z" fill="#FFB74D"/>
<path d="M69.8804 95.8417H72.5042V106.711H75.3578V108.002H69.9173V95.8417H69.8804Z" fill="#FB8C00"/>
<path d="M77.9446 95.9681H80.5685V102.134H83.422V103.425H77.9816V95.8417H77.9446V95.9681Z" fill="#FB8C00"/>
<path d="M64.4399 95.8417V102.134H67.2934V103.425H61.853V95.8417H64.4399Z" fill="#FB8C00"/>
<path d="M27.0636 77.6766C28.9069 78.6197 30.5964 79.94 32.0115 81.6258" stroke="white" stroke-width="3" stroke-linecap="round" stroke-linejoin="round"/>
<path d="M4.53695 96.5319C3.92965 94.5525 3.72137 92.4875 3.90045 90.4575C4.07953 88.4275 4.64595 86.4305 5.59194 84.5892C6.53599 82.7478 7.85765 81.06 9.54525 79.6464C11.2328 78.2328 13.1268 77.2294 15.1083 76.6228C17.0898 76.0161 19.157 75.808 21.1891 75.9869" stroke="white" stroke-width="3" stroke-linecap="round" stroke-linejoin="round"/>
<path d="M98.3418 9.6172C98.2464 9.27498 98.1102 8.95026 97.9408 8.64887L98.26 7.75442L97.1953 6.69081L96.2999 7.0097C95.9982 6.83859 95.6732 6.70248 95.3306 6.60915L94.9238 5.75165H93.4191L93.0123 6.60915C92.6697 6.70442 92.3447 6.84053 92.043 7.0097L91.1476 6.69081L90.0829 7.75442L90.4021 8.64887C90.2308 8.95026 90.0945 9.27498 90.0011 9.6172L89.1427 10.0236V11.5266L90.0011 11.933C90.0965 12.2753 90.2327 12.6 90.4021 12.9014L90.0829 13.7958L91.1476 14.8594L92.043 14.5405C92.3447 14.7116 92.6697 14.8478 93.0123 14.9411L93.4191 15.7986H94.9238L95.3306 14.9411C95.6732 14.8458 95.9982 14.7097 96.2999 14.5405L97.1953 14.8594L98.26 13.7958L97.9408 12.9014C98.1121 12.6 98.2483 12.2753 98.3418 11.933L99.2002 11.5266V10.0236L98.3418 9.6172ZM94.1724 13.7647C92.5199 13.7647 91.1807 12.4269 91.1807 10.7761C91.1807 9.12526 92.5199 7.78748 94.1724 7.78748C95.825 7.78748 97.1642 9.12526 97.1642 10.7761C97.1642 12.4269 95.825 13.7647 94.1724 13.7647Z" fill="#FF6B57"/>
<path d="M99.5428 140.107C99.4474 139.765 99.3112 139.44 99.1418 139.139L99.4611 138.244L98.3963 137.181L97.501 137.5C97.1993 137.328 96.8742 137.192 96.5316 137.099L96.1248 136.241H94.6202L94.2134 137.099C93.8708 137.194 93.5457 137.33 93.244 137.5L92.3486 137.181L91.2839 138.244L91.6031 139.139C91.4318 139.44 91.2956 139.765 91.2022 140.107L90.3438 140.513V142.016L91.2022 142.423C91.2975 142.765 91.4338 143.09 91.6031 143.391L91.2839 144.286L92.3486 145.349L93.244 145.03C93.5457 145.201 93.8708 145.338 94.2134 145.431L94.6202 146.288H96.1248L96.5316 145.431C96.8742 145.336 97.1993 145.2 97.501 145.03L98.3963 145.349L99.4611 144.286L99.1418 143.391C99.3131 143.09 99.4494 142.765 99.5428 142.423L100.401 142.016V140.513L99.5428 140.107ZM95.3735 144.255C93.7209 144.255 92.3817 142.917 92.3817 141.266C92.3817 139.615 93.7209 138.277 95.3735 138.277C97.026 138.277 98.3652 139.615 98.3652 141.266C98.3652 142.917 97.026 144.255 95.3735 144.255Z" fill="#FF6B57"/>
<path d="M43.4413 59.5681C43.2973 59.0489 43.091 58.555 42.8301 58.0981L43.3148 56.7389L41.6973 55.1231L40.3367 55.6072C39.8773 55.3467 39.3829 55.1406 38.8651 54.9967L38.2481 53.6939H35.961L35.3439 54.9967C34.8242 55.1406 34.3298 55.3467 33.8724 55.6072L32.5118 55.1231L30.8943 56.7389L31.379 58.0981C31.1181 58.557 30.9118 59.0509 30.7678 59.5681L29.4636 60.1845V62.4692L30.7678 63.0856C30.9118 63.6047 31.1181 64.0986 31.379 64.5556L30.8943 65.9147L32.5118 67.5306L33.8724 67.0464C34.3318 67.307 34.8262 67.5131 35.3439 67.657L35.961 68.9597H38.2481L38.8651 67.657C39.3849 67.5131 39.8792 67.307 40.3367 67.0464L41.6973 67.5306L43.3148 65.9147L42.8301 64.5556C43.091 64.0967 43.2973 63.6028 43.4413 63.0856L44.7455 62.4692V60.1845L43.4413 59.5681V59.5681ZM37.1075 65.8681C34.5965 65.8681 32.5624 63.8342 32.5624 61.3278C32.5624 58.8214 34.5984 56.7875 37.1075 56.7875C39.6165 56.7875 41.6525 58.8214 41.6525 61.3278C41.6525 63.8342 39.6165 65.8681 37.1075 65.8681Z" fill="#FFB74D"/>
<path d="M58.7173 39.0853C59.3168 38.3658 58.9664 37.2672 58.0613 37.0281C57.0336 36.7578 56.0603 36.2911 55.416 35.7545C53.7576 34.3739 53.5338 31.9122 54.9158 30.2556C56.2978 28.5989 58.7621 28.3753 60.4205 29.7558C61.0648 30.2925 61.6974 31.1636 62.1509 32.1242C62.5499 32.972 63.6945 33.1178 64.294 32.3983L69.7714 25.832C69.8512 25.7367 69.9329 25.6472 70.0205 25.5636C71.021 24.08 70.7543 22.05 69.349 20.8814L62.6823 15.332C62.1412 14.7078 62.3241 13.7083 63.1066 13.3408C64.0701 12.8897 64.9402 12.2558 65.4774 11.6122C66.8594 9.95556 66.6356 7.4939 64.9772 6.11334C63.3188 4.73278 60.8545 4.9564 59.4725 6.61306C58.9353 7.25667 58.4701 8.22695 58.1976 9.25556C57.9776 10.0897 57.0239 10.4514 56.3134 10.0314L49.5591 4.40806C48.0583 3.15973 45.8296 3.36195 44.578 4.86112L39.1006 11.4275C38.5011 12.147 37.3566 12.0011 36.9576 11.1533C36.506 10.1908 35.8714 9.32167 35.2271 8.78501C33.5687 7.40445 31.1045 7.62806 29.7225 9.28473C28.3405 10.9414 28.5643 13.4031 30.2227 14.7836C30.867 15.3203 31.8383 15.785 32.868 16.0572C33.7731 16.2964 34.1235 17.395 33.524 18.1145L28.0875 24.6322C26.8378 26.1314 27.0402 28.3578 28.541 29.6081L48.3309 46.0814C49.7362 47.252 51.782 47.147 53.0628 45.8967C53.1309 45.7956 53.2029 45.6983 53.2827 45.6031L58.7192 39.0853H58.7173Z" fill="#FF6B57"/>
<path d="M37.4325 18.3011L31.5132 25.3964C30.8884 26.145 30.9896 27.2573 31.739 27.8795L46.287 39.9895" stroke="#FFB74D" stroke-width="2" stroke-linecap="round" stroke-linejoin="round"/>
<path d="M139.214 92.4583L137.133 96.0575L135.052 92.4583H139.214Z" fill="#FF6B57"/>
<path d="M139.214 97.8328L137.133 101.434L135.052 97.8328H139.214Z" fill="#FF6B57"/>
<path d="M139.214 103.209L137.133 106.808L135.052 103.209H139.214Z" fill="#FF6B57"/>
<path d="M119.592 0L117.511 3.59917L115.43 0H119.592Z" fill="#FFB74D"/>
<path d="M119.592 5.37445L117.511 8.97556L115.43 5.37445H119.592Z" fill="#FFB74D"/>
<path d="M119.592 10.7509L117.511 14.35L115.43 10.7509H119.592Z" fill="#FFB74D"/>
<path d="M33.1833 113.196L31.1025 117.269L29.0237 113.196H33.1833Z" fill="#49BAA1"/>
<path d="M33.1833 119.278L31.1025 123.352L29.0237 119.278H33.1833Z" fill="#49BAA1"/>
<path d="M33.1833 125.36L31.1025 129.434L29.0237 125.36H33.1833Z" fill="#49BAA1"/>
<path d="M139.362 165.359C139.411 165.278 139.465 165.198 139.522 165.122L143.527 159.8C143.969 159.213 143.652 158.365 142.932 158.214C142.114 158.041 141.336 157.714 140.81 157.319C139.455 156.302 139.185 154.381 140.203 153.028C141.221 151.674 143.144 151.402 144.499 152.421C145.024 152.816 145.556 153.475 145.947 154.21C146.293 154.858 147.195 154.928 147.636 154.34L151.672 148.979C151.73 148.902 151.792 148.83 151.856 148.76C152.582 147.558 152.292 145.977 151.146 145.116L134.988 132.979C133.764 132.059 132.024 132.304 131.103 133.529L127.068 138.89C126.626 139.477 125.723 139.407 125.378 138.759C124.985 138.023 124.456 137.365 123.93 136.971C122.575 135.954 120.652 136.226 119.634 137.577C118.616 138.931 118.889 140.852 120.242 141.869C120.767 142.263 121.548 142.59 122.363 142.763C123.084 142.915 123.401 143.763 122.959 144.35L118.953 149.672C118.032 150.895 118.278 152.633 119.504 153.553L135.662 165.69C136.81 166.551 138.408 166.39 139.364 165.361L139.362 165.359Z" fill="#49BAA1"/>
<path d="M147.782 145.192L134.772 135.419C134.009 134.847 132.927 134.999 132.355 135.761L130.387 138.374" stroke="white" stroke-width="2" stroke-linecap="round" stroke-linejoin="round"/>
<path d="M74.2425 148.495V146.03L70.1646 144.84C69.9952 143.768 69.7149 142.736 69.3373 141.75L72.2707 138.684L71.0366 136.549L66.9081 137.554C66.2346 136.726 65.4755 135.967 64.6463 135.294L65.6526 131.17L63.5154 129.937L60.4458 132.868C59.4589 132.491 58.4253 132.211 57.3528 132.041L56.1616 127.968H53.6934L52.5022 132.041C51.4297 132.211 50.3961 132.491 49.4092 132.868L46.3396 129.937L44.2024 131.17L45.2087 135.294C44.3795 135.967 43.6204 136.726 42.9469 137.554L38.8184 136.549L37.5843 138.684L40.5177 141.75C40.1401 142.736 39.8598 143.768 39.6904 144.84L35.6125 146.03V148.495L39.6904 149.685C39.8598 150.757 40.1401 151.789 40.5177 152.775L37.5843 155.841L38.8184 157.976L42.9469 156.971C43.6204 157.799 44.3795 158.558 45.2087 159.231L44.2024 163.355L46.3396 164.588L49.4092 161.657C50.3961 162.034 51.4297 162.314 52.5022 162.484L53.6934 166.557H56.1616L57.3528 162.484C58.4253 162.314 59.4589 162.034 60.4458 161.657L63.5154 164.588L65.6526 163.355L64.6463 159.231C65.4755 158.558 66.2346 157.799 66.9081 156.971L71.0366 157.976L72.2707 155.841L69.3373 152.775C69.7149 151.789 69.9952 150.757 70.1646 149.685L74.2425 148.495V148.495ZM54.9275 155.359C50.4525 155.359 46.8224 151.735 46.8224 147.263C46.8224 142.79 50.4506 139.166 54.9275 139.166C59.4044 139.166 63.0326 142.79 63.0326 147.263C63.0326 151.735 59.4044 155.359 54.9275 155.359Z" fill="#FF6B57"/>
<path d="M54.9255 136.79C49.1367 136.79 44.4418 141.478 44.4418 147.262C44.4418 153.047 49.1348 157.735 54.9255 157.735C60.7163 157.735 65.4093 153.047 65.4093 147.262C65.4093 141.478 60.7163 136.79 54.9255 136.79ZM54.9255 153.666C51.3849 153.666 48.5138 150.797 48.5138 147.261C48.5138 143.724 51.3849 140.856 54.9255 140.856C58.4662 140.856 61.3372 143.724 61.3372 147.261C61.3372 150.797 58.4662 153.666 54.9255 153.666Z" fill="#FF2A2F"/>
<path d="M59.9922 159.242C58.435 159.899 56.7221 160.265 54.9255 160.265C53.1289 160.265 51.416 159.901 49.8588 159.242C48.3017 158.583 46.9002 157.632 45.7206 156.456C44.5411 155.279 43.5892 153.877 42.9313 152.322C42.2734 150.766 41.9075 149.055 41.9075 147.261C41.9075 145.466 42.2715 143.755 42.9313 142.199C43.5912 140.644 44.543 139.244 45.7206 138.065C46.8982 136.889 48.3017 135.936 49.8588 135.279C51.416 134.622 53.1289 134.256 54.9255 134.256C56.7221 134.256 58.435 134.62 59.9922 135.279" stroke="#FFB74D" stroke-width="2" stroke-linecap="round" stroke-linejoin="round"/>
<path d="M64.1305 138.067C65.3081 139.244 66.2619 140.646 66.9198 142.201C67.5777 143.757 67.9437 145.468 67.9437 147.263C67.9437 149.057 67.5797 150.768 66.9198 152.324" stroke="#FFB74D" stroke-width="2" stroke-linecap="round" stroke-linejoin="round"/>
<path d="M172.307 131.166C172.89 130.816 173.404 130.708 173.849 130.842C174.294 130.977 174.691 131.335 175.042 131.918C175.393 132.5 175.554 133.001 175.525 133.419C175.493 133.831 175.35 134.276 175.096 134.754L175.031 134.878L175.408 135.505L174.06 136.314L173.473 135.338C173.341 135.118 173.272 134.926 173.266 134.762C173.263 134.586 173.323 134.406 173.445 134.221C173.563 134.028 173.647 133.889 173.698 133.803C173.748 133.716 173.781 133.608 173.796 133.478C173.814 133.336 173.779 133.194 173.693 133.05C173.602 132.899 173.496 132.809 173.375 132.779C173.25 132.742 173.102 132.775 172.931 132.878C172.759 132.981 172.419 133.292 171.91 133.812L170.976 132.259C171.466 131.77 171.909 131.405 172.307 131.166ZM174.723 137.834C174.397 137.293 174.529 136.845 175.119 136.491C175.709 136.136 176.167 136.23 176.492 136.772C176.649 137.032 176.698 137.269 176.639 137.481C176.583 137.683 176.404 137.874 176.102 138.056C175.492 138.422 175.032 138.348 174.723 137.834Z" fill="#FF6B57"/>
</svg>
