<?xml version="1.0" encoding="UTF-8"?><svg xmlns="http://www.w3.org/2000/svg" xmlns:xlink="http://www.w3.org/1999/xlink" viewBox="0 0 750 500"><defs><style>.cls-1,.cls-2,.cls-3,.cls-4,.cls-5,.cls-6{fill:none;}.cls-7{fill:#dcb681;mix-blend-mode:screen;opacity:.5;}.cls-8{opacity:.11;}.cls-8,.cls-9{fill:#fff;}.cls-10{clip-path:url(#clippath);}.cls-11{fill:#f6b380;}.cls-12{fill:#e4bc93;}.cls-13{fill:#e4a180;}.cls-14{fill:#fffefb;}.cls-15{fill:#e47c80;}.cls-16{fill:#efebea;}.cls-17{fill:#b76c6d;}.cls-18{fill:#8e586d;}.cls-19{fill:#af6b6d;}.cls-20{fill:#d27b6d;}.cls-21,.cls-22{fill:#dad6dc;}.cls-23{fill:#d9d8d5;}.cls-24{fill:#ae676d;}.cls-25{fill:#210d51;}.cls-26{fill:#446f84;}.cls-27{fill:#446e7e;}.cls-28{fill:#0f1a24;}.cls-29{fill:#44828a;}.cls-30{fill:#878d91;}.cls-31,.cls-32{fill:#291239;}.cls-33{fill:#34515a;}.cls-34{fill:#343d51;}.cls-35{fill:#34425a;}.cls-36{fill:#44a4a9;}.cls-37{fill:#794b65;}.cls-38{fill:#343951;}.cls-39{fill:#4db1a7;}.cls-40{fill:#4d9b8a;}.cls-41{fill:#4dab8a;}.cls-2{stroke-width:.2px;}.cls-2,.cls-3,.cls-4,.cls-5,.cls-6{stroke:#fffefb;stroke-miterlimit:10;}.cls-3{stroke-width:.22px;}.cls-4{stroke-width:.16px;}.cls-42{clip-path:url(#clippath-1);}.cls-43{clip-path:url(#clippath-4);}.cls-44{clip-path:url(#clippath-3);}.cls-45{clip-path:url(#clippath-2);}.cls-46{clip-path:url(#clippath-5);}.cls-5{stroke-width:.18px;}.cls-32,.cls-47{opacity:.13;}.cls-6{stroke-width:.15px;}.cls-22{fill-rule:evenodd;}.cls-48{isolation:isolate;}.cls-9{opacity:.29;}</style><clipPath id="clippath"><polygon class="cls-1" points="468.11 500 750 500 750 261.44 717.4 261.44 468.11 429.44 468.11 500"/></clipPath><clipPath id="clippath-1"><polygon class="cls-1" points="750 234.7 670.9 234.7 517.37 104.43 517.37 0 750 0 750 234.7"/></clipPath><clipPath id="clippath-2"><path class="cls-1" d="M692.03,85.52c-.86-1.24-2.28-1.99-3.8-1.99h0c-1.52,0-2.94,.74-3.8,1.99l-2.61,3.76c-2.73,3.93-3.77,8.8-2.89,13.51l4.52,23.97c.43,2.3,2.44,3.96,4.78,3.96h0c2.34,0,4.35-1.66,4.78-3.96l4.52-23.97c.89-4.71-.15-9.57-2.89-13.51l-2.61-3.76Z"/></clipPath><clipPath id="clippath-3"><path class="cls-1" d="M563.81,.75c-.86-1.25-2.28-1.99-3.8-1.99h0c-1.52,0-2.94,.74-3.8,1.99l-2.61,3.76c-2.73,3.93-3.77,8.8-2.89,13.51l4.52,23.97c.43,2.3,2.44,3.96,4.78,3.96h0c2.34,0,4.35-1.66,4.78-3.96l4.52-23.97c.89-4.71-.15-9.57-2.89-13.51l-2.61-3.76Z"/></clipPath><clipPath id="clippath-4"><polygon class="cls-1" points="616.84 64.21 600.63 64.21 592.53 64.21 592.53 64.8 592.53 107.1 592.53 107.7 600.63 107.7 616.84 107.7 624.95 107.7 624.95 107.1 624.95 64.8 624.95 64.21 616.84 64.21"/></clipPath><clipPath id="clippath-5"><polygon class="cls-1" points="267.9 500 0 500 0 298.69 165.27 298.69 267.9 416.87 267.9 500"/></clipPath></defs><g class="cls-48"><g id="BACKGROUND"><g><rect class="cls-16" width="750" height="500"/><g class="cls-10"><path class="cls-21" d="M754.13,330.44c-3.32-2.45-6.3-4.68-8.72-6.52l-5.73-30.23c4.34-1.8,7.39-6.09,7.36-11.08-.02-4.91-3-9.1-7.24-10.92,1.83,2.01,2.95,4.68,2.96,7.62,.02,3.37-1.44,6.4-3.76,8.5l-.29-2.56v-1.73s-.1,.87-.1,.87l-.1-.87v1.73s-.33,3.24-.33,3.24c-1.89,1.42-4.23,2.28-6.78,2.29-2.45,.01-4.73-.76-6.6-2.06,2.08,3.54,5.94,5.92,10.35,5.9,.83,0,1.63-.09,2.41-.26l-5.3,30.53c-5.9,4.46-14.44,10.78-23.43,16.97-16.38,11.28-27.16,41.76-9.51,61l-.05,9.94-18.35-.08,.04-8.83s3.22-3.81,3.25-9.78h-1.13s-.01,2.25-.01,2.25h-.9s.01-2.25,.01-2.25h-1.18s-.29-31.67-.29-31.67c0,0,3.38-.51,3.39-3.17v-.13h0v-2.96s-1.02,0-1.02,0v2.61s-.64,0-.64,0v-2.61s-1.02,0-1.02,0v2.61s-.71,0-.71,0v-2.61s-1.02,0-1.02,0v2.61s-.17,0-.17,0l-.63-5.9c1.37-.77,2.3-2.23,2.31-3.91,0-2.04-1.34-3.77-3.19-4.33l-.18-1.7c1.17-.21,2-.73,2-1.35,0-.68-.97-1.25-2.3-1.42l-.21-1.98c.38-.18,.65-.56,.65-1.01,0-.54-.37-.99-.88-1.1l-.09-.88c.57-.34,.96-.93,.96-1.63,0-.79-.48-1.47-1.16-1.76,.29,.32,.47,.75,.48,1.23,0,.41-.16,.77-.39,1.08l-.02-.2v-.34s-.02,.17-.02,.17l-.02-.17v.34s-.04,.35-.04,.35c-.33,.37-.81,.61-1.34,.61-.39,0-.76-.12-1.06-.33,.34,.57,.96,.95,1.67,.95,.22,0,.42-.06,.61-.13l-.08,.72c-.49,.12-.85,.56-.85,1.08,0,.44,.25,.81,.61,1l-.23,1.98c-1.41,.13-2.48,.71-2.48,1.42,0,.65,.9,1.21,2.15,1.4l-.19,1.63c-1.95,.49-3.39,2.25-3.4,4.35,0,1.75,.98,3.26,2.43,4.02l-.68,5.81h-.16s.01-2.61,.01-2.61h-1.03s-.01,2.6-.01,2.6h-.7s.01-2.61,.01-2.61h-1.03s-.01,2.6-.01,2.6h-.62s.01-2.61,.01-2.61h-1.03s-.01,2.96-.01,2.96h0v.13c-.01,2.66,3.36,3.2,3.36,3.2l-.58,31.66h-1.18s-.01,2.24-.01,2.24h-.9s.01-2.25,.01-2.25h-1.13c-.03,5.96,3.16,9.8,3.16,9.8l-.04,8.83h-1.19s-.03,5.8-.03,5.8h-2.02c-.02,3.93,3.19,4.84,3.19,4.84l-.03,6.53h-1.07s0,1.99,0,1.99l-5.09-.02-.55,3.96h-2.36s-.05,10.77-.05,10.77l-4.23-.02,.03-6.37c11.43-12.23,4.69-31.82-5.73-39.14-7.79-5.47-15.07-11.11-18.25-13.61l-1.27-18.21c2.78-.61,4.88-3.07,4.89-6.04,.01-2.56-1.52-4.76-3.72-5.72,.94,1.06,1.51,2.45,1.51,3.98,0,2.14-1.16,4-2.87,5.04l-.13-1.84-.16,2c-.84,.45-1.79,.73-2.81,.72-1.28,0-2.46-.42-3.43-1.11,1.07,1.86,3.07,3.11,5.36,3.12,.23,0,.44-.04,.66-.06l-1.43,18.1c-3.21,2.47-10.54,8.04-18.38,13.44-10.49,7.23-17.41,26.76-6.09,39.09l-.03,6.37-11.31-.05-1.19-38.84s4.22-.66,4.24-3.52h-2.05s.02-4.23,.02-4.23h-2.51s.03-7.42,.03-7.42l3.99,.02s-.43-5.13-4.2-5.15v-3.08s2.01,0,2.01,0c0,0-1.07-3.2-4.15-3.21l-1.51-18.25-1.68,18.24c-3.08-.01-4.18,3.17-4.18,3.17h2s-.01,3.09-.01,3.09c-3.76-.02-4.24,5.11-4.24,5.11l3.99,.02-.03,7.41h-2.51s-.02,4.21-.02,4.21h-2.05c-.01,2.84,4.2,3.55,4.2,3.55l-1.61,40.59h-1.65s-.08,16.64-.08,16.64h-1.48c-.01,2.88,2.06,3.81,3.13,4.1l-1.42,10.21-4.98-.02,.03-6.27h-3.01s.01-3.3,.01-3.3c0,0,2.81-3.32,2.84-8.52h-.98s0,1.96,0,1.96h-.78s0-1.97,0-1.97h-1.03s-.25-27.61-.25-27.61c0,0,2.95-.44,2.96-2.77v-.11h0v-2.58s-.89,0-.89,0v2.27s-.55,0-.55,0v-2.27s-.89,0-.89,0v2.27s-.62,0-.62,0v-2.27s-.89,0-.89,0v2.27s-.15,0-.15,0l-.55-5.14c1.19-.67,2.01-1.94,2.01-3.41,0-1.78-1.17-3.28-2.78-3.78l-.16-1.48c1.02-.18,1.74-.64,1.74-1.18,0-.59-.85-1.09-2-1.24l-.19-1.73c.33-.16,.57-.49,.57-.88,0-.47-.33-.86-.77-.96l-.2-1.89v-.29s-.02,.15-.02,.15l-.02-.15v.29s-.22,1.9-.22,1.9c-.42,.11-.74,.49-.74,.94,0,.38,.21,.71,.53,.87l-.2,1.73c-1.23,.11-2.16,.62-2.16,1.24,0,.57,.79,1.05,1.88,1.22l-.16,1.42c-1.7,.43-2.96,1.96-2.97,3.79,0,1.52,.86,2.85,2.12,3.51l-.59,5.06h-.14s.01-2.27,.01-2.27h-.9s-.01,2.27-.01,2.27h-.61s.01-2.28,.01-2.28h-.9s-.01,2.27-.01,2.27h-.54s.01-2.28,.01-2.28h-.9s-.01,2.58-.01,2.58h0v.11c-.01,2.32,2.93,2.79,2.93,2.79l-.5,27.6h-1.03s0,1.96,0,1.96h-.78s0-1.97,0-1.97h-.98c-.02,5.2,2.76,8.55,2.76,8.55v3.29s-2.81-.01-2.81-.01l-.03,6.28-23.6-.11h-2.54s-.03,5.48-.03,5.48h2.54s-.05,10.73-.05,10.73l-6.14-.03-.03,5.78-6.64-.18,.02-19.15h-2.95s0-1.88,0-1.88h-1.63s0-1.33,0-1.33h-.57s.02-3.49,.02-3.49c0,0,1.71-.47,1.72-2.57h-1.71s.04-7.82,.04-7.82c0,0,1.72-2.03,1.74-5.22h-.6s0,1.2,0,1.2h-.48s0-1.2,0-1.2h-.63s-.15-16.9-.15-16.9c0,0,1.8-.27,1.81-1.69v-.07h0v-1.58s-.54,0-.54,0v1.39s-.34,0-.34,0v-1.39s-.54,0-.54,0v1.39s-.38,0-.38,0v-1.39s-.54,0-.54,0v1.39s-.09,0-.09,0l-.34-3.15c.73-.41,1.23-1.19,1.23-2.09,0-1.09-.71-2.01-1.7-2.31l-.1-.91c.62-.11,1.07-.39,1.07-.72,0-.36-.52-.67-1.23-.76l-.11-1.06c.2-.1,.35-.3,.35-.54,0-.29-.2-.53-.47-.59l-.12-1.16v-.18s0,.09,0,.09v-.09s-.01,.18-.01,.18l-.13,1.16c-.26,.07-.45,.3-.45,.58,0,.23,.13,.43,.32,.53l-.12,1.06c-.75,.07-1.32,.38-1.32,.76,0,.35,.48,.64,1.15,.75l-.1,.87c-1.04,.26-1.81,1.2-1.82,2.32,0,.93,.52,1.74,1.3,2.15l-.36,3.1h-.09s0-1.39,0-1.39h-.55s0,1.39,0,1.39h-.37s0-1.39,0-1.39h-.55s0,1.39,0,1.39h-.33s0-1.39,0-1.39h-.55s0,1.58,0,1.58h0v.07c0,1.42,1.79,1.71,1.79,1.71l-.31,16.9h-.63s0,1.2,0,1.2h-.48s0-1.2,0-1.2h-.6c-.01,3.18,1.69,5.23,1.69,5.23l-.04,7.81h-1.71c0,2.09,1.7,2.58,1.7,2.58l-.02,3.48h-.57s0,1.32,0,1.32h-1.8s0,1.85,0,1.85h-2.11v-4.95l-3.3-.02-1.19-38.84s4.22-.66,4.24-3.52h-2.05s.02-4.23,.02-4.23h-2.51s.03-7.42,.03-7.42l3.99,.02s-.43-5.13-4.2-5.15v-3.08s2.01,0,2.01,0c0,0-1.07-3.2-4.15-3.21l-1.51-18.25-1.68,18.24c-3.08-.01-4.18,3.17-4.18,3.17h2s-.01,3.09-.01,3.09c-3.76-.02-4.24,5.11-4.24,5.11l3.99,.02-.03,7.41h-2.51s-.02,4.21-.02,4.21h-2.05c-.01,2.84,4.2,3.55,4.2,3.55l-1.61,40.59h-1.65s-.08,16.64-.08,16.64h-1.48c-.01,2.88,2.06,3.81,3.13,4.1l-1.42,10.21-4.98-.02,.03-6.27h-3.01s.01-3.3,.01-3.3c0,0,2.81-3.32,2.84-8.52h-.98s0,1.96,0,1.96h-.78s0-1.97,0-1.97h-1.03s-.25-27.61-.25-27.61c0,0,2.95-.44,2.96-2.77v-.11h0v-2.58s-.89,0-.89,0v2.27s-.55,0-.55,0v-2.27s-.89,0-.89,0v2.27s-.62,0-.62,0v-2.27s-.89,0-.89,0v2.27s-.15,0-.15,0l-.55-5.14c1.19-.67,2.01-1.94,2.01-3.41,0-1.78-1.17-3.28-2.78-3.78l-.16-1.48c1.02-.18,1.74-.64,1.74-1.18,0-.59-.85-1.09-2-1.24l-.19-1.73c.33-.16,.57-.49,.57-.88,0-.47-.33-.86-.77-.96l-.2-1.89v-.29s-.02,.15-.02,.15l-.02-.15v.29s-.22,1.9-.22,1.9c-.42,.11-.74,.49-.74,.94,0,.38,.21,.71,.53,.87l-.2,1.73c-1.23,.11-2.16,.62-2.16,1.24,0,.57,.79,1.05,1.88,1.22l-.16,1.42c-1.7,.43-2.96,1.96-2.97,3.79,0,1.52,.86,2.85,2.12,3.51l-.59,5.06h-.14s.01-2.27,.01-2.27h-.9s-.01,2.27-.01,2.27h-.61s.01-2.28,.01-2.28h-.9s-.01,2.27-.01,2.27h-.54s.01-2.28,.01-2.28h-.9s-.01,2.58-.01,2.58h0v.11c-.01,2.32,2.93,2.79,2.93,2.79l-.5,27.6h-1.03s0,1.96,0,1.96h-.78s0-1.97,0-1.97h-.98c-.02,5.2,2.76,8.55,2.76,8.55v3.29s-2.81-.01-2.81-.01l-.03,6.28-4.03-.02v-12.44s-2.93-.01-2.93-.01v-1.86s-1.62,0-1.62,0v-1.32s-.56,0-.56,0l.02-3.48s1.71-.47,1.72-2.57h-1.71s.04-7.82,.04-7.82c0,0,1.72-2.03,1.74-5.22h-.6s0,1.2,0,1.2h-.48s0-1.2,0-1.2h-.63s-.15-16.9-.15-16.9c0,0,1.8-.27,1.81-1.69v-.07h0v-1.58s-.54,0-.54,0v1.39s-.34,0-.34,0v-1.39s-.54,0-.54,0v1.39s-.38,0-.38,0v-1.39s-.54,0-.54,0v1.39s-.09,0-.09,0l-.34-3.15c.73-.41,1.23-1.19,1.23-2.09,0-1.09-.71-2.01-1.7-2.31l-.1-.91c.62-.11,1.07-.39,1.07-.72,0-.36-.52-.67-1.23-.76l-.11-1.06c.2-.1,.35-.3,.35-.54,0-.29-.2-.53-.47-.59l-.12-1.16v-.18s0,.09,0,.09v-.09s-.01,.18-.01,.18l-.13,1.16c-.26,.07-.45,.3-.45,.58,0,.23,.13,.43,.32,.53l-.12,1.06c-.75,.07-1.32,.38-1.32,.76,0,.35,.48,.64,1.15,.75l-.1,.87c-1.04,.26-1.81,1.2-1.82,2.32,0,.93,.52,1.74,1.3,2.15l-.36,3.1h-.09s0-1.39,0-1.39h-.55s0,1.39,0,1.39h-.37s0-1.39,0-1.39h-.55s0,1.39,0,1.39h-.33s0-1.39,0-1.39h-.55s0,1.58,0,1.58h0v.07c0,1.42,1.79,1.71,1.79,1.71l-.31,16.9h-.63s0,1.2,0,1.2h-.48s0-1.2,0-1.2h-.6c-.01,3.18,1.69,5.23,1.69,5.23l-.04,7.81h-1.71c0,2.09,1.7,2.58,1.7,2.58l-.02,3.48h-.57s0,1.32,0,1.32h-1.8s0,1.85,0,1.85h-2.46s-.02,19.14-.02,19.14h-2.55s-.01,3.03-.01,3.03h0v2.74s0,0,0,0v2.48h16.63v5.05h39.46v-16.83h240.94v-181.55Z"/></g><g><path class="cls-21" d="M113.44,174.57c-.32-.19-.65-.37-1-.53-.3-5.34-4.72-9.59-10.13-9.59-1.57,0-3.05,.37-4.37,1-1-5.73-5.99-10.09-12-10.09-3.07,0-5.87,1.15-8.02,3.02-2.16-4-6.4-6.73-11.27-6.73-5.85,0-10.77,3.92-12.3,9.28-1.84-1.11-3.99-1.76-6.29-1.76-5.58,0-10.28,3.75-11.73,8.86-.66,2.32-1.77,4.48-3.5,6.16l-2.33,2.26H121.72l-8.28-1.89Z"/><path class="cls-21" d="M416.74,106.49c.3-.18,.61-.35,.93-.49,.28-4.98,4.4-8.94,9.45-8.94,1.46,0,2.84,.34,4.08,.93,.93-5.35,5.59-9.41,11.2-9.41,2.87,0,5.48,1.07,7.48,2.82,2.02-3.74,5.97-6.28,10.51-6.28,5.45,0,10.04,3.66,11.47,8.66,1.72-1.04,3.72-1.64,5.87-1.64,5.21,0,9.59,3.5,10.94,8.27,.61,2.16,1.65,4.18,3.26,5.74l2.17,2.11h-85.1l7.73-1.76Z"/><path class="cls-21" d="M276.17,82.3c-.48-.28-.98-.55-1.49-.78-.45-7.97-7.03-14.3-15.12-14.3-2.34,0-4.54,.54-6.52,1.49-1.49-8.55-8.93-15.05-17.9-15.05-4.58,0-8.76,1.71-11.96,4.51-3.23-5.97-9.54-10.03-16.81-10.03-8.72,0-16.06,5.85-18.34,13.84-2.74-1.66-5.95-2.63-9.38-2.63-9.99,0-18.09,8.05-18.19,18.02-2.38-1.56-5.23-2.47-8.28-2.47-5.28,0-9.92,2.71-12.62,6.81l-11.89,3.42h160.87l-12.36-2.82Z"/><polygon class="cls-22" points="194.44 135.4 196.28 141.04 202.21 141.04 197.41 144.53 199.24 150.17 194.44 146.68 189.65 150.17 191.48 144.53 186.68 141.04 192.61 141.04 194.44 135.4"/><polygon class="cls-22" points="383.05 39.68 384.89 45.32 390.82 45.32 386.02 48.8 387.85 54.44 383.05 50.95 378.26 54.44 380.09 48.8 375.29 45.32 381.22 45.32 383.05 39.68"/><polygon class="cls-22" points="54.41 38.31 56.24 43.95 62.17 43.95 57.37 47.44 59.2 53.08 54.41 49.59 49.61 53.08 51.44 47.44 46.65 43.95 52.57 43.95 54.41 38.31"/><polygon class="cls-22" points="57.59 259.16 59.42 264.8 65.35 264.8 60.55 268.28 62.38 273.92 57.59 270.44 52.79 273.92 54.62 268.28 49.82 264.8 55.75 264.8 57.59 259.16"/></g></g></g><g id="OBJECTS"><g class="cls-42"><g><g><rect class="cls-13" x="687.61" y="-52.52" width="1.23" height="100"/><g><g><g><path class="cls-20" d="M712,88.24l-10.86-7.18h-14.04l10.86,7.18c4.58,3.03,6.31,8.9,4.12,13.93l-14.98,34.3h14.04l14.98-34.3c2.19-5.03,.46-10.91-4.12-13.93Z"/><g><path class="cls-12" d="M679.13,88.24l9.42-6.23-1.44-.95h-11.4l-10.86,7.18c-4.58,3.03-6.31,8.9-4.12,13.93l14.98,34.3h11.4l1.44-3.3-13.53-31c-2.2-5.03-.46-10.91,4.12-13.93Z"/><path class="cls-13" d="M697.96,88.24l-9.42-6.23-9.42,6.23c-4.58,3.03-6.31,8.9-4.12,13.93l13.53,31,13.53-31c2.19-5.03,.46-10.91-4.12-13.93Z"/></g></g><g><g><g><g><path class="cls-20" d="M710.18,92.59l-11.22-8.68c-.32-.25-.71-.38-1.11-.38-.44,0-.82,.15-1.12,.38l11.21,8.68c2.31,1.79,3.11,4.91,1.96,7.59l-12.71,29.49c-.11,.25-.27,.46-.47,.63,.3,.25,.68,.41,1.11,.41h0c.69,0,1.31-.41,1.58-1.04l12.71-29.49c1.16-2.68,.35-5.8-1.96-7.59Z"/><path class="cls-28" d="M697.2,129.68l12.71-29.49c1.16-2.68,.35-5.8-1.96-7.59l-11.21-8.68c-.72,.56-.97,1.64-.37,2.48l3.42,4.84c1.8,2.55,2.49,5.72,1.89,8.79l-5.53,28.64c-.12,.64,.13,1.25,.58,1.64,.2-.17,.36-.38,.47-.63Z"/></g><g><path class="cls-20" d="M667.57,100.17c-1.16-2.68-.35-5.8,1.96-7.59l10.85-8.4c-.32-.39-.81-.65-1.39-.65-.4,0-.79,.13-1.11,.38l-11.22,8.68c-2.31,1.79-3.11,4.91-1.96,7.59l12.71,29.49c.27,.63,.9,1.04,1.58,1.04,.61,0,1.13-.32,1.44-.79-.06-.09-.11-.18-.15-.27l-12.71-29.49Z"/><path class="cls-28" d="M680.69,128.67l-5.53-28.64c-.59-3.07,.09-6.24,1.89-8.79l3.42-4.84c.52-.73,.4-1.62-.1-2.22l-10.85,8.4c-2.31,1.79-3.11,4.91-1.96,7.59l12.71,29.49c.04,.1,.09,.19,.15,.27,.24-.36,.35-.8,.26-1.27Z"/></g><g><g><path class="cls-20" d="M694.64,89.28l-2.61-3.76c-.86-1.24-2.28-1.99-3.8-1.99h0c-.37,0-.73,.05-1.07,.13,1.09,.26,2.07,.91,2.73,1.86l2.61,3.76c2.73,3.93,3.77,8.8,2.89,13.51l-4.52,23.97c-.37,1.94-1.85,3.42-3.71,3.84,.35,.08,.71,.12,1.07,.12h0c2.34,0,4.35-1.66,4.78-3.96l4.52-23.97c.89-4.71-.15-9.57-2.89-13.51Z"/><path class="cls-28" d="M690.86,126.76l4.52-23.97c.89-4.71-.15-9.57-2.89-13.51l-2.61-3.76c-.66-.94-1.63-1.6-2.73-1.86-1.09,.26-2.07,.91-2.73,1.86l-2.61,3.76c-2.73,3.93-3.77,8.8-2.89,13.51l4.52,23.97c.37,1.94,1.85,3.42,3.71,3.84,1.86-.42,3.34-1.9,3.71-3.84Z"/></g><g class="cls-45"><g><path class="cls-30" d="M693.05,104.39c0,2.55-2.07,4.62-4.62,4.62s-4.62-2.07-4.62-4.62,2.07-4.62,4.62-4.62,4.62,2.07,4.62,4.62Z"/><g><g><g><rect class="cls-23" x="689.39" y="113.28" width="1.63" height="17.43"/><rect class="cls-14" x="685.83" y="113.28" width="3.56" height="17.43"/></g><line class="cls-3" x1="688.43" y1="113.28" x2="688.43" y2="109.79"/></g><g><g><path class="cls-20" d="M690.21,107.55c-1.69-3.45-1.78-5.26-1.78-5.26,0,0-.37,.59-.8,1.46,.24,.88,.68,2.15,1.49,3.8,1.21,2.48-.23,3.45-1.14,3.8,.15,.06,.28,.14,.45,.19,0,0,3.47-.54,1.78-3.99Z"/><path class="cls-13" d="M689.12,107.55c-.81-1.65-1.25-2.92-1.49-3.8-1.1,2.23-2.61,6.34,.35,7.61,.91-.35,2.36-1.33,1.14-3.8Z"/></g><path class="cls-12" d="M688.08,108.88c.16,.8-.02,1.5-.4,1.57-.38,.07-.81-.51-.96-1.31-.15-.8,.03-1.5,.4-1.57,.38-.07,.81,.51,.96,1.31Z"/></g></g></g></g></g></g><path class="cls-13" d="M686.9,95.75l-24.94-2.57v2.79l24.9,2.64c.9,.1,1.82,.1,2.72,0l24.9-2.64v-2.79l-24.94,2.57c-.88,.09-1.76,.09-2.64,0Z"/></g><g><g><g><g><path class="cls-20" d="M703.95,64.76c-5.43-9.49-11.38-7.73-15.53-17.77-1.08,2.61-2.28,4.42-3.56,5.84,3.65,4.04,7.95,4.91,11.97,11.93,3.42,5.98,.08,10.19-2.86,12.48h.72v2.03h7.12v-2.03h-.72c2.94-2.29,6.27-6.5,2.86-12.48Z"/><g><path class="cls-12" d="M680.87,77.24c-2.94-2.29-6.27-6.5-2.86-12.48,3.11-5.44,6.39-7.19,9.41-9.58-.88-.7-1.74-1.44-2.56-2.35-3.65,4.04-7.95,4.91-11.97,11.93-3.42,5.98-.08,10.19,2.86,12.48h-.72v2.03h5.12v-2.03h.72Z"/><path class="cls-13" d="M693.98,77.24c2.94-2.29,6.27-6.5,2.86-12.48-3.11-5.44-6.39-7.19-9.41-9.58-3.02,2.39-6.3,4.14-9.41,9.58-3.42,5.98-.08,10.19,2.86,12.48h-.72v2.03h14.56v-2.03h-.72Z"/></g></g><g><rect class="cls-20" x="695.8" y="79.28" width="9.16" height="3.03"/><g><rect class="cls-12" x="671.88" y="79.28" width="9.17" height="3.03"/><rect class="cls-13" x="681.05" y="79.28" width="14.75" height="3.03"/></g></g></g><g><g><path class="cls-20" d="M701.6,149.98c-4.6,8.06-9.66,6.56-13.18,15.08-.91-2.21-1.93-3.75-3.02-4.95,3.09-3.43,6.75-4.16,10.16-10.13,2.9-5.08,.07-8.64-2.42-10.59h.61v-1.73h6.04v1.73h-.61c2.49,1.95,5.32,5.51,2.42,10.59Z"/><g><path class="cls-12" d="M682.01,139.39c-2.49,1.95-5.32,5.51-2.42,10.59,2.64,4.62,5.42,6.1,7.98,8.13-.75,.59-1.47,1.22-2.17,2-3.09-3.43-6.75-4.16-10.16-10.13-2.9-5.08-.07-8.64,2.42-10.59h-.61v-1.73h4.34v1.73h.61Z"/><path class="cls-13" d="M693.14,139.39c2.49,1.95,5.32,5.51,2.42,10.59-2.64,4.62-5.42,6.1-7.98,8.13-2.56-2.03-5.35-3.51-7.98-8.13-2.9-5.08-.07-8.64,2.42-10.59h-.61v-1.73h12.35v1.73h-.61Z"/></g></g><g><rect class="cls-20" x="694.69" y="135.09" width="7.77" height="2.57"/><g><rect class="cls-12" x="674.39" y="135.09" width="7.78" height="2.57"/><rect class="cls-13" x="682.17" y="135.09" width="12.52" height="2.57"/></g></g></g></g><g><polygon class="cls-15" points="674.78 134.36 702.06 134.36 701.74 135.09 675.1 135.09 674.78 134.36"/><polygon class="cls-15" points="673.83 82.3 703.01 82.3 703.77 82.8 673.07 82.8 673.83 82.3"/></g></g></g></g><g><g><path class="cls-20" d="M689.08,44.49c.24,.3,.39,.67,.39,1.08,0,.95-.77,1.72-1.72,1.72-.23,0-.46-.05-.66-.13,.32,.39,.79,.65,1.34,.65,.95,0,1.72-.77,1.72-1.72,0-.72-.44-1.33-1.06-1.59Z"/><path class="cls-13" d="M689.47,45.56c0-.41-.15-.78-.39-1.08-.2-.08-.43-.13-.66-.13-.95,0-1.72,.77-1.72,1.72,0,.41,.15,.78,.39,1.08,.2,.08,.43,.13,.66,.13,.95,0,1.72-.77,1.72-1.72Z"/></g><g><path class="cls-20" d="M689.28,163.47c.24,.3,.39,.67,.39,1.08,0,.95-.77,1.72-1.72,1.72-.23,0-.46-.05-.66-.13,.32,.39,.79,.65,1.34,.65,.95,0,1.72-.77,1.72-1.72,0-.72-.44-1.33-1.06-1.59Z"/><path class="cls-13" d="M689.66,164.54c0-.41-.15-.78-.39-1.08-.2-.08-.43-.13-.66-.13-.95,0-1.72,.77-1.72,1.72,0,.41,.15,.78,.39,1.08,.2,.08,.43,.13,.66,.13,.95,0,1.72-.77,1.72-1.72Z"/></g></g></g></g><g><g><g><path class="cls-20" d="M583.79,3.48l-10.86-7.18h-14.04l10.86,7.18c4.58,3.03,6.31,8.9,4.12,13.93l-14.98,34.3h14.04l14.98-34.3c2.2-5.03,.46-10.91-4.12-13.93Z"/><g><path class="cls-12" d="M550.92,3.48l9.42-6.23-1.44-.95h-11.4l-10.86,7.18c-4.58,3.03-6.31,8.9-4.12,13.93l14.98,34.3h11.4l1.44-3.3-13.53-31c-2.2-5.03-.46-10.91,4.12-13.93Z"/><path class="cls-13" d="M569.75,3.48l-9.42-6.23-9.42,6.23c-4.58,3.03-6.31,8.9-4.12,13.93l13.53,31,13.53-31c2.19-5.03,.46-10.91-4.12-13.93Z"/></g></g><g><g><g><g><path class="cls-20" d="M581.97,7.83l-11.22-8.68c-.32-.25-.71-.38-1.11-.38-.44,0-.82,.15-1.12,.38l11.21,8.68c2.31,1.79,3.11,4.91,1.96,7.59l-12.71,29.49c-.11,.25-.27,.46-.47,.63,.3,.25,.68,.41,1.11,.41h0c.69,0,1.31-.41,1.58-1.04l12.71-29.49c1.16-2.68,.35-5.8-1.96-7.59Z"/><path class="cls-28" d="M568.99,44.91l12.71-29.49c1.16-2.68,.35-5.8-1.96-7.59l-11.21-8.68c-.72,.56-.97,1.64-.37,2.48l3.42,4.84c1.8,2.55,2.49,5.72,1.89,8.79l-5.53,28.64c-.12,.64,.13,1.25,.58,1.64,.2-.17,.36-.38,.47-.63Z"/></g><g><path class="cls-20" d="M539.36,15.41c-1.16-2.68-.35-5.8,1.96-7.59l10.85-8.4c-.32-.39-.81-.65-1.39-.65-.4,0-.79,.13-1.11,.38l-11.22,8.68c-2.31,1.79-3.11,4.91-1.96,7.59l12.71,29.49c.27,.63,.9,1.04,1.58,1.04,.61,0,1.13-.32,1.44-.78-.06-.09-.11-.18-.15-.27l-12.71-29.49Z"/><path class="cls-28" d="M552.48,43.9l-5.53-28.64c-.59-3.07,.09-6.24,1.89-8.79l3.42-4.84c.52-.73,.4-1.62-.1-2.22l-10.85,8.4c-2.31,1.79-3.11,4.91-1.96,7.59l12.71,29.49c.04,.1,.09,.19,.15,.27,.24-.36,.35-.8,.26-1.27Z"/></g><g><g><path class="cls-20" d="M566.43,4.52l-2.61-3.76c-.86-1.24-2.28-1.99-3.8-1.99h0c-.37,0-.73,.05-1.07,.13,1.09,.26,2.07,.91,2.73,1.86l2.61,3.76c2.73,3.93,3.77,8.8,2.89,13.51l-4.52,23.97c-.37,1.94-1.85,3.42-3.71,3.84,.35,.08,.71,.12,1.07,.12h0c2.34,0,4.35-1.66,4.78-3.96l4.52-23.97c.89-4.71-.15-9.57-2.89-13.51Z"/><path class="cls-28" d="M562.65,41.99l4.52-23.97c.89-4.71-.15-9.57-2.89-13.51l-2.61-3.76c-.66-.94-1.63-1.6-2.73-1.86-1.09,.26-2.07,.91-2.73,1.86l-2.61,3.76c-2.73,3.93-3.77,8.8-2.89,13.51l4.52,23.97c.37,1.94,1.85,3.42,3.71,3.84,1.86-.42,3.34-1.9,3.71-3.84Z"/></g><g class="cls-44"><g><path class="cls-30" d="M564.84,19.63c0,2.55-2.07,4.62-4.62,4.62s-4.62-2.07-4.62-4.62,2.07-4.62,4.62-4.62,4.62,2.07,4.62,4.62Z"/><g><g><g><rect class="cls-23" x="561.18" y="28.52" width="1.63" height="17.43"/><rect class="cls-14" x="557.62" y="28.52" width="3.56" height="17.43"/></g><line class="cls-3" x1="560.21" y1="28.52" x2="560.21" y2="25.02"/></g><g><g><path class="cls-20" d="M562,22.78c-1.69-3.45-1.78-5.26-1.78-5.26,0,0-.37,.59-.8,1.46,.24,.88,.68,2.15,1.49,3.8,1.21,2.48-.23,3.45-1.14,3.8,.15,.06,.28,.14,.45,.19,0,0,3.47-.54,1.78-3.99Z"/><path class="cls-13" d="M560.91,22.78c-.81-1.65-1.25-2.92-1.49-3.8-1.1,2.23-2.61,6.34,.35,7.61,.91-.35,2.36-1.33,1.14-3.8Z"/></g><path class="cls-12" d="M559.87,24.12c.16,.8-.02,1.5-.4,1.57-.38,.07-.81-.51-.96-1.31-.15-.8,.03-1.5,.4-1.57,.38-.07,.81,.51,.96,1.31Z"/></g></g></g></g></g></g><path class="cls-13" d="M558.69,10.99l-24.94-2.57v2.79l24.9,2.64c.9,.1,1.82,.1,2.72,0l24.9-2.64v-2.79l-24.94,2.57c-.88,.09-1.76,.09-2.64,0Z"/></g><g><g><g><path class="cls-20" d="M573.39,65.22c-4.6,8.06-9.66,6.56-13.18,15.08-.91-2.21-1.93-3.75-3.02-4.95,3.09-3.43,6.75-4.16,10.16-10.13,2.9-5.08,.07-8.64-2.42-10.59h.61v-1.73h6.04v1.73h-.61c2.49,1.95,5.32,5.51,2.42,10.59Z"/><g><path class="cls-12" d="M553.8,54.63c-2.49,1.95-5.32,5.51-2.42,10.59,2.64,4.62,5.42,6.1,7.98,8.13-.75,.59-1.47,1.22-2.17,2-3.09-3.43-6.75-4.16-10.16-10.13-2.9-5.08-.07-8.64,2.42-10.59h-.61v-1.73h4.34v1.73h.61Z"/><path class="cls-13" d="M564.92,54.63c2.49,1.95,5.32,5.51,2.42,10.59-2.64,4.62-5.42,6.1-7.98,8.13-2.56-2.03-5.35-3.51-7.98-8.13-2.9-5.08-.07-8.64,2.42-10.59h-.61v-1.73h12.35v1.73h-.61Z"/></g></g><g><rect class="cls-20" x="566.47" y="50.33" width="7.77" height="2.57"/><g><rect class="cls-12" x="546.17" y="50.33" width="7.78" height="2.57"/><rect class="cls-13" x="553.96" y="50.33" width="12.52" height="2.57"/></g></g></g><polygon class="cls-15" points="546.57 49.6 573.85 49.6 573.53 50.33 546.89 50.33 546.57 49.6"/></g></g></g><g><path class="cls-20" d="M561.07,78.7c.24,.3,.39,.67,.39,1.08,0,.95-.77,1.72-1.72,1.72-.23,0-.46-.05-.66-.13,.32,.39,.79,.65,1.34,.65,.95,0,1.72-.77,1.72-1.72,0-.72-.44-1.33-1.06-1.59Z"/><path class="cls-13" d="M561.45,79.78c0-.41-.15-.78-.39-1.08-.2-.08-.43-.13-.66-.13-.95,0-1.72,.77-1.72,1.72,0,.41,.15,.78,.39,1.08,.2,.08,.43,.13,.66,.13,.95,0,1.72-.77,1.72-1.72Z"/></g></g><g><rect class="cls-40" x="608.16" y="-25.77" width="1.16" height="51.16"/><g><g><g><g><g><path class="cls-29" d="M625.81,44.93c-5.97-10.44-12.51-8.5-17.07-19.54-1.18,2.87-2.5,4.86-3.91,6.42,4.01,4.44,8.74,5.39,13.16,13.12,3.76,6.58,.09,11.2-3.14,13.72h.8v2.24h7.82v-2.24h-.8c3.23-2.52,6.9-7.14,3.14-13.72Z"/><g><path class="cls-39" d="M600.43,58.65c-3.23-2.52-6.9-7.14-3.14-13.72,3.42-5.98,7.03-7.91,10.34-10.53-.97-.76-1.91-1.59-2.81-2.59-4.01,4.44-8.74,5.39-13.16,13.12-3.76,6.58-.09,11.2,3.14,13.72h-.8v2.24h5.63v-2.24h.8Z"/><path class="cls-40" d="M614.84,58.65c3.23-2.52,6.9-7.14,3.14-13.72-3.42-5.98-7.03-7.91-10.34-10.53-3.32,2.62-6.93,4.55-10.34,10.53-3.76,6.58-.09,11.2,3.14,13.72h-.8v2.24h16v-2.24h-.8Z"/></g></g><g><rect class="cls-29" x="616.85" y="60.88" width="10.07" height="3.33"/><g><rect class="cls-39" x="590.55" y="60.88" width="10.08" height="3.33"/><rect class="cls-40" x="600.63" y="60.88" width="16.22" height="3.33"/></g></g></g><g><g><path class="cls-29" d="M625.81,126.98c-5.97,10.44-12.51,8.5-17.07,19.54-1.18-2.87-2.5-4.86-3.91-6.42,4.01-4.44,8.74-5.39,13.16-13.12,3.76-6.58,.09-11.2-3.14-13.72h.8v-2.24h7.82v2.24h-.8c3.23,2.52,6.9,7.14,3.14,13.72Z"/><g><path class="cls-39" d="M600.43,113.26c-3.23,2.52-6.9,7.14-3.14,13.72,3.42,5.98,7.03,7.91,10.34,10.53-.97,.76-1.91,1.59-2.81,2.59-4.01-4.44-8.74-5.39-13.16-13.12-3.76-6.58-.09-11.2,3.14-13.72h-.8v-2.24h5.63v2.24h.8Z"/><path class="cls-40" d="M614.84,113.26c3.23,2.52,6.9,7.14,3.14,13.72-3.42,5.98-7.03,7.91-10.34,10.53-3.32-2.62-6.93-4.55-10.34-10.53-3.76-6.58-.09-11.2,3.14-13.72h-.8v-2.24h16v2.24h-.8Z"/></g></g><g><rect class="cls-29" x="616.85" y="107.7" width="10.07" height="3.33"/><g><rect class="cls-39" x="590.55" y="107.7" width="10.08" height="3.33"/><rect class="cls-40" x="600.63" y="107.7" width="16.22" height="3.33"/></g></g></g></g><g><g><g><rect class="cls-29" x="616.84" y="64.21" width="8.1" height="43.49"/><g><rect class="cls-39" x="592.53" y="64.21" width="8.1" height="43.49"/><rect class="cls-40" x="600.63" y="64.21" width="16.21" height="43.49"/></g></g><g><rect class="cls-27" x="592.53" y="64.21" width="32.42" height=".59"/><rect class="cls-27" x="592.53" y="107.1" width="32.42" height=".59"/></g></g><g class="cls-43"><g><g><path class="cls-15" d="M632.85,85.7v-10.62s.51-4.02-3.59-4.15c0,0,.26-1.23-1.48-1.72,0,0-1.08-.14-1.39-1.37-.14,.53-.42,.86-.69,1.06,.36,.26,.7,.31,.7,.31,1.74,.48,1.48,1.72,1.48,1.72,4.1,.12,3.59,4.15,3.59,4.15v10.62h.02v20.12h1.38v-20.12h-.02Z"/><path class="cls-28" d="M631.47,85.7v-10.62s.51-4.02-3.59-4.15c0,0,.26-1.23-1.48-1.72,0,0-.35-.05-.7-.31-.36,.26-.7,.31-.7,.31-1.74,.48-1.48,1.72-1.48,1.72-4.1,.12-3.59,4.15-3.59,4.15v30.74h11.57v-20.12h-.02Z"/></g><g><path class="cls-29" d="M597.54,85.7v-10.62s.51-4.02-3.59-4.15c0,0,.26-1.23-1.48-1.72,0,0-1.08-.14-1.39-1.37-.14,.53-.42,.86-.69,1.06,.36,.26,.7,.31,.7,.31,1.74,.48,1.48,1.72,1.48,1.72,4.1,.12,3.59,4.15,3.59,4.15v10.62h.02v20.12h1.38v-20.12h-.02Z"/><path class="cls-28" d="M596.16,85.7v-10.62s.51-4.02-3.59-4.15c0,0,.26-1.23-1.48-1.72,0,0-.35-.05-.7-.31-.36,.26-.7,.31-.7,.31-1.74,.48-1.48,1.72-1.48,1.72-4.1,.12-3.59,4.15-3.59,4.15v30.74h11.57v-20.12h-.02Z"/></g></g></g><g><g><path class="cls-28" d="M615.19,85.7v-10.62s.51-4.02-3.59-4.15c0,0,.26-1.23-1.48-1.72,0,0-1.08-.14-1.39-1.37-.14,.53-.42,.86-.69,1.06,.36,.26,.7,.31,.7,.31,1.74,.48,1.48,1.72,1.48,1.72,4.1,.12,3.59,4.15,3.59,4.15v10.62h.02v20.12h1.38v-20.12h-.02Z"/><path class="cls-28" d="M613.82,85.7v-10.62s.51-4.02-3.59-4.15c0,0,.26-1.23-1.48-1.72,0,0-.35-.05-.7-.31-.36,.26-.7,.31-.7,.31-1.74,.48-1.48,1.72-1.48,1.72-4.1,.12-3.59,4.15-3.59,4.15v30.74h11.57v-20.12h-.02Z"/></g><g><path class="cls-30" d="M612.39,81.04c0,2.4-1.95,4.35-4.35,4.35s-4.35-1.95-4.35-4.35,1.95-4.35,4.35-4.35,4.35,1.95,4.35,4.35Z"/><g><g><g><rect class="cls-23" x="608.95" y="89.41" width="1.54" height="16.41"/><rect class="cls-14" x="605.6" y="89.41" width="3.35" height="16.41"/></g><line class="cls-2" x1="608.04" y1="89.41" x2="608.04" y2="86.12"/></g><g><g><path class="cls-20" d="M609.72,84.01c-1.59-3.25-1.68-4.95-1.68-4.95,0,0-.34,.55-.75,1.37,.23,.83,.64,2.02,1.4,3.58,1.14,2.33-.22,3.24-1.08,3.58,.14,.06,.26,.13,.42,.17,0,0,3.27-.51,1.68-3.75Z"/><path class="cls-13" d="M608.7,84.01c-.76-1.56-1.17-2.75-1.4-3.58-1.04,2.1-2.46,5.96,.32,7.16,.86-.33,2.22-1.25,1.08-3.58Z"/></g><path class="cls-12" d="M607.72,85.27c.15,.75-.02,1.41-.38,1.48-.36,.07-.76-.48-.91-1.23-.15-.75,.02-1.41,.38-1.48,.35-.07,.76,.48,.91,1.23Z"/></g></g></g></g></g><g><g><g><path class="cls-29" d="M615.11,146.49c1.31,.48,2.45,1.33,3.67,2.01,3.45,1.89,8.51,.39,8.1-4.22-.18-2.02-1.47-3.82-3.11-5.01,.04,0,.08,0,.12,0-.4-.06-.8-.08-1.2,0,1.45,1.05,2.59,2.64,2.74,4.42,.36,4.07-4.11,5.39-7.15,3.72-1.08-.59-2.08-1.35-3.24-1.77-2.13-.77-4.67-.23-6.3,1.33,.46-.25,.95-.35,1.46-.36,1.56-.61,3.34-.68,4.91-.11Z"/><path class="cls-40" d="M613.63,147.64c1.82,1.01,3.52,2.27,5.48,2.97,4.56,1.64,8.22-1.34,8.44-6.01,.06-1.39-.29-2.82-1.17-3.9-.62-.76-1.53-1.28-2.49-1.44-.04,0-.08,0-.12,0,1.64,1.19,2.93,2.99,3.11,5.01,.41,4.61-4.66,6.11-8.1,4.22-1.23-.67-2.36-1.53-3.67-2.01-1.58-.57-3.35-.5-4.91,.11,1.16-.03,2.39,.46,3.44,1.04Z"/></g><g><path class="cls-29" d="M623.09,137.99c.15,.22,.26,.47,.26,.75,0,.75-.6,1.35-1.35,1.35-.14,0-.27-.04-.4-.08,.24,.35,.63,.6,1.09,.6,.75,0,1.35-.61,1.35-1.35,0-.6-.4-1.1-.95-1.27Z"/><path class="cls-40" d="M623.35,138.75c0-.29-.11-.54-.26-.75-.13-.04-.26-.08-.4-.08-.75,0-1.35,.61-1.35,1.35,0,.29,.11,.54,.26,.75,.13,.04,.26,.08,.4,.08,.75,0,1.35-.6,1.35-1.35Z"/></g></g><g><g><path class="cls-29" d="M602.37,146.49c-1.31,.48-2.45,1.33-3.67,2.01-3.45,1.89-8.51,.39-8.1-4.22,.18-2.02,1.47-3.82,3.11-5.01-.04,0-.08,0-.12,0,.4-.06,.8-.08,1.2,0-1.45,1.05-2.59,2.64-2.74,4.42-.36,4.07,4.11,5.39,7.15,3.72,1.08-.59,2.08-1.35,3.24-1.77,2.13-.77,4.67-.23,6.3,1.33-.46-.25-.95-.35-1.46-.36-1.56-.61-3.34-.68-4.91-.11Z"/><path class="cls-40" d="M603.84,147.64c-1.82,1.01-3.52,2.27-5.48,2.97-4.56,1.64-8.22-1.34-8.44-6.01-.06-1.39,.29-2.82,1.17-3.9,.62-.76,1.53-1.28,2.49-1.44,.04,0,.08,0,.12,0-1.64,1.19-2.93,2.99-3.11,5.01-.41,4.61,4.66,6.11,8.1,4.22,1.23-.67,2.36-1.53,3.67-2.01,1.58-.57,3.35-.5,4.91,.11-1.16-.03-2.39,.46-3.44,1.04Z"/></g><g><path class="cls-29" d="M594.38,137.99c-.15,.22-.26,.47-.26,.75,0,.75,.6,1.35,1.35,1.35,.14,0,.27-.04,.4-.08-.24,.35-.63,.6-1.09,.6-.75,0-1.35-.61-1.35-1.35,0-.6,.4-1.1,.95-1.27Z"/><path class="cls-40" d="M594.12,138.75c0-.29,.11-.54,.26-.75,.13-.04,.26-.08,.4-.08,.75,0,1.35,.61,1.35,1.35,0,.29-.11,.54-.26,.75-.13,.04-.26,.08-.4,.08-.75,0-1.35-.61-1.35-1.35Z"/></g></g></g><g><path class="cls-29" d="M611.38,150.97l-.82-2.22c.65-.53,1.07-1.33,1.07-2.23,0-1.6-1.3-2.9-2.9-2.9-.27,0-.53,.05-.77,.12,1.22,.34,2.12,1.45,2.12,2.78,0,.9-.42,1.7-1.07,2.23l.82,2.22c.45,1.22,.44,2.56-.02,3.77l-1.01,2.65c.17,.28,.29,.59,.29,.94,0,.77-.46,1.42-1.12,1.72,.24,.11,.5,.17,.77,.17,1.05,0,1.89-.85,1.89-1.89,0-.35-.12-.66-.29-.94l1.01-2.65c.46-1.21,.47-2.55,.02-3.77Z"/><g><path class="cls-39" d="M608.36,157.39l-1.01-2.65c-.46-1.21-.47-2.55-.02-3.77l.81-2.22c-.65-.53-1.07-1.33-1.07-2.23,0-1.09,.62-2,1.51-2.5-.2-.11-.39-.22-.61-.28-1.22,.34-2.12,1.45-2.12,2.78,0,.9,.42,1.7,1.07,2.23l-.81,2.22c-.45,1.22-.44,2.56,.02,3.77l1.01,2.65c-.17,.28-.29,.59-.29,.94,0,.77,.46,1.42,1.12,1.72,.24-.11,.44-.28,.61-.47-.31-.33-.51-.77-.51-1.25,0-.35,.12-.66,.29-.94Z"/><path class="cls-40" d="M608.8,157.39l1.01-2.65c.46-1.21,.47-2.55,.02-3.77l-.82-2.22c.65-.53,1.07-1.33,1.07-2.23,0-1.09-.62-2-1.51-2.5-.89,.49-1.51,1.41-1.51,2.5,0,.9,.42,1.7,1.07,2.23l-.81,2.22c-.45,1.22-.44,2.56,.02,3.77l1.01,2.65c-.17,.28-.29,.59-.29,.94,0,.49,.2,.92,.51,1.25,.31-.33,.51-.77,.51-1.25,0-.35-.12-.66-.29-.94Z"/></g></g></g><g><path class="cls-29" d="M609.81,22.81c.39,.48,.63,1.08,.63,1.75,0,1.55-1.25,2.8-2.8,2.8-.38,0-.74-.08-1.07-.22,.51,.64,1.29,1.05,2.17,1.05,1.55,0,2.8-1.25,2.8-2.8,0-1.17-.71-2.16-1.73-2.59Z"/><path class="cls-40" d="M610.44,24.55c0-.66-.24-1.27-.63-1.75-.33-.14-.69-.22-1.07-.22-1.55,0-2.8,1.25-2.8,2.8,0,.67,.24,1.27,.63,1.75,.33,.14,.69,.22,1.07,.22,1.55,0,2.8-1.25,2.8-2.8Z"/></g></g></g><g><rect class="cls-40" x="733.35" y="70.03" width="1.53" height="32.9"/><g><g><path class="cls-40" d="M722.88,207.81c-3.73,.93-6.67,3.07-5.91,6.87,.64,3.2,4.03,5.42,7.34,6.64,2.03,.75,4.02,1.4,5.86,2.46,1.53,.88,2.28,2.14,3.18,3.37,.51,.69,1.03,.53,1.44-.02,.74-1.01,1.38-2.02,2.46-2.87,1.69-1.32,3.98-2.02,6.07-2.76,3.69-1.31,6.88-3.4,7.85-6.82,1.04-3.71-1.92-5.82-5.65-6.77-3.62-.93-18.88-1.03-22.64-.1Z"/><path class="cls-32" d="M731.66,217.37c2.89-.91,6.04-.99,9.04-1.33,3.19-.36,6.49-.81,8.16-3.12,.95-1.31,.68-3.97-3.35-5.01-3.62-.93-18.88-1.03-22.64-.1-3.73,.93-6.67,3.07-5.91,6.87,.64,3.2,4.03,5.42,7.34,6.64,2.03,.75,4.02,1.4,5.86,2.46,1.53,.88,2.28,2.14,3.18,3.37,.03,.04,.06,.07,.09,.1-.17-1.47-1.12-3.05-2.11-4.14-.97-1.06-3.12-1.86-2.8-3.68,.21-1.21,2.16-1.77,3.12-2.07Z"/><path class="cls-40" d="M734.12,212.99h-17.58l3.15-7.01-8.18-9.85c-1.42,.18-2.91-.77-3.35-2.13-.44-1.37,.21-3,1.47-3.69,.56-.31,1-.29,1.62-.42v-38.81c-.88-.04-1.8-.23-2.46-.82-.86-.75-1.1-2.08-.69-3.14,.41-1.06,1.4-1.81,2.5-2.1,2.61-3.38,5.27-6.57,8.18-9.69-.21-4.67,.78-7.63,2.74-10.4,1.96-2.77,4.58-4.99,6.92-7.44,1.08-1.13,2.12-2.34,2.79-3.76,1.45-3.12,.88-6.78,1.56-10.16,.13-.65,.32-1.31,.68-1.86,.31-.48,1.03-.48,1.33,0,.35,.55,.55,1.21,.68,1.86,.67,3.38,.1,7.04,1.56,10.16,.66,1.42,1.7,2.63,2.79,3.76,2.34,2.45,4.96,4.68,6.92,7.44,1.96,2.76,2.96,5.72,2.75,10.4,2.92,3.12,5.57,6.31,8.18,9.69,1.1,.29,2.09,1.04,2.5,2.1,.41,1.06,.17,2.39-.69,3.14-.66,.58-1.58,.77-2.46,.82v38.81c.62,.13,1.06,.11,1.62,.42,1.26,.69,1.91,2.33,1.47,3.69-.44,1.37-1.93,2.31-3.35,2.13l-8.18,9.85,3.15,7.01h-17.58Z"/><path class="cls-39" d="M750.89,196.13c1.42,.18,2.91-.77,3.35-2.13,.44-1.37-.21-3-1.47-3.69-.56-.31-1-.29-1.62-.42v-38.81c.88-.04,1.8-.23,2.46-.82,.86-.75,1.1-2.08,.69-3.14-.41-1.06-1.4-1.81-2.5-2.1-2.61-3.38-5.27-6.57-8.18-9.69,.21-4.67-.78-7.63-2.75-10.4-1.96-2.77-4.58-4.99-6.92-7.44-1.07-1.12-2.1-2.32-2.76-3.72,0-.01,.02-.03,.02-.04,1.45-3.12,.88-6.78,1.56-10.16,.13-.65,.32-1.31,.68-1.86,.31-.48,1.03-.48,1.33,0,.35,.55,.55,1.21,.68,1.86,.67,3.38,.1,7.04,1.56,10.16,.66,1.42,1.7,2.63,2.79,3.76,2.34,2.45,4.96,4.68,6.92,7.44,1.96,2.76,2.96,5.72,2.75,10.4,2.92,3.12,5.57,6.31,8.18,9.69,1.1,.29,2.09,1.04,2.5,2.1,.41,1.06,.17,2.39-.69,3.14-.66,.58-1.58,.77-2.46,.82v38.81c.62,.13,1.06,.11,1.62,.42,1.26,.69,1.91,2.33,1.47,3.69-.44,1.37-1.93,2.31-3.35,2.13l-8.18,9.85,3.15,7.01h-5.84l-3.15-7.01,8.18-9.85Z"/><rect class="cls-40" x="711.23" y="151.06" width="45.77" height="39.87"/><rect class="cls-29" x="711.23" y="151.06" width="8.7" height="39.87"/><path class="cls-25" d="M733.76,189.89h-8.41v-24.72c3.03-3.33,5.38-6.51,8.41-9.84,3.03,3.33,5.38,6.51,8.41,9.84v24.72h-8.41Zm21.76,.03v-25.95c-1.9-3.33-2.28-3.95-4.18-7.28-2.39,3.17-3.99,5.67-5.98,8.52v24.72h10.16Zm-37.51,0h4.88v-24.72c-1.99-2.84-3.59-5.35-5.98-8.52-1.9,3.33-2.28,3.95-4.18,7.28v25.95h5.28Zm11.67-54.7l-3.96,9.3h16.82l-3.87-9.3h-8.99Zm11.42,0l4.26,9.3h10.16l-7.68-9.3h-6.74Zm-19.96,0h-.73l-7.68,9.3h10.16l4.26-9.3h-6.01Zm17.05-2.76c.21-1.96,.18-4-.49-5.86-.66-1.86-2.01-3.54-3.85-4.27h-.09c-1.84,.73-3.19,2.41-3.85,4.27-.66,1.86-.7,3.89-.49,5.86h8.76Zm9.58,.22c-.19-1.62-.5-2.9-1.16-4.39-.66-1.49-1.64-2.86-2.95-3.83-1.13,.93-1.89,2.33-2.25,3.74-.36,1.42-.4,2.89-.37,4.35l6.73,.12Zm-20.58-.12c.03-1.46,0-2.94-.37-4.35s-1.13-2.81-2.25-3.74c-1.31,.97-2.29,2.34-2.95,3.83-.66,1.49-.97,2.78-1.16,4.39l6.73-.12Zm6.93,73.15h4.54l3.87-9.3h-16.82l3.96,9.3h4.45Zm12.99,0h.73l7.68-9.3h-10.16l-4.26,9.3h6.01Zm-19.96,0l-4.26-9.3h-10.16l7.68,9.3h6.74Zm20.58,1.46h-6.9l1.7,4.62h7.27l-2.07-4.62Zm-29.22,4.62h7.21l1.7-4.62h-6.9l-2.01,4.62Zm9.42,0h12.4l-1.94-4.62h-8.51l-1.94,4.62Z"/><g><g><path class="cls-40" d="M710.74,151.06h46.85c1.8,0,3.27-1.47,3.27-3.27h0c0-1.8-1.47-3.27-3.27-3.27h-46.85c-1.8,0-3.27,1.47-3.27,3.27h0c0,1.8,1.47,3.27,3.27,3.27Z"/><path class="cls-40" d="M710.74,196.43h46.85c1.8,0,3.27-1.47,3.27-3.27h0c0-1.8-1.47-3.27-3.27-3.27h-46.85c-1.8,0-3.27,1.47-3.27,3.27h0c0,1.8,1.47,3.27,3.27,3.27Z"/></g><g class="cls-47"><rect class="cls-31" x="711.23" y="150.95" width="45.77" height="3.02"/></g></g><g><path class="cls-30" d="M737.24,168.53c0,2.07-1.68,3.75-3.75,3.75s-3.75-1.68-3.75-3.75,1.68-3.75,3.75-3.75,3.75,1.68,3.75,3.75Z"/><g><g><g><rect class="cls-23" x="734.27" y="175.74" width="1.33" height="14.15"/><rect class="cls-14" x="731.38" y="175.74" width="2.89" height="14.15"/></g><line class="cls-5" x1="733.49" y1="175.74" x2="733.49" y2="172.9"/></g><g><g><path class="cls-20" d="M734.93,171.09c-1.37-2.8-1.45-4.27-1.45-4.27,0,0-.3,.48-.65,1.18,.2,.72,.55,1.74,1.21,3.09,.98,2.01-.19,2.8-.93,3.09,.12,.05,.23,.11,.37,.15,0,0,2.82-.44,1.45-3.24Z"/><path class="cls-13" d="M734.05,171.09c-.66-1.34-1.01-2.37-1.21-3.09-.89,1.81-2.12,5.14,.28,6.17,.74-.29,1.91-1.08,.93-3.09Z"/></g><path class="cls-12" d="M733.21,172.17c.13,.65-.02,1.22-.33,1.28-.31,.06-.66-.42-.78-1.06-.13-.65,.02-1.22,.33-1.28,.31-.06,.66,.42,.78,1.06Z"/></g></g></g></g><g><path class="cls-8" d="M712.11,147.64c-.67,.12-1.01,.21-1.68,.1-.67-.11-1.31-.6-1.19-1.14,.15-.69,1.25-.88,2.12-.91,2.48-.1,4.96-.14,7.44-.12,2,.01,3.97,.05,6.09,.35,.27,.04,2.37,.23,1.92,.91-.18,.28-.83,.32-1.21,.35-.57,.04-1.15,.06-1.73,.07-1.18,.02-2.42,.03-3.6,.06-2.63,.05-4.65,.01-6.43,.16-.27,.02-1.48,.13-1.74,.18Z"/><path class="cls-8" d="M712.11,193.01c-.67,.12-1.01,.21-1.68,.1-.67-.11-1.31-.6-1.19-1.14,.15-.69,1.25-.88,2.12-.91,2.48-.1,4.96-.14,7.44-.12,2,.01,3.97,.05,6.09,.35,.27,.04,2.37,.23,1.92,.91-.18,.28-.83,.32-1.21,.35-.57,.04-1.15,.06-1.73,.07-1.18,.02-2.42,.03-3.6,.06-2.63,.05-4.65,.01-6.43,.16-.27,.02-1.48,.13-1.74,.18Z"/><path class="cls-9" d="M728.14,124.56c-.97,1.79-1.5,3.85-2.81,5.4-.31,.36-.7,.71-1.18,.7-.45,0-.84-.36-1.02-.78-.18-.43-.17-.92-.12-1.39,.09-.86,.28-1.71,.6-2.51,1.57-3.83,4.74-6.32,7.17-9.43,.42-.54,.99-1.34,1.67-1.78,.45-.29,1.06,.04,1.1,.57,.02,.31,.02,.62-.06,.91-.21,.75-.6,1.47-1.01,2.14-.84,1.38-1.9,2.61-2.86,3.89-.54,.72-1.05,1.46-1.48,2.25Z"/></g></g></g><g><g><path class="cls-40" d="M644.36,47.33c-3.27,.81-5.85,2.69-5.18,6.02,.56,2.81,3.53,4.75,6.44,5.82,1.78,.66,3.53,1.23,5.14,2.16,1.34,.77,2,1.88,2.79,2.96,.44,.6,.9,.46,1.26-.02,.65-.88,1.21-1.77,2.16-2.52,1.48-1.16,3.49-1.77,5.32-2.42,3.24-1.15,6.03-2.98,6.88-5.98,.91-3.25-1.69-5.1-4.96-5.94-3.17-.82-16.56-.9-19.85-.08Z"/><path class="cls-32" d="M652.06,55.71c2.54-.8,5.3-.87,7.92-1.17,2.8-.32,5.69-.71,7.16-2.74,.83-1.15,.59-3.48-2.94-4.39-3.17-.82-16.56-.9-19.85-.08-3.27,.81-5.85,2.69-5.18,6.02,.56,2.81,3.53,4.75,6.44,5.82,1.78,.66,3.53,1.23,5.14,2.16,1.34,.77,2,1.88,2.79,2.96,.03,.04,.05,.06,.08,.09-.15-1.29-.98-2.68-1.85-3.63-.85-.93-2.73-1.63-2.45-3.22,.19-1.06,1.89-1.55,2.74-1.82Z"/><path class="cls-40" d="M654.21,51.86h-15.41l2.76-6.15-7.17-8.63c-1.25,.15-2.55-.67-2.94-1.87-.39-1.2,.18-2.63,1.28-3.24,.49-.27,.87-.25,1.42-.36V-2.42c-.77-.04-1.58-.2-2.16-.72-.75-.66-.97-1.82-.6-2.75,.36-.93,1.23-1.59,2.19-1.84,2.29-2.97,4.62-5.76,7.17-8.5-.18-4.1,.68-6.69,2.41-9.12,1.72-2.42,4.01-4.38,6.07-6.53,.95-.99,1.86-2.05,2.44-3.29,1.28-2.74,.77-5.95,1.36-8.91,.11-.57,.28-1.15,.59-1.63,.27-.42,.9-.42,1.17,0,.31,.48,.48,1.06,.59,1.63,.59,2.96,.09,6.17,1.36,8.91,.58,1.25,1.49,2.3,2.44,3.29,2.06,2.15,4.35,4.1,6.07,6.53,1.72,2.42,2.59,5.02,2.41,9.12,2.56,2.74,4.88,5.53,7.17,8.5,.97,.26,1.83,.91,2.19,1.84,.36,.93,.15,2.09-.6,2.75-.58,.51-1.39,.68-2.16,.72V31.61c.54,.11,.93,.1,1.42,.36,1.1,.61,1.67,2.04,1.28,3.24-.39,1.2-1.69,2.03-2.94,1.87l-7.17,8.63,2.76,6.15h-15.41Z"/><path class="cls-39" d="M668.92,37.08c1.25,.15,2.55-.67,2.94-1.87,.39-1.2-.18-2.63-1.28-3.24-.49-.27-.87-.25-1.42-.36V-2.42c.77-.04,1.58-.2,2.16-.72,.75-.66,.97-1.82,.6-2.75-.36-.93-1.23-1.59-2.19-1.84-2.29-2.97-4.62-5.76-7.17-8.5,.18-4.1-.68-6.69-2.41-9.12-1.72-2.42-4.01-4.38-6.07-6.53-.94-.98-1.84-2.03-2.42-3.26,0-.01,.01-.02,.02-.03,1.28-2.74,.77-5.95,1.36-8.91,.11-.57,.28-1.15,.59-1.63,.27-.42,.9-.42,1.17,0,.31,.48,.48,1.06,.59,1.63,.59,2.96,.09,6.17,1.36,8.91,.58,1.25,1.49,2.3,2.44,3.29,2.06,2.15,4.35,4.1,6.07,6.53,1.72,2.42,2.59,5.02,2.41,9.12,2.56,2.74,4.88,5.53,7.17,8.5,.97,.26,1.83,.91,2.19,1.84,.36,.93,.15,2.09-.6,2.75-.58,.51-1.39,.68-2.16,.72V31.61c.54,.11,.93,.1,1.42,.36,1.1,.61,1.67,2.04,1.28,3.24-.39,1.2-1.69,2.03-2.94,1.87l-7.17,8.63,2.76,6.15h-5.12l-2.76-6.15,7.17-8.63Z"/><rect class="cls-40" x="634.15" y="-2.44" width="40.13" height="34.96"/><rect class="cls-29" x="634.15" y="-2.44" width="7.63" height="34.96"/><rect class="cls-39" x="669.35" y="-2.44" width="4.93" height="34.96"/><path class="cls-25" d="M653.9,31.61h-7.38V9.94c2.66-2.92,4.72-5.71,7.38-8.63,2.66,2.92,4.72,5.71,7.38,8.63V31.61h-7.38Zm19.08,.03V8.88c-1.67-2.92-2-3.47-3.66-6.38-2.1,2.78-3.5,4.97-5.25,7.47V31.63h8.91Zm-32.89,0h4.28V9.96c-1.75-2.49-3.15-4.69-5.25-7.47-1.67,2.92-2,3.47-3.66,6.38V31.63h4.63Zm10.23-47.96l-3.47,8.16h14.75l-3.39-8.16h-7.89Zm10.02,0l3.74,8.16h8.91l-6.74-8.16h-5.91Zm-17.5,0h-.64l-6.74,8.16h8.91l3.73-8.16h-5.27Zm14.95-2.42c.19-1.72,.15-3.5-.43-5.14-.58-1.63-1.76-3.11-3.37-3.75h-.08c-1.61,.64-2.79,2.11-3.37,3.75-.58,1.63-.61,3.41-.43,5.14h7.68Zm8.4,.19c-.16-1.42-.44-2.55-1.02-3.85-.58-1.31-1.44-2.5-2.59-3.36-.99,.82-1.66,2.04-1.98,3.28-.32,1.24-.35,2.54-.32,3.82l5.9,.11Zm-18.04-.11c.03-1.28,0-2.58-.32-3.82-.32-1.24-.99-2.47-1.98-3.28-1.15,.85-2.01,2.05-2.59,3.36-.58,1.31-.85,2.43-1.02,3.85l5.9-.11Zm6.07,64.14h3.98l3.39-8.16h-14.75l3.47,8.16h3.9Zm11.39,0h.64l6.74-8.16h-8.91l-3.74,8.16h5.27Zm-17.5,0l-3.73-8.16h-8.91l6.74,8.16h5.91Zm18.04,1.28h-6.05l1.49,4.05h6.37l-1.82-4.05Zm-25.62,4.05h6.32l1.49-4.05h-6.05l-1.76,4.05Zm8.26,0h10.87l-1.7-4.05h-7.46l-1.7,4.05Z"/><g><path class="cls-40" d="M633.72,37.34h41.08c1.58,0,2.87-1.29,2.87-2.87h0c0-1.58-1.29-2.87-2.87-2.87h-41.08c-1.58,0-2.87,1.29-2.87,2.87h0c0,1.58,1.29,2.87,2.87,2.87Z"/><g class="cls-47"><rect class="cls-31" x="634.15" y="-2.54" width="40.13" height="2.65"/></g></g><g><path class="cls-30" d="M656.95,12.88c0,1.82-1.47,3.29-3.29,3.29s-3.29-1.47-3.29-3.29,1.47-3.29,3.29-3.29,3.29,1.47,3.29,3.29Z"/><g><g><g><rect class="cls-23" x="654.34" y="19.2" width="1.16" height="12.41"/><rect class="cls-14" x="651.81" y="19.2" width="2.54" height="12.41"/></g><line class="cls-6" x1="653.66" y1="19.2" x2="653.66" y2="16.71"/></g><g><g><path class="cls-20" d="M654.93,15.12c-1.2-2.45-1.27-3.75-1.27-3.75,0,0-.26,.42-.57,1.04,.17,.63,.48,1.53,1.06,2.71,.86,1.76-.16,2.45-.81,2.71,.11,.05,.2,.1,.32,.13,0,0,2.47-.38,1.27-2.84Z"/><path class="cls-13" d="M654.15,15.12c-.58-1.18-.89-2.08-1.06-2.71-.78,1.58-1.86,4.51,.25,5.41,.65-.25,1.68-.94,.81-2.71Z"/></g><path class="cls-12" d="M653.41,16.07c.11,.57-.02,1.07-.29,1.12-.27,.05-.58-.36-.69-.93-.11-.57,.02-1.07,.29-1.12,.27-.05,.58,.36,.69,.93Z"/></g></g></g></g><path class="cls-8" d="M634.91,34.34c-.59,.1-.89,.18-1.48,.09-.59-.1-1.15-.53-1.04-1,.13-.6,1.1-.77,1.86-.8,2.17-.09,4.35-.12,6.52-.11,1.75,.01,3.49,.04,5.34,.31,.23,.03,2.08,.2,1.68,.8-.16,.24-.73,.28-1.06,.31-.5,.04-1.01,.06-1.51,.06-1.03,.02-2.12,.03-3.16,.05-2.3,.05-4.08,.01-5.63,.14-.23,.02-1.3,.12-1.52,.16Z"/></g><g><g><path class="cls-13" d="M714.23,73.16l3.24-6.43,.13-37.36-2.43-2.32v-2.73s2.45,0,2.45,0c-5.71-7.16-.17-11.34,4.81-14.54,4.98-3.2,8.92-8.71,8.92-8.71l-.98-1.19V-2.56s1.41,0,1.41,0l.02-6.09,2.17-1.11v1.54s1.77,0,1.77,0l-.88-1.94h0c-.15-.24-.24-.52-.24-.83,0-.87,.71-1.58,1.59-1.58,.87,0,1.58,.71,1.58,1.59,0,.3-.09,.59-.24,.83h0l-.89,1.94h1.78s0-1.53,0-1.53l2.16,1.13-.02,6.09h1.4s0,2.45,0,2.45l-.98,1.19s3.9,5.54,8.85,8.78c4.96,3.24,10.47,7.45,4.71,14.57h2.44s0,2.74,0,2.74l-2.45,2.3-.13,37.36,3.2,6.45h1.61s0,1.69,0,1.69l-11.65-.04v1.75s-2.5,1.6-2.5,1.6l-9.17-.03-9.17-.03-2.48-1.62v-1.75s-11.64-.04-11.64-.04v-1.68s1.62,0,1.62,0Z"/><path class="cls-20" d="M724.26,76.63v-1.75s-11.64-.04-11.64-.04v-1.68s1.62,0,1.62,0l3.24-6.43,.13-37.36-2.43-2.32v-2.73s2.45,0,2.45,0c-5.71-7.16-.17-11.34,4.81-14.54,4.98-3.2,8.92-8.71,8.92-8.71l-.98-1.19V-2.56s1.41,0,1.41,0l.02-6.09,2.17-1.11v1.54s1.77,0,1.77,0l-.88-1.94h0c-.15-.24-.24-.52-.24-.83,0-.87,.71-1.58,1.59-1.58,0,0-.75,.46-.76,1.83,0,1.37,.74,2.52,.74,2.52l-.03,9.31s-2.76,4.89-8.13,9.4c-5.37,4.51-4.61,13.86,8.05,13.9l-.15,42.4-3.37,6.42,6.72,.02v1.68s-3.38-.01-3.38-.01v3.36s-9.18-.03-9.18-.03l-2.48-1.62Z"/></g><rect class="cls-12" x="734.73" y="4.85" width="2.73" height="41.83" transform="translate(707.69 761.76) rotate(-89.79)"/><g><path class="cls-25" d="M736.07,32.66s6.42,1.73,6.39,11.58h.84s-.01,2.91-.01,2.91l-.59,1.02-.05,13.9h-.69s0,1.54,0,1.54l-5.98-.02-5.98-.02v-1.54s-.68,0-.68,0l.05-13.9-.59-1.03v-2.91s.85,0,.85,0c.04-9.86,6.47-11.54,6.47-11.54Z"/><path class="cls-25" d="M725.85,44.18h.84s-.01,2.91-.01,2.91l-.59,1.02-.05,13.9h-.69s0,1.54,0,1.54l-5.98-.02,.11-30.93s6.42,1.73,6.39,11.58Z"/><path class="cls-25" d="M752.68,32.72l-.11,30.93-5.98-.02v-1.54s-.68,0-.68,0l.05-13.9-.59-1.03v-2.91s.85,0,.85,0c.04-9.86,6.47-11.54,6.47-11.54Z"/><rect class="cls-25" x="742.52" y="32.23" width="3.99" height="3.99" transform="translate(192.07 534.51) rotate(-44.8)"/><rect class="cls-25" x="725.63" y="32.17" width="3.99" height="3.99" transform="translate(187.2 522.58) rotate(-44.79)"/></g><g><g><polygon class="cls-20" points="743.29 44.24 744.47 44.25 744.41 62.06 742.64 62.05 742.69 48.17 743.28 47.15 743.29 44.24"/><polygon class="cls-17" points="728.77 44.19 727.58 44.19 727.52 61.99 729.29 62 729.34 48.12 728.76 47.1 728.77 44.19"/></g><g><polygon class="cls-20" points="754.42 66.87 717.48 66.74 714.23 73.16 757.62 73.32 754.42 66.87"/><polygon class="cls-17" points="735.95 66.8 739.3 73.25 714.23 73.16 717.48 66.74 735.95 66.8"/></g><g><rect class="cls-20" x="735.04" y="64.14" width="1.75" height="23.3" transform="translate(657.48 811.43) rotate(-89.79)"/><rect class="cls-17" x="730.91" y="68.27" width="1.75" height="15.03" transform="translate(653.37 807.28) rotate(-89.79)"/></g><g><polygon class="cls-20" points="715.18 27.06 757 27.21 754.55 29.51 717.61 29.37 715.18 27.06"/><polygon class="cls-17" points="738.64 29.45 736.09 27.13 715.18 27.06 717.61 29.37 738.64 29.45"/></g><g><polygon class="cls-20" points="742 -.07 730.38 -.11 731.36 1.08 741.01 1.12 742 -.07"/><polygon class="cls-17" points="737.26 1.11 736.19 -.09 730.38 -.11 731.36 1.08 737.26 1.11"/></g></g><g><path class="cls-30" d="M732.65,43.97c0,1.9,1.54,3.44,3.44,3.44s3.44-1.54,3.44-3.44-1.54-3.44-3.44-3.44-3.44,1.54-3.44,3.44Z"/><g><g><g><rect class="cls-23" x="734.15" y="50.6" width="1.22" height="12.99"/><rect class="cls-14" x="735.37" y="50.6" width="2.65" height="12.99"/></g><line class="cls-4" x1="736.09" y1="50.6" x2="736.09" y2="47.99"/></g><g><g><path class="cls-20" d="M734.76,46.32c1.26-2.57,1.33-3.92,1.33-3.92,0,0,.27,.44,.59,1.09-.18,.66-.51,1.6-1.11,2.83-.9,1.84,.17,2.57,.85,2.83-.11,.05-.21,.1-.34,.14,0,0-2.59-.4-1.33-2.97Z"/><path class="cls-13" d="M735.57,46.32c.6-1.23,.93-2.18,1.11-2.83,.82,1.66,1.95,4.72-.26,5.67-.68-.26-1.76-.99-.85-2.83Z"/></g><path class="cls-12" d="M736.35,47.32c-.12,.59,.02,1.12,.3,1.17,.28,.05,.6-.38,.72-.97,.12-.59-.02-1.12-.3-1.17-.28-.05-.6,.38-.72,.97Z"/></g></g></g></g></g></g><g class="cls-46"><g><g><g><path class="cls-13" d="M132.17,345.38h23.82c3.54-22.5-11.91-23.73-11.91-30.77,0,.2-.01,.39-.04,.58h0c-.63,5.07-9.47,7.28-11.83,18.18-.69,3.17-.82,7.08-.05,12.02Z"/><path class="cls-11" d="M150.24,334.2c.2-8.71-6.27-11.37-6.23-17.08-.47,4.37-8.7,6.28-10.65,15.67-.44,9.89,16.68,10.36,16.88,1.41Z"/><rect class="cls-24" x="132.19" y="345.38" width="23.8" height="2.72"/><rect class="cls-24" x="132.19" y="369.5" width="23.8" height="2.72"/><path class="cls-7" d="M136.55,331.82c-.31,1.53,.56,3.31,1.94,3.97,1.38,.66,2.75-.05,3.06-1.59,.31-1.53-.56-3.31-1.94-3.97-1.38-.66-2.75,.05-3.06,1.59Z"/><rect class="cls-13" x="134.07" y="348.1" width="20.04" height="21.39"/><rect class="cls-20" x="134.07" y="348.1" width="3" height="21.39"/><rect class="cls-13" x="134.07" y="372.22" width="20.04" height="141.51"/><rect class="cls-20" x="134.07" y="372.22" width="3" height="141.51"/><rect class="cls-13" x="131.64" y="421.45" width="24.9" height="92.28"/><rect class="cls-20" x="131.64" y="421.45" width="5.58" height="92.28"/><path class="cls-18" d="M144.09,353.32h0c2.24,0,4.05,1.81,4.05,4.05v6.91h-8.1v-6.91c0-2.24,1.81-4.05,4.05-4.05Z"/><path class="cls-37" d="M144.09,355.23h0c2.24,0,4.05,1.81,4.05,4.05v4.99h-8.1v-4.99c0-2.24,1.81-4.05,4.05-4.05Z"/><path class="cls-18" d="M144.09,390.24h0c2.24,0,4.05,1.81,4.05,4.05v6.91h-8.1v-6.91c0-2.24,1.81-4.05,4.05-4.05Z"/><path class="cls-37" d="M144.09,392.54h0c2.24,0,4.05,1.81,4.05,4.05v4.61h-8.1v-4.61c0-2.24,1.81-4.05,4.05-4.05Z"/><path class="cls-18" d="M144.09,437.49h0c2.24,0,4.05,1.81,4.05,4.05v6.91h-8.1v-6.91c0-2.24,1.81-4.05,4.05-4.05Z"/><path class="cls-37" d="M144.09,439.52h0c2.24,0,4.05,1.81,4.05,4.05v4.88h-8.1v-4.88c0-2.24,1.81-4.05,4.05-4.05Z"/><path class="cls-18" d="M143.9,472.92h.39c2.13,0,3.85,1.73,3.85,3.85v7.1h-8.1v-7.1c0-2.13,1.73-3.85,3.85-3.85Z"/><path class="cls-37" d="M143.9,474.67h.39c2.13,0,3.85,1.72,3.85,3.85v5.35h-8.1v-5.35c0-2.13,1.73-3.85,3.85-3.85Z"/></g><g><rect class="cls-40" x="138.6" y="429.54" width="46.11" height="85.94"/><g><path class="cls-40" d="M138.55,427.33h46.15c6.86-28.38-23.08-29.94-23.08-38.82,0,.25-.02,.49-.07,.73h0c-1.23,6.4-18.35,9.19-22.92,22.93-1.33,4-1.59,8.94-.09,15.16Z"/><path class="cls-41" d="M173.55,413.22c.39-10.98-12.15-14.34-12.08-21.55-.92,5.51-16.85,7.92-20.63,19.77-.85,12.48,32.31,13.07,32.71,1.78Z"/><rect class="cls-33" x="138.6" y="427.33" width="46.11" height="3.43"/><path class="cls-7" d="M147.03,410.22c-.6,1.94,1.08,4.18,3.75,5.01,2.67,.83,5.33-.07,5.93-2,.6-1.94-1.08-4.18-3.75-5.01-2.67-.83-5.33,.07-5.93,2Z"/></g><path class="cls-33" d="M161.63,442.2c0,3.99,12.69,3.6,12.69,18.94v51.39h-25.37v-51.39c0-15.34,12.69-14.95,12.69-18.94Z"/><path class="cls-35" d="M161.63,445.16c0,3.99,12.69,3.6,12.69,18.94v51.39h-25.37v-51.39c0-15.34,12.69-14.95,12.69-18.94Z"/><g><path class="cls-33" d="M181.04,438.76h0c.74,0,1.34-.6,1.34-1.34v-2.41c0-.74-.6-1.34-1.34-1.34h0c-.74,0-1.34,.6-1.34,1.34v2.41c0,.74,.6,1.34,1.34,1.34Z"/><path class="cls-33" d="M176.25,438.76h0c.74,0,1.34-.6,1.34-1.34v-2.41c0-.74-.6-1.34-1.34-1.34h0c-.74,0-1.34,.6-1.34,1.34v2.41c0,.74,.6,1.34,1.34,1.34Z"/><path class="cls-33" d="M171.46,438.76h0c.74,0,1.34-.6,1.34-1.34v-2.41c0-.74-.6-1.34-1.34-1.34h0c-.74,0-1.34,.6-1.34,1.34v2.41c0,.74,.6,1.34,1.34,1.34Z"/><path class="cls-33" d="M166.68,438.76h0c.74,0,1.34-.6,1.34-1.34v-2.41c0-.74-.6-1.34-1.34-1.34h0c-.74,0-1.34,.6-1.34,1.34v2.41c0,.74,.6,1.34,1.34,1.34Z"/><path class="cls-33" d="M161.89,438.76h0c.74,0,1.34-.6,1.34-1.34v-2.41c0-.74-.6-1.34-1.34-1.34h0c-.74,0-1.34,.6-1.34,1.34v2.41c0,.74,.6,1.34,1.34,1.34Z"/><path class="cls-33" d="M157.11,438.76h0c.74,0,1.34-.6,1.34-1.34v-2.41c0-.74-.6-1.34-1.34-1.34h0c-.74,0-1.34,.6-1.34,1.34v2.41c0,.74,.6,1.34,1.34,1.34Z"/><path class="cls-33" d="M152.32,438.76h0c.74,0,1.34-.6,1.34-1.34v-2.41c0-.74-.6-1.34-1.34-1.34h0c-.74,0-1.34,.6-1.34,1.34v2.41c0,.74,.6,1.34,1.34,1.34Z"/><path class="cls-33" d="M147.54,438.76h0c.74,0,1.34-.6,1.34-1.34v-2.41c0-.74-.6-1.34-1.34-1.34h0c-.74,0-1.34,.6-1.34,1.34v2.41c0,.74,.6,1.34,1.34,1.34Z"/><path class="cls-33" d="M142.75,438.76h0c.74,0,1.34-.6,1.34-1.34v-2.41c0-.74-.6-1.34-1.34-1.34h0c-.74,0-1.34,.6-1.34,1.34v2.41c0,.74,.6,1.34,1.34,1.34Z"/></g><rect class="cls-33" x="138.6" y="439.76" width="46.11" height=".72"/></g><g><path class="cls-13" d="M44.79,345.38H20.97c-3.54-22.5,11.91-23.73,11.91-30.77,0,.2,.01,.39,.04,.58h0c.63,5.07,9.47,7.28,11.83,18.18,.69,3.17,.82,7.08,.05,12.02Z"/><path class="cls-11" d="M26.73,334.2c-.2-8.71,6.27-11.37,6.23-17.08,.47,4.37,8.7,6.28,10.65,15.67,.44,9.89-16.68,10.36-16.88,1.41Z"/><rect class="cls-24" x="20.97" y="345.38" width="23.8" height="2.72"/><rect class="cls-24" x="20.97" y="369.5" width="23.8" height="2.72"/><path class="cls-7" d="M40.42,331.82c.31,1.53-.56,3.31-1.94,3.97-1.38,.66-2.75-.05-3.06-1.59-.31-1.53,.56-3.31,1.94-3.97,1.38-.66,2.75,.05,3.06,1.59Z"/><rect class="cls-13" x="22.85" y="348.1" width="20.04" height="21.39"/><rect class="cls-20" x="39.89" y="348.1" width="3" height="21.39"/><rect class="cls-13" x="22.85" y="372.22" width="20.04" height="141.51"/><rect class="cls-20" x="39.89" y="372.22" width="3" height="141.51"/><rect class="cls-13" x="20.42" y="421.45" width="24.9" height="92.28"/><rect class="cls-20" x="39.74" y="421.45" width="5.58" height="92.28"/><path class="cls-18" d="M32.87,353.32h0c-2.24,0-4.05,1.81-4.05,4.05v6.91h8.1v-6.91c0-2.24-1.81-4.05-4.05-4.05Z"/><path class="cls-37" d="M32.87,355.23h0c-2.24,0-4.05,1.81-4.05,4.05v4.99h8.1v-4.99c0-2.24-1.81-4.05-4.05-4.05Z"/><path class="cls-18" d="M32.87,390.24h0c-2.24,0-4.05,1.81-4.05,4.05v6.91h8.1v-6.91c0-2.24-1.81-4.05-4.05-4.05Z"/><path class="cls-37" d="M32.87,392.54h0c-2.24,0-4.05,1.81-4.05,4.05v4.61h8.1v-4.61c0-2.24-1.81-4.05-4.05-4.05Z"/><path class="cls-18" d="M32.87,437.49h0c-2.24,0-4.05,1.81-4.05,4.05v6.91h8.1v-6.91c0-2.24-1.81-4.05-4.05-4.05Z"/><path class="cls-37" d="M32.87,439.52h0c-2.24,0-4.05,1.81-4.05,4.05v4.88h8.1v-4.88c0-2.24-1.81-4.05-4.05-4.05Z"/><path class="cls-18" d="M33.07,472.92h-.39c-2.13,0-3.85,1.73-3.85,3.85v7.1h8.1v-7.1c0-2.13-1.73-3.85-3.85-3.85Z"/><path class="cls-37" d="M33.07,474.67h-.39c-2.13,0-3.85,1.72-3.85,3.85v5.35h8.1v-5.35c0-2.13-1.73-3.85-3.85-3.85Z"/></g><g><rect class="cls-40" x="-7.74" y="429.54" width="46.11" height="85.94"/><g><path class="cls-40" d="M38.41,427.33H-7.74c-6.86-28.38,23.08-29.94,23.08-38.82,0,.25,.02,.49,.07,.73h0c1.23,6.4,18.35,9.19,22.92,22.93,1.33,4,1.59,8.94,.09,15.16Z"/><path class="cls-41" d="M3.41,413.22c-.39-10.98,12.15-14.34,12.08-21.55,.92,5.51,16.85,7.92,20.63,19.77,.85,12.48-32.31,13.07-32.71,1.78Z"/><rect class="cls-33" x="-7.74" y="427.33" width="46.11" height="3.43"/><path class="cls-7" d="M29.94,410.22c.6,1.94-1.08,4.18-3.75,5.01-2.67,.83-5.33-.07-5.93-2-.6-1.94,1.08-4.18,3.75-5.01,2.67-.83,5.33,.07,5.93,2Z"/></g><path class="cls-33" d="M15.34,442.2c0,3.99-12.69,3.6-12.69,18.94v51.39H28.02v-51.39c0-15.34-12.69-14.95-12.69-18.94Z"/><path class="cls-35" d="M15.34,445.16c0,3.99-12.69,3.6-12.69,18.94v51.39H28.02v-51.39c0-15.34-12.69-14.95-12.69-18.94Z"/><g><path class="cls-33" d="M.71,438.76H.71c-.74,0-1.34-.6-1.34-1.34v-2.41c0-.74,.6-1.34,1.34-1.34H.71c.74,0,1.34,.6,1.34,1.34v2.41c0,.74-.6,1.34-1.34,1.34Z"/><path class="cls-33" d="M5.5,438.76h0c-.74,0-1.34-.6-1.34-1.34v-2.41c0-.74,.6-1.34,1.34-1.34h0c.74,0,1.34,.6,1.34,1.34v2.41c0,.74-.6,1.34-1.34,1.34Z"/><path class="cls-33" d="M10.28,438.76h0c-.74,0-1.34-.6-1.34-1.34v-2.41c0-.74,.6-1.34,1.34-1.34h0c.74,0,1.34,.6,1.34,1.34v2.41c0,.74-.6,1.34-1.34,1.34Z"/><path class="cls-33" d="M15.07,438.76h0c-.74,0-1.34-.6-1.34-1.34v-2.41c0-.74,.6-1.34,1.34-1.34h0c.74,0,1.34,.6,1.34,1.34v2.41c0,.74-.6,1.34-1.34,1.34Z"/><path class="cls-33" d="M19.86,438.76h0c-.74,0-1.34-.6-1.34-1.34v-2.41c0-.74,.6-1.34,1.34-1.34h0c.74,0,1.34,.6,1.34,1.34v2.41c0,.74-.6,1.34-1.34,1.34Z"/><path class="cls-33" d="M24.64,438.76h0c-.74,0-1.34-.6-1.34-1.34v-2.41c0-.74,.6-1.34,1.34-1.34h0c.74,0,1.34,.6,1.34,1.34v2.41c0,.74-.6,1.34-1.34,1.34Z"/><path class="cls-33" d="M29.43,438.76h0c-.74,0-1.34-.6-1.34-1.34v-2.41c0-.74,.6-1.34,1.34-1.34h0c.74,0,1.34,.6,1.34,1.34v2.41c0,.74-.6,1.34-1.34,1.34Z"/><path class="cls-33" d="M34.21,438.76h0c-.74,0-1.34-.6-1.34-1.34v-2.41c0-.74,.6-1.34,1.34-1.34h0c.74,0,1.34,.6,1.34,1.34v2.41c0,.74-.6,1.34-1.34,1.34Z"/></g><rect class="cls-33" x="-7.74" y="439.76" width="46.11" height=".72"/></g><g><g><g><g><path class="cls-29" d="M125.28,396.18H52.67c-10.79-44.65,36.31-47.1,36.31-61.07,0,.39,.03,.77,.11,1.14h0c1.93,10.06,28.86,14.45,36.05,36.07,2.09,6.3,2.51,14.06,.14,23.85Z"/><path class="cls-36" d="M70.21,373.97c-.61-17.28,19.12-22.56,19-33.9,1.44,8.67,26.51,12.46,32.46,31.11,1.33,19.63-50.84,20.57-51.46,2.8Z"/><rect class="cls-26" x="52.67" y="396.18" width="72.54" height="5.4"/><rect class="cls-29" x="52.67" y="401.58" width="72.54" height="12.59"/><g><path class="cls-33" d="M59.28,404.41h-.25c-1.35,0-2.44,1.09-2.44,2.44v4.49h5.12v-4.49c0-1.35-1.09-2.44-2.44-2.44Z"/><path class="cls-33" d="M69.25,404.41h-.25c-1.35,0-2.44,1.09-2.44,2.44v4.49h5.12v-4.49c0-1.35-1.09-2.44-2.44-2.44Z"/><path class="cls-33" d="M79.21,404.41h-.25c-1.35,0-2.44,1.09-2.44,2.44v4.49h5.12v-4.49c0-1.35-1.09-2.44-2.44-2.44Z"/><path class="cls-33" d="M89.18,404.41h-.25c-1.35,0-2.44,1.09-2.44,2.44v4.49h5.12v-4.49c0-1.35-1.09-2.44-2.44-2.44Z"/><path class="cls-33" d="M99.15,404.41h-.25c-1.35,0-2.44,1.09-2.44,2.44v4.49h5.12v-4.49c0-1.35-1.09-2.44-2.44-2.44Z"/><path class="cls-33" d="M109.11,404.41h-.25c-1.35,0-2.44,1.09-2.44,2.44v4.49h5.12v-4.49c0-1.35-1.09-2.44-2.44-2.44Z"/><path class="cls-33" d="M119.08,404.41h-.25c-1.35,0-2.44,1.09-2.44,2.44v4.49h5.12v-4.49c0-1.35-1.09-2.44-2.44-2.44Z"/></g><rect class="cls-29" x="45.88" y="414.17" width="86.35" height="4.02"/><path class="cls-7" d="M111.94,369.26c.95,3.05-1.7,6.57-5.91,7.88-4.21,1.31-8.38-.1-9.33-3.15-.95-3.05,1.7-6.57,5.91-7.88,4.21-1.31,8.38,.1,9.33,3.15Z"/><rect class="cls-26" x="43.35" y="418.18" width="90.6" height="7.72"/><polygon class="cls-29" points="135.62 420.63 135.62 423.9 130.9 423.9 130.9 420.63 125.71 420.63 125.71 423.9 120.99 423.9 120.99 420.63 115.79 420.63 115.79 423.9 111.08 423.9 111.08 420.63 105.88 420.63 105.88 423.9 101.16 423.9 101.16 420.63 95.96 420.63 95.96 423.9 91.25 423.9 91.25 420.63 86.05 420.63 86.05 423.9 81.33 423.9 81.33 420.63 76.14 420.63 76.14 423.9 71.42 423.9 71.42 420.63 66.22 420.63 66.22 423.9 61.51 423.9 61.51 420.63 56.31 420.63 56.31 423.9 51.59 423.9 51.59 420.63 46.39 420.63 46.39 423.9 41.68 423.9 41.68 420.63 36.48 420.63 36.48 423.9 36.48 515.48 140.82 515.48 140.82 423.9 140.82 420.63 135.62 420.63"/><rect class="cls-36" x="54.47" y="435.18" width="69.01" height="76.37"/><g><path class="cls-34" d="M59.28,405.74h-.25c-1.35,0-2.44,1.09-2.44,2.44v3.16h5.12v-3.16c0-1.35-1.09-2.44-2.44-2.44Z"/><path class="cls-34" d="M69.25,405.74h-.25c-1.35,0-2.44,1.09-2.44,2.44v3.16h5.12v-3.16c0-1.35-1.09-2.44-2.44-2.44Z"/><path class="cls-34" d="M79.21,405.74h-.25c-1.35,0-2.44,1.09-2.44,2.44v3.16h5.12v-3.16c0-1.35-1.09-2.44-2.44-2.44Z"/><path class="cls-34" d="M89.18,405.74h-.25c-1.35,0-2.44,1.09-2.44,2.44v3.16h5.12v-3.16c0-1.35-1.09-2.44-2.44-2.44Z"/><path class="cls-34" d="M99.15,405.74h-.25c-1.35,0-2.44,1.09-2.44,2.44v3.16h5.12v-3.16c0-1.35-1.09-2.44-2.44-2.44Z"/><path class="cls-34" d="M109.11,405.74h-.25c-1.35,0-2.44,1.09-2.44,2.44v3.16h5.12v-3.16c0-1.35-1.09-2.44-2.44-2.44Z"/><path class="cls-34" d="M119.08,405.74h-.25c-1.35,0-2.44,1.09-2.44,2.44v3.16h5.12v-3.16c0-1.35-1.09-2.44-2.44-2.44Z"/></g></g><path class="cls-33" d="M104.37,464.47c.77-3.62,.57-6.55-.26-8.96-3.1-8.94-14.74-10.76-15.57-14.92h0c-.03-.16-.05-.32-.05-.48,0,5.68-19.66,6.76-15.89,24.35h-3.23v47.08h38.54v-47.08h-3.55Z"/><path class="cls-29" d="M59.26,440.12v20.57h-.1v45.71h3.6v-45.71h3.43c0-15.86,13.75-16.29,14.07-20.57h-21Z"/></g><path class="cls-29" d="M97.04,440.12c.33,4.29,14.07,4.71,14.07,20.57h3.43v45.71h3.5v-66.28h-21Z"/></g><path class="cls-34" d="M104.37,466.93c.77-3.62,.57-6.55-.26-8.96-3.1-8.94-14.74-10.76-15.57-14.92h0c-.03-.16-.05-.32-.05-.48,0,5.68-19.66,6.76-15.89,24.35h-3.23v47.08h38.54v-47.08h-3.55Z"/><g><path class="cls-33" d="M132.91,435.18s-4.91,1.72-4.91,8.26v7.11h9.82v-7.11c0-6.54-4.91-8.26-4.91-8.26Z"/><path class="cls-34" d="M132.91,438.01s-4.91,1.4-4.91,6.74v5.81h9.82v-5.81c0-5.34-4.91-6.74-4.91-6.74Z"/></g><g><path class="cls-33" d="M132.91,462.7s-4.91,1.72-4.91,8.26v7.11h9.82v-7.11c0-6.54-4.91-8.26-4.91-8.26Z"/><path class="cls-34" d="M132.91,465.53s-4.91,1.4-4.91,6.74v5.81h9.82v-5.81c0-5.34-4.91-6.74-4.91-6.74Z"/></g><g><path class="cls-33" d="M132.91,490.22s-4.91,1.72-4.91,8.26v7.11h9.82v-7.11c0-6.54-4.91-8.26-4.91-8.26Z"/><path class="cls-34" d="M132.91,493.05s-4.91,1.4-4.91,6.74v5.81h9.82v-5.81c0-5.34-4.91-6.74-4.91-6.74Z"/></g><g><path class="cls-33" d="M46.43,435.18s-4.91,1.72-4.91,8.26v7.11h9.82v-7.11c0-6.54-4.91-8.26-4.91-8.26Z"/><path class="cls-34" d="M46.43,438.01s-4.91,1.4-4.91,6.74v5.81h9.82v-5.81c0-5.34-4.91-6.74-4.91-6.74Z"/></g><g><path class="cls-33" d="M46.43,462.7s-4.91,1.72-4.91,8.26v7.11h9.82v-7.11c0-6.54-4.91-8.26-4.91-8.26Z"/><path class="cls-34" d="M46.43,465.53s-4.91,1.4-4.91,6.74v5.81h9.82v-5.81c0-5.34-4.91-6.74-4.91-6.74Z"/></g><g><path class="cls-33" d="M46.43,490.22s-4.91,1.72-4.91,8.26v7.11h9.82v-7.11c0-6.54-4.91-8.26-4.91-8.26Z"/><path class="cls-34" d="M46.43,493.05s-4.91,1.4-4.91,6.74v5.81h9.82v-5.81c0-5.34-4.91-6.74-4.91-6.74Z"/></g><path class="cls-29" d="M104.14,324.98c-1.42,6.19-6.99,10.81-13.63,10.81-7.73,0-13.99-6.26-13.99-13.99,0-6.64,4.62-12.19,10.81-13.61-2.47,2.16-4.03,5.36-4.03,8.9,0,6.59,5.33,11.93,11.91,11.93,3.56,0,6.76-1.56,8.92-4.05Z"/></g></g><g><g><path class="cls-13" d="M220.22,537.17v-90.72l1.56-2.03v-20.18h-1.56v-9.11l.92-.52v-2.04h-.69s1.12-.8,1.32-4.59c.16-3.01-1.12-8.5-5.31-12.26-1.18-1.06-2.4-1.81-3.56-2.34h.01v-1.32l-3.92-1.65v-1.02h-.87l-.64-5.96-.64,5.96h-.87v1.02l-3.92,1.65v1.32h.01c-1.15,.54-2.38,1.28-3.56,2.34-4.19,3.76-5.47,9.26-5.31,12.26,.2,3.8,1.32,4.59,1.32,4.59h-.69v2.04l.92,.52v9.11h-1.56v20.18l1.56,2.03v90.72h25.47Zm-16.43-112.94v-4.39c0-1.41,1.63-1.92,1.63-1.92v-.74h.6l1.46-1.68,1.46,1.68h.6v.74s1.63,.5,1.63,1.92v4.39h-7.4Zm-8.25,0v-4.39c0-1.41,1.63-1.92,1.63-1.92v-.74h.6l1.46-1.68,1.46,1.68h.6v.74s1.63,.5,1.63,1.92v4.39h-7.4Zm16.5,0v-4.39c0-1.41,1.63-1.92,1.63-1.92v-.74h.6l1.46-1.68,1.46,1.68h.6v.74s1.63,.5,1.63,1.92v4.39h-7.4Z"/><path class="cls-20" d="M220.22,446.44l1.56-2.03v-20.18h-1.56v-9.11l.92-.52v-2.04h-.69s1.12-.8,1.32-4.59c.16-3.01-1.12-8.5-5.31-12.26-1.18-1.06-2.4-1.81-3.56-2.34h.01v-1.32l-3.92-1.65v-1.02h-.87l-.64-5.96v6.98l-1.5,1.65v1.32h1.5s5.63,1.34,6.73,7.29c1.1,5.96-6.73,11.69-6.73,11.69v3.15l1.46,1.68h.6v.74s1.63,.5,1.63,1.92v4.39h-3.7v112.94h12.73v-90.72Zm-.79-22.21h-7.4v-4.39c0-1.41,1.63-1.92,1.63-1.92v-.74h.6l1.46-1.68,1.46,1.68h.61v.74s1.63,.5,1.63,1.92v4.39Z"/></g><g><polygon class="cls-18" points="193.83 414.61 221.14 414.61 220.22 415.13 194.75 415.13 193.83 414.61"/><polygon class="cls-19" points="193.19 444.41 221.78 444.41 220.22 446.44 194.75 446.44 193.19 444.41"/></g><g><path class="cls-24" d="M195.54,419.84c0-1.41,1.63-1.92,1.63-1.92v-.74h.6l1.46-1.68,1.46,1.68h.6v.74s1.63,.5,1.63,1.92v4.39h.85v-4.39c0-1.41,1.63-1.92,1.63-1.92v-.74h.6l1.46-1.68,1.46,1.68h.6v.74s1.63,.5,1.63,1.92v4.39h.85v-4.39c0-1.41,1.63-1.92,1.63-1.92v-.74h.6l1.46-1.68,1.46,1.68h.61v.74s1.63,.5,1.63,1.92v4.39h.79v-9.11h-25.47v9.11h.79v-4.39Z"/><path class="cls-18" d="M208.95,417.19h.6v.74s1.63,.5,1.63,1.92v4.39h.85v-4.39c0-1.41,1.63-1.92,1.63-1.92v-.74h.6l1.46-1.68,1.46,1.68h.61v.74s1.63,.5,1.63,1.92v4.39h.79v-9.11h-12.73v.38h0s1.46,1.68,1.46,1.68Z"/></g><g><polygon class="cls-18" points="220.45 412.57 194.53 412.57 194.32 412.35 220.65 412.35 220.45 412.57"/><rect class="cls-24" x="202.06" y="392.05" width="10.85" height="1.32"/><rect class="cls-24" x="205.98" y="389.39" width="3" height="1.02"/></g><path class="cls-18" d="M210.19,458.95v-.66h-.45v-.4s1.21-.89,.96-3.51c-.26-2.62-3.21-3.4-3.21-3.4,0,0-2.96,.79-3.21,3.4-.26,2.62,.96,3.51,.96,3.51v.4h-.45v.66h-.55v7.53h.52v1.11h5.45v-1.11h.52v-7.53h-.55Z"/><path class="cls-18" d="M210.19,483.55v-.66h-.45v-.4s1.21-.89,.96-3.51c-.26-2.62-3.21-3.4-3.21-3.4,0,0-2.96,.79-3.21,3.4-.26,2.62,.96,3.51,.96,3.51v.4h-.45v.66h-.55v7.53h.52v1.11h5.45v-1.11h.52v-7.53h-.55Z"/></g><g><g><path class="cls-40" d="M255.93,562.54v-84.39l1.45-1.89v-18.77h-1.45v-8.47l.85-.48v-1.9h-.65s1.04-.74,1.23-4.27c.15-2.8-1.04-7.91-4.94-11.41-1.1-.99-2.24-1.68-3.31-2.18h.01v-1.23l-3.65-1.53v-.95h-.81l-.59-5.54-.59,5.54h-.81v.95l-3.65,1.53v1.23h.01c-1.07,.5-2.21,1.19-3.31,2.18-3.9,3.5-5.09,8.61-4.94,11.41,.19,3.53,1.23,4.27,1.23,4.27h-.65v1.9l.85,.48v8.47h-1.45v18.77l1.45,1.89v84.39h23.69Zm-15.29-105.05v-4.08c0-1.31,1.52-1.78,1.52-1.78v-.69h.56l1.36-1.56,1.36,1.56h.56v.69s1.52,.47,1.52,1.78v4.08h-6.88Zm7.67,0v-4.08c0-1.31,1.52-1.78,1.52-1.78v-.69h.56l1.36-1.56,1.36,1.56h.56v.69s1.52,.47,1.52,1.78v4.08h-6.88Zm-15.35,0v-4.08c0-1.31,1.52-1.78,1.52-1.78v-.69h.56l1.36-1.56,1.36,1.56h.56v.69s1.52,.47,1.52,1.78v4.08h-6.88Z"/><path class="cls-29" d="M232.24,562.54h11.85v-105.05h-3.44v-4.08c0-1.31,1.52-1.78,1.52-1.78v-.69h.56l1.36-1.56v-2.93s-7.28-5.33-6.26-10.87c1.02-5.54,6.26-6.78,6.26-6.78h1.4v-1.23l-1.4-1.53v-6.49l-.59,5.54h-.81v.95l-3.65,1.53v1.23h.01c-1.07,.5-2.21,1.19-3.31,2.18-3.9,3.5-5.09,8.61-4.94,11.41,.19,3.53,1.23,4.27,1.23,4.27h-.65v1.9l.85,.48v8.47h-1.45v18.77l1.45,1.89v84.39Zm.73-109.14c0-1.31,1.52-1.78,1.52-1.78v-.69h.56l1.36-1.56,1.36,1.56h.56v.69s1.52,.47,1.52,1.78v4.08h-6.88v-4.08Z"/></g><g><polygon class="cls-27" points="256.78 448.53 231.38 448.53 232.23 449.01 255.93 449.01 256.78 448.53"/><polygon class="cls-27" points="257.38 476.25 230.79 476.25 232.24 478.14 255.93 478.14 257.38 476.25"/></g><g><path class="cls-33" d="M255.19,453.4c0-1.31-1.52-1.78-1.52-1.78v-.69h-.56l-1.36-1.56-1.36,1.56h-.56v.69s-1.52,.47-1.52,1.78v4.08h-.79v-4.08c0-1.31-1.52-1.78-1.52-1.78v-.69h-.56l-1.36-1.56-1.36,1.56h-.56v.69s-1.52,.47-1.52,1.78v4.08h-.79v-4.08c0-1.31-1.52-1.78-1.52-1.78v-.69h-.56l-1.36-1.56-1.36,1.56h-.56v.69s-1.52,.47-1.52,1.78v4.08h-.73v-8.47h23.69v8.47h-.73v-4.08Z"/><path class="cls-38" d="M242.72,450.93h-.56v.69s-1.52,.47-1.52,1.78v4.08h-.79v-4.08c0-1.31-1.52-1.78-1.52-1.78v-.69h-.56l-1.36-1.56-1.36,1.56h-.56v.69s-1.52,.47-1.52,1.78v4.08h-.73v-8.47h11.85v.35h0s-1.36,1.56-1.36,1.56Z"/></g><g><polygon class="cls-27" points="232.03 446.64 256.13 446.64 256.33 446.43 231.84 446.43 232.03 446.64"/><rect class="cls-27" x="239.04" y="427.55" width="10.09" height="1.23"/><rect class="cls-27" x="242.68" y="425.07" width="2.79" height=".95"/></g><path class="cls-33" d="M241.57,493.12v-.61h.42v-.38s-1.13-.83-.89-3.27c.24-2.43,2.99-3.17,2.99-3.17,0,0,2.75,.73,2.99,3.17,.24,2.43-.89,3.27-.89,3.27v.38h.42v.61h.51v7.01h-.49v1.03h-5.07v-1.03h-.49v-7.01h.51Z"/></g></g></g></g></g></svg>