<?xml version="1.0" encoding="UTF-8"?><svg id="OBJECTS" xmlns="http://www.w3.org/2000/svg" viewBox="0 0 404.26 313.68"><defs><style>.cls-1{fill:#f46640;}.cls-2{fill:#f9a42d;}.cls-3{fill:#fafbed;}.cls-4{fill:#fecd32;}.cls-5{fill:#fed888;}.cls-6{fill:#feb81c;}.cls-7{fill:#d3573b;}.cls-8{fill:#21120d;}.cls-9{fill:#421819;}.cls-10{fill:#3f1715;}.cls-11{fill:#612423;}</style></defs><circle class="cls-4" cx="194.86" cy="96.5" r="75.68" transform="translate(-11.16 166.05) rotate(-45)"/><g><g><path class="cls-4" d="M388.75,222.49l-17.39-.04-25.71-.06-52.38-.12s.01,0,.03-.01l52.61-29.19,42.85,29.42Z"/><path class="cls-6" d="M388.75,222.49l-17.39-.04c-5.14-9.81-20.17-15.35-24.36-18.09-5.23-3.41-1.09-11.3-1.09-11.3l42.85,29.42Z"/><path class="cls-4" d="M345.64,222.39l-52.38-.12s.01,0,.03-.01c.68-.31,13.67-6.08,23.66-3.95,8.84,1.89,24.05,.62,28.69,4.08Z"/></g><g><path class="cls-4" d="M207.04,222.49l-35.6-.08-52.63-.12-107.22-.24s.02,0,.06-.03l107.69-59.76,87.71,60.22Z"/><path class="cls-6" d="M207.04,222.49l-35.6-.08c-10.52-20.08-41.3-31.43-49.87-37.02-10.7-6.99-2.24-23.12-2.24-23.12l87.71,60.22Z"/><path class="cls-6" d="M118.81,222.29l-107.22-.24s.02,0,.06-.03c1.4-.63,27.99-12.45,48.44-8.08,18.1,3.87,49.22,1.27,58.73,8.35Z"/></g><g><path class="cls-4" d="M341.55,222.49l-24.77-.05-36.62-.08-74.6-.17s.02,0,.04-.02l74.93-41.58,61.02,41.9Z"/><path class="cls-6" d="M341.55,222.49l-24.77-.05c-7.32-13.97-28.73-21.87-34.7-25.76-7.44-4.86-1.56-16.09-1.56-16.09l61.02,41.9Z"/><path class="cls-6" d="M280.17,222.35l-74.6-.17s.02,0,.04-.02c.97-.44,19.48-8.66,33.7-5.62,12.59,2.69,34.25,.88,40.86,5.81Z"/></g></g><g><path class="cls-7" d="M332.78,161.01c-5.15,.13-9.19,4.5-9.19,9.65v51.97h18.89v-52.18c0-5.3-4.36-9.58-9.69-9.44Z"/><path class="cls-1" d="M333.03,161.01c-2.96,0-5.36,4.23-5.36,9.44v52.18h10.72v-52.18c0-5.22-2.4-9.44-5.36-9.44Z"/><path class="cls-1" d="M333.03,161.01c-1.11,0-2.01,4.23-2.01,9.44v52.18h4.02v-52.18c0-5.22-.9-9.44-2.01-9.44Z"/><g><polygon class="cls-2" points="329.17 168.05 327.94 169.14 327.69 166.82 327.68 166.82 327.43 169.14 326.2 168.05 327.36 169.87 327.36 169.87 327.36 169.87 327.68 170.39 327.68 170.39 327.69 170.39 328.02 169.87 328.02 169.87 329.17 168.05"/><polygon class="cls-2" points="339.86 168.05 338.62 169.14 338.37 166.82 338.37 166.82 338.12 169.14 336.89 168.05 338.04 169.87 338.04 169.87 338.04 169.87 338.37 170.39 338.37 170.39 338.37 170.39 338.7 169.87 338.7 169.87 339.86 168.05"/><polygon class="cls-2" points="334.51 171.63 333.28 172.71 333.03 170.39 333.03 170.39 332.78 172.71 331.54 171.63 332.7 173.45 332.7 173.45 332.7 173.45 333.03 173.97 333.03 173.96 333.03 173.97 333.36 173.45 333.36 173.45 334.51 171.63"/><polygon class="cls-2" points="334.51 180.53 333.28 181.62 333.03 179.3 333.03 179.3 332.78 181.62 331.54 180.53 332.7 182.35 332.7 182.35 332.7 182.35 333.03 182.87 333.03 182.87 333.03 182.87 333.36 182.35 333.36 182.35 334.51 180.53"/><polygon class="cls-2" points="334.51 189.44 333.28 190.52 333.03 188.2 333.03 188.2 332.78 190.52 331.54 189.44 332.7 191.26 332.7 191.26 332.7 191.26 333.03 191.78 333.03 191.77 333.03 191.78 333.36 191.26 333.36 191.26 334.51 189.44"/><polygon class="cls-2" points="329.17 176.32 327.94 177.4 327.69 175.08 327.68 175.08 327.43 177.4 326.2 176.32 327.36 178.14 327.36 178.14 327.36 178.14 327.68 178.65 327.68 178.65 327.69 178.65 328.02 178.14 328.02 178.13 329.17 176.32"/><polygon class="cls-2" points="339.86 176.32 338.62 177.4 338.37 175.08 338.37 175.08 338.12 177.4 336.89 176.32 338.04 178.14 338.04 178.14 338.04 178.14 338.37 178.65 338.37 178.65 338.37 178.65 338.7 178.14 338.7 178.13 339.86 176.32"/><polygon class="cls-2" points="329.17 184.58 327.94 185.66 327.69 183.34 327.68 183.34 327.43 185.66 326.2 184.58 327.36 186.4 327.36 186.4 327.36 186.4 327.68 186.92 327.68 186.91 327.69 186.92 328.02 186.4 328.02 186.4 329.17 184.58"/><polygon class="cls-2" points="339.86 184.58 338.62 185.66 338.37 183.34 338.37 183.34 338.12 185.66 336.89 184.58 338.04 186.4 338.04 186.4 338.04 186.4 338.37 186.92 338.37 186.91 338.37 186.92 338.7 186.4 338.7 186.4 339.86 184.58"/></g><g><path class="cls-7" d="M315.7,175.2v-3.34c0-2.14-1.6-4.05-3.73-4.16-2.27-.12-4.16,1.69-4.16,3.94v7.75c0,3.61,2.92,6.53,6.53,6.53h10.05v-7.89h-5.85c-1.56,0-2.83-1.27-2.83-2.83Z"/><path class="cls-1" d="M314.34,183.17c-2.09,0-3.78-1.69-3.78-3.78v-7.75c0-.66,.54-1.2,1.2-1.2,.68,.03,1.2,.68,1.2,1.42v6.01c0,1.6,1.3,2.9,2.9,2.9h7.73v2.39h-9.24Z"/><polygon class="cls-2" points="315.88 182.01 314.64 183.09 314.39 180.77 314.39 180.77 314.14 183.09 312.91 182.01 314.06 183.83 314.06 183.83 314.06 183.83 314.39 184.35 314.39 184.34 314.39 184.35 314.72 183.83 314.72 183.83 315.88 182.01"/><polygon class="cls-2" points="312.05 176.32 310.82 177.4 310.57 175.08 310.56 175.08 310.31 177.4 309.08 176.32 310.23 178.14 310.23 178.14 310.23 178.14 310.56 178.65 310.56 178.65 310.56 178.65 310.89 178.14 310.89 178.13 312.05 176.32"/><polygon class="cls-2" points="314.39 171.25 313.16 172.33 312.91 170.01 312.91 170.01 312.66 172.33 311.42 171.25 312.58 173.07 312.58 173.07 312.58 173.07 312.91 173.59 312.91 173.58 312.91 173.59 313.24 173.07 313.24 173.07 314.39 171.25"/><polygon class="cls-2" points="321.62 182.01 320.39 183.09 320.14 180.77 320.13 180.77 319.88 183.09 318.65 182.01 319.81 183.83 319.81 183.83 319.81 183.83 320.13 184.35 320.13 184.34 320.14 184.35 320.47 183.83 320.47 183.83 321.62 182.01"/></g><g><path class="cls-7" d="M351.16,191.57v-3.34c0-2.14,1.6-4.05,3.73-4.16,2.27-.12,4.16,1.69,4.16,3.94v7.75c0,3.61-2.92,6.53-6.53,6.53h-10.05v-7.89h5.85c1.56,0,2.83-1.27,2.83-2.83Z"/><path class="cls-1" d="M352.52,199.55c2.09,0,3.78-1.69,3.78-3.78v-7.75c0-.66-.54-1.2-1.2-1.2-.68,.03-1.2,.68-1.2,1.42v6.01c0,1.6-1.3,2.9-2.9,2.9h-8.53v2.39h10.05Z"/><polygon class="cls-2" points="350.99 198.39 352.22 199.47 352.47 197.15 352.47 197.15 352.72 199.47 353.96 198.39 352.8 200.21 352.8 200.21 352.8 200.21 352.47 200.72 352.47 200.72 352.47 200.72 352.14 200.21 352.14 200.2 350.99 198.39"/><polygon class="cls-2" points="354.82 192.69 356.05 193.78 356.3 191.46 356.3 191.46 356.55 193.78 357.79 192.69 356.63 194.51 356.63 194.51 356.63 194.52 356.3 195.03 356.3 195.03 356.3 195.03 355.97 194.51 355.97 194.51 354.82 192.69"/><polygon class="cls-2" points="352.47 187.63 353.7 188.71 353.95 186.39 353.96 186.39 354.21 188.71 355.44 187.63 354.29 189.45 354.29 189.45 354.29 189.45 353.96 189.96 353.96 189.96 353.96 189.96 353.62 189.45 353.63 189.44 352.47 187.63"/><polygon class="cls-2" points="345.24 198.39 346.48 199.47 346.73 197.15 346.73 197.15 346.98 199.47 348.21 198.39 347.06 200.21 347.06 200.21 347.06 200.21 346.73 200.72 346.73 200.72 346.73 200.72 346.4 200.21 346.4 200.2 345.24 198.39"/></g><g><polygon class="cls-2" points="329.17 194 327.94 195.08 327.69 192.76 327.68 192.76 327.43 195.08 326.2 194 327.36 195.82 327.36 195.82 327.36 195.82 327.68 196.34 327.68 196.33 327.69 196.34 328.02 195.82 328.02 195.82 329.17 194"/><polygon class="cls-2" points="339.86 194 338.62 195.08 338.37 192.76 338.37 192.76 338.12 195.08 336.89 194 338.04 195.82 338.04 195.82 338.04 195.82 338.37 196.34 338.37 196.33 338.37 196.34 338.7 195.82 338.7 195.82 339.86 194"/><polygon class="cls-2" points="334.51 197.57 333.28 198.66 333.03 196.34 333.03 196.34 332.78 198.66 331.54 197.57 332.7 199.39 332.7 199.39 332.7 199.4 333.03 199.91 333.03 199.91 333.03 199.91 333.36 199.39 333.36 199.39 334.51 197.57"/><polygon class="cls-2" points="334.51 206.48 333.28 207.56 333.03 205.24 333.03 205.24 332.78 207.56 331.54 206.48 332.7 208.3 332.7 208.3 332.7 208.3 333.03 208.82 333.03 208.81 333.03 208.82 333.36 208.3 333.36 208.3 334.51 206.48"/><polygon class="cls-2" points="334.51 215.38 333.28 216.47 333.03 214.15 333.03 214.15 332.78 216.47 331.54 215.38 332.7 217.2 332.7 217.2 332.7 217.2 333.03 217.72 333.03 217.72 333.03 217.72 333.36 217.2 333.36 217.2 334.51 215.38"/><polygon class="cls-2" points="329.17 202.26 327.94 203.34 327.69 201.02 327.68 201.02 327.43 203.35 326.2 202.26 327.36 204.08 327.36 204.08 327.36 204.08 327.68 204.6 327.68 204.6 327.69 204.6 328.02 204.08 328.02 204.08 329.17 202.26"/><polygon class="cls-2" points="339.86 202.26 338.62 203.34 338.37 201.02 338.37 201.02 338.12 203.35 336.89 202.26 338.04 204.08 338.04 204.08 338.04 204.08 338.37 204.6 338.37 204.6 338.37 204.6 338.7 204.08 338.7 204.08 339.86 202.26"/><polygon class="cls-2" points="329.17 210.53 327.94 211.61 327.69 209.29 327.68 209.29 327.43 211.61 326.2 210.53 327.36 212.35 327.36 212.35 327.36 212.35 327.68 212.86 327.68 212.86 327.69 212.86 328.02 212.35 328.02 212.34 329.17 210.53"/><polygon class="cls-2" points="339.86 210.53 338.62 211.61 338.37 209.29 338.37 209.29 338.12 211.61 336.89 210.53 338.04 212.35 338.04 212.35 338.04 212.35 338.37 212.86 338.37 212.86 338.37 212.86 338.7 212.35 338.7 212.34 339.86 210.53"/></g><g><path class="cls-10" d="M333.87,157.8s.18-2.98-.84-4.94c-1.02,1.96-.84,4.94-.84,4.94h1.67Z"/><path class="cls-8" d="M334.17,156.84c-.25,.41-.52,.62-.78,.62h-.71c-.27,0-.53-.21-.78-.62l-1.28-2.1,.79,3.59c.43,1.96,1.02,3.06,1.63,3.06s1.19-1.1,1.63-3.06l.79-3.59-1.28,2.1Z"/><path class="cls-10" d="M334.77,157.52c-.38,.35-.79,.53-1.2,.53h-1.09c-.41,0-.81-.18-1.2-.53l-1.96-1.79,1.21,3.06c.66,1.67,1.56,2.61,2.49,2.61s1.83-.94,2.49-2.61l1.21-3.06-1.96,1.79Z"/><path class="cls-8" d="M335.58,158.17c-.56,.29-1.16,.44-1.76,.44h-1.6c-.6,0-1.19-.15-1.76-.44l-2.87-1.49,1.78,2.54c.97,1.39,2.28,2.17,3.65,2.17s2.68-.78,3.65-2.17l1.78-2.54-2.87,1.49Z"/></g><g><path class="cls-10" d="M311.95,166.21s.12-1.9-.53-3.14c-.65,1.25-.53,3.14-.53,3.14h1.06Z"/><path class="cls-8" d="M312.15,165.6c-.16,.26-.33,.4-.5,.4h-.45c-.17,0-.34-.13-.5-.4l-.81-1.34,.5,2.28c.27,1.25,.65,1.95,1.03,1.95s.76-.7,1.03-1.95l.5-2.28-.81,1.34Z"/><path class="cls-10" d="M312.53,166.03c-.24,.22-.5,.34-.76,.34h-.69c-.26,0-.52-.11-.76-.34l-1.25-1.14,.77,1.94c.42,1.06,.99,1.66,1.58,1.66s1.16-.6,1.58-1.66l.77-1.94-1.25,1.14Z"/><path class="cls-8" d="M313.05,166.44c-.36,.19-.74,.28-1.12,.28h-1.02c-.38,0-.76-.09-1.12-.28l-1.83-.95,1.13,1.62c.62,.88,1.45,1.38,2.32,1.38s1.71-.5,2.32-1.38l1.13-1.62-1.83,.95Z"/></g><g><path class="cls-10" d="M355.76,181.76s.15-2.45-.69-4.07c-.84,1.61-.69,4.07-.69,4.07h1.38Z"/><path class="cls-8" d="M356.01,180.97c-.21,.34-.42,.51-.64,.51h-.59c-.22,0-.44-.17-.64-.51l-1.05-1.73,.65,2.96c.36,1.61,.84,2.52,1.34,2.52s.98-.91,1.34-2.52l.65-2.96-1.05,1.73Z"/><path class="cls-10" d="M356.51,181.53c-.32,.29-.65,.44-.99,.44h-.9c-.34,0-.67-.15-.99-.44l-1.61-1.47,1,2.52c.54,1.37,1.28,2.15,2.05,2.15s1.51-.77,2.05-2.15l1-2.52-1.61,1.47Z"/><path class="cls-8" d="M357.17,182.06c-.46,.24-.95,.36-1.45,.36h-1.31c-.49,0-.98-.12-1.45-.36l-2.37-1.23,1.46,2.1c.8,1.14,1.88,1.79,3.01,1.79s2.21-.64,3.01-1.79l1.46-2.1-2.37,1.23Z"/></g></g><g><path class="cls-9" d="M227.78,127.69l-29.3-8.36-3.62,19.43,10.4,5.86,3.19,15.69,.09,24.99,3.66,19.96-13.47-2.3-.46,4.83-2.27,18.59,2.73,3.44,27.49-13.17,10.05-32.85,2.04-21.85-10.54-34.27Z"/><polygon class="cls-11" points="181.73 160.31 184.89 185.31 187.59 203.81 196.8 208.18 200.2 227.33 174.87 213.23 162.14 183.81 162.02 161.96 171.24 129.3 195.94 121 198.22 137.89 192.27 144.75 181.73 160.31"/></g><g><path class="cls-7" d="M64.88,122.01c-6.4,.16-11.42,5.59-11.42,11.99v100.18h23.45v-100.44c0-6.58-5.42-11.89-12.03-11.72Z"/><path class="cls-1" d="M65.19,122c-3.68,0-6.66,5.25-6.66,11.72v100.44h13.31v-100.44c0-6.48-2.98-11.72-6.66-11.72Z"/><path class="cls-1" d="M65.19,122c-1.38,0-2.5,5.25-2.5,11.72v100.44h4.99v-100.44c0-6.48-1.12-11.72-2.5-11.72Z"/><g><polygon class="cls-2" points="60.4 130.75 58.86 132.09 58.55 129.21 58.55 129.21 58.24 132.1 56.71 130.75 58.14 133.01 58.14 133.01 58.14 133.01 58.55 133.65 58.55 133.65 58.55 133.65 58.96 133.01 58.96 133.01 60.4 130.75"/><polygon class="cls-2" points="73.66 130.75 72.13 132.09 71.82 129.21 71.82 129.21 71.51 132.1 69.98 130.75 71.41 133.01 71.41 133.01 71.41 133.01 71.82 133.65 71.82 133.65 71.82 133.65 72.23 133.01 72.23 133.01 73.66 130.75"/><polygon class="cls-2" points="67.03 135.19 65.5 136.53 65.19 133.65 65.19 133.65 64.88 136.54 63.34 135.19 64.78 137.45 64.78 137.45 64.78 137.45 65.18 138.09 65.18 138.09 65.19 138.09 65.6 137.45 65.6 137.45 67.03 135.19"/><polygon class="cls-2" points="67.03 146.24 65.5 147.59 65.19 144.71 65.19 144.71 64.88 147.59 63.34 146.24 64.78 148.51 64.78 148.51 64.78 148.51 65.18 149.15 65.18 149.14 65.19 149.15 65.6 148.51 65.6 148.5 67.03 146.24"/><polygon class="cls-2" points="67.03 157.3 65.5 158.64 65.19 155.76 65.19 155.76 64.88 158.65 63.34 157.3 64.78 159.56 64.78 159.56 64.78 159.56 65.18 160.2 65.18 160.2 65.19 160.2 65.6 159.56 65.6 159.56 67.03 157.3"/><polygon class="cls-2" points="60.4 141.01 58.86 142.35 58.55 139.47 58.55 139.47 58.24 142.36 56.71 141.01 58.14 143.27 58.14 143.27 58.14 143.27 58.55 143.91 58.55 143.91 58.55 143.91 58.96 143.27 58.96 143.27 60.4 141.01"/><polygon class="cls-2" points="73.66 141.01 72.13 142.35 71.82 139.47 71.82 139.47 71.51 142.36 69.98 141.01 71.41 143.27 71.41 143.27 71.41 143.27 71.82 143.91 71.82 143.91 71.82 143.91 72.23 143.27 72.23 143.27 73.66 141.01"/><polygon class="cls-2" points="60.4 151.27 58.86 152.61 58.55 149.73 58.55 149.73 58.24 152.62 56.71 151.27 58.14 153.53 58.14 153.53 58.14 153.53 58.55 154.17 58.55 154.17 58.55 154.17 58.96 153.53 58.96 153.53 60.4 151.27"/><polygon class="cls-2" points="73.66 151.27 72.13 152.61 71.82 149.73 71.82 149.73 71.51 152.62 69.98 151.27 71.41 153.53 71.41 153.53 71.41 153.53 71.82 154.17 71.82 154.17 71.82 154.17 72.23 153.53 72.23 153.53 73.66 151.27"/></g><g><path class="cls-7" d="M43.68,139.62v-4.14c0-2.65-1.99-5.03-4.63-5.17-2.82-.15-5.16,2.1-5.16,4.89v9.62c0,4.48,3.63,8.11,8.11,8.11h12.47v-9.79h-7.27c-1.94,0-3.52-1.57-3.52-3.52Z"/><path class="cls-1" d="M41.99,149.52c-2.59,0-4.69-2.1-4.69-4.69v-9.62c0-.82,.67-1.48,1.49-1.48,.84,.04,1.48,.85,1.48,1.76v7.47c0,1.99,1.61,3.6,3.6,3.6h9.59v2.97h-11.47Z"/><polygon class="cls-2" points="43.89 148.08 42.36 149.42 42.05 146.54 42.05 146.54 41.74 149.42 40.21 148.08 41.64 150.34 41.64 150.34 41.64 150.34 42.05 150.98 42.05 150.98 42.05 150.98 42.46 150.34 42.46 150.33 43.89 148.08"/><polygon class="cls-2" points="39.14 141.01 37.61 142.35 37.3 139.47 37.29 139.47 36.98 142.36 35.45 141.01 36.89 143.27 36.89 143.27 36.89 143.27 37.29 143.91 37.29 143.91 37.3 143.91 37.71 143.27 37.71 143.27 39.14 141.01"/><polygon class="cls-2" points="42.05 134.72 40.52 136.06 40.21 133.18 40.21 133.18 39.89 136.06 38.36 134.72 39.8 136.98 39.8 136.98 39.8 136.98 40.2 137.62 40.2 137.62 40.21 137.62 40.62 136.98 40.62 136.97 42.05 134.72"/><polygon class="cls-2" points="51.02 148.08 49.49 149.42 49.18 146.54 49.18 146.54 48.87 149.42 47.33 148.08 48.77 150.34 48.77 150.34 48.77 150.34 49.18 150.98 49.18 150.98 49.18 150.98 49.59 150.34 49.59 150.33 51.02 148.08"/></g><g><path class="cls-7" d="M87.7,194.37v-4.14c0-2.65,1.99-5.03,4.63-5.17,2.82-.15,5.16,2.1,5.16,4.89v9.62c0,4.48-3.63,8.11-8.11,8.11h-12.47v-9.79h7.27c1.94,0,3.52-1.57,3.52-3.52Z"/><path class="cls-1" d="M89.38,204.27c2.59,0,4.69-2.1,4.69-4.69v-9.62c0-.82-.67-1.48-1.49-1.48-.84,.04-1.48,.85-1.48,1.76v7.47c0,1.99-1.61,3.6-3.6,3.6h-10.6v2.97h12.47Z"/><polygon class="cls-2" points="87.48 202.83 89.01 204.17 89.32 201.29 89.32 201.29 89.63 204.18 91.17 202.83 89.73 205.09 89.73 205.09 89.73 205.09 89.33 205.73 89.33 205.73 89.32 205.73 88.91 205.09 88.91 205.09 87.48 202.83"/><polygon class="cls-2" points="92.23 195.76 93.77 197.11 94.08 194.23 94.08 194.23 94.39 197.11 95.92 195.76 94.49 198.02 94.49 198.02 94.49 198.02 94.08 198.67 94.08 198.66 94.08 198.67 93.67 198.02 93.67 198.02 92.23 195.76"/><polygon class="cls-2" points="89.32 189.47 90.85 190.82 91.16 187.93 91.17 187.93 91.48 190.82 93.01 189.47 91.58 191.73 91.58 191.73 91.58 191.73 91.17 192.37 91.17 192.37 91.17 192.37 90.76 191.73 90.76 191.73 89.32 189.47"/><polygon class="cls-2" points="80.35 202.83 81.88 204.17 82.19 201.29 82.2 201.29 82.51 204.18 84.04 202.83 82.6 205.09 82.6 205.09 82.6 205.09 82.2 205.73 82.2 205.73 82.19 205.73 81.78 205.09 81.78 205.09 80.35 202.83"/></g><g><polygon class="cls-2" points="60.4 162.96 58.86 164.3 58.55 161.42 58.55 161.42 58.24 164.31 56.71 162.96 58.14 165.22 58.14 165.22 58.14 165.22 58.55 165.86 58.55 165.86 58.55 165.86 58.96 165.22 58.96 165.22 60.4 162.96"/><polygon class="cls-2" points="73.66 162.96 72.13 164.3 71.82 161.42 71.82 161.42 71.51 164.31 69.98 162.96 71.41 165.22 71.41 165.22 71.41 165.22 71.82 165.86 71.82 165.86 71.82 165.86 72.23 165.22 72.23 165.22 73.66 162.96"/><polygon class="cls-2" points="67.03 167.4 65.5 168.74 65.19 165.86 65.19 165.86 64.88 168.75 63.34 167.4 64.78 169.66 64.78 169.66 64.78 169.66 65.18 170.3 65.18 170.3 65.19 170.3 65.6 169.66 65.6 169.66 67.03 167.4"/><polygon class="cls-2" points="67.03 178.46 65.5 179.8 65.19 176.92 65.19 176.92 64.88 179.8 63.34 178.46 64.78 180.72 64.78 180.72 64.78 180.72 65.18 181.36 65.18 181.35 65.19 181.36 65.6 180.72 65.6 180.71 67.03 178.46"/><polygon class="cls-2" points="67.03 189.51 65.5 190.85 65.19 187.97 65.19 187.97 64.88 190.86 63.34 189.51 64.78 191.77 64.78 191.77 64.78 191.77 65.18 192.41 65.18 192.41 65.19 192.41 65.6 191.77 65.6 191.77 67.03 189.51"/><polygon class="cls-2" points="60.4 173.22 58.86 174.56 58.55 171.68 58.55 171.68 58.24 174.57 56.71 173.22 58.14 175.48 58.14 175.48 58.14 175.48 58.55 176.12 58.55 176.12 58.55 176.12 58.96 175.48 58.96 175.48 60.4 173.22"/><polygon class="cls-2" points="73.66 173.22 72.13 174.56 71.82 171.68 71.82 171.68 71.51 174.57 69.98 173.22 71.41 175.48 71.41 175.48 71.41 175.48 71.82 176.12 71.82 176.12 71.82 176.12 72.23 175.48 72.23 175.48 73.66 173.22"/><polygon class="cls-2" points="60.4 183.48 58.86 184.82 58.55 181.94 58.55 181.94 58.24 184.83 56.71 183.48 58.14 185.74 58.14 185.74 58.14 185.74 58.55 186.38 58.55 186.38 58.55 186.38 58.96 185.74 58.96 185.74 60.4 183.48"/><polygon class="cls-2" points="73.66 183.48 72.13 184.82 71.82 181.94 71.82 181.94 71.51 184.83 69.98 183.48 71.41 185.74 71.41 185.74 71.41 185.74 71.82 186.38 71.82 186.38 71.82 186.38 72.23 185.74 72.23 185.74 73.66 183.48"/></g><g><polygon class="cls-2" points="60.4 195.8 58.86 197.15 58.55 194.27 58.55 194.27 58.24 197.15 56.71 195.8 58.14 198.06 58.14 198.06 58.14 198.07 58.55 198.71 58.55 198.7 58.55 198.71 58.96 198.06 58.96 198.06 60.4 195.8"/><polygon class="cls-2" points="73.66 195.8 72.13 197.15 71.82 194.27 71.82 194.27 71.51 197.15 69.98 195.8 71.41 198.06 71.41 198.06 71.41 198.07 71.82 198.71 71.82 198.7 71.82 198.71 72.23 198.06 72.23 198.06 73.66 195.8"/><polygon class="cls-2" points="67.03 200.24 65.5 201.59 65.19 198.71 65.19 198.71 64.88 201.59 63.34 200.24 64.78 202.5 64.78 202.5 64.78 202.5 65.18 203.15 65.18 203.14 65.19 203.15 65.6 202.5 65.6 202.5 67.03 200.24"/><polygon class="cls-2" points="67.03 211.3 65.5 212.64 65.19 209.76 65.19 209.76 64.88 212.64 63.34 211.3 64.78 213.56 64.78 213.56 64.78 213.56 65.18 214.2 65.18 214.2 65.19 214.2 65.6 213.56 65.6 213.55 67.03 211.3"/><polygon class="cls-2" points="67.03 222.35 65.5 223.7 65.19 220.82 65.19 220.82 64.88 223.7 63.34 222.35 64.78 224.61 64.78 224.61 64.78 224.61 65.18 225.26 65.18 225.25 65.19 225.26 65.6 224.61 65.6 224.61 67.03 222.35"/><polygon class="cls-2" points="60.4 206.06 58.86 207.41 58.55 204.53 58.55 204.53 58.24 207.41 56.71 206.06 58.14 208.32 58.14 208.32 58.14 208.32 58.55 208.97 58.55 208.96 58.55 208.97 58.96 208.32 58.96 208.32 60.4 206.06"/><polygon class="cls-2" points="73.66 206.06 72.13 207.41 71.82 204.53 71.82 204.53 71.51 207.41 69.98 206.06 71.41 208.32 71.41 208.32 71.41 208.32 71.82 208.97 71.82 208.96 71.82 208.97 72.23 208.32 72.23 208.32 73.66 206.06"/><polygon class="cls-2" points="60.4 216.32 58.86 217.67 58.55 214.79 58.55 214.79 58.24 217.67 56.71 216.32 58.14 218.58 58.14 218.58 58.14 218.58 58.55 219.23 58.55 219.22 58.55 219.23 58.96 218.58 58.96 218.58 60.4 216.32"/><polygon class="cls-2" points="73.66 216.32 72.13 217.67 71.82 214.79 71.82 214.79 71.51 217.67 69.98 216.32 71.41 218.58 71.41 218.58 71.41 218.58 71.82 219.23 71.82 219.22 71.82 219.23 72.23 218.58 72.23 218.58 73.66 216.32"/></g><g><path class="cls-10" d="M66.23,118.02s.23-3.7-1.04-6.13c-1.27,2.43-1.04,6.13-1.04,6.13h2.08Z"/><path class="cls-8" d="M66.6,116.83c-.31,.51-.64,.77-.97,.77h-.88c-.33,0-.66-.26-.97-.77l-1.59-2.61,.98,4.46c.54,2.43,1.26,3.8,2.02,3.8s1.48-1.37,2.02-3.8l.98-4.46-1.59,2.61Z"/><path class="cls-10" d="M67.35,117.67c-.48,.44-.98,.66-1.49,.66h-1.35c-.51,0-1.01-.22-1.49-.66l-2.43-2.22,1.5,3.8c.82,2.07,1.93,3.23,3.09,3.23s2.27-1.16,3.09-3.23l1.5-3.8-2.43,2.22Z"/><path class="cls-8" d="M68.36,118.48c-.7,.36-1.44,.55-2.18,.55h-1.98c-.74,0-1.48-.19-2.18-.55l-3.57-1.85,2.2,3.16c1.2,1.72,2.83,2.69,4.53,2.69s3.33-.97,4.53-2.69l2.2-3.16-3.57,1.85Z"/></g><g><path class="cls-10" d="M39.02,128.46s.15-2.35-.66-3.9c-.81,1.55-.66,3.9-.66,3.9h1.32Z"/><path class="cls-8" d="M39.26,127.7c-.2,.33-.41,.49-.62,.49h-.56c-.21,0-.42-.17-.62-.49l-1.01-1.66,.62,2.84c.34,1.55,.8,2.42,1.28,2.42s.94-.87,1.28-2.42l.62-2.84-1.01,1.66Z"/><path class="cls-10" d="M39.74,128.23c-.3,.28-.62,.42-.95,.42h-.86c-.32,0-.64-.14-.95-.42l-1.55-1.41,.96,2.41c.52,1.32,1.23,2.06,1.97,2.06s1.45-.74,1.97-2.06l.96-2.41-1.55,1.41Z"/><path class="cls-8" d="M40.38,128.75c-.44,.23-.91,.35-1.39,.35h-1.26c-.47,0-.94-.12-1.39-.35l-2.27-1.18,1.4,2.01c.76,1.1,1.8,1.71,2.88,1.71s2.12-.62,2.88-1.71l1.4-2.01-2.27,1.18Z"/></g><g><path class="cls-10" d="M93.41,182.19s.19-3.05-.86-5.05c-1.04,2-.86,5.05-.86,5.05h1.71Z"/><path class="cls-8" d="M93.71,181.21c-.26,.42-.53,.64-.8,.64h-.73c-.27,0-.54-.22-.8-.64l-1.31-2.15,.81,3.67c.44,2,1.04,3.13,1.66,3.13s1.22-1.13,1.66-3.13l.81-3.67-1.31,2.15Z"/><path class="cls-10" d="M94.33,181.9c-.39,.36-.81,.54-1.23,.54h-1.11c-.42,0-.83-.18-1.23-.54l-2-1.83,1.24,3.13c.68,1.71,1.59,2.66,2.55,2.66s1.87-.96,2.55-2.66l1.24-3.13-2,1.83Z"/><path class="cls-8" d="M95.16,182.57c-.58,.3-1.18,.45-1.8,.45h-1.63c-.61,0-1.22-.15-1.8-.45l-2.94-1.52,1.82,2.6c.99,1.42,2.33,2.22,3.73,2.22s2.74-.8,3.73-2.22l1.82-2.6-2.94,1.52Z"/></g></g><g><path class="cls-5" d="M375.89,220.82c-.68,0-12.16,17.57-13.33,19.24-5.88,8.42-17.6,9.74-26.6,14.69-6.86,3.77-12.23,9.81-16.49,16.38-5.62,8.67-10.21,19.09-19.62,23.36-7.55,3.43-16.48,1.9-24.12-1.32-12.73-5.37-22.02-11.67-36.04-13.48-13.42-1.73-27.33,.11-39.76,5.49-12.43,5.38-25.26,14.32-38.24,10.46-16.43-4.9-23.12-28.04-40.06-30.66-12.2-1.89-23.22,8.13-35.53,9.03-11.98,.88-22.93-7.07-30.57-16.33-7.64-9.27-13.21-20.19-21.49-28.9-3-3.15-6.2-5.73-9.6-7.97H375.89Z"/><path class="cls-4" d="M375.89,220.82c-.68,0-12.17,17.56-13.34,19.25-5.87,8.42-17.6,9.74-26.6,14.69-6.85,3.77-12.23,9.81-16.48,16.38-5.62,8.67-10.21,19.09-19.62,23.36-7.55,3.42-16.48,1.9-24.12-1.32-12.74-5.36-22.02-11.67-36.04-13.47-13.41-1.73-27.33,.11-39.76,5.49-12.43,5.37-25.26,14.33-38.23,10.46-16.43-4.9-23.13-28.04-40.06-30.66-12.2-1.89-23.21,8.13-35.53,9.03-11.98,.88-22.93-7.06-30.58-16.33-7.64-9.26-13.21-20.18-21.49-28.89-3-3.15-6.2-5.73-9.6-7.97h25.22c1.87,2.69,3.79,5.33,5.87,7.85,7.65,9.26,18.59,17.21,30.58,16.33,12.32-.9,23.33-10.92,35.53-9.04,16.94,2.62,23.63,25.76,40.06,30.66,12.97,3.87,25.8-5.08,38.23-10.46,12.43-5.37,26.34-7.21,39.76-5.49,14.02,1.81,23.3,8.11,36.04,13.48,7.64,3.22,16.57,4.74,24.12,1.31,9.41-4.27,14-14.69,19.62-23.36,4.25-6.57,9.63-12.6,16.48-16.38,3.62-1.99,7.67-3.39,11.62-4.91h28.32Z"/></g><g><g><path class="cls-3" d="M205.42,62.1h71.96c-.27-6.94-5.98-12.48-12.99-12.48h0c-2.88-6.5-9.38-11.04-16.94-11.04-9.09,0-16.65,6.55-18.22,15.19-.33-.04-.66-.06-1-.06-2.93,0-5.53,1.42-7.16,3.6-.56-.14-1.14-.21-1.74-.21-2.12,0-4.02,.91-5.34,2.37-.88-.46-1.89-.72-2.95-.72-2.43,0-4.55,1.36-5.63,3.35Z"/><path class="cls-3" d="M293.02,63.11h-96.56c-.36,0-.65-.29-.65-.65h0c0-.36,.29-.65,.65-.65h96.56c.36,0,.65,.29,.65,.65h0c0,.36-.29,.65-.65,.65Z"/><path class="cls-3" d="M221.81,66.74h-35.4c-.36,0-.65-.29-.65-.65h0c0-.36,.29-.65,.65-.65h35.4c.36,0,.65,.29,.65,.65h0c0,.36-.29,.65-.65,.65Z"/><path class="cls-3" d="M263.24,66.74h-19.44c-.36,0-.65-.29-.65-.65h0c0-.36,.29-.65,.65-.65h19.44c.36,0,.65,.29,.65,.65h0c0,.36-.29,.65-.65,.65Z"/></g><g><path class="cls-3" d="M170.67,98.98h-60.63c.23-5.85,5.04-10.52,10.95-10.52h0c2.42-5.48,7.9-9.3,14.27-9.3,7.66,0,14.02,5.52,15.35,12.8,.28-.03,.56-.05,.84-.05,2.47,0,4.66,1.2,6.03,3.04,.47-.12,.96-.18,1.46-.18,1.79,0,3.39,.77,4.5,1.99,.74-.39,1.59-.61,2.49-.61,2.05,0,3.83,1.14,4.74,2.82Z"/><path class="cls-3" d="M96.86,99.83h81.35c.3,0,.54-.24,.54-.54h0c0-.3-.24-.54-.54-.54H96.86c-.3,0-.54,.24-.54,.54h0c0,.3,.24,.54,.54,.54Z"/><path class="cls-3" d="M156.86,102.89h29.83c.3,0,.54-.24,.54-.54h0c0-.3-.24-.54-.54-.54h-29.83c-.3,0-.54,.24-.54,.54h0c0,.3,.24,.54,.54,.54Z"/><path class="cls-3" d="M121.96,102.89h16.38c.3,0,.54-.24,.54-.54h0c0-.3-.24-.54-.54-.54h-16.38c-.3,0-.54,.24-.54,.54h0c0,.3,.24,.54,.54,.54Z"/></g></g></svg>