<svg width="2190" height="2190" viewBox="0 0 2190 2190" fill="none" xmlns="http://www.w3.org/2000/svg">
<circle cx="1095" cy="1095" r="1095" fill="#F4F7F8" fill-opacity="0.65"/>
<path d="M668.436 826.23C668.436 826.23 610.636 849.095 602.136 904.634C593.636 960.173 724.978 1122.86 724.978 1122.86L1130.02 904.6L1001.96 679.86L668.436 826.23Z" fill="#9CA8B5"/>
<path d="M757.992 878.726C757.992 878.726 715.373 922.484 702.3 970.9C689.227 1019.32 687.544 1105.78 689.72 1138.16C753.3 1197 1004.61 1147.7 1004.61 1147.7L1246.79 862.814C1246.79 862.814 1205.74 784.869 1184.9 763.5C1164.05 742.131 1096.5 715.56 1018.55 746.925C972.804 811.848 757.992 878.726 757.992 878.726Z" fill="#E1EBF4"/>
<g style="mix-blend-mode:multiply">
<path d="M738.969 901.353C738.969 901.353 832.996 931.528 938.838 890.643C1044.68 849.758 1063.86 734.6 1063.86 734.6L1018.5 746.942L757.992 878.726L738.969 901.353Z" fill="#E1EBF4"/>
</g>
<path d="M1121.74 1254.6C1121.74 1254.6 1240.62 1255.36 1274.03 1263.89C1307.43 1272.43 1395.85 1472.54 1432.43 1491.69C1469.02 1510.85 1500.09 1479.03 1540.4 1455.4C1580.71 1431.77 1617.65 1403.18 1618.8 1391.24C1619.96 1379.31 1602.84 1331.62 1588.03 1322C1573.23 1312.38 1530.23 1311.7 1507.3 1326.39C1473.61 1234.59 1425.7 1100.71 1381.77 1082.28C1337.85 1063.86 1204.72 1055.08 1204.72 1055.08L1121.74 1254.6Z" fill="#E1EBF4"/>
<g style="mix-blend-mode:multiply" opacity="0.51">
<path d="M1246.79 1166.98C1246.79 1166.98 1343.59 1177.57 1370.33 1213.59C1397.07 1249.61 1450.06 1470.04 1509.38 1475.26C1510.33 1546.66 1387.49 1572.44 1387.49 1572.44L1093.03 1245.26L1246.79 1166.98Z" fill="#E1EBF4"/>
</g>
<path d="M802.345 1236.54C802.345 1236.54 875.445 1389.87 941.745 1431.69C1008.05 1473.51 1128.17 1470.12 1161.3 1497.51C1194.43 1524.9 1187.43 1656.46 1220.55 1691.31C1253.66 1726.16 1300.26 1747.51 1343.81 1743.58C1387.37 1739.66 1422.22 1718.76 1422.66 1699.16C1423.1 1679.56 1421.35 1662.56 1400.88 1652.11C1380.41 1641.65 1351.58 1632.95 1350.34 1620.76C1349.1 1608.57 1325.95 1423 1316.34 1372.56C1306.74 1322.12 1232.14 1251.96 1136 1216.62C1044.97 1140.39 905.144 1173.05 905.144 1173.05L802.345 1236.54Z" fill="#E1EBF4"/>
<g style="mix-blend-mode:multiply">
<path d="M823.612 1277.56C823.612 1277.56 907.507 1281.85 982.851 1248.75C968.452 1172.08 924.031 1149.43 924.031 1149.43L802.345 1236.54L823.612 1277.56Z" fill="#E1EBF4"/>
</g>
<path d="M939.705 476.88C874 441.707 736.3 429.841 651.3 535.258C566.3 640.675 608.664 750.002 644.381 800.9C681.781 854.314 810.335 935.948 947.542 859.278C1084.75 782.608 1099.13 562.254 939.705 476.88Z" fill="#E1EBF4"/>
<path d="M928.4 541.344C986.761 555.284 1024.67 637.173 1005.07 715.577C985.469 793.981 917.945 846.698 842.159 847.123C766.373 847.548 691.012 795.8 691.42 699.036C691.828 606.046 801.665 511.084 928.4 541.344Z" fill="#687081"/>
<g style="mix-blend-mode:multiply">
<path d="M760.253 1153.79C836.294 1118.49 779.412 1037.91 855.215 1019.59C955.158 1033.8 982.8 1028.7 982.8 1028.7C982.8 1028.7 791.601 1196.63 760.253 1153.79Z" fill="#E1EBF4"/>
</g>
<path d="M823.612 938.26L950.16 1263.89L1129.19 1259.63L1292.97 1155.96L1341.76 1007.86L1223.28 652.422L1165.77 818.818L1016.8 937.291L823.612 938.26Z" fill="#97A2AF"/>
<path d="M760.253 1153.79C802.209 1150.39 823.578 1123.07 836.294 1110.95C842.771 1104.76 841.479 1099.33 838.215 1081.48C834.951 1063.63 846.273 1045.33 861.743 1037.49C870.243 1060.35 880.681 1064.69 888.739 1063.62C896.797 1062.55 905.076 1014.4 931.426 1014.83C957.776 1015.25 978.907 1050.12 982.426 1067.53C985.945 1084.94 968.928 1134.59 947.576 1169.44C926.224 1204.29 896.1 1247.44 828.287 1260.94C760.474 1274.43 721.918 1239.81 699.699 1196.03C692.202 1181.26 689.499 1160.84 689.737 1138.09C689.737 1138.09 704.918 1158.14 760.253 1153.79Z" fill="#E1EBF4"/>
<path d="M1264.08 774.839C1264.08 774.839 1272.16 801.104 1266.72 811.338C1261.28 821.572 1253.87 830.038 1248.43 843.145C1242.99 856.252 1251.04 905.654 1275 914.137C1298.95 922.62 1318.77 900.418 1325.09 887.566C1331.42 874.714 1327.92 840.969 1318.55 817.441C1309.18 793.913 1291.57 773.003 1264.08 774.839Z" fill="#E1EBF4"/>
<path d="M1291.62 448.507L1296.99 459.387C1297.32 460.046 1297.79 460.617 1298.39 461.049C1298.98 461.482 1299.67 461.763 1300.39 461.869L1312.41 463.569C1313.25 463.689 1314.04 464.043 1314.69 464.589C1315.34 465.136 1315.83 465.854 1316.09 466.661C1316.35 467.468 1316.38 468.333 1316.17 469.157C1315.97 469.98 1315.54 470.73 1314.93 471.321L1306.24 479.821C1305.71 480.333 1305.32 480.966 1305.09 481.665C1304.86 482.364 1304.81 483.108 1304.93 483.833L1306.97 495.733C1307.12 496.567 1307.03 497.426 1306.71 498.211C1306.39 498.996 1305.86 499.676 1305.17 500.175C1304.49 500.673 1303.68 500.971 1302.83 501.033C1301.99 501.095 1301.14 500.92 1300.39 500.527L1289.63 494.883C1288.98 494.539 1288.26 494.359 1287.53 494.359C1286.79 494.359 1286.07 494.539 1285.42 494.883L1274.66 500.527C1273.91 500.925 1273.06 501.104 1272.21 501.044C1271.36 500.984 1270.55 500.687 1269.86 500.188C1269.18 499.688 1268.64 499.006 1268.32 498.218C1268 497.431 1267.91 496.57 1268.06 495.733L1270.12 483.833C1270.24 483.108 1270.19 482.364 1269.96 481.665C1269.73 480.966 1269.34 480.333 1268.81 479.821L1260.12 471.321C1259.51 470.73 1259.08 469.98 1258.88 469.157C1258.67 468.333 1258.7 467.468 1258.96 466.661C1259.23 465.854 1259.71 465.136 1260.36 464.589C1261.01 464.043 1261.8 463.689 1262.64 463.569L1274.66 461.869C1275.38 461.763 1276.07 461.482 1276.66 461.049C1277.26 460.617 1277.73 460.046 1278.06 459.387L1283.43 448.507C1283.8 447.738 1284.38 447.091 1285.11 446.637C1285.83 446.184 1286.67 445.944 1287.53 445.944C1288.38 445.944 1289.22 446.184 1289.94 446.637C1290.67 447.091 1291.25 447.738 1291.62 448.507Z" fill="#9CA8B5"/>
<path d="M716.478 1599.9L720.983 1609.03C721.252 1609.58 721.653 1610.06 722.151 1610.42C722.649 1610.79 723.229 1611.02 723.839 1611.1L733.92 1612.56C734.623 1612.67 735.283 1612.96 735.825 1613.42C736.368 1613.88 736.772 1614.48 736.991 1615.16C737.21 1615.83 737.236 1616.56 737.066 1617.25C736.896 1617.93 736.536 1618.56 736.028 1619.06L728.735 1626.16C728.287 1626.6 727.953 1627.13 727.764 1627.73C727.574 1628.32 727.534 1628.95 727.647 1629.56L729.347 1639.59C729.464 1640.29 729.383 1641.01 729.115 1641.67C728.847 1642.33 728.401 1642.9 727.828 1643.31C727.254 1643.73 726.576 1643.98 725.869 1644.04C725.161 1644.09 724.453 1643.95 723.822 1643.62L714.812 1638.88C714.266 1638.6 713.66 1638.45 713.044 1638.45C712.428 1638.45 711.822 1638.6 711.276 1638.88L702.3 1643.59C701.67 1643.92 700.959 1644.07 700.249 1644.02C699.539 1643.97 698.857 1643.72 698.282 1643.3C697.706 1642.88 697.26 1642.31 696.994 1641.64C696.727 1640.98 696.652 1640.26 696.775 1639.56L698.475 1629.53C698.58 1628.92 698.535 1628.29 698.342 1627.69C698.15 1627.1 697.816 1626.57 697.37 1626.13L690.094 1619.02C689.586 1618.53 689.226 1617.9 689.056 1617.21C688.886 1616.52 688.912 1615.8 689.131 1615.12C689.35 1614.45 689.754 1613.85 690.297 1613.39C690.839 1612.93 691.499 1612.63 692.202 1612.53L702.266 1611.07C702.878 1610.98 703.459 1610.75 703.96 1610.39C704.46 1610.03 704.865 1609.55 705.139 1608.99L709.644 1599.87C709.961 1599.23 710.45 1598.69 711.056 1598.32C711.662 1597.95 712.36 1597.75 713.072 1597.76C713.783 1597.76 714.479 1597.96 715.081 1598.34C715.683 1598.72 716.167 1599.26 716.478 1599.9V1599.9Z" fill="#9CA8B5"/>
<g style="mix-blend-mode:soft-light" opacity="0.48">
<path d="M877.457 639.091C919.294 629.87 950.565 610.398 947.303 595.599C944.042 580.801 907.482 576.28 865.645 585.501C823.808 594.723 792.536 614.195 795.798 628.993C799.06 643.792 835.62 648.313 877.457 639.091Z" fill="white"/>
</g>
<g style="mix-blend-mode:multiply">
<path d="M972.736 1116.35C972.736 1116.35 924.609 1073.34 915.888 1073.34C907.167 1073.34 883.945 1107.34 889.181 1116.35C894.417 1125.36 921.311 1154.87 950.84 1163.95C960.411 1145.69 972.736 1116.35 972.736 1116.35Z" fill="#E1EBF4"/>
</g>
<g style="mix-blend-mode:multiply" opacity="0.5">
<path d="M1016.8 937.291L1129.19 1259.63L1292.97 1155.96L1165.77 818.818L1016.8 937.291Z" fill="#97A2AF"/>
</g>
<g style="mix-blend-mode:multiply">
<path d="M1325.98 1434.13C1309.13 1448.09 1290.2 1459.32 1269.88 1467.4C1250.82 1474.75 1244.38 1489.77 1250.14 1517.35C1255.91 1544.92 1259.14 1587.92 1271.04 1599.24C1282.94 1610.56 1323.87 1604.54 1345.09 1578.23C1338.44 1526.38 1325.98 1434.13 1325.98 1434.13Z" fill="#E1EBF4"/>
</g>
<g style="mix-blend-mode:multiply">
<path d="M1436.9 1153C1436.9 1153 1413.1 1163.37 1415.37 1179.91C1417.63 1196.46 1441.94 1276.41 1451.52 1283.61C1461.11 1290.82 1489.49 1278.04 1489.49 1278.04C1460.35 1195.49 1436.9 1153 1436.9 1153Z" fill="#E1EBF4"/>
</g>
<path d="M432.544 1344.32C413.623 1305.09 475.282 1263.1 527.744 1266.12C580.206 1269.15 602.255 1317.58 620.836 1335.65C659.647 1373.36 658.423 1410.25 631.546 1426.11C604.669 1441.97 457.585 1396.22 432.544 1344.32Z" fill="#E1EBF4"/>
<path d="M1490.9 736.487C1475.6 723.091 1491.34 660.123 1527.48 645.384C1563.62 630.645 1608.5 646.761 1618.09 672.023C1627.68 697.285 1522.26 763.925 1490.9 736.487Z" fill="#E1EBF4"/>
<path d="M1668 770.181C1660.17 781.35 1654.95 813.157 1671.49 818.818C1688.03 824.479 1700.54 791.754 1694.73 774.72C1688.91 757.686 1673.24 762.718 1668 770.181Z" fill="#E1EBF4"/>
<path opacity="0.44" d="M1679.9 512.07C1667.56 517.884 1647.21 542.874 1658.77 556.015C1670.33 569.156 1697.41 546.954 1700.83 529.291C1704.25 511.628 1688.15 508.194 1679.9 512.07Z" fill="#E1EBF4"/>
<path opacity="0.44" d="M519.346 1509.41C508.67 1500.91 477.271 1493.68 470.573 1509.85C463.875 1526.02 495.767 1540.45 513.073 1535.79C530.379 1531.13 526.452 1515.09 519.346 1509.41Z" fill="#E1EBF4"/>
<g style="mix-blend-mode:multiply" opacity="0.64">
<path d="M611.537 1324.89C592.548 1328.46 595.608 1345.44 601.694 1360.83C607.78 1376.21 629.2 1380.6 644.313 1366.54C634.504 1343.2 611.537 1324.89 611.537 1324.89Z" fill="#E1EBF4"/>
</g>
<g style="mix-blend-mode:multiply" opacity="0.64">
<path d="M502.38 1299.27C488.78 1300.79 477.696 1320.47 487.284 1336.43C496.872 1352.4 515.147 1364.03 525.602 1359.67C536.057 1355.32 537.808 1331.79 530.26 1316.7C522.712 1301.6 515.453 1297.81 502.38 1299.27Z" fill="#E1EBF4"/>
</g>
<g style="mix-blend-mode:multiply" opacity="0.64">
<path d="M1575.66 658.95C1568.2 661.33 1560.63 669.405 1561.29 678.126C1561.96 686.847 1569.57 694.463 1577.83 693.426C1586.1 692.389 1593.13 679.044 1591.43 669.456C1589.73 659.868 1581.35 657.148 1575.66 658.95Z" fill="#E1EBF4"/>
</g>
<g style="mix-blend-mode:multiply" opacity="0.64">
<path d="M1496.63 675.95C1496.63 675.95 1506.83 686.15 1505.13 697.727C1503.43 709.304 1485.85 708.233 1485.85 708.233C1485.85 708.233 1488.47 688.496 1496.63 675.95Z" fill="#E1EBF4"/>
</g>
</svg>
