<?xml version="1.0" encoding="UTF-8"?><svg xmlns="http://www.w3.org/2000/svg" xmlns:xlink="http://www.w3.org/1999/xlink" viewBox="0 0 764.34 274.55"><defs><style>.cls-1,.cls-2{fill:none;}.cls-2{stroke:#fff;stroke-miterlimit:10;stroke-width:.39px;}.cls-3{clip-path:url(#clippath);}.cls-4{fill:#f4f7f8;}.cls-5{fill:#e4bc93;}.cls-6{fill:#e4a180;}.cls-7{fill:#e47c80;}.cls-8{fill:#d27b6d;}.cls-9{fill:#dad6dc;}.cls-10{fill:#446f84;}.cls-11{fill:#446e7e;}.cls-12{fill:#0f1a24;}.cls-13{fill:#44828a;}.cls-14{fill:#44637b;}.cls-15{fill:#34515a;}.cls-16{fill:#344b4f;}.cls-17{fill:#3c5e69;}.cls-18{fill:#343951;}.cls-19{fill:#4d9b8a;}.cls-20{clip-path:url(#clippath-1);}.cls-21{clip-path:url(#clippath-2);}</style><clipPath id="clippath"><rect class="cls-1" x="0" y="41.2" width="162.56" height="169.27"/></clipPath><clipPath id="clippath-1"><rect class="cls-1" x="475.47" y="41.2" width="162.56" height="169.27"/></clipPath><clipPath id="clippath-2"><rect class="cls-1" x="161.42" y="22.87" width="455.85" height="187.6"/></clipPath></defs><g id="BACKGROUND"><g><rect class="cls-4" x="14.34" width="750" height="210.47"/><path class="cls-9" d="M612.47,82.36c-.18-.11-.36-.21-.56-.29-.17-2.97-2.62-5.33-5.63-5.33-.87,0-1.69,.2-2.43,.56-.56-3.19-3.33-5.61-6.67-5.61-1.71,0-3.27,.64-4.46,1.68-1.2-2.23-3.56-3.74-6.26-3.74-3.25,0-5.99,2.18-6.84,5.16-1.02-.62-2.22-.98-3.5-.98-3.1,0-5.72,2.08-6.52,4.93-.37,1.29-.98,2.49-1.94,3.42l-1.29,1.26h50.71l-4.61-1.05Z"/><path class="cls-9" d="M528.69,30.93c-.25-.15-.5-.28-.77-.4-.23-4.09-3.61-7.34-7.77-7.34-1.2,0-2.33,.28-3.35,.77-.77-4.39-4.59-7.73-9.2-7.73-2.35,0-4.5,.88-6.14,2.31-1.66-3.07-4.9-5.15-8.63-5.15-4.48,0-8.25,3.01-9.42,7.11-1.41-.85-3.05-1.35-4.82-1.35-5.13,0-9.29,4.14-9.34,9.25-1.22-.8-2.68-1.27-4.26-1.27-2.71,0-5.09,1.39-6.49,3.5l-6.11,1.76h82.63l-6.35-1.45Z"/><path class="cls-9" d="M44.55,71.87c.25-.15,.5-.28,.77-.4,.23-4.09,3.61-7.34,7.77-7.34,1.2,0,2.33,.28,3.35,.77,.77-4.39,4.59-7.73,9.2-7.73,2.35,0,4.5,.88,6.14,2.31,1.66-3.07,4.9-5.15,8.63-5.15,4.48,0,8.25,3.01,9.42,7.11,1.41-.85,3.05-1.35,4.82-1.35,5.13,0,9.29,4.14,9.34,9.25,1.22-.8,2.68-1.27,4.26-1.27,2.71,0,5.09,1.39,6.49,3.5l6.11,1.76H38.2l6.35-1.45Z"/><path class="cls-9" d="M161.1,210.47h127.78v-3.47h0v-.35s0-1.29,0-1.29h0v-1.82s-1.49,0-1.49,0v-11.46s-1.44,0-1.44,0v-1.11s-1.05,0-1.05,0v-.79s-.33,0-.33,0v-2.08s.98-.29,.98-1.55h-.99s-.02-4.67-.02-4.67c0,0,.99-1.23,.98-3.13h-.35s0,.72,0,.72h-.28s0-.72,0-.72h-.37s-.18-10.11-.18-10.11c0,0,1.04-.17,1.04-1.02v-.04s0,0,0,0v-.95s-.32,0-.32,0v.83s-.19,0-.19,0v-.83s-.32,0-.32,0v.83s-.21,0-.21,0v-.83s-.32,0-.32,0v.83s-.05,0-.05,0l-.21-1.85c.45-.24,.75-.73,.75-1.28,0-.67-.45-1.23-1.05-1.39l-.06-.52c.39-.06,.67-.24,.67-.45,0-.23-.33-.41-.77-.45l-.07-.63c.11-.06,.19-.18,.19-.32,0-.17-.11-.31-.26-.35l-.08-.7v-.11s0,.05,0,.05v-.05s0,.11,0,.11l-.07,.69c-.16,.04-.27,.18-.27,.35,0,.14,.08,.27,.2,.32l-.07,.63c-.41,.06-.71,.24-.71,.45,0,.2,.26,.37,.62,.43l-.06,.54c-.57,.18-.99,.73-.99,1.38,0,.54,.29,1,.71,1.25l-.2,1.88h-.05s0-.83,0-.83h-.32s0,.83,0,.83h-.22s0-.83,0-.83h-.32s0,.83,0,.83h-.19s0-.83,0-.83h-.32s0,.95,0,.95h0v.04c0,.85,1.05,1.01,1.05,1.01l-.09,10.11h-.37s0,.72,0,.72h-.28s0-.72,0-.72h-.35c0,1.91,1.01,3.12,1.01,3.12l.02,4.67h-.99c0,1.26,1,1.55,1,1.55v2.08s-.32,0-.32,0v.79s-.94,0-.94,0v1.11s-1.7,0-1.7,0v11.46s-3.84,.11-3.84,.11l-.02-3.46-3.56,.02-.03-6.41h1.47s-.01-3.29-.01-3.29h-1.47s-13.68,.07-13.68,.07l-.02-3.76h-1.62s0-1.96,0-1.96c0,0,1.61-2,1.6-5.12h-.57s0,1.18,0,1.18h-.45s0-1.17,0-1.17h-.6s-.29-16.52-.29-16.52c0,0,1.7-.28,1.7-1.67v-.07s0,0,0,0v-1.55s-.53,0-.53,0v1.36s-.31,0-.31,0v-1.36s-.53,0-.53,0v1.36s-.35,0-.35,0v-1.36s-.53,0-.53,0v1.36s-.08,0-.08,0l-.34-3.03c.73-.39,1.23-1.19,1.23-2.1,0-1.1-.74-2.01-1.72-2.27l-.1-.85c.63-.1,1.09-.39,1.09-.73,0-.37-.54-.67-1.25-.74l-.12-1.03c.18-.1,.31-.29,.31-.52,0-.27-.18-.5-.43-.56l-.13-1.14v-.18s0,.09,0,.09v-.09s0,.18,0,.18l-.12,1.13c-.25,.06-.45,.29-.44,.58,0,.23,.14,.44,.33,.53l-.11,1.04c-.67,.09-1.16,.39-1.16,.74,0,.32,.42,.6,1.01,.71l-.09,.89c-.94,.3-1.62,1.2-1.61,2.26,0,.88,.47,1.64,1.17,2.04l-.32,3.08h-.08s0-1.36,0-1.36h-.52s0,1.36,0,1.36h-.35s0-1.36,0-1.36h-.52s0,1.36,0,1.36h-.32s0-1.36,0-1.36h-.52s0,1.55,0,1.55h0v.07c0,1.39,1.71,1.66,1.71,1.66l-.15,16.52h-.6s0,1.18,0,1.18h-.45s0-1.17,0-1.17h-.57c.01,3.11,1.64,5.1,1.64,5.1v1.97s-1.74,0-1.74,0l.02,3.75h-2.89s-.82-6.1-.82-6.1c.62-.17,1.82-.74,1.81-2.46h-.86s-.04-9.96-.04-9.96h-.96s-.93-24.29-.93-24.29c0,0,2.44-.42,2.44-2.13h-1.19s-.01-2.52-.01-2.52h-1.45s-.02-4.43-.02-4.43h2.31s-.28-3.08-2.46-3.07v-1.84s1.15,0,1.15,0c0,0-.64-1.91-2.42-1.9l-.97-10.91-.88,10.92c-1.78,0-2.4,1.92-2.4,1.92h1.16s0,1.84,0,1.84c-2.18,.01-2.43,3.08-2.43,3.08h2.31s.02,4.42,.02,4.42h-1.45s.01,2.53,.01,2.53h-1.19c0,1.71,2.45,2.11,2.45,2.11l-.69,23.24-6.55,.03-.02-3.81c6.56-7.38,2.55-19.06-3.53-23.39-4.54-3.23-8.79-6.56-10.65-8.05l-.83-10.83c.13,.01,.25,.04,.38,.04,1.33,0,2.49-.76,3.11-1.87-.56,.41-1.24,.66-1.99,.66-.59,0-1.14-.16-1.63-.43l-.09-1.19-.07,1.1c-.99-.62-1.66-1.73-1.66-3.02,0-.91,.33-1.75,.87-2.38-1.27,.58-2.16,1.9-2.15,3.42,0,1.78,1.22,3.25,2.84,3.61l-.74,10.89c-1.85,1.5-6.06,4.87-10.58,8.14-6.04,4.38-9.95,16.11-3.32,23.42l.02,3.81h-2.45s-.03-6.44-.03-6.44h-1.37s-.32-2.37-.32-2.37h-2.95s0-1.18,0-1.18h-.62s-.02-3.9-.02-3.9c0,0,1.86-.55,1.85-2.9h-1.17s-.02-3.47-.02-3.47h-.69s-.02-5.28-.02-5.28c0,0,1.85-2.3,1.83-5.87h-.65s0,1.35,0,1.35h-.52s0-1.34,0-1.34h-.68s-.33-18.94-.33-18.94c0,0,1.96-.32,1.95-1.92v-.08s0,0,0,0v-1.77s-.61,0-.61,0v1.56s-.35,0-.35,0v-1.56s-.6,0-.6,0v1.56s-.4,0-.4,0v-1.56s-.6,0-.6,0v1.56s-.09,0-.09,0l-.39-3.47c.84-.45,1.41-1.36,1.41-2.41,0-1.26-.84-2.31-1.97-2.6l-.11-.97c.73-.12,1.25-.45,1.25-.84,0-.42-.62-.77-1.44-.85l-.13-1.19c.21-.11,.35-.34,.35-.6,0-.31-.21-.57-.49-.65l-.05-.43c.11,.04,.23,.07,.35,.08,.41,0,.77-.23,.97-.57-.17,.13-.39,.2-.62,.2-.31,0-.58-.15-.78-.37l-.02-.21v-.2s-.01,.1-.01,.1v-.1s-.01,.2-.01,.2v.12c-.14-.18-.24-.4-.24-.65,0-.28,.11-.54,.28-.73-.4,.18-.67,.58-.68,1.05,0,.42,.23,.78,.56,.98l-.05,.53c-.29,.07-.51,.34-.51,.66,0,.27,.16,.5,.38,.61l-.12,1.19c-.77,.1-1.33,.44-1.33,.85,0,.37,.48,.69,1.16,.81l-.11,1.02c-1.07,.34-1.85,1.37-1.85,2.59,0,1.01,.54,1.88,1.34,2.34l-.37,3.53h-.09s0-1.56,0-1.56h-.6s0,1.56,0,1.56h-.4s0-1.56,0-1.56h-.6s0,1.56,0,1.56h-.36s0-1.56,0-1.56h-.6s0,1.78,0,1.78h0v.08c0,1.59,1.97,1.9,1.97,1.9l-.17,18.95h-.68s0,1.35,0,1.35h-.52s0-1.34,0-1.34h-.65c.02,3.57,1.88,5.85,1.88,5.85l.02,5.28-10.63,.05-.03-5.95c10.23-11.52,3.98-29.75-5.51-36.5-5.21-3.7-10.16-7.49-13.58-10.16l.88,111.96Z"/><g class="cls-3"><path class="cls-9" d="M14.31,207.98h0v-1.87s1.58,0,1.58,0v-11.78s1.52,0,1.52,0v-1.15s1.11,0,1.11,0v-.81s.35,0,.35,0v-2.14s-1.04-.3-1.04-1.59h1.05s.02-4.8,.02-4.8c0,0-1.05-1.26-1.04-3.22h.37s0,.74,0,.74h.3s0-.74,0-.74h.39s.19-10.39,.19-10.39c0,0-1.11-.18-1.1-1.05v-.04s0,0,0,0v-.97s.34,0,.34,0v.86s.2,0,.2,0v-.86s.34,0,.34,0v.86s.23,0,.23,0v-.86s.34,0,.34,0v.86s.05,0,.05,0l.22-1.91c-.48-.25-.8-.75-.8-1.32,0-.69,.48-1.27,1.12-1.43l.06-.53c-.41-.06-.71-.25-.71-.46,0-.23,.35-.42,.81-.47l.08-.65c-.12-.06-.2-.19-.2-.33,0-.17,.12-.31,.28-.36l.08-.72v-.11s0,.06,0,.06v-.06s0,.11,0,.11l.08,.71c.17,.04,.29,.19,.29,.36,0,.15-.09,.27-.21,.33l.07,.65c.43,.06,.76,.24,.75,.47,0,.2-.27,.38-.66,.44l.06,.56c.61,.19,1.05,.75,1.05,1.42,0,.55-.31,1.03-.76,1.28l.21,1.94h.05s0-.86,0-.86h.34s0,.86,0,.86h.23s0-.86,0-.86h.34s0,.86,0,.86h.2s0-.86,0-.86h.34s0,.97,0,.97h0v.04c0,.87-1.11,1.04-1.11,1.04l.09,10.4h.39s0,.74,0,.74h.3s0-.74,0-.74h.37c0,1.96-1.07,3.21-1.07,3.21l-.02,4.8h1.05c0,1.3-1.06,1.59-1.06,1.59v2.14s.34,0,.34,0v.81s1,0,1,0v1.15s1.81,0,1.81,0v11.78s4.07,.11,4.07,.11l.02-3.55,3.78,.02,.03-6.59h-1.56s.02-3.38,.02-3.38h1.56s14.52,.07,14.52,.07l.02-3.86h1.72s0-2.02,0-2.02c0,0-1.71-2.06-1.7-5.26h.6s0,1.21,0,1.21h.48s0-1.21,0-1.21h.63s.31-16.98,.31-16.98c0,0-1.81-.29-1.8-1.72v-.07s0,0,0,0v-1.59s.56,0,.56,0v1.4s.33,0,.33,0v-1.4s.56,0,.56,0v1.4s.37,0,.37,0v-1.4s.56,0,.56,0v1.4s.08,0,.08,0l.36-3.11c-.78-.41-1.31-1.22-1.3-2.16,0-1.13,.78-2.07,1.83-2.33l.1-.87c-.67-.1-1.16-.4-1.16-.75,0-.38,.57-.69,1.33-.76l.12-1.06c-.19-.1-.33-.3-.33-.54,0-.28,.2-.51,.46-.58l.14-1.17v-.18s.01,.09,.01,.09v-.09s0,.18,0,.18l.12,1.16c.27,.06,.47,.3,.47,.59,0,.24-.14,.45-.35,.54l.11,1.06c.71,.09,1.23,.4,1.23,.76,0,.33-.45,.62-1.07,.73l.1,.91c.99,.3,1.72,1.23,1.71,2.32,0,.9-.5,1.69-1.24,2.1l.34,3.16h.09s0-1.4,0-1.4h.55s0,1.4,0,1.4h.37s0-1.4,0-1.4h.55s0,1.4,0,1.4h.33s0-1.4,0-1.4h.55s0,1.59,0,1.59h0v.07c0,1.43-1.82,1.7-1.82,1.7l.15,16.98h.63s0,1.21,0,1.21h.48s0-1.2,0-1.2h.6c-.01,3.2-1.74,5.25-1.74,5.25v2.02s1.84,0,1.84,0l-.02,3.86h3.06s.87-6.27,.87-6.27c-.66-.18-1.93-.76-1.92-2.53h.91s.05-10.24,.05-10.24h1.02s.99-24.96,.99-24.96c0,0-2.59-.43-2.59-2.19h1.26s.01-2.59,.01-2.59h1.54s.02-4.55,.02-4.55h-2.45s.29-3.17,2.61-3.16v-1.89s-1.22,0-1.22,0c0,0,.68-1.96,2.57-1.95l1.03-11.22,.93,11.23c1.89,0,2.55,1.98,2.55,1.98h-1.23s0,1.89,0,1.89c2.31,.01,2.58,3.17,2.58,3.17h-2.46s-.02,4.55-.02,4.55h1.54s-.01,2.6-.01,2.6h1.26c0,1.76-2.61,2.17-2.61,2.17l.73,23.89,6.96,.03,.02-3.92c-6.96-7.59-2.71-19.6,3.75-24.04,4.82-3.32,9.33-6.75,11.3-8.27l.88-11.13c-.14,.01-.27,.04-.41,.04-1.41,0-2.64-.78-3.3-1.92,.59,.43,1.32,.68,2.11,.68,.63,0,1.21-.17,1.73-.45l.1-1.23,.08,1.13c1.05-.64,1.76-1.78,1.77-3.1,0-.94-.35-1.8-.93-2.45,1.35,.59,2.29,1.95,2.29,3.52,0,1.83-1.3,3.34-3.01,3.71l.78,11.2c1.96,1.54,6.44,5.01,11.23,8.37,6.41,4.51,10.56,16.56,3.53,24.08l-.02,3.92h2.6s.03-6.62,.03-6.62h1.45s.34-2.43,.34-2.43h3.13s0-1.21,0-1.21h.66s.02-4.01,.02-4.01c0,0-1.97-.56-1.96-2.99h1.24s.02-3.56,.02-3.56h.73s.02-5.43,.02-5.43c0,0-1.96-2.36-1.95-6.03h.69s0,1.39,0,1.39h.55s0-1.38,0-1.38h.73s.35-19.47,.35-19.47c0,0-2.08-.33-2.07-1.97v-.08s0,0,0,0v-1.82s.64,0,.64,0v1.6s.38,0,.38,0v-1.6s.64,0,.64,0v1.6s.42,0,.42,0v-1.6s.64,0,.64,0v1.6s.09,0,.09,0l.42-3.57c-.89-.46-1.5-1.4-1.5-2.47,0-1.29,.9-2.37,2.09-2.67l.12-1c-.77-.12-1.33-.46-1.32-.86,0-.43,.66-.79,1.53-.87l.14-1.22c-.22-.12-.38-.35-.37-.61,0-.32,.22-.59,.52-.67l.05-.44c-.12,.04-.24,.08-.38,.08-.44,0-.82-.23-1.02-.58,.18,.13,.41,.21,.65,.2,.33,0,.62-.15,.83-.38l.02-.22v-.21s.01,.1,.01,.1v-.1s.01,.21,.01,.21v.12c.15-.19,.25-.41,.25-.67,0-.29-.11-.55-.29-.75,.42,.18,.71,.6,.72,1.08,0,.43-.24,.8-.59,1.01l.06,.54c.31,.07,.54,.35,.54,.68,0,.28-.17,.51-.4,.62l.13,1.22c.82,.11,1.42,.46,1.41,.87,0,.38-.51,.71-1.23,.83l.11,1.05c1.14,.35,1.97,1.41,1.96,2.67,0,1.04-.58,1.93-1.42,2.41l.39,3.63h.1s0-1.6,0-1.6h.63s0,1.61,0,1.61h.43s0-1.6,0-1.6h.63s0,1.61,0,1.61h.38s0-1.6,0-1.6h.63s0,1.83,0,1.83h0v.08c0,1.64-2.09,1.95-2.09,1.95l.18,19.48h.73s0,1.39,0,1.39h.55s0-1.38,0-1.38h.69c-.02,3.67-2,6.02-2,6.02l-.02,5.43,11.29,.05,.03-6.11c-10.86-11.84-4.23-30.58,5.85-37.52,5.52-3.81,10.78-7.7,14.41-10.44l3.26-31.08c-.48,.1-.97,.15-1.48,.16-2.71,.01-5.08-1.45-6.37-3.63,1.15,.81,2.55,1.28,4.06,1.27,1.57,0,3.01-.53,4.17-1.41l.21-1.99v-1.07s.06,.53,.06,.53l.06-.53v1.07s.18,1.57,.18,1.57c1.42-1.29,2.32-3.15,2.31-5.23,0-1.8-.7-3.45-1.82-4.69,2.61,1.12,4.44,3.7,4.45,6.72,.01,3.07-1.86,5.71-4.53,6.82l3.53,30.89c1.49,1.13,3.32,2.51,5.36,4.01v111.67H14.31v-3.57s0,0,0,0v-.36s0-1.33,0-1.33Z"/></g><path class="cls-9" d="M636.56,210.47h127.78v-3.47h0v-.35s0-1.29,0-1.29h0v-1.82s-1.49,0-1.49,0v-11.46s-1.44,0-1.44,0v-1.11s-1.05,0-1.05,0v-.79s-.33,0-.33,0v-2.08s.98-.29,.98-1.55h-.99s-.02-4.67-.02-4.67c0,0,.99-1.23,.98-3.13h-.35s0,.72,0,.72h-.28s0-.72,0-.72h-.37s-.18-10.11-.18-10.11c0,0,1.04-.17,1.04-1.02v-.04s0,0,0,0v-.95s-.32,0-.32,0v.83s-.19,0-.19,0v-.83s-.32,0-.32,0v.83s-.21,0-.21,0v-.83s-.32,0-.32,0v.83s-.05,0-.05,0l-.21-1.85c.45-.24,.75-.73,.75-1.28,0-.67-.45-1.23-1.05-1.39l-.06-.52c.39-.06,.67-.24,.67-.45,0-.23-.33-.41-.77-.45l-.07-.63c.11-.06,.19-.18,.19-.32,0-.17-.11-.31-.26-.35l-.08-.7v-.11s0,.05,0,.05v-.05s0,.11,0,.11l-.07,.69c-.16,.04-.27,.18-.27,.35,0,.14,.08,.27,.2,.32l-.07,.63c-.41,.06-.71,.24-.71,.45,0,.2,.26,.37,.62,.43l-.06,.54c-.57,.18-.99,.73-.99,1.38,0,.54,.29,1,.71,1.25l-.2,1.88h-.05s0-.83,0-.83h-.32s0,.83,0,.83h-.22s0-.83,0-.83h-.32s0,.83,0,.83h-.19s0-.83,0-.83h-.32s0,.95,0,.95h0v.04c0,.85,1.05,1.01,1.05,1.01l-.09,10.11h-.37s0,.72,0,.72h-.28s0-.72,0-.72h-.35c0,1.91,1.01,3.12,1.01,3.12l.02,4.67h-.99c0,1.26,1,1.55,1,1.55v2.08s-.32,0-.32,0v.79s-.94,0-.94,0v1.11s-1.7,0-1.7,0v11.46s-3.84,.11-3.84,.11l-.02-3.46-3.56,.02-.03-6.41h1.47s-.01-3.29-.01-3.29h-1.47s-13.68,.07-13.68,.07l-.02-3.76h-1.62s0-1.96,0-1.96c0,0,1.61-2,1.6-5.12h-.57s0,1.18,0,1.18h-.45s0-1.17,0-1.17h-.6s-.29-16.52-.29-16.52c0,0,1.7-.28,1.7-1.67v-.07s0,0,0,0v-1.55s-.53,0-.53,0v1.36s-.31,0-.31,0v-1.36s-.53,0-.53,0v1.36s-.35,0-.35,0v-1.36s-.53,0-.53,0v1.36s-.08,0-.08,0l-.34-3.03c.73-.39,1.23-1.19,1.23-2.1,0-1.1-.74-2.01-1.72-2.27l-.1-.85c.63-.1,1.09-.39,1.09-.73,0-.37-.54-.67-1.25-.74l-.12-1.03c.18-.1,.31-.29,.31-.52,0-.27-.18-.5-.43-.56l-.13-1.14v-.18s0,.09,0,.09v-.09s0,.18,0,.18l-.12,1.13c-.25,.06-.45,.29-.44,.58,0,.23,.14,.44,.33,.53l-.11,1.04c-.67,.09-1.16,.39-1.16,.74,0,.32,.42,.6,1.01,.71l-.09,.89c-.94,.3-1.62,1.2-1.61,2.26,0,.88,.47,1.64,1.17,2.04l-.32,3.08h-.08s0-1.36,0-1.36h-.52s0,1.36,0,1.36h-.35s0-1.36,0-1.36h-.52s0,1.36,0,1.36h-.32s0-1.36,0-1.36h-.52s0,1.55,0,1.55h0v.07c0,1.39,1.71,1.66,1.71,1.66l-.15,16.52h-.6s0,1.18,0,1.18h-.45s0-1.17,0-1.17h-.57c.01,3.11,1.64,5.1,1.64,5.1v1.97s-1.74,0-1.74,0l.02,3.75h-2.89s-.82-6.1-.82-6.1c.62-.17,1.82-.74,1.81-2.46h-.86s-.04-9.96-.04-9.96h-.96s-.93-24.29-.93-24.29c0,0,2.44-.42,2.44-2.13h-1.19s-.01-2.52-.01-2.52h-1.45s-.02-4.43-.02-4.43h2.31s-.28-3.08-2.46-3.07v-1.84s1.15,0,1.15,0c0,0-.64-1.91-2.42-1.9l-.97-10.91-.88,10.92c-1.78,0-2.4,1.92-2.4,1.92h1.16s0,1.84,0,1.84c-2.18,.01-2.43,3.08-2.43,3.08h2.31s.02,4.42,.02,4.42h-1.45s.01,2.53,.01,2.53h-1.19c0,1.71,2.45,2.11,2.45,2.11l-.69,23.24-6.55,.03-.02-3.81c6.56-7.38,2.55-19.06-3.53-23.39-4.54-3.23-8.79-6.56-10.65-8.05l-.83-10.83c.13,.01,.25,.04,.38,.04,1.33,0,2.49-.76,3.11-1.87-.56,.41-1.24,.66-1.99,.66-.59,0-1.14-.16-1.63-.43l-.09-1.19-.07,1.1c-.99-.62-1.66-1.73-1.66-3.02,0-.91,.33-1.75,.87-2.38-1.27,.58-2.16,1.9-2.15,3.42,0,1.78,1.22,3.25,2.84,3.61l-.74,10.89c-1.85,1.5-6.06,4.87-10.58,8.14-6.04,4.38-9.95,16.11-3.32,23.42l.02,3.81h-2.45s-.03-6.44-.03-6.44h-1.37s-.32-2.37-.32-2.37h-2.95s0-1.18,0-1.18h-.62s-.02-3.9-.02-3.9c0,0,1.86-.55,1.85-2.9h-1.17s-.02-3.47-.02-3.47h-.69s-.02-5.28-.02-5.28c0,0,1.85-2.3,1.83-5.87h-.65s0,1.35,0,1.35h-.52s0-1.34,0-1.34h-.68s-.33-18.94-.33-18.94c0,0,1.96-.32,1.95-1.92v-.08s0,0,0,0v-1.77s-.61,0-.61,0v1.56s-.35,0-.35,0v-1.56s-.6,0-.6,0v1.56s-.4,0-.4,0v-1.56s-.6,0-.6,0v1.56s-.09,0-.09,0l-.39-3.47c.84-.45,1.41-1.36,1.41-2.41,0-1.26-.84-2.31-1.97-2.6l-.11-.97c.73-.12,1.25-.45,1.25-.84,0-.42-.62-.77-1.44-.85l-.13-1.19c.21-.11,.35-.34,.35-.6,0-.31-.21-.57-.49-.65l-.05-.43c.11,.04,.23,.07,.35,.08,.41,0,.77-.23,.97-.57-.17,.13-.39,.2-.62,.2-.31,0-.58-.15-.78-.37l-.02-.21v-.2s-.01,.1-.01,.1v-.1s-.01,.2-.01,.2v.12c-.14-.18-.24-.4-.24-.65,0-.28,.11-.54,.28-.73-.4,.18-.67,.58-.68,1.05,0,.42,.23,.78,.56,.98l-.05,.53c-.29,.07-.51,.34-.51,.66,0,.27,.16,.5,.38,.61l-.12,1.19c-.77,.1-1.33,.44-1.33,.85,0,.37,.48,.69,1.16,.81l-.11,1.02c-1.07,.34-1.85,1.37-1.85,2.59,0,1.01,.54,1.88,1.34,2.34l-.37,3.53h-.09s0-1.56,0-1.56h-.6s0,1.56,0,1.56h-.4s0-1.56,0-1.56h-.6s0,1.56,0,1.56h-.36s0-1.56,0-1.56h-.6s0,1.78,0,1.78h0v.08c0,1.59,1.97,1.9,1.97,1.9l-.17,18.95h-.68s0,1.35,0,1.35h-.52s0-1.34,0-1.34h-.65c.02,3.57,1.88,5.85,1.88,5.85l.02,5.28-10.63,.05-.03-5.95c10.23-11.52,3.98-29.75-5.51-36.5-5.21-3.7-10.16-7.49-13.58-10.16l.88,111.96Z"/><g class="cls-20"><path class="cls-9" d="M489.78,207.98h0v-1.87s1.58,0,1.58,0v-11.78s1.52,0,1.52,0v-1.15s1.11,0,1.11,0v-.81s.35,0,.35,0v-2.14s-1.04-.3-1.04-1.59h1.05s.02-4.8,.02-4.8c0,0-1.05-1.26-1.04-3.22h.37s0,.74,0,.74h.3s0-.74,0-.74h.39s.19-10.39,.19-10.39c0,0-1.11-.18-1.1-1.05v-.04s0,0,0,0v-.97s.34,0,.34,0v.86s.2,0,.2,0v-.86s.34,0,.34,0v.86s.23,0,.23,0v-.86s.34,0,.34,0v.86s.05,0,.05,0l.22-1.91c-.48-.25-.8-.75-.8-1.32,0-.69,.48-1.27,1.12-1.43l.06-.53c-.41-.06-.71-.25-.71-.46,0-.23,.35-.42,.81-.47l.08-.65c-.12-.06-.2-.19-.2-.33,0-.17,.12-.31,.28-.36l.08-.72v-.11s0,.06,0,.06v-.06s0,.11,0,.11l.08,.71c.17,.04,.29,.19,.29,.36,0,.15-.09,.27-.21,.33l.07,.65c.43,.06,.76,.24,.75,.47,0,.2-.27,.38-.66,.44l.06,.56c.61,.19,1.05,.75,1.05,1.42,0,.55-.31,1.03-.76,1.28l.21,1.94h.05s0-.86,0-.86h.34s0,.86,0,.86h.23s0-.86,0-.86h.34s0,.86,0,.86h.2s0-.86,0-.86h.34s0,.97,0,.97h0v.04c0,.87-1.11,1.04-1.11,1.04l.09,10.4h.39s0,.74,0,.74h.3s0-.74,0-.74h.37c0,1.96-1.07,3.21-1.07,3.21l-.02,4.8h1.05c0,1.3-1.06,1.59-1.06,1.59v2.14s.34,0,.34,0v.81s1,0,1,0v1.15s1.81,0,1.81,0v11.78s4.07,.11,4.07,.11l.02-3.55,3.78,.02,.03-6.59h-1.56s.02-3.38,.02-3.38h1.56s14.52,.07,14.52,.07l.02-3.86h1.72s0-2.02,0-2.02c0,0-1.71-2.06-1.7-5.26h.6s0,1.21,0,1.21h.48s0-1.21,0-1.21h.63s.31-16.98,.31-16.98c0,0-1.81-.29-1.8-1.72v-.07s0,0,0,0v-1.59s.56,0,.56,0v1.4s.33,0,.33,0v-1.4s.56,0,.56,0v1.4s.37,0,.37,0v-1.4s.56,0,.56,0v1.4s.08,0,.08,0l.36-3.11c-.78-.41-1.31-1.22-1.3-2.16,0-1.13,.78-2.07,1.83-2.33l.1-.87c-.67-.1-1.16-.4-1.16-.75,0-.38,.57-.69,1.33-.76l.12-1.06c-.19-.1-.33-.3-.33-.54,0-.28,.2-.51,.46-.58l.14-1.17v-.18s.01,.09,.01,.09v-.09s0,.18,0,.18l.12,1.16c.27,.06,.47,.3,.47,.59,0,.24-.14,.45-.35,.54l.11,1.06c.71,.09,1.23,.4,1.23,.76,0,.33-.45,.62-1.07,.73l.1,.91c.99,.3,1.72,1.23,1.71,2.32,0,.9-.5,1.69-1.24,2.1l.34,3.16h.09s0-1.4,0-1.4h.55s0,1.4,0,1.4h.37s0-1.4,0-1.4h.55s0,1.4,0,1.4h.33s0-1.4,0-1.4h.55s0,1.59,0,1.59h0v.07c0,1.43-1.82,1.7-1.82,1.7l.15,16.98h.63s0,1.21,0,1.21h.48s0-1.2,0-1.2h.6c-.01,3.2-1.74,5.25-1.74,5.25v2.02s1.84,0,1.84,0l-.02,3.86h3.06s.87-6.27,.87-6.27c-.66-.18-1.93-.76-1.92-2.53h.91s.05-10.24,.05-10.24h1.02s.99-24.96,.99-24.96c0,0-2.59-.43-2.59-2.19h1.26s.01-2.59,.01-2.59h1.54s.02-4.55,.02-4.55h-2.45s.29-3.17,2.61-3.16v-1.89s-1.22,0-1.22,0c0,0,.68-1.96,2.57-1.95l1.03-11.22,.93,11.23c1.89,0,2.55,1.98,2.55,1.98h-1.23s0,1.89,0,1.89c2.31,.01,2.58,3.17,2.58,3.17h-2.46s-.02,4.55-.02,4.55h1.54s-.01,2.6-.01,2.6h1.26c0,1.76-2.61,2.17-2.61,2.17l.73,23.89,6.96,.03,.02-3.92c-6.96-7.59-2.71-19.6,3.75-24.04,4.82-3.32,9.33-6.75,11.3-8.27l.88-11.13c-.14,.01-.27,.04-.41,.04-1.41,0-2.64-.78-3.3-1.92,.59,.43,1.32,.68,2.11,.68,.63,0,1.21-.17,1.73-.45l.1-1.23,.08,1.13c1.05-.64,1.76-1.78,1.77-3.1,0-.94-.35-1.8-.93-2.45,1.35,.59,2.29,1.95,2.29,3.52,0,1.83-1.3,3.34-3.01,3.71l.78,11.2c1.96,1.54,6.44,5.01,11.23,8.37,6.41,4.51,10.56,16.56,3.53,24.08l-.02,3.92h2.6s.03-6.62,.03-6.62h1.45s.34-2.43,.34-2.43h3.13s0-1.21,0-1.21h.66s.02-4.01,.02-4.01c0,0-1.97-.56-1.96-2.99h1.24s.02-3.56,.02-3.56h.73s.02-5.43,.02-5.43c0,0-1.96-2.36-1.95-6.03h.69s0,1.39,0,1.39h.55s0-1.38,0-1.38h.73s.35-19.47,.35-19.47c0,0-2.08-.33-2.07-1.97v-.08s0,0,0,0v-1.82s.64,0,.64,0v1.6s.38,0,.38,0v-1.6s.64,0,.64,0v1.6s.42,0,.42,0v-1.6s.64,0,.64,0v1.6s.09,0,.09,0l.42-3.57c-.89-.46-1.5-1.4-1.5-2.47,0-1.29,.9-2.37,2.09-2.67l.12-1c-.77-.12-1.33-.46-1.32-.86,0-.43,.66-.79,1.53-.87l.14-1.22c-.22-.12-.38-.35-.37-.61,0-.32,.22-.59,.52-.67l.05-.44c-.12,.04-.24,.08-.38,.08-.44,0-.82-.23-1.02-.58,.18,.13,.41,.21,.65,.2,.33,0,.62-.15,.83-.38l.02-.22v-.21s.01,.1,.01,.1v-.1s.01,.21,.01,.21v.12c.15-.19,.25-.41,.25-.67,0-.29-.11-.55-.29-.75,.42,.18,.71,.6,.72,1.08,0,.43-.24,.8-.59,1.01l.06,.54c.31,.07,.54,.35,.54,.68,0,.28-.17,.51-.4,.62l.13,1.22c.82,.11,1.42,.46,1.41,.87,0,.38-.51,.71-1.23,.83l.11,1.05c1.14,.35,1.97,1.41,1.96,2.67,0,1.04-.58,1.93-1.42,2.41l.39,3.63h.1s0-1.6,0-1.6h.63s0,1.61,0,1.61h.43s0-1.6,0-1.6h.63s0,1.61,0,1.61h.38s0-1.6,0-1.6h.63s0,1.83,0,1.83h0v.08c0,1.64-2.09,1.95-2.09,1.95l.18,19.48h.73s0,1.39,0,1.39h.55s0-1.38,0-1.38h.69c-.02,3.67-2,6.02-2,6.02l-.02,5.43,11.29,.05,.03-6.11c-10.86-11.84-4.23-30.58,5.85-37.52,5.52-3.81,10.78-7.7,14.41-10.44l3.26-31.08c-.48,.1-.97,.15-1.48,.16-2.71,.01-5.08-1.45-6.37-3.63,1.15,.81,2.55,1.28,4.06,1.27,1.57,0,3.01-.53,4.17-1.41l.21-1.99v-1.07s.06,.53,.06,.53l.06-.53v1.07s.18,1.57,.18,1.57c1.42-1.29,2.32-3.15,2.31-5.23,0-1.8-.7-3.45-1.82-4.69,2.61,1.12,4.44,3.7,4.45,6.72,.01,3.07-1.86,5.71-4.53,6.82l3.53,30.89c1.49,1.13,3.32,2.51,5.36,4.01v111.67h-150.01v-3.57s0,0,0,0v-.36s0-1.33,0-1.33Z"/></g></g></g><g id="OBJECTS"><g class="cls-21"><g><g><g><path class="cls-13" d="M308.25,265.81v-109.72l1.88-2.46v-24.4h-1.88v-11.01l1.11-.62v-2.47h-.84s1.35-.96,1.6-5.55c.19-3.64-1.35-10.28-6.42-14.83-1.43-1.28-2.91-2.18-4.31-2.83h.01v-1.6l-4.74-1.99v-1.23h-1.05l-.77-7.21-.77,7.21h-1.05v1.23l-4.74,1.99v1.6h.01c-1.4,.65-2.88,1.55-4.31,2.83-5.07,4.55-6.61,11.19-6.42,14.83,.24,4.59,1.6,5.55,1.6,5.55h-.84v2.47l1.11,.62v11.01h-1.89v24.4l1.89,2.46v109.72h30.8Zm-19.87-136.59v-5.31c0-1.71,1.97-2.32,1.97-2.32v-.89h.73l1.77-2.03,1.77,2.03h.73v.89s1.97,.61,1.97,2.32v5.31h-8.94Zm-9.98,0v-5.31c0-1.71,1.97-2.32,1.97-2.32v-.89h.73l1.77-2.03,1.77,2.03h.73v.89s1.97,.61,1.97,2.32v5.31h-8.94Zm19.95,0v-5.31c0-1.71,1.97-2.32,1.97-2.32v-.89h.73l1.77-2.03,1.77,2.03h.73v.89s1.97,.61,1.97,2.32v5.31h-8.94Z"/><path class="cls-10" d="M308.25,156.09l1.89-2.46v-24.4h-1.88v-11.01l1.11-.62v-2.47h-.84s1.35-.96,1.6-5.55c.19-3.64-1.35-10.28-6.42-14.83-1.43-1.28-2.91-2.18-4.31-2.83h.01v-1.6l-4.74-1.99v-1.23h-1.05l-.77-7.21v8.44l-1.82,1.99v1.6h1.82s6.81,1.62,8.14,8.82c1.33,7.2-8.14,14.13-8.14,14.13v3.81l1.77,2.03h.73v.89s1.97,.61,1.97,2.32v5.31h-4.47v136.59h15.4v-109.72Zm-.95-26.86h-8.94v-5.31c0-1.71,1.97-2.32,1.97-2.32v-.89h.73l1.77-2.03,1.77,2.03h.73v.89s1.97,.61,1.97,2.32v5.31Z"/></g><g><polygon class="cls-11" points="276.33 117.59 309.36 117.59 308.25 118.21 277.45 118.21 276.33 117.59"/><polygon class="cls-11" points="275.56 153.63 310.13 153.63 308.25 156.09 277.45 156.09 275.56 153.63"/></g><g><path class="cls-15" d="M278.4,123.92c0-1.71,1.97-2.32,1.97-2.32v-.89h.73l1.77-2.03,1.77,2.03h.73v.89s1.97,.61,1.97,2.32v5.31h1.03v-5.31c0-1.71,1.97-2.32,1.97-2.32v-.89h.73l1.77-2.03,1.77,2.03h.73v.89s1.97,.61,1.97,2.32v5.31h1.03v-5.31c0-1.71,1.97-2.32,1.97-2.32v-.89h.73l1.77-2.03,1.77,2.03h.73v.89s1.97,.61,1.97,2.32v5.31h.95v-11.01h-30.8v11.01h.95v-5.31Z"/><path class="cls-18" d="M294.62,120.71h.73v.89s1.97,.61,1.97,2.32v5.31h1.03v-5.31c0-1.71,1.97-2.32,1.97-2.32v-.89h.73l1.77-2.03,1.77,2.03h.73v.89s1.97,.61,1.97,2.32v5.31h.95v-11.01h-15.4v.46h0s1.77,2.03,1.77,2.03Z"/></g><g><polygon class="cls-11" points="308.52 115.13 277.17 115.13 276.93 114.86 308.77 114.86 308.52 115.13"/><rect class="cls-11" x="286.29" y="90.31" width="13.12" height="1.6"/><rect class="cls-11" x="291.03" y="87.09" width="3.63" height="1.23"/></g><path class="cls-15" d="M296.12,175.56v-.8h-.54v-.49s1.47-1.08,1.16-4.25c-.31-3.17-3.89-4.12-3.89-4.12,0,0-3.58,.95-3.89,4.12-.31,3.17,1.16,4.25,1.16,4.25v.49h-.54v.8h-.66v9.11h.63v1.34h6.59v-1.34h.63v-9.11h-.66Z"/></g><g><g><path class="cls-13" d="M501.24,265.81v-109.72l1.88-2.46v-24.4h-1.88v-11.01l1.11-.62v-2.47h-.84s1.35-.96,1.6-5.55c.19-3.64-1.35-10.28-6.42-14.83-1.43-1.28-2.91-2.18-4.31-2.83h.01v-1.6l-4.74-1.99v-1.23h-1.05l-.77-7.21-.77,7.21h-1.05v1.23l-4.74,1.99v1.6h.01c-1.4,.65-2.88,1.55-4.31,2.83-5.07,4.55-6.61,11.19-6.42,14.83,.24,4.59,1.6,5.55,1.6,5.55h-.84v2.47l1.11,.62v11.01h-1.89v24.4l1.89,2.46v109.72h30.8Zm-19.87-136.59v-5.31c0-1.71,1.97-2.32,1.97-2.32v-.89h.73l1.77-2.03,1.77,2.03h.73v.89s1.97,.61,1.97,2.32v5.31h-8.94Zm-9.98,0v-5.31c0-1.71,1.97-2.32,1.97-2.32v-.89h.73l1.77-2.03,1.77,2.03h.73v.89s1.97,.61,1.97,2.32v5.31h-8.94Zm19.95,0v-5.31c0-1.71,1.97-2.32,1.97-2.32v-.89h.73l1.77-2.03,1.77,2.03h.73v.89s1.97,.61,1.97,2.32v5.31h-8.94Z"/><path class="cls-10" d="M501.24,156.09l1.89-2.46v-24.4h-1.88v-11.01l1.11-.62v-2.47h-.84s1.35-.96,1.6-5.55c.19-3.64-1.35-10.28-6.42-14.83-1.43-1.28-2.91-2.18-4.31-2.83h.01v-1.6l-4.74-1.99v-1.23h-1.05l-.77-7.21v8.44l-1.82,1.99v1.6h1.82s6.81,1.62,8.14,8.82c1.33,7.2-8.14,14.13-8.14,14.13v3.81l1.77,2.03h.73v.89s1.97,.61,1.97,2.32v5.31h-4.47v136.59h15.4v-109.72Zm-.95-26.86h-8.94v-5.31c0-1.71,1.97-2.32,1.97-2.32v-.89h.73l1.77-2.03,1.77,2.03h.73v.89s1.97,.61,1.97,2.32v5.31Z"/></g><g><polygon class="cls-11" points="469.33 117.59 502.35 117.59 501.24 118.21 470.44 118.21 469.33 117.59"/><polygon class="cls-11" points="468.55 153.63 503.13 153.63 501.24 156.09 470.44 156.09 468.55 153.63"/></g><g><path class="cls-15" d="M471.39,123.92c0-1.71,1.97-2.32,1.97-2.32v-.89h.73l1.77-2.03,1.77,2.03h.73v.89s1.97,.61,1.97,2.32v5.31h1.03v-5.31c0-1.71,1.97-2.32,1.97-2.32v-.89h.73l1.77-2.03,1.77,2.03h.73v.89s1.97,.61,1.97,2.32v5.31h1.03v-5.31c0-1.71,1.97-2.32,1.97-2.32v-.89h.73l1.77-2.03,1.77,2.03h.73v.89s1.97,.61,1.97,2.32v5.31h.95v-11.01h-30.8v11.01h.95v-5.31Z"/><path class="cls-18" d="M487.61,120.71h.73v.89s1.97,.61,1.97,2.32v5.31h1.03v-5.31c0-1.71,1.97-2.32,1.97-2.32v-.89h.73l1.77-2.03,1.77,2.03h.73v.89s1.97,.61,1.97,2.32v5.31h.95v-11.01h-15.4v.46h0s1.77,2.03,1.77,2.03Z"/></g><g><polygon class="cls-11" points="501.51 115.13 470.17 115.13 469.92 114.86 501.76 114.86 501.51 115.13"/><rect class="cls-11" x="479.28" y="90.31" width="13.12" height="1.6"/><rect class="cls-11" x="484.02" y="87.09" width="3.63" height="1.23"/></g><path class="cls-15" d="M489.11,175.56v-.8h-.54v-.49s1.47-1.08,1.16-4.25c-.31-3.17-3.89-4.12-3.89-4.12,0,0-3.58,.95-3.89,4.12-.31,3.17,1.16,4.25,1.16,4.25v.49h-.54v.8h-.66v9.11h.63v1.34h6.59v-1.34h.63v-9.11h-.66Z"/></g><g><g><g><path class="cls-10" d="M398.06,77.02v-.88l-4.46-1.94v-1.41h-1.25l-.11-1.24c1.16-.88,1.92-2.26,1.92-3.83,0-1.88-1.09-3.49-2.66-4.28l-.1-1.11c.77-.61,1.27-1.54,1.27-2.6,0-1.27-.72-2.36-1.77-2.92l-.11-1.26c.7-.47,1.16-1.26,1.16-2.16,0-1.07-.65-1.99-1.57-2.39l-1.04-11.44-1.04,11.44c-.92,.4-1.57,1.32-1.57,2.39,0,.9,.46,1.7,1.16,2.16l-.11,1.26c-1.05,.56-1.77,1.65-1.77,2.92,0,1.06,.5,1.99,1.27,2.6l-.1,1.11c-1.57,.79-2.66,2.4-2.66,4.28,0,1.57,.76,2.95,1.92,3.83l-.11,1.24h-1.25v1.41l-4.46,1.94v.88l-5.22,2.88h27.87l-5.22-2.88Z"/><path class="cls-15" d="M398.06,77.02v-.88l-4.46-1.94v-1.41h-1.25l-.11-1.24c1.16-.88,1.92-2.26,1.92-3.83,0-1.88-1.09-3.49-2.66-4.28l-.1-1.11c.77-.61,1.27-1.54,1.27-2.6,0-1.27-.72-2.36-1.77-2.92l-.11-1.26c.7-.47,1.16-1.26,1.16-2.16,0-1.07-.65-1.99-1.57-2.39l-1.04-11.44v40.35h13.94l-5.22-2.88Z"/></g><g><g><path class="cls-10" d="M335.3,191.91v-3.25h9.48v-31.84l-3.21-1.8v-7.13h2.43s-3.92-2.78-4.62-16.06c-.56-10.52,3.92-29.73,18.56-42.88,14.65-13.16,31.41-12.81,31.41-12.81,0,0,16.76-.35,31.41,12.81,14.65,13.16,19.12,32.37,18.56,42.88-.7,13.28-4.62,16.06-4.62,16.06h2.43v7.13l-3.21,1.8v31.84h9.48v3.25h-108.09Z"/><path class="cls-14" d="M433.91,188.66v-31.84l3.21-1.8v-7.13h-2.43s3.92-2.78,4.62-16.06c.56-10.52-3.92-29.73-18.56-42.88-14.65-13.16-31.41-12.81-31.41-12.81h0s25.69,3.94,27.02,31.96c1.52,31.95-26.9,39.79-26.9,39.79v44.02h53.92v-3.25h-9.48Z"/></g><g><polygon class="cls-15" points="341.56 155.02 437.12 155.02 433.91 156.82 344.78 156.82 341.56 155.02"/><polygon class="cls-15" points="434.7 147.89 343.99 147.89 343.14 146.95 435.8 146.95 434.7 147.89"/></g></g><path class="cls-10" d="M391.23,33.34c-.96-.49-1.99-.68-2.98-.61,.41,.08,.82,.22,1.22,.42,2.23,1.15,3.1,3.89,1.95,6.12-1.15,2.23-3.89,3.1-6.12,1.95-1.21-.62-2.02-1.72-2.32-2.94-.03,2.08,1.08,4.11,3.06,5.13,2.78,1.43,6.19,.34,7.63-2.43,1.43-2.78,.34-6.19-2.43-7.63Z"/></g><g><g><g><polygon class="cls-10" points="332.26 134.46 332.26 133.68 331.6 133.68 331.11 129.1 330.62 133.68 329.95 133.68 329.95 134.46 326.94 135.73 326.94 136.75 331.11 136.75 335.28 136.75 335.28 135.73 332.26 134.46"/><polygon class="cls-15" points="331.11 129.1 331.11 136.75 335.28 136.75 335.28 135.73 332.26 134.46 332.26 133.68 331.6 133.68 331.11 129.1"/></g><g><polygon class="cls-15" points="446.15 134.46 446.15 133.68 446.82 133.68 447.31 129.1 447.8 133.68 448.46 133.68 448.46 134.46 451.48 135.73 451.48 136.75 447.31 136.75 443.14 136.75 443.14 135.73 446.15 134.46"/><polygon class="cls-10" points="447.31 129.1 447.31 136.75 443.14 136.75 443.14 135.73 446.15 134.46 446.15 133.68 446.82 133.68 447.31 129.1"/></g></g><g><path class="cls-13" d="M340.9,160.48v-7l.71-.4v-1.57h-.53s.86-.61,1.02-3.53c.12-2.31-.86-6.54-4.08-9.43-3.14-2.82-6.73-2.82-6.9-2.82-.17,0-3.76,0-6.9,2.82-3.22,2.89-4.21,7.12-4.08,9.43,.15,2.92,1.02,3.53,1.02,3.53h-.53v1.57l.71,.4v7h-3.39v2.15h-3.37v9.87h149.29v-9.87h-3.37v-2.15h-3.39v-7l.71-.4v-1.57h-.53s.86-.61,1.02-3.53c.12-2.31-.86-6.54-4.08-9.43-3.14-2.82-6.73-2.82-6.9-2.82-.17,0-3.76,0-6.9,2.82-3.22,2.89-4.21,7.12-4.08,9.43,.15,2.92,1.02,3.53,1.02,3.53h-.53v1.57l.71,.4v7h-96.61Zm-13.29,0h-5.69v-3.38c0-1.09,1.25-1.47,1.25-1.47v-.57h.46l1.13-1.29,1.13,1.29h.47v.57s1.25,.39,1.25,1.47v3.38Zm6.34,0h-5.69v-3.38c0-1.09,1.25-1.47,1.25-1.47v-.57h.47l1.13-1.29,1.13,1.29h.47v.57s1.25,.39,1.25,1.47v3.38Zm6.34,0h-5.69v-3.38c0-1.09,1.25-1.47,1.25-1.47v-.57h.47l1.13-1.29,1.13,1.29h.47v.57s1.25,.39,1.25,1.47v3.38Zm103.51,0h-5.69v-3.38c0-1.09,1.25-1.47,1.25-1.47v-.57h.46l1.13-1.29,1.13,1.29h.47v.57s1.25,.39,1.25,1.47v3.38Zm6.34,0h-5.69v-3.38c0-1.09,1.25-1.47,1.25-1.47v-.57h.47l1.13-1.29,1.13,1.29h.47v.57s1.25,.39,1.25,1.47v3.38Zm6.34,0h-5.69v-3.38c0-1.09,1.25-1.47,1.25-1.47v-.57h.47l1.13-1.29,1.13,1.29h.47v.57s1.25,.39,1.25,1.47v3.38Z"/><path class="cls-10" d="M340.9,160.48v-7l.71-.4v-1.57h-.53s.86-.61,1.02-3.53c.12-2.31-.86-6.54-4.08-9.43-3.14-2.82-6.73-2.82-6.9-2.82,0,0,4.68,.78,6.13,5.55,2.23,7.32-6.13,10.23-6.13,10.23v2.26l1.13,1.29h.47v.57s1.25,.39,1.25,1.47v3.38h-2.84v2.15h18.17v4.43h-10.05v2.94h-8.13v2.51h116.2v-2.51h-8.13v-2.94h-10.05v-4.43h18.17v-2.15h-2.84v-3.38c0-1.09,1.25-1.47,1.25-1.47v-.57h.47l1.13-1.29v-2.26s-8.36-2.91-6.13-10.23c1.45-4.77,6.13-5.55,6.13-5.55-.17,0-3.76,0-6.9,2.82-3.22,2.89-4.21,7.12-4.08,9.43,.15,2.92,1.02,3.53,1.02,3.53h-.53v1.57l.71,.4v7h-96.61Zm-.61,0h-5.69v-3.38c0-1.09,1.25-1.47,1.25-1.47v-.57h.47l1.13-1.29,1.13,1.29h.47v.57s1.25,.39,1.25,1.47v3.38Zm103.51-3.38v3.38h-5.69v-3.38c0-1.09,1.25-1.47,1.25-1.47v-.57h.46l1.13-1.29,1.13,1.29h.47v.57s1.25,.39,1.25,1.47Z"/></g><g><polygon class="cls-15" points="340.9 153.47 341.61 153.08 320.61 153.08 321.31 153.47 340.9 153.47"/><polygon class="cls-15" points="341.07 151.51 341.23 151.34 320.98 151.34 321.14 151.51 341.07 151.51"/><polygon class="cls-15" points="457.1 153.47 457.81 153.08 436.81 153.08 437.51 153.47 457.1 153.47"/><polygon class="cls-15" points="457.27 151.51 457.43 151.34 437.18 151.34 437.34 151.51 457.27 151.51"/><rect class="cls-15" x="317.93" y="161.68" width="142.56" height=".94"/></g></g><g><g><path class="cls-19" d="M449.54,169.75v2.74h-29.41v-6.5l2.58-1.02v-3.52h-3.37s14.02-9.01,4.07-25.22c-9.95-16.21-24.2-21.15-24.2-21.15v-1.02l-3.21-1.57v-.86l-2.98-1.33v-2.27h-1.72v-2.51h.94v-1.88h-1.17l-1.72-16.76-1.72,16.76h-1.17v1.88h.94v2.51h-1.72v2.27l-2.98,1.33v.86l-3.21,1.57v1.02s-14.26,4.93-24.2,21.15c-9.95,16.21,4.07,25.22,4.07,25.22h-3.37v3.52l2.59,1.02v6.5h-29.41v-2.74h-31.72v104.8h183.84v-104.8h-31.72Z"/><path class="cls-13" d="M481.26,169.75h-31.72v2.74h-29.41v-6.5l2.58-1.02v-3.52h-3.37s14.02-9.01,4.07-25.22c-9.95-16.21-24.2-21.15-24.2-21.15v-1.02l-3.21-1.57v-.86l-2.98-1.33v-1.4l-3.68,6.18s16.06,9.87,16.06,27.41c0,11.07-16.06,19.19-16.06,19.19v112.87h91.92v-104.8Z"/></g><g><rect class="cls-19" x="329.15" y="172.49" width="120.39" height="102.06"/><path class="cls-15" d="M340.39,192.65v-.7h.47v-.43s-1.28-.94-1.01-3.7c.27-2.76,3.39-3.59,3.39-3.59,0,0,3.12,.83,3.39,3.59,.27,2.76-1.01,3.7-1.01,3.7v.43h.47v.7h.58v2.59h-6.86v-2.59h.58Z"/><path class="cls-15" d="M363.89,192.65v-.7h.47v-.43s-1.28-.94-1.01-3.7c.27-2.76,3.39-3.59,3.39-3.59,0,0,3.12,.83,3.39,3.59,.27,2.76-1.01,3.7-1.01,3.7v.43h.47v.7h.58v2.59h-6.86v-2.59h.58Z"/><path class="cls-15" d="M387.4,192.65v-.7h.47v-.43s-1.28-.94-1.01-3.7c.27-2.76,3.39-3.59,3.39-3.59,0,0,3.12,.83,3.39,3.59,.27,2.76-1.01,3.7-1.01,3.7v.43h.47v.7h.58v2.59h-6.86v-2.59h.58Z"/><path class="cls-15" d="M410.9,192.65v-.7h.47v-.43s-1.28-.94-1.01-3.7c.27-2.76,3.39-3.59,3.39-3.59,0,0,3.12,.83,3.39,3.59,.27,2.76-1.01,3.7-1.01,3.7v.43h.47v.7h.58v2.59h-6.86v-2.59h.58Z"/><path class="cls-15" d="M434.41,192.65v-.7h.47v-.43s-1.28-.94-1.01-3.7c.27-2.76,3.39-3.59,3.39-3.59,0,0,3.12,.83,3.39,3.59,.27,2.76-1.01,3.7-1.01,3.7v.43h.47v.7h.58v2.59h-6.86v-2.59h.58Z"/><rect class="cls-13" x="329.15" y="172.49" width="3.61" height="102.06"/><rect class="cls-13" x="329.15" y="175.29" width="120.39" height="2.11"/></g><g><path class="cls-17" d="M407.12,216.35c-6.11-10.81-17.78-13.32-17.78-13.32,0,0-11.67,2.51-17.78,13.32-6.11,10.81-1.25,18.56-1.25,18.56h-1.41v28.2h1.49v2.98h37.91v-2.98h1.49v-28.2h-1.41s4.86-7.75-1.25-18.56Z"/><path class="cls-15" d="M401.65,221.96c-4.23-7.48-12.3-9.21-12.3-9.21,0,0-8.08,1.73-12.3,9.21-4.23,7.48-.87,12.84-.87,12.84h-.98v30.25h1.03v2.06h26.23v-2.06h1.03v-30.25h-.98s3.36-5.37-.87-12.84Z"/><path class="cls-15" d="M359.9,225.97h-1.05v-.95s2.85-2.1,2.25-8.25c-.6-6.15-7.55-8-7.55-8,0,0-6.95,1.85-7.55,8-.6,6.15,2.25,8.25,2.25,8.25v.95h-1.05v1.55h-1.28v17.69h1.23v2.6h12.8v-2.6h1.23v-17.69h-1.28v-1.55Z"/><path class="cls-15" d="M431.48,227.52v-1.55h-1.05v-.95s2.85-2.1,2.25-8.25c-.6-6.15-7.55-8-7.55-8,0,0-6.95,1.85-7.55,8-.6,6.15,2.25,8.25,2.25,8.25v.95h-1.05v1.55h-1.28v17.69h1.23v2.6h12.8v-2.6h1.23v-17.69h-1.28Z"/></g><rect class="cls-13" x="358.56" y="165.99" width="61.57" height="6.5"/><polygon class="cls-15" points="355.98 164.97 422.71 164.97 420.13 165.99 358.56 165.99 355.98 164.97"/><rect class="cls-13" x="355.98" y="161.45" width="66.74" height="3.52"/><g><polygon class="cls-15" points="319.51 182.09 319.51 179.15 320.57 179.15 320.57 177.51 313.29 173.75 306 177.51 306 179.15 307.06 179.15 307.06 182.09 301.89 182.09 301.89 269.74 304.24 269.74 304.24 271.38 313.29 271.38 322.33 271.38 322.33 269.74 324.68 269.74 324.68 182.09 319.51 182.09"/><polygon class="cls-2" points="318.13 177.8 313.29 175.3 308.44 177.8 308.44 183.47 303.27 183.47 303.27 268.36 305.62 268.36 305.62 270 320.95 270 320.95 268.36 323.3 268.36 323.3 183.47 318.13 183.47 318.13 177.8"/></g><g><polygon class="cls-15" points="471.63 182.09 471.63 179.15 472.68 179.15 472.68 177.51 465.4 173.75 458.12 177.51 458.12 179.15 459.17 179.15 459.17 182.09 454 182.09 454 269.74 456.35 269.74 456.35 271.38 465.4 271.38 474.45 271.38 474.45 269.74 476.8 269.74 476.8 182.09 471.63 182.09"/><polygon class="cls-2" points="470.25 177.8 465.4 175.3 460.55 177.8 460.55 183.47 455.38 183.47 455.38 268.36 457.73 268.36 457.73 270 473.07 270 473.07 268.36 475.42 268.36 475.42 183.47 470.25 183.47 470.25 177.8"/></g><g><path class="cls-15" d="M389.34,166.77c-.64,0-1.22,.26-1.63,.68-.42,.42-.68,1-.68,1.63v2.7h4.62v-2.7c0-.52-.17-1.01-.47-1.39-.42-.56-1.09-.92-1.84-.92Z"/><path class="cls-15" d="M383.16,166.77c-.64,0-1.22,.26-1.63,.68-.42,.42-.68,1-.68,1.63v2.7h4.62v-2.7c0-.52-.17-1.01-.47-1.39-.42-.56-1.09-.92-1.84-.92Z"/><path class="cls-15" d="M376.81,166.77c-.64,0-1.22,.26-1.63,.68-.42,.42-.68,1-.68,1.63v2.7h4.62v-2.7c0-.52-.17-1.01-.47-1.39-.42-.56-1.09-.92-1.84-.92Z"/><path class="cls-15" d="M370.78,166.77c-.64,0-1.22,.26-1.63,.68-.42,.42-.68,1-.68,1.63v2.7h4.62v-2.7c0-.52-.17-1.01-.47-1.39-.42-.56-1.09-.92-1.84-.92Z"/><path class="cls-15" d="M364.44,166.77c-.64,0-1.22,.26-1.63,.68-.42,.42-.68,1-.68,1.63v2.7h4.62v-2.7c0-.52-.17-1.01-.47-1.39-.42-.56-1.09-.92-1.84-.92Z"/><path class="cls-15" d="M415.9,167.69c-.42-.56-1.09-.92-1.84-.92-.64,0-1.22,.26-1.63,.68-.42,.42-.68,1-.68,1.63v2.7h4.62v-2.7c0-.52-.17-1.01-.47-1.39Z"/><path class="cls-15" d="M407.71,166.77c-.64,0-1.22,.26-1.63,.68-.42,.42-.68,1-.68,1.63v2.7h4.62v-2.7c0-.52-.17-1.01-.47-1.39-.42-.56-1.09-.92-1.84-.92Z"/><path class="cls-15" d="M401.68,166.77c-.64,0-1.22,.26-1.63,.68-.42,.42-.68,1-.68,1.63v2.7h4.62v-2.7c0-.52-.17-1.01-.47-1.39-.42-.56-1.09-.92-1.84-.92Z"/><path class="cls-15" d="M395.34,166.77c-.64,0-1.22,.26-1.63,.68-.42,.42-.68,1-.68,1.63v2.7h4.62v-2.7c0-.52-.17-1.01-.47-1.39-.42-.56-1.09-.92-1.84-.92Z"/></g><g><polygon class="cls-15" points="379.47 115.08 399.21 115.08 399.21 114.06 396 112.49 396 111.63 393.03 110.3 393.03 108.03 391.3 108.03 391.3 105.52 392.24 105.52 392.24 103.64 391.07 103.64 389.34 86.88 387.62 103.64 386.45 103.64 386.45 105.52 387.39 105.52 387.39 108.03 385.66 108.03 385.66 110.3 382.69 111.63 382.69 112.49 379.47 114.06 379.47 115.08"/><polygon class="cls-16" points="389.34 86.88 389.34 115.08 399.21 115.08 399.21 114.06 396 112.49 396 111.63 393.03 110.3 393.03 108.03 391.3 108.03 391.3 105.52 392.24 105.52 392.24 103.64 391.07 103.64 389.34 86.88"/></g></g></g><g><g><path class="cls-19" d="M570.76,259.08v-80.08l1.38-1.79v-17.81h-1.38v-8.04l.81-.45v-1.8h-.61s.99-.7,1.17-4.05c.14-2.65-.99-7.5-4.69-10.82-1.04-.94-2.12-1.59-3.14-2.07h.01v-1.17l-3.46-1.45v-.9h-.76l-.56-5.26-.56,5.26h-.76v.9l-3.46,1.45v1.17h.01c-1.02,.47-2.1,1.13-3.14,2.07-3.7,3.32-4.83,8.17-4.69,10.82,.18,3.35,1.17,4.05,1.17,4.05h-.61v1.8l.81,.45v8.04h-1.38v17.81l1.38,1.79v80.08h22.48Zm-14.5-99.69v-3.88c0-1.25,1.44-1.69,1.44-1.69v-.65h.53l1.29-1.48,1.29,1.48h.53v.65s1.44,.44,1.44,1.69v3.88h-6.53Zm7.28,0v-3.88c0-1.25,1.44-1.69,1.44-1.69v-.65h.53l1.29-1.48,1.29,1.48h.53v.65s1.44,.44,1.44,1.69v3.88h-6.53Zm-14.56,0v-3.88c0-1.25,1.44-1.69,1.44-1.69v-.65h.53l1.29-1.48,1.29,1.48h.53v.65s1.44,.44,1.44,1.69v3.88h-6.53Z"/><path class="cls-13" d="M548.28,259.08h11.24v-99.69h-3.26v-3.88c0-1.25,1.44-1.69,1.44-1.69v-.65h.53l1.29-1.48v-2.78s-6.91-5.06-5.94-10.31c.97-5.26,5.94-6.44,5.94-6.44h1.33v-1.17l-1.33-1.45v-6.16l-.56,5.26h-.76v.9l-3.46,1.45v1.17h.01c-1.02,.47-2.1,1.13-3.14,2.07-3.7,3.32-4.83,8.17-4.69,10.82,.18,3.35,1.17,4.05,1.17,4.05h-.61v1.8l.81,.45v8.04h-1.38v17.81l1.38,1.79v80.08Zm.69-103.56c0-1.25,1.44-1.69,1.44-1.69v-.65h.53l1.29-1.48,1.29,1.48h.53v.65s1.44,.44,1.44,1.69v3.88h-6.53v-3.88Z"/></g><g><polygon class="cls-11" points="571.57 150.9 547.47 150.9 548.28 151.36 570.76 151.36 571.57 150.9"/><polygon class="cls-11" points="572.14 177.2 546.9 177.2 548.28 179 570.76 179 572.14 177.2"/></g><g><path class="cls-15" d="M570.07,155.52c0-1.25-1.44-1.69-1.44-1.69v-.65h-.53l-1.29-1.48-1.29,1.48h-.53v.65s-1.44,.44-1.44,1.69v3.88h-.75v-3.88c0-1.25-1.44-1.69-1.44-1.69v-.65h-.53l-1.29-1.48-1.29,1.48h-.53v.65s-1.44,.44-1.44,1.69v3.88h-.75v-3.88c0-1.25-1.44-1.69-1.44-1.69v-.65h-.53l-1.29-1.48-1.29,1.48h-.53v.65s-1.44,.44-1.44,1.69v3.88h-.69v-8.04h22.48v8.04h-.69v-3.88Z"/><path class="cls-18" d="M558.23,153.17h-.53v.65s-1.44,.44-1.44,1.69v3.88h-.75v-3.88c0-1.25-1.44-1.69-1.44-1.69v-.65h-.53l-1.29-1.48-1.29,1.48h-.53v.65s-1.44,.44-1.44,1.69v3.88h-.69v-8.04h11.24v.34h0s-1.29,1.48-1.29,1.48Z"/></g><g><polygon class="cls-11" points="548.08 149.1 570.96 149.1 571.14 148.91 547.9 148.91 548.08 149.1"/><rect class="cls-11" x="554.73" y="130.99" width="9.57" height="1.17"/><rect class="cls-11" x="558.19" y="128.64" width="2.65" height=".9"/></g><path class="cls-15" d="M557.14,193.21v-.58h.39v-.36s-1.07-.79-.85-3.1c.23-2.31,2.84-3.01,2.84-3.01,0,0,2.61,.69,2.84,3.01,.23,2.31-.85,3.1-.85,3.1v.36h.39v.58h.48v6.65h-.46v.98h-4.81v-.98h-.46v-6.65h.48Z"/></g><g><g><g><g><polygon class="cls-8" points="533.78 130.15 516.95 130.15 516.95 130.38 527.93 130.38 527.93 155.04 533.78 155.04 533.78 130.15"/><g><polygon class="cls-5" points="522.44 130.38 516.95 130.38 516.95 155.04 527.93 155.04 527.93 154.92 522.44 154.92 522.44 130.38"/><rect class="cls-6" x="522.44" y="130.38" width="5.49" height="24.54"/></g></g><g><g><rect class="cls-7" x="520.87" y="132.34" width=".9" height="20.97"/><rect class="cls-7" x="525.87" y="132.34" width=".9" height="20.97"/><rect class="cls-7" x="530.86" y="132.34" width=".9" height="20.97"/><rect class="cls-12" x="518.97" y="132.34" width="1.91" height="20.97"/><rect class="cls-12" x="523.96" y="132.34" width="1.91" height="20.97"/><rect class="cls-12" x="528.96" y="132.34" width="1.91" height="20.97"/></g><g><rect class="cls-7" x="516.95" y="154.23" width="16.83" height=".81"/><rect class="cls-7" x="516.95" y="130.15" width="16.83" height=".91"/></g></g></g><g><path class="cls-8" d="M539.32,117.1c-4.88-8.54-10.23-6.95-13.96-15.97-.97,2.35-2.05,3.97-3.2,5.25,3.28,3.63,7.15,4.41,10.76,10.73,3.07,5.38,.07,9.16-2.57,11.22h.65v1.83h6.4v-1.83h-.65c2.64-2.06,5.64-5.84,2.57-11.22Z"/><g><path class="cls-5" d="M518.58,128.32c-2.64-2.06-5.64-5.84-2.57-11.22,2.8-4.89,5.75-6.46,8.46-8.61-.79-.63-1.56-1.3-2.3-2.12-3.28,3.63-7.15,4.41-10.76,10.73-3.07,5.38-.07,9.16,2.57,11.22h-.65v1.83h4.6v-1.83h.65Z"/><path class="cls-6" d="M530.36,128.32c2.64-2.06,5.64-5.84,2.57-11.22-2.8-4.89-5.75-6.46-8.46-8.61-2.71,2.15-5.66,3.72-8.46,8.61-3.07,5.38-.07,9.16,2.57,11.22h-.65v1.83h13.09v-1.83h-.65Z"/></g></g></g><g><g><rect class="cls-8" x="530.25" y="155.04" width="6.4" height="102.38"/><g><rect class="cls-5" x="514.08" y="155.04" width="6.79" height="102.38"/><rect class="cls-6" x="520.87" y="155.04" width="9.38" height="102.38"/></g></g><g><g><g><rect class="cls-5" x="512.44" y="154.92" width="8.41" height="3.03"/><g><rect class="cls-8" x="530.25" y="154.92" width="8.04" height="3.03"/><rect class="cls-6" x="520.85" y="154.92" width="9.4" height="3.03"/></g></g><g><rect class="cls-5" x="512.44" y="199.49" width="8.41" height="3.03"/><g><rect class="cls-8" x="530.25" y="199.49" width="8.04" height="3.03"/><rect class="cls-6" x="520.85" y="199.49" width="9.4" height="3.03"/></g></g><g><rect class="cls-5" x="512.44" y="244.06" width="8.41" height="3.03"/><g><rect class="cls-8" x="530.25" y="244.06" width="8.04" height="3.03"/><rect class="cls-6" x="520.85" y="244.06" width="9.4" height="3.03"/></g></g></g><g><rect class="cls-7" x="514.08" y="157.95" width="22.57" height="1.1"/><rect class="cls-7" x="514.08" y="202.52" width="22.57" height="1.1"/><rect class="cls-7" x="514.08" y="247.08" width="22.57" height="1.1"/></g></g></g></g><g><g><g><g><polygon class="cls-8" points="261.74 130.15 244.91 130.15 244.91 130.38 255.88 130.38 255.88 155.04 261.74 155.04 261.74 130.15"/><g><polygon class="cls-5" points="250.4 130.38 244.91 130.38 244.91 155.04 255.88 155.04 255.88 154.92 250.4 154.92 250.4 130.38"/><rect class="cls-6" x="250.4" y="130.38" width="5.49" height="24.54"/></g></g><g><g><rect class="cls-7" x="248.83" y="132.34" width=".9" height="20.97"/><rect class="cls-7" x="253.83" y="132.34" width=".9" height="20.97"/><rect class="cls-7" x="258.82" y="132.34" width=".9" height="20.97"/><rect class="cls-12" x="246.93" y="132.34" width="1.91" height="20.97"/><rect class="cls-12" x="251.92" y="132.34" width="1.91" height="20.97"/><rect class="cls-12" x="256.91" y="132.34" width="1.91" height="20.97"/></g><g><rect class="cls-7" x="244.91" y="154.23" width="16.83" height=".81"/><rect class="cls-7" x="244.91" y="130.15" width="16.83" height=".91"/></g></g></g><g><path class="cls-8" d="M267.28,117.1c-4.88-8.54-10.23-6.95-13.96-15.97-.97,2.35-2.05,3.97-3.2,5.25,3.28,3.63,7.15,4.41,10.76,10.73,3.07,5.38,.07,9.16-2.57,11.22h.65v1.83h6.4v-1.83h-.65c2.64-2.06,5.64-5.84,2.57-11.22Z"/><g><path class="cls-5" d="M246.53,128.32c-2.64-2.06-5.64-5.84-2.57-11.22,2.8-4.89,5.75-6.46,8.46-8.61-.79-.63-1.56-1.3-2.3-2.12-3.28,3.63-7.15,4.41-10.76,10.73-3.07,5.38-.07,9.16,2.57,11.22h-.65v1.83h4.6v-1.83h.65Z"/><path class="cls-6" d="M258.32,128.32c2.64-2.06,5.64-5.84,2.57-11.22-2.8-4.89-5.75-6.46-8.46-8.61-2.71,2.15-5.66,3.72-8.46,8.61-3.07,5.38-.07,9.16,2.57,11.22h-.65v1.83h13.09v-1.83h-.65Z"/></g></g></g><g><g><rect class="cls-8" x="258.21" y="155.04" width="6.4" height="102.38"/><g><rect class="cls-5" x="242.04" y="155.04" width="6.79" height="102.38"/><rect class="cls-6" x="248.83" y="155.04" width="9.38" height="102.38"/></g></g><g><g><g><rect class="cls-5" x="240.4" y="154.92" width="8.41" height="3.03"/><g><rect class="cls-8" x="258.21" y="154.92" width="8.04" height="3.03"/><rect class="cls-6" x="248.81" y="154.92" width="9.4" height="3.03"/></g></g><g><rect class="cls-5" x="240.4" y="199.49" width="8.41" height="3.03"/><g><rect class="cls-8" x="258.21" y="199.49" width="8.04" height="3.03"/><rect class="cls-6" x="248.81" y="199.49" width="9.4" height="3.03"/></g></g><g><rect class="cls-5" x="240.4" y="244.06" width="8.41" height="3.03"/><g><rect class="cls-8" x="258.21" y="244.06" width="8.04" height="3.03"/><rect class="cls-6" x="248.81" y="244.06" width="9.4" height="3.03"/></g></g></g><g><rect class="cls-7" x="242.04" y="157.95" width="22.57" height="1.1"/><rect class="cls-7" x="242.04" y="202.52" width="22.57" height="1.1"/><rect class="cls-7" x="242.04" y="247.08" width="22.57" height="1.1"/></g></g></g></g><g><g><path class="cls-19" d="M230.41,259.08v-80.08l1.38-1.79v-17.81h-1.38v-8.04l.81-.45v-1.8h-.61s.99-.7,1.17-4.05c.14-2.65-.99-7.5-4.69-10.82-1.04-.94-2.12-1.59-3.14-2.07h.01v-1.17l-3.46-1.45v-.9h-.76l-.56-5.26-.56,5.26h-.76v.9l-3.46,1.45v1.17h.01c-1.02,.47-2.1,1.13-3.14,2.07-3.7,3.32-4.83,8.17-4.69,10.82,.18,3.35,1.17,4.05,1.17,4.05h-.61v1.8l.81,.45v8.04h-1.38v17.81l1.38,1.79v80.08h22.48Zm-14.5-99.69v-3.88c0-1.25,1.44-1.69,1.44-1.69v-.65h.53l1.29-1.48,1.29,1.48h.53v.65s1.44,.44,1.44,1.69v3.88h-6.53Zm7.28,0v-3.88c0-1.25,1.44-1.69,1.44-1.69v-.65h.53l1.29-1.48,1.29,1.48h.53v.65s1.44,.44,1.44,1.69v3.88h-6.53Zm-14.56,0v-3.88c0-1.25,1.44-1.69,1.44-1.69v-.65h.53l1.29-1.48,1.29,1.48h.53v.65s1.44,.44,1.44,1.69v3.88h-6.53Z"/><path class="cls-13" d="M207.93,259.08h11.24v-99.69h-3.26v-3.88c0-1.25,1.44-1.69,1.44-1.69v-.65h.53l1.29-1.48v-2.78s-6.91-5.06-5.94-10.31c.97-5.26,5.94-6.44,5.94-6.44h1.33v-1.17l-1.33-1.45v-6.16l-.56,5.26h-.76v.9l-3.46,1.45v1.17h.01c-1.02,.47-2.1,1.13-3.14,2.07-3.7,3.32-4.83,8.17-4.69,10.82,.18,3.35,1.17,4.05,1.17,4.05h-.61v1.8l.81,.45v8.04h-1.38v17.81l1.38,1.79v80.08Zm.69-103.56c0-1.25,1.44-1.69,1.44-1.69v-.65h.53l1.29-1.48,1.29,1.48h.53v.65s1.44,.44,1.44,1.69v3.88h-6.53v-3.88Z"/></g><g><polygon class="cls-11" points="231.22 150.9 207.12 150.9 207.93 151.36 230.41 151.36 231.22 150.9"/><polygon class="cls-11" points="231.78 177.2 206.55 177.2 207.93 179 230.41 179 231.78 177.2"/></g><g><path class="cls-15" d="M229.71,155.52c0-1.25-1.44-1.69-1.44-1.69v-.65h-.53l-1.29-1.48-1.29,1.48h-.53v.65s-1.44,.44-1.44,1.69v3.88h-.75v-3.88c0-1.25-1.44-1.69-1.44-1.69v-.65h-.53l-1.29-1.48-1.29,1.48h-.53v.65s-1.44,.44-1.44,1.69v3.88h-.75v-3.88c0-1.25-1.44-1.69-1.44-1.69v-.65h-.53l-1.29-1.48-1.29,1.48h-.53v.65s-1.44,.44-1.44,1.69v3.88h-.69v-8.04h22.48v8.04h-.69v-3.88Z"/><path class="cls-18" d="M217.87,153.17h-.53v.65s-1.44,.44-1.44,1.69v3.88h-.75v-3.88c0-1.25-1.44-1.69-1.44-1.69v-.65h-.53l-1.29-1.48-1.29,1.48h-.53v.65s-1.44,.44-1.44,1.69v3.88h-.69v-8.04h11.24v.34h0s-1.29,1.48-1.29,1.48Z"/></g><g><polygon class="cls-11" points="207.73 149.1 230.6 149.1 230.79 148.91 207.55 148.91 207.73 149.1"/><rect class="cls-11" x="214.38" y="130.99" width="9.57" height="1.17"/><rect class="cls-11" x="217.84" y="128.64" width="2.65" height=".9"/></g><path class="cls-15" d="M216.78,193.21v-.58h.39v-.36s-1.07-.79-.85-3.1c.23-2.31,2.84-3.01,2.84-3.01,0,0,2.61,.69,2.84,3.01,.23,2.31-.85,3.1-.85,3.1v.36h.39v.58h.48v6.65h-.46v.98h-4.81v-.98h-.46v-6.65h.48Z"/></g><g><g><path class="cls-19" d="M195.21,256.05v-64.93l1.12-1.46v-14.44h-1.12v-6.52l.66-.37v-1.46h-.5s.8-.57,.95-3.29c.11-2.15-.8-6.08-3.8-8.78-.84-.76-1.72-1.29-2.55-1.68h0v-.95l-2.81-1.18v-.73h-.62l-.46-4.26-.46,4.26h-.62v.73l-2.81,1.18v.95h0c-.83,.38-1.7,.92-2.55,1.68-3,2.69-3.91,6.62-3.8,8.78,.14,2.72,.95,3.29,.95,3.29h-.5v1.46l.66,.37v6.52h-1.12v14.44l1.12,1.46v64.93h18.23Zm-11.76-80.83v-3.14c0-1.01,1.17-1.37,1.17-1.37v-.53h.43l1.05-1.2,1.05,1.2h.43v.53s1.17,.36,1.17,1.37v3.14h-5.29Zm5.9,0v-3.14c0-1.01,1.17-1.37,1.17-1.37v-.53h.43l1.05-1.2,1.05,1.2h.43v.53s1.17,.36,1.17,1.37v3.14h-5.29Zm-11.81,0v-3.14c0-1.01,1.17-1.37,1.17-1.37v-.53h.43l1.05-1.2,1.05,1.2h.43v.53s1.17,.36,1.17,1.37v3.14h-5.29Z"/><path class="cls-13" d="M176.98,256.05h9.11v-80.83h-2.65v-3.14c0-1.01,1.17-1.37,1.17-1.37v-.53h.43l1.05-1.2v-2.26s-5.6-4.1-4.82-8.36c.79-4.26,4.82-5.22,4.82-5.22h1.08v-.95l-1.08-1.18v-4.99l-.46,4.26h-.62v.73l-2.81,1.18v.95h0c-.83,.38-1.7,.92-2.55,1.68-3,2.69-3.91,6.62-3.8,8.78,.14,2.72,.95,3.29,.95,3.29h-.5v1.46l.66,.37v6.52h-1.12v14.44l1.12,1.46v64.93Zm.56-83.97c0-1.01,1.17-1.37,1.17-1.37v-.53h.43l1.05-1.2,1.05,1.2h.43v.53s1.17,.36,1.17,1.37v3.14h-5.29v-3.14Z"/></g><g><polygon class="cls-11" points="195.87 168.33 176.32 168.33 176.98 168.7 195.21 168.7 195.87 168.33"/><polygon class="cls-11" points="196.33 189.66 175.87 189.66 176.98 191.12 195.21 191.12 196.33 189.66"/></g><g><path class="cls-15" d="M194.65,172.08c0-1.01-1.17-1.37-1.17-1.37v-.53h-.43l-1.05-1.2-1.05,1.2h-.43v.53s-1.17,.36-1.17,1.37v3.14h-.61v-3.14c0-1.01-1.17-1.37-1.17-1.37v-.53h-.43l-1.05-1.2-1.05,1.2h-.43v.53s-1.17,.36-1.17,1.37v3.14h-.61v-3.14c0-1.01-1.17-1.37-1.17-1.37v-.53h-.43l-1.05-1.2-1.05,1.2h-.43v.53s-1.17,.36-1.17,1.37v3.14h-.56v-6.52h18.23v6.52h-.56v-3.14Z"/><path class="cls-18" d="M185.05,170.18h-.43v.53s-1.17,.36-1.17,1.37v3.14h-.61v-3.14c0-1.01-1.17-1.37-1.17-1.37v-.53h-.43l-1.05-1.2-1.05,1.2h-.43v.53s-1.17,.36-1.17,1.37v3.14h-.56v-6.52h9.11v.27h0s-1.05,1.2-1.05,1.2Z"/></g><g><polygon class="cls-11" points="176.82 166.88 195.37 166.88 195.52 166.72 176.67 166.72 176.82 166.88"/><rect class="cls-11" x="182.21" y="152.19" width="7.76" height=".95"/><rect class="cls-11" x="185.02" y="150.28" width="2.15" height=".73"/></g><path class="cls-15" d="M184.16,202.64v-.47h.32v-.29s-.87-.64-.69-2.51c.18-1.87,2.3-2.44,2.3-2.44,0,0,2.12,.56,2.3,2.44,.18,1.87-.69,2.51-.69,2.51v.29h.32v.47h.39v5.39h-.38v.79h-3.9v-.79h-.38v-5.39h.39Z"/></g><g><g><path class="cls-19" d="M601.71,256.05v-64.93l1.12-1.46v-14.44h-1.12v-6.52l.66-.37v-1.46h-.5s.8-.57,.95-3.29c.11-2.15-.8-6.08-3.8-8.78-.84-.76-1.72-1.29-2.55-1.68h0v-.95l-2.81-1.18v-.73h-.62l-.46-4.26-.46,4.26h-.62v.73l-2.81,1.18v.95h0c-.83,.38-1.7,.92-2.55,1.68-3,2.69-3.91,6.62-3.8,8.78,.14,2.72,.95,3.29,.95,3.29h-.5v1.46l.66,.37v6.52h-1.12v14.44l1.12,1.46v64.93h18.23Zm-11.76-80.83v-3.14c0-1.01,1.17-1.37,1.17-1.37v-.53h.43l1.05-1.2,1.05,1.2h.43v.53s1.17,.36,1.17,1.37v3.14h-5.29Zm5.9,0v-3.14c0-1.01,1.17-1.37,1.17-1.37v-.53h.43l1.05-1.2,1.05,1.2h.43v.53s1.17,.36,1.17,1.37v3.14h-5.29Zm-11.81,0v-3.14c0-1.01,1.17-1.37,1.17-1.37v-.53h.43l1.05-1.2,1.05,1.2h.43v.53s1.17,.36,1.17,1.37v3.14h-5.29Z"/><path class="cls-13" d="M583.48,256.05h9.11v-80.83h-2.65v-3.14c0-1.01,1.17-1.37,1.17-1.37v-.53h.43l1.05-1.2v-2.26s-5.6-4.1-4.82-8.36c.79-4.26,4.82-5.22,4.82-5.22h1.08v-.95l-1.08-1.18v-4.99l-.46,4.26h-.62v.73l-2.81,1.18v.95h0c-.83,.38-1.7,.92-2.55,1.68-3,2.69-3.91,6.62-3.8,8.78,.14,2.72,.95,3.29,.95,3.29h-.5v1.46l.66,.37v6.52h-1.12v14.44l1.12,1.46v64.93Zm.56-83.97c0-1.01,1.17-1.37,1.17-1.37v-.53h.43l1.05-1.2,1.05,1.2h.43v.53s1.17,.36,1.17,1.37v3.14h-5.29v-3.14Z"/></g><g><polygon class="cls-11" points="602.36 168.33 582.82 168.33 583.48 168.7 601.71 168.7 602.36 168.33"/><polygon class="cls-11" points="602.82 189.66 582.36 189.66 583.48 191.12 601.71 191.12 602.82 189.66"/></g><g><path class="cls-15" d="M601.14,172.08c0-1.01-1.17-1.37-1.17-1.37v-.53h-.43l-1.05-1.2-1.05,1.2h-.43v.53s-1.17,.36-1.17,1.37v3.14h-.61v-3.14c0-1.01-1.17-1.37-1.17-1.37v-.53h-.43l-1.05-1.2-1.05,1.2h-.43v.53s-1.17,.36-1.17,1.37v3.14h-.61v-3.14c0-1.01-1.17-1.37-1.17-1.37v-.53h-.43l-1.05-1.2-1.05,1.2h-.43v.53s-1.17,.36-1.17,1.37v3.14h-.56v-6.52h18.23v6.52h-.56v-3.14Z"/><path class="cls-18" d="M591.54,170.18h-.43v.53s-1.17,.36-1.17,1.37v3.14h-.61v-3.14c0-1.01-1.17-1.37-1.17-1.37v-.53h-.43l-1.05-1.2-1.05,1.2h-.43v.53s-1.17,.36-1.17,1.37v3.14h-.56v-6.52h9.11v.27h0s-1.05,1.2-1.05,1.2Z"/></g><g><polygon class="cls-11" points="583.32 166.88 601.87 166.88 602.01 166.72 583.17 166.72 583.32 166.88"/><rect class="cls-11" x="588.71" y="152.19" width="7.76" height=".95"/><rect class="cls-11" x="591.52" y="150.28" width="2.15" height=".73"/></g><path class="cls-15" d="M590.66,202.64v-.47h.32v-.29s-.87-.64-.69-2.51c.18-1.87,2.3-2.44,2.3-2.44,0,0,2.12,.56,2.3,2.44,.18,1.87-.69,2.51-.69,2.51v.29h.32v.47h.39v5.39h-.38v.79h-3.9v-.79h-.38v-5.39h.39Z"/></g></g></g></g></svg>