<?xml version="1.0" encoding="UTF-8"?><svg id="Laag_2" xmlns="http://www.w3.org/2000/svg" viewBox="0 0 64 64"><defs><style>.cls-1{fill:none;}.cls-2{fill:#ed6a5a;}</style></defs><g id="Laag_1-2"><g><rect class="cls-1" x="0" width="64" height="64"/><path class="cls-2" d="M63.63,47.06l-14.68-25.46-4.07-7.03c-.63-1.11-1.81-1.8-3.08-1.81h0c-1.29,0-2.49,.68-3.13,1.81h0l-4.11,7.01-6.54,11.3-3.39-5.78-3.16-5.63h0c-.99-1.73-3.2-2.33-4.93-1.33-.56,.32-1.02,.78-1.33,1.33l-3.26,5.65L.37,47.06c-.77,1.34-.31,3.04,1.03,3.81,.42,.24,.9,.37,1.39,.37H61.21c1.54,0,2.79-1.25,2.79-2.79,0-.49-.13-.97-.37-1.39ZM14.82,26.56l2.26-3.95c.37-.65,1.19-.88,1.85-.51,.21,.12,.39,.3,.51,.51l2.26,3.95h-6.88Zm22.67-5.54l3.07-5.32c.37-.65,1.19-.88,1.85-.51,.21,.12,.39,.3,.51,.51l3.07,5.32h-8.51Z"/></g></g></svg>