<?xml version="1.0" encoding="UTF-8"?><svg id="Laag_2" xmlns="http://www.w3.org/2000/svg" viewBox="0 0 64 64"><defs><style>.cls-1{fill:none;}.cls-2{fill:#ed6a5a;}</style></defs><g id="Laag_1-2"><g><rect class="cls-1" x="0" width="64" height="64"/><path class="cls-2" d="M61.12,22.57c-2.01-1.71-4.74-2.32-7.29-1.63h0l-4.5,1.19c-1.67-1.08-3.56-1.77-5.53-2l-.84-1.68c-.88-1.79-2.68-2.95-4.68-3.01,.76-1.86-.12-3.98-1.98-4.74-1.86-.76-3.98,.12-4.74,1.98-.36,.89-.36,1.88,0,2.76-2,.06-3.8,1.22-4.68,3.01l-.87,1.74c-5.37,.8-9.66,4.89-10.72,10.21-2.73-.43-3.9-2.98-5.4-6.96-1.26-3.34-2.57-6.8-5.78-8.3-.4-.19-.86-.13-1.2,.15L.41,17.37c-.48,.4-.55,1.11-.15,1.59,.01,.02,.03,.03,.04,.05,1.67,1.79,2.21,5.15,2.78,8.7,1.09,6.78,2.44,15.18,12.98,15.44,1.48,2.67,3.86,4.74,6.72,5.83l-1.04,3.12c-.11,.34-.06,.72,.15,1.02,.21,.29,.55,.47,.92,.47h23.35c.36,0,.71-.17,.92-.47,.21-.29,.27-.67,.15-1.02l-.91-2.74c2.91-.81,5.44-2.63,7.15-5.12l.75,.09c4.45,.55,8.51-2.6,9.06-7.05,.01-.11,.02-.21,.03-.32l.63-7.49c.25-2.63-.82-5.22-2.85-6.91Zm-3.8,6.47l-.54,7c-.09,1.19-1.07,2.11-2.26,2.13-.56-5.19-1.69-8.55-2.42-10.26l3.1-.7c.94-.22,1.88,.37,2.09,1.31,.04,.17,.05,.35,.04,.53h-.01ZM34.92,12.69c.76,0,1.38,.61,1.38,1.37s-.61,1.38-1.37,1.38c-.76,0-1.38-.61-1.38-1.37,0,0,0,0,0,0,0-.76,.61-1.37,1.37-1.37Zm-6.03,6.78c.54-1.08,1.64-1.76,2.84-1.75h6.36c1.21,0,2.31,.68,2.85,1.75l.08,.16h-12.2l.07-.16Zm15.22,30.37l.5,1.51H24.39l.5-1.51h19.22Z"/></g></g></svg>