<svg width="19" height="19" viewBox="0 0 19 19" fill="none" xmlns="http://www.w3.org/2000/svg">
<path d="M16.9805 0.990163C16.9432 0.99134 16.906 0.994601 16.8691 0.999928H12C11.8675 0.998054 11.7359 1.02254 11.613 1.07195C11.49 1.12136 11.3781 1.19472 11.2837 1.28777C11.1893 1.38081 11.1144 1.49169 11.0632 1.61394C11.0121 1.7362 10.9858 1.8674 10.9858 1.99993C10.9858 2.13245 11.0121 2.26366 11.0632 2.38591C11.1144 2.50817 11.1893 2.61904 11.2837 2.71209C11.3781 2.80513 11.49 2.87849 11.613 2.92791C11.7359 2.97732 11.8675 3.0018 12 2.99993H14.5859L5.29297 12.2929C5.197 12.385 5.12037 12.4954 5.06759 12.6175C5.0148 12.7397 4.98692 12.8711 4.98556 13.0041C4.98421 13.1372 5.00942 13.2692 5.0597 13.3923C5.10999 13.5155 5.18436 13.6274 5.27843 13.7215C5.37251 13.8156 5.48442 13.8899 5.6076 13.9402C5.73077 13.9905 5.86275 14.0157 5.99579 14.0144C6.12883 14.013 6.26026 13.9851 6.38239 13.9323C6.50452 13.8796 6.61489 13.8029 6.70703 13.707L16 4.41399V6.99993C15.9981 7.13244 16.0226 7.264 16.072 7.38697C16.1214 7.50994 16.1948 7.62186 16.2878 7.71623C16.3809 7.8106 16.4918 7.88554 16.614 7.93668C16.7363 7.98783 16.8675 8.01417 17 8.01417C17.1325 8.01417 17.2637 7.98783 17.386 7.93668C17.5082 7.88554 17.6191 7.8106 17.7122 7.71623C17.8052 7.62186 17.8786 7.50994 17.928 7.38697C17.9774 7.264 18.0019 7.13244 18 6.99993V2.12688C18.0199 1.98291 18.0082 1.83632 17.9657 1.69733C17.9232 1.55834 17.8509 1.43029 17.7538 1.32209C17.6568 1.21389 17.5373 1.12814 17.4038 1.07081C17.2702 1.01349 17.1258 0.985968 16.9805 0.990163ZM2 0.999928C0.906937 0.999928 0 1.90687 0 2.99993V16.9999C0 18.093 0.906937 18.9999 2 18.9999H16C17.0931 18.9999 18 18.093 18 16.9999V10.9999C18.0019 10.8674 17.9774 10.7359 17.928 10.6129C17.8786 10.4899 17.8052 10.378 17.7122 10.2836C17.6191 10.1893 17.5082 10.1143 17.386 10.0632C17.2637 10.012 17.1325 9.98569 17 9.98569C16.8675 9.98569 16.7363 10.012 16.614 10.0632C16.4918 10.1143 16.3809 10.1893 16.2878 10.2836C16.1948 10.378 16.1214 10.4899 16.072 10.6129C16.0226 10.7359 15.9981 10.8674 16 10.9999V16.9999H2V2.99993H8C8.13251 3.0018 8.26407 2.97732 8.38704 2.92791C8.51001 2.87849 8.62193 2.80513 8.7163 2.71209C8.81067 2.61904 8.88561 2.50817 8.93676 2.38591C8.9879 2.26366 9.01424 2.13245 9.01424 1.99993C9.01424 1.8674 8.9879 1.7362 8.93676 1.61394C8.88561 1.49169 8.81067 1.38081 8.7163 1.28777C8.62193 1.19472 8.51001 1.12136 8.38704 1.07195C8.26407 1.02254 8.13251 0.998054 8 0.999928H2Z" fill="#252525"/>
</svg>
