<?xml version="1.0" encoding="UTF-8"?><svg id="Laag_2" xmlns="http://www.w3.org/2000/svg" viewBox="0 0 64 64"><defs><style>.cls-1{fill:none;}.cls-2{fill:#ed6a5a;}</style></defs><g id="Capa_1"><g><rect class="cls-1" y="0" width="64" height="64"/><path class="cls-2" d="M61.55,39.95h-.54l-6.06-18.29c.56-.17,1.1-.4,1.61-.7l.17-.08c.58-.34,.76-1.08,.42-1.66-.34-.57-1.07-.77-1.65-.44l-.16,.1c-.38,.21-.79,.38-1.21,.5l-.3-.9c-.17-.52-.67-.85-1.21-.82-.52,0-.97,.33-1.14,.82l-.33,.97c-.39-.09-.76-.22-1.11-.39l-.65-.33c-.17-.08-.35-.12-.53-.12h-12.66v-5.97h3.54c.67,0,1.21-.54,1.21-1.21s-.54-1.21-1.21-1.21h-2.82c2.16-2.72,1.71-6.68-1.01-8.85-2.72-2.16-6.68-1.71-8.85,1.01-1.82,2.29-1.82,5.54,0,7.84h-2.83c-.67,0-1.21,.54-1.21,1.21s.54,1.21,1.21,1.21h3.54v5.97H15.06c-.18,0-.37,.05-.53,.12l-.64,.33c-.36,.17-.73,.3-1.11,.39l-.33-.97c-.21-.64-.89-.98-1.53-.77-.37,.12-.65,.41-.77,.77l-.3,.96c-.42-.12-.83-.29-1.21-.5l-.15-.16c-.56-.36-1.31-.19-1.67,.37-.36,.56-.19,1.31,.37,1.67,.03,.02,.06,.04,.09,.05l.16,.1c.51,.28,1.05,.51,1.61,.69L2.98,39.95h-.56c-.67,0-1.21,.54-1.21,1.21v2.28c0,2.74,2.22,4.95,4.95,4.95h10.25c2.73,0,4.95-2.22,4.95-4.95v-2.28c0-.67-.54-1.21-1.21-1.21h-.54l-6.06-18.17c.48-.12,.96-.3,1.4-.52l.4-.19h12.43v30.39h-1.14c-2.45,0-4.43,1.98-4.43,4.43v.21h-.7c-3.24,0-5.87,2.63-5.87,5.87v.82c0,.67,.54,1.21,1.21,1.21h30.24c.67,0,1.21-.54,1.21-1.21v-.82c0-3.25-2.65-5.88-5.9-5.87,0,0,0,0-.01,0h-.7v-.21c0-2.45-1.98-4.43-4.43-4.43h-1.09V21.03h12.47l.4,.19c.45,.22,.92,.39,1.4,.52l-6.06,18.17h-.54c-.67,0-1.21,.54-1.21,1.21v2.28c0,2.73,2.22,4.95,4.95,4.95h10.26c2.73,0,4.94-2.22,4.94-4.95v-2.24c0-.67-.54-1.21-1.21-1.21,0,0-.02,0-.02,0Zm-56.02,0l5.76-17.27,5.76,17.27H5.53ZM52.68,22.68l5.78,17.27h-11.54l5.76-17.27Z"/></g></g></svg>