<?xml version="1.0" encoding="UTF-8"?><svg id="Laag_2" xmlns="http://www.w3.org/2000/svg" viewBox="0 0 64 64"><defs><style>.cls-1{fill:none;}.cls-2{fill:#ed6a5a;}</style></defs><g id="Laag_1-2"><g><path class="cls-2" d="M44.83,46.63c-.94-.85-1.5-2.03-1.57-3.3-.04-1.24,.24-2.47,.8-3.57,.61-1.2,.92-2.52,.9-3.86,0-2.68-1.04-5.39-3.35-5.39-1.94,0-2.41,1.83-2.71,3.04-.42,1.63-.65,2.07-1.55,2.07-.24,0-.49-.03-.72-.1V2.7C36.66,1.24,35.49,.03,34.03,0c-1.05-.02-2.02,.59-2.46,1.54l-3.39,7.25c-.37,.79-.32,1.7,.12,2.45l.47,.82V31.93c-.23,.27-.57,.41-.93,.39-1.06,0-1.36-.72-1.77-2.89-.28-1.5-.65-3.55-2.63-3.55-2.9,0-3.67,4.46-3.67,6.82,.02,1.73,.44,3.43,1.21,4.97,.74,1.43,1.13,3.02,1.16,4.63-.11,1.44-.69,2.81-1.65,3.89-1.52,1.83-2.37,4.12-2.42,6.5,0,7.18,5.32,11.31,14.61,11.31s14.61-4.22,14.61-11.31c0-2.27-.88-4.45-2.48-6.06ZM31.09,12.92h3.19v23.91h-3.19V12.92Zm5.51,36.19h-7.85c-.64,0-1.16-.52-1.16-1.16s.52-1.16,1.16-1.16h7.85c.64,0,1.16,.52,1.16,1.16s-.52,1.16-1.16,1.16Zm0-4.74h-7.85c-.64,0-1.16-.52-1.16-1.16s.52-1.16,1.16-1.16h7.85c.64,0,1.16,.52,1.16,1.16s-.52,1.16-1.16,1.16Z"/><rect class="cls-1" width="64" height="64"/></g></g></svg>