<svg width="64" height="64" viewBox="0 0 64 64" fill="none" xmlns="http://www.w3.org/2000/svg">
<path d="M32 56L30.7505 54.701C30.4697 54.4091 30.1978 54.112 29.9348 53.8247C29.4906 53.3393 29.0711 52.8808 28.6325 52.4691C27.9409 51.8198 27.0679 51.2463 25.9637 50.716C25.4288 50.4588 24.8856 50.2155 24.3105 49.9578L24.3012 49.9537C23.47 49.5811 22.6104 49.1958 21.7375 48.7518C19.5624 47.6448 17.8287 46.3533 16.4367 44.803C15.426 43.6772 14.5895 42.4125 13.9504 41.0439C13.3045 39.6607 12.8749 38.202 12.6735 36.7085C12.599 36.1547 12.5528 35.563 12.5322 34.8991L12.5313 34.8715V34.8439L12.5468 16.4088L14.1109 16.2562C20.4948 15.6333 26.4337 13.0798 30.8335 9.06603L32.0021 8L33.1706 9.06616C37.5691 13.0794 43.5065 15.6328 49.8891 16.2559L51.4531 16.4086L51.4686 34.8716L51.4678 34.8992C51.4472 35.563 51.401 36.1547 51.3266 36.7079C51.1251 38.202 50.6954 39.6607 50.0495 41.044C49.4105 42.4125 48.5739 43.6772 47.5632 44.803C46.1713 46.3533 44.4375 47.6448 42.2627 48.7516C41.3893 49.1959 40.5296 49.5812 39.6981 49.9539L39.6898 49.9576C39.1143 50.2154 38.5711 50.4588 38.0368 50.7157C36.9321 51.2463 36.0591 51.8198 35.3674 52.4691C34.9289 52.8807 34.5094 53.3392 34.0652 53.8245C33.8022 54.1119 33.5303 54.409 33.2495 54.7009L32 56Z" fill="#FCDF97"/>
<path d="M32 48.1722C30.9717 47.2756 29.7635 46.4989 28.3218 45.8065C27.7229 45.5186 27.1476 45.2608 26.5385 44.9879L26.5314 44.9848C25.7204 44.6213 24.9594 44.2801 24.2069 43.8973C22.6414 43.1006 21.4251 42.2064 20.4893 41.1643C19.8372 40.4378 19.2975 39.622 18.8853 38.7395C18.4728 37.8559 18.1988 36.9277 18.0711 35.9807C18.0239 35.63 17.9933 35.2381 17.9779 34.7864L17.9893 21.193C23.1441 20.2028 27.9631 18.1221 32.0018 15.143C36.0393 18.1215 40.8571 20.2022 46.0106 21.1925L46.0221 34.7858C46.0067 35.2376 45.9761 35.6294 45.9287 35.982C45.8012 36.9275 45.5272 37.8559 45.1145 38.7396C44.7025 39.6221 44.1628 40.4378 43.5106 41.1643C42.5749 42.2065 41.3587 43.1006 39.7924 43.8977C39.039 44.2808 38.2771 44.6224 37.4704 44.9839L37.4552 44.9907C36.8482 45.2627 36.2748 45.5197 35.6772 45.8069C34.2365 46.4989 33.0283 47.2756 32 48.1722Z" fill="#FFCE54"/>
<path d="M32 38.7581C36.0887 38.7581 39.4032 35.4436 39.4032 31.3548C39.4032 27.2661 36.0887 23.9516 32 23.9516C27.9113 23.9516 24.5967 27.2661 24.5967 31.3548C24.5967 35.4436 27.9113 38.7581 32 38.7581Z" fill="#F3F6FF"/>
<path d="M30.9782 34.6474C30.5965 34.6474 30.2148 34.5018 29.9236 34.2106L28.3649 32.6519C27.7825 32.0694 27.7825 31.1252 28.3649 30.5427C28.9474 29.9602 29.8917 29.9602 30.4742 30.5427L30.9782 31.0468L33.5259 28.4991C34.1083 27.9166 35.0526 27.9166 35.6351 28.4991C36.2175 29.0816 36.2175 30.0259 35.6351 30.6083L32.0328 34.2106C31.7416 34.5018 31.3599 34.6474 30.9782 34.6474Z" fill="#8F7CFF"/>
</svg>
