<?xml version="1.0" encoding="UTF-8"?><svg id="Laag_2" xmlns="http://www.w3.org/2000/svg" viewBox="0 0 64 64"><defs><style>.cls-1{fill:none;}.cls-2{fill:#ed6a5a;}</style></defs><g id="Laag_1-2"><g><rect class="cls-1" width="64" height="64"/><path class="cls-2" d="M53.76,35.89c-1.02-.84-2.11-1.61-3.25-2.29,2.42-1.81,5.65-4.65,5.38-8.23-.29-3.94-5.74-7.05-9.92-8.86,2.86-2.66,4.68-5.92,4.02-8.84-.44-1.94-1.98-3.67-4.48-5.02C42.61,1.06,38.23,0,33.56,0c-3.3-.02-6.57,.53-9.67,1.64-2.47,.91-10.53,4.27-10.44,9.28,.04,1.39,.72,2.88,1.95,4.3-4.82,1.62-7.89,4.15-8.74,7.24-1.44,5.32,3.94,10.84,6.45,13.05-1.34,.74-2.64,1.56-3.89,2.45-2.96,2.12-8.47,6.05-8.08,11.15,.51,7,11.85,10.75,15.58,11.99,6.13,1.95,12.53,2.93,18.97,2.9,7.83,0,15.25-1.42,20.42-4.19,3.55-1.9,5.73-4.29,6.5-7.09,1.97-7.22-6.28-14.71-8.84-16.83ZM8.81,23.05c.7-2.57,3.69-4.71,8.43-6.06,.37,.29,.75,.58,1.17,.87,4.06,2.7,8.82,4.15,13.7,4.2,2.29,.01,4.56-.37,6.71-1.15,1.85-.69,3.59-1.63,5.18-2.79,4.64,1.88,9.45,4.75,9.65,7.42,.21,2.82-3.31,5.45-5.37,6.92l-.19,.13-.3,.21c-6.99,4.88-21.86,9.72-32.01,2.02-.21-.16-.43-.33-.64-.5-3.71-3.09-7.32-7.67-6.34-11.26Z"/></g></g></svg>