<?xml version="1.0" encoding="UTF-8"?><svg id="Laag_2" xmlns="http://www.w3.org/2000/svg" viewBox="0 0 64 64"><defs><style>.cls-1{fill:none;}.cls-2{fill:#ed6a5a;}</style></defs><g id="Laag_1-2"><g><rect class="cls-1" width="64" height="64"/><path class="cls-2" d="M53.84,13.08h-11.11v-4.68c0-4.64-3.76-8.4-8.4-8.4H15.56C10.91,0,7.15,3.76,7.15,8.4V55.6c0,4.64,3.76,8.4,8.4,8.4h18.77c4.64,0,8.4-3.76,8.4-8.4v-22.22h11.11c1.66,0,3.01-1.35,3.01-3.01h0v-14.27c0-1.66-1.35-3.01-3.01-3.01ZM24.94,58.83c-1.44,0-2.61-1.17-2.61-2.61s1.17-2.61,2.61-2.61,2.61,1.17,2.61,2.61-1.17,2.61-2.61,2.61h0Zm14.99-10.51H9.95V9.81h29.98v3.28h-6.92c-1.66,0-3.01,1.35-3.01,3.01v11.67l-2.73,2.37c-.77,.67-.86,1.83-.19,2.61,.35,.41,.87,.65,1.41,.64h11.44v14.95Zm10.28-23.6h-13.64c-.77,0-1.4-.63-1.4-1.4s.63-1.4,1.4-1.4h13.66c.77,0,1.4,.63,1.4,1.4s-.63,1.4-1.4,1.4h-.01Z"/></g></g></svg>