<svg width="64" height="64" viewBox="0 0 64 64" fill="none" xmlns="http://www.w3.org/2000/svg">
<path d="M63 56.5C63 57.05 62.55 57.5 62 57.5H2C1.45 57.5 1 57.05 1 56.5V9.49899C1 8.94899 1.45 8.49899 2 8.49899H62C62.55 8.49899 63 8.94899 63 9.49899V56.5Z" fill="#4D9B8A"/>
<path d="M1 10.5V56.5C1 57.05 1.45 57.5 2 57.5H17V10.5H1Z" fill="#E6E9ED"/>
<path d="M29.02 19.49C30.67 19.49 32.02 20.84 32.02 22.49C32.02 24.15 30.67 25.49 29.02 25.49C27.361 25.49 26.02 24.15 26.02 22.49C26.02 20.84 27.36 19.49 29.02 19.49Z" fill="#FFCE54"/>
<path d="M63 10.5H17H1V8.5C1 7.39 1.89 6.5 3 6.5H61C62.11 6.5 63 7.39 63 8.5V10.5Z" fill="#FFCE54"/>
<path d="M7 20.5C8.1 20.5 9 21.4 9 22.5C9 23.61 8.1 24.5 7 24.5C5.9 24.5 5 23.61 5 22.5C5 21.4 5.9 20.5 7 20.5Z" fill="#4D9B8A"/>
<path d="M4.02799 9.49899C3.47499 9.49899 3.02299 9.05099 3.02299 8.49899C3.02299 7.94699 3.465 7.49899 4.017 7.49899H4.02799C4.57999 7.49899 5.02799 7.94699 5.02799 8.49899C5.02799 9.05099 4.57999 9.49899 4.02799 9.49899Z" fill="#E6E9ED"/>
<path d="M7.028 9.49899C6.475 9.49899 6.02299 9.05099 6.02299 8.49899C6.02299 7.94699 6.465 7.49899 7.017 7.49899H7.028C7.58 7.49899 8.028 7.94699 8.028 8.49899C8.028 9.05099 7.58 9.49899 7.028 9.49899Z" fill="#E6E9ED"/>
<path d="M10.03 9.49899C9.47699 9.49899 9.02499 9.05099 9.02499 8.49899C9.02499 7.94699 9.46699 7.49899 10.019 7.49899H10.03C10.582 7.49899 11.03 7.94699 11.03 8.49899C11.03 9.05099 10.582 9.49899 10.03 9.49899Z" fill="#E6E9ED"/>
<path d="M11.996 33.502H4.998C4.445 33.502 3.998 33.055 3.998 32.502C3.998 31.949 4.445 31.502 4.998 31.502H11.996C12.549 31.502 12.996 31.949 12.996 32.502C12.996 33.055 12.549 33.502 11.996 33.502Z" fill="#FFCE54"/>
<path d="M7.992 36.502H4.998C4.445 36.502 3.998 36.055 3.998 35.502C3.998 34.949 4.445 34.502 4.998 34.502H7.992C8.545 34.502 8.992 34.949 8.992 35.502C8.992 36.055 8.545 36.502 7.992 36.502Z" fill="#FFCE54"/>
<path d="M12.996 39.504H4.998C4.445 39.504 3.998 39.057 3.998 38.504C3.998 37.951 4.445 37.504 4.998 37.504H12.996C13.549 37.504 13.996 37.951 13.996 38.504C13.996 39.057 13.549 39.504 12.996 39.504Z" fill="#FFCE54"/>
<path d="M10.994 42.506H4.998C4.445 42.506 3.998 42.059 3.998 41.506C3.998 40.953 4.445 40.506 4.998 40.506H10.994C11.547 40.506 11.994 40.953 11.994 41.506C11.994 42.059 11.547 42.506 10.994 42.506Z" fill="#FFCE54"/>
<path d="M11.996 45.506H4.998C4.445 45.506 3.998 45.059 3.998 44.506C3.998 43.953 4.445 43.506 4.998 43.506H11.996C12.549 43.506 12.996 43.953 12.996 44.506C12.996 45.059 12.549 45.506 11.996 45.506Z" fill="#FFCE54"/>
<path d="M7.992 48.506H4.998C4.445 48.506 3.998 48.059 3.998 47.506C3.998 46.953 4.445 46.506 4.998 46.506H7.992C8.545 46.506 8.992 46.953 8.992 47.506C8.992 48.059 8.545 48.506 7.992 48.506Z" fill="#FFCE54"/>
<path d="M6.998 25.502C5.344 25.502 3.998 24.156 3.998 22.503C3.998 20.85 5.344 19.504 6.998 19.504C8.652 19.504 9.998 20.85 9.998 22.503C9.998 24.156 8.652 25.502 6.998 25.502ZM6.998 21.504C6.446 21.504 5.998 21.951 5.998 22.503C5.998 23.055 6.446 23.502 6.998 23.502C7.55 23.502 7.998 23.055 7.998 22.503C7.998 21.951 7.55 21.504 6.998 21.504Z" fill="#4D9B8A"/>
<path d="M32.839 42.958C32.767 42.846 32.673 42.746 32.555 42.667C32.553 42.666 32.551 42.666 32.549 42.665C32.441 42.593 32.32 42.544 32.194 42.519C32.129 42.506 32.065 42.518 32 42.518C31.935 42.518 31.871 42.506 31.807 42.519C31.68 42.544 31.559 42.593 31.451 42.665C31.449 42.666 31.447 42.666 31.445 42.667C31.327 42.746 31.233 42.846 31.161 42.958L21.461 57.5H31.658L35.945 51.072C36.111 51.182 36.302 51.247 36.499 51.247C36.689 51.247 36.883 51.192 37.053 51.079C37.513 50.772 37.637 50.151 37.33 49.692L32.839 42.958Z" fill="#545C66"/>
<path d="M29.014 26.496C26.808 26.496 25.014 24.701 25.014 22.496C25.014 20.291 26.808 18.496 29.014 18.496C31.22 18.496 33.014 20.291 33.014 22.496C33.014 24.701 31.22 26.496 29.014 26.496ZM29.014 20.496C27.911 20.496 27.014 21.392 27.014 22.496C27.014 23.6 27.911 24.496 29.014 24.496C30.117 24.496 31.014 23.6 31.014 22.496C31.014 21.392 30.116 20.496 29.014 20.496Z" fill="#FFCE54"/>
<path d="M28.998 17.501C28.445 17.501 27.998 17.053 27.998 16.501V14.501C27.998 13.949 28.445 13.501 28.998 13.501C29.551 13.501 29.998 13.949 29.998 14.501V16.501C29.998 17.053 29.551 17.501 28.998 17.501Z" fill="#FFCE54"/>
<path d="M28.998 31.5C28.445 31.5 27.998 31.053 27.998 30.5V28.5C27.998 27.948 28.445 27.5 28.998 27.5C29.551 27.5 29.998 27.948 29.998 28.5V30.5C29.998 31.053 29.551 31.5 28.998 31.5Z" fill="#FFCE54"/>
<path d="M24.756 19.258C24.5 19.258 24.244 19.16 24.049 18.965L22.635 17.551C22.244 17.16 22.244 16.528 22.635 16.137C23.026 15.746 23.658 15.746 24.049 16.137L25.463 17.551C25.854 17.942 25.854 18.574 25.463 18.965C25.268 19.16 25.012 19.258 24.756 19.258Z" fill="#FFCE54"/>
<path d="M34.654 29.158C34.398 29.158 34.142 29.06 33.947 28.865L32.533 27.45C32.142 27.059 32.142 26.426 32.533 26.036C32.924 25.645 33.556 25.645 33.947 26.036L35.361 27.451C35.752 27.842 35.752 28.474 35.361 28.865C35.166 29.061 34.91 29.158 34.654 29.158Z" fill="#FFCE54"/>
<path d="M22.998 23.5H20.998C20.445 23.5 19.998 23.053 19.998 22.5C19.998 21.948 20.445 21.5 20.998 21.5H22.998C23.551 21.5 23.998 21.948 23.998 22.5C23.998 23.053 23.551 23.5 22.998 23.5Z" fill="#FFCE54"/>
<path d="M36.998 23.502L34.997 23.5C34.445 23.5 33.998 23.053 33.998 22.5C33.998 21.947 34.446 21.5 34.998 21.5C34.998 21.5 34.998 21.5 34.999 21.5L36.999 21.502C37.551 21.502 37.998 21.949 37.998 22.502C37.998 23.055 37.55 23.502 36.998 23.502Z" fill="#FFCE54"/>
<path d="M23.342 29.157C23.086 29.157 22.83 29.059 22.635 28.864C22.244 28.473 22.244 27.841 22.635 27.45L24.049 26.036C24.44 25.645 25.072 25.645 25.463 26.036C25.854 26.427 25.854 27.059 25.463 27.45L24.049 28.864C23.854 29.06 23.598 29.157 23.342 29.157Z" fill="#FFCE54"/>
<path d="M33.24 19.258C32.984 19.258 32.727 19.16 32.532 18.965C32.142 18.573 32.142 17.941 32.534 17.551L33.95 16.137C34.339 15.747 34.973 15.746 35.364 16.138C35.754 16.53 35.754 17.162 35.362 17.552L33.946 18.965C33.752 19.16 33.496 19.258 33.24 19.258Z" fill="#FFCE54"/>
<path d="M62 57.5C62.496 57.5 62.893 57.127 62.969 56.651L47.837 33.958C47.765 33.846 47.671 33.746 47.553 33.667C47.551 33.666 47.55 33.666 47.548 33.665C47.439 33.593 47.317 33.543 47.19 33.518C47.126 33.505 47.061 33.517 46.997 33.517C46.933 33.517 46.868 33.505 46.805 33.518C46.677 33.543 46.555 33.593 46.446 33.666C46.445 33.666 46.444 33.666 46.443 33.667C46.325 33.746 46.231 33.846 46.159 33.958L30.459 57.5H62Z" fill="#656D78"/>
</svg>
