<?xml version="1.0" encoding="UTF-8"?>
<svg preserveAspectRatio="xMidYMid slice" width="34px" height="34px" xmlns="http://www.w3.org/2000/svg" id="Laag_2" viewBox="0 0 64 64">
  <defs>
    <style>.cls-1{fill:#eb5f3a;}</style>
  </defs>
  <g id="Laag_1-2">
    <path class="cls-1" d="m59.46,20.63c-.23-8.79-7.3-15.87-16.1-16.09-6.37-6.05-16.37-6.05-22.74,0-8.79.23-15.86,7.3-16.09,16.09-6.05,6.37-6.05,16.37,0,22.74.23,8.79,7.3,15.87,16.1,16.09,6.37,6.05,16.37,6.05,22.74,0,8.79-.23,15.86-7.3,16.09-16.09,6.05-6.37,6.05-16.37,0-22.74Zm-17.04,36.54c-3.25-.11-6.36-1.33-8.82-3.46l.05-.05.25-.33.14-.18c.07-.08.13-.16.19-.25.07-.09.14-.18.21-.27s.14-.19.2-.29.21-.3.31-.46.21-.33.31-.5v-.02c.09-.16.18-.32.27-.48.23-.42.45-.86.64-1.3.08-.19.16-.38.24-.58,0-.03.01-.06.03-.09.06-.15.12-.31.17-.47.03-.08.06-.16.08-.24.04-.11.07-.21.1-.32s.06-.18.08-.27c.05-.18.1-.35.14-.53s.11-.43.15-.64h0c.03-.14.06-.27.08-.41.06-.3.11-.6.14-.9.38.3.8.59,1.22.85.12.08.25.16.38.23s.29.17.43.25.32.18.48.26.29.15.44.22l.38.18.13.06c.19.08.38.16.58.24s.41.16.62.23.5.16.76.24c.16.05.32.09.48.13.26.07.53.13.8.18.15.03.3.06.46.08s.21.04.32.05l.17.03.41.05.26.03.45.04c-.22,3.24-1.55,6.31-3.78,8.68Zm-20.85,0c-2.23-2.37-3.56-5.45-3.78-8.69l.45-.04.26-.03.41-.05.17-.03c.11,0,.21-.03.32-.05s.3-.05.46-.08c.27-.05.53-.11.8-.18.16-.04.32-.08.48-.13.25-.07.5-.15.76-.24s.42-.15.62-.23.38-.15.58-.24l.13-.06.38-.18c.15-.07.3-.14.44-.22s.32-.17.48-.26.29-.16.43-.25.25-.15.38-.23c.42-.26.83-.54,1.22-.85.04.3.09.6.14.9.02.14.05.27.08.41h0c.05.21.1.43.15.64s.09.35.14.53c.02.09.05.18.08.27s.06.21.1.32.05.16.08.24c.05.15.11.31.17.47,0,.03.01.06.03.09.08.19.16.38.24.58.19.45.41.88.64,1.3.09.16.18.32.27.48v.02c.1.17.2.34.31.5s.2.31.31.46.13.19.2.29.13.18.21.27c.06.09.12.17.19.25l.15.19.26.31.05.05c-2.45,2.14-5.57,3.36-8.82,3.47Zm0-50.34c3.25.11,6.36,1.33,8.82,3.46l-.05.05-.25.33-.14.18c-.07.08-.13.16-.19.25-.07.09-.14.18-.21.27s-.14.19-.2.29c-.11.15-.21.3-.31.46-.1.16-.21.33-.31.5h0c-.09.16-.18.32-.27.48-.23.42-.45.86-.64,1.3-.08.19-.16.38-.24.58,0,.03-.01.06-.03.09-.06.15-.12.31-.17.47-.03.08-.06.16-.08.24-.04.11-.07.21-.1.32s-.06.18-.08.27c-.05.18-.1.35-.14.53s-.11.43-.15.64h0c-.03.14-.06.27-.08.41-.06.3-.11.6-.14.9-.38-.3-.8-.59-1.22-.85-.12-.08-.25-.16-.38-.23s-.29-.17-.43-.25-.32-.18-.48-.26-.3-.11-.45-.19l-.38-.18-.13-.06c-.19-.08-.38-.16-.58-.24s-.43-.16-.63-.21-.5-.16-.76-.24c-.16-.05-.32-.09-.48-.13-.26-.07-.53-.13-.8-.18-.15-.03-.3-.06-.46-.08s-.21-.04-.32-.05l-.17-.03-.41-.05-.26-.03-.45-.04c.22-3.26,1.56-6.33,3.79-8.71Zm20.85,0c2.23,2.37,3.56,5.45,3.78,8.69l-.45.04-.26.03-.41.05-.17.03c-.11,0-.21.03-.32.05s-.3.05-.46.08c-.27.05-.53.11-.8.18-.16.04-.32.08-.48.13-.25.07-.5.15-.76.24s-.42.15-.62.23-.38.15-.58.24l-.13.06-.38.18c-.15.07-.3.14-.44.22s-.32.17-.48.26-.29.16-.43.25-.25.15-.38.23c-.42.26-.83.54-1.22.85-.04-.3-.09-.6-.14-.9-.02-.14-.05-.27-.08-.41h0c-.05-.21-.1-.43-.15-.64s-.09-.37-.13-.53c-.02-.09-.05-.18-.08-.27s-.06-.21-.1-.32-.05-.16-.08-.24c-.05-.15-.11-.31-.17-.47,0-.04-.01-.07-.03-.09-.08-.19-.16-.38-.24-.58-.19-.45-.41-.88-.64-1.3-.09-.16-.18-.32-.27-.48h0c-.1-.17-.2-.34-.31-.5s-.22-.33-.31-.49c-.06-.1-.13-.19-.2-.29s-.13-.18-.21-.27c-.06-.09-.12-.17-.19-.25l-.17-.18-.26-.31-.04-.07c2.45-2.13,5.57-3.35,8.82-3.46Zm-7.41,32.5c-1.93.85-4.13.9-6.1.13-4.12-1.61-6.15-6.25-4.54-10.36.81-2.08,2.46-3.73,4.54-4.54,1.97-.77,4.16-.72,6.1.13,1.88.82,3.37,2.33,4.16,4.21.84,1.99.84,4.24,0,6.22-.8,1.89-2.29,3.39-4.16,4.21Zm18.7-8.93l-.05-.05-.33-.25-.18-.14c-.08-.07-.16-.13-.25-.19-.09-.07-.18-.14-.27-.21s-.19-.14-.29-.2-.3-.21-.46-.31-.33-.21-.5-.31h-.02l-.48-.27c-.42-.23-.86-.45-1.3-.64-.19-.08-.38-.16-.58-.24l-.09-.03c-.15-.06-.31-.12-.47-.17-.08-.03-.16-.06-.24-.08-.11-.04-.21-.07-.32-.1s-.18-.06-.27-.08c-.18-.05-.35-.1-.53-.14s-.43-.11-.64-.15h0c-.14-.03-.27-.06-.41-.08-.3-.06-.6-.11-.9-.14.3-.38.59-.8.85-1.22.08-.12.16-.25.23-.38s.17-.29.25-.43.18-.32.26-.48.15-.29.22-.44.12-.26.18-.38l.06-.13c.08-.19.16-.38.24-.58s.16-.41.23-.62.16-.5.24-.76c.05-.16.09-.32.13-.48s.1-.38.14-.58c.02-.08.03-.16.05-.24s.06-.27.08-.41.05-.26.06-.38c0-.03,0-.06,0-.09.03-.15.05-.3.06-.46,0-.08,0-.15.02-.23,0-.15.03-.31.04-.46,3.25.22,6.32,1.56,8.69,3.78-.11,3.24-1.33,6.35-3.46,8.8ZM15.52,17.79c0,.16.03.31.04.46,0,.08,0,.15.02.23,0,.16.04.31.06.46,0,.03,0,.06,0,.09.02.13.04.26.06.38s.05.27.08.41.03.16.05.24c.04.19.09.38.14.58s.08.32.13.48c.07.25.15.5.24.76s.15.42.23.62.15.38.24.58l.06.13c.06.13.11.26.18.38s.14.3.22.44.17.32.26.48c.09.16.16.29.25.43s.15.25.23.38c.26.42.54.83.85,1.22-.3.04-.6.09-.9.14-.14.02-.27.05-.41.08h0c-.21.05-.43.1-.64.15s-.35.09-.53.14c-.09.02-.18.05-.27.08s-.21.06-.32.1-.16.05-.24.08c-.15.05-.31.11-.47.17l-.09.03c-.19.08-.38.16-.58.24-.45.19-.88.41-1.3.64l-.48.27h0c-.17.1-.34.2-.5.31s-.31.2-.46.31c-.1.06-.19.13-.29.2s-.18.13-.27.21c-.09.06-.17.12-.25.19l-.2.16-.31.26-.05.05c-2.13-2.45-3.36-5.57-3.47-8.82,2.37-2.23,5.44-3.57,8.69-3.79Zm-5.24,15.81l.05.05.33.25.18.14c.08.07.16.13.25.19.09.07.18.14.27.21s.19.14.29.2c.15.11.3.21.46.31.16.1.33.21.5.31h0l.48.27c.42.23.86.45,1.3.64.19.08.38.16.58.24l.09.03c.15.06.31.12.47.17.08.03.16.06.24.08.11.04.21.07.32.1s.18.06.27.08c.18.05.35.1.53.14s.43.11.64.15h0c.14.03.27.06.41.08.3.06.6.11.9.14-.3.38-.59.8-.85,1.22-.08.12-.16.25-.23.38s-.17.29-.25.43-.18.32-.26.48-.15.29-.22.44-.12.26-.18.38l-.06.13c-.08.19-.16.38-.24.58s-.16.41-.23.62-.16.5-.24.76c-.05.16-.09.32-.13.48s-.1.38-.14.58c0,.08-.03.16-.05.24s-.06.27-.08.41-.05.26-.06.38c0,.03,0,.06,0,.09-.03.15-.05.3-.06.46,0,.08-.02.15-.02.23,0,.15-.03.31-.04.46-3.25-.22-6.32-1.56-8.69-3.78.12-3.24,1.34-6.35,3.47-8.8Zm38.17,12.6c0-.16-.03-.31-.04-.46,0-.08,0-.15-.02-.23,0-.16-.04-.31-.06-.46,0-.03,0-.06,0-.09,0-.13-.04-.26-.06-.38s-.05-.27-.08-.41-.03-.16-.05-.24c-.04-.19-.09-.38-.14-.58s-.08-.32-.13-.48c-.07-.25-.15-.5-.24-.76s-.15-.42-.23-.62-.15-.38-.24-.58l-.06-.13c-.06-.13-.11-.26-.18-.38s-.14-.3-.22-.44-.17-.32-.26-.48-.16-.29-.25-.43-.15-.25-.23-.38c-.26-.42-.54-.83-.85-1.22.3-.04.6-.09.9-.14.14-.02.27-.05.41-.08h0c.21-.05.43-.1.64-.15s.35-.09.53-.14c.09-.02.18-.05.27-.08s.21-.06.32-.1.16-.05.24-.08c.15-.05.31-.11.47-.17l.09-.03c.19-.08.38-.16.58-.24.45-.19.88-.41,1.3-.64l.48-.27h.02c.17-.1.34-.2.5-.31s.31-.2.46-.31.19-.13.29-.2.18-.13.27-.21c.09-.06.17-.12.25-.19l.2-.16.31-.26.05-.05c1.11,1.28,1.98,2.74,2.58,4.32.54,1.44.84,2.96.9,4.49-2.37,2.23-5.44,3.57-8.69,3.79h-.02Z"></path>
  </g>
</svg>
