<?xml version="1.0" encoding="UTF-8"?>
<svg preserveAspectRatio="xMidYMid slice" width="34px" height="34px" xmlns="http://www.w3.org/2000/svg" id="Laag_2" viewBox="0 0 64 64">
  <defs>
    <style>.cls-1{fill:none;}.cls-2{fill:#eb5f3a;}</style>
  </defs>
  <g id="Laag_1-2">
    <g>
      <rect class="cls-1" y="0" width="64" height="64"></rect>
      <path class="cls-2" d="m57.5,21.11c-.47-.91-1.03-1.76-1.69-2.54-1.23-1.56-2.87-2.75-4.74-3.43-.71-.23-1.45-.37-2.2-.42,1.13-.91,2.08-2.02,2.79-3.28,2.58-4.67.87-10.4.8-10.65-.18-.58-.79-.91-1.37-.75-1.19.35-2.34.83-3.43,1.44-1.8.99-3.89,2.55-5.18,4.89-2.59,4.64-.87,10.38-.8,10.62.02.06.04.11.07.17h0c0,.15.04.31.11.44.09.19,2.26,4.6,6.43,5.97.93.3,1.9.45,2.87.44,2.03-.04,4.02-.53,5.84-1.43.53-.28.75-.93.49-1.48Zm-8.5.35c-2.16-.71-3.69-2.59-4.48-3.77,1.18-.44,2.43-.68,3.69-.7.73,0,1.46.1,2.16.32,2.16.71,3.7,2.59,4.49,3.77-1.34.47-3.66,1.07-5.85.38ZM39.46,1.98c.22.26.31.59.25.92l-.07.38c-.97,5.6-.95,11.33.06,16.92.06.33-.03.67-.24.93-.22.26-.53.41-.87.41h-13.38c-.62.01-1.14-.49-1.15-1.11,0-.07,0-.15.02-.22,1.02-5.59,1.04-11.32.06-16.92l-.06-.38c-.06-.33.03-.67.25-.92.22-.26.54-.41.88-.4h13.38c.33,0,.65.15.87.4Zm0,21.23c.21.25.31.59.25.92l-.07.38c-.97,5.6-.95,11.33.06,16.92.11.61-.3,1.2-.91,1.31-.07.01-.14.02-.22.02h-13.36c-.62,0-1.14-.49-1.15-1.11,0-.07,0-.15.02-.22,1.02-5.59,1.04-11.32.06-16.92l-.06-.38c-.11-.61.31-1.2.92-1.31.07-.01.14-.02.21-.02h13.38c.33,0,.65.15.87.41Zm.18,22.53c-.97,5.6-.95,11.33.06,16.92.11.61-.29,1.2-.91,1.31-.07.01-.15.02-.22.02h-13.36c-.62.01-1.14-.49-1.15-1.11,0-.07,0-.15.02-.22,1.02-5.59,1.04-11.32.06-16.92l-.06-.38c-.11-.61.3-1.2.91-1.31.07-.01.14-.02.22-.02h13.38c.62,0,1.14.49,1.15,1.11,0,.07,0,.14-.02.21l-.08.38ZM12.91,22.14c-.58-.16-1.19.18-1.37.75-.08.24-1.78,5.99.8,10.65.71,1.26,1.66,2.37,2.79,3.28-.75.06-1.49.2-2.2.44-4.16,1.35-6.33,5.76-6.42,5.95-.27.55-.06,1.22.49,1.51,1.82.89,3.82,1.38,5.85,1.42.97,0,1.94-.14,2.87-.44,4.16-1.39,6.34-5.81,6.43-5.98.07-.14.1-.29.11-.44h0c.03-.05.05-.11.07-.17.41-1.5.62-3.05.62-4.6.04-2.1-.45-4.17-1.42-6.02-2.58-4.68-8.34-6.28-8.61-6.34h0Zm2.1,21.4c-2.16.71-4.52.11-5.85-.38.79-1.19,2.32-3.06,4.49-3.77s4.52-.11,5.85.38c-.79,1.17-2.33,3.05-4.49,3.77h0Z"></path>
    </g>
  </g>
</svg>
